<svg width="60" height="60" viewBox="0 0 60 60" fill="none" xmlns="http://www.w3.org/2000/svg">
<path d="M59.1212 30.8037H57.7959L52.3242 18.1704C52.8698 17.6862 53.2146 16.9803 53.2146 16.1951C53.2146 14.7385 52.0296 13.5536 50.5731 13.5536C49.8276 13.5536 49.1537 13.8645 48.6729 14.3629C44.4333 12.4329 39.9507 11.1762 35.3269 10.6214C35.0364 8.85717 33.9206 7.36842 32.39 6.56498V4.84126C32.39 3.62005 31.3964 2.62665 30.1754 2.62665H29.4067C28.1855 2.62665 27.1921 3.62028 27.1921 4.84126V6.56498C25.6556 7.37158 24.5368 8.86877 24.2516 10.6421C19.7519 11.1995 15.3845 12.4233 11.2491 14.2851C10.7747 13.8324 10.1331 13.5536 9.42717 13.5536C7.97052 13.5536 6.78564 14.7386 6.78564 16.1951C6.78564 16.9803 7.1304 17.6862 7.67603 18.1704L2.20418 30.8037H0.878908C0.393399 30.8037 0 31.1971 0 31.6826V32.829C0 36.5087 2.99379 39.5023 6.67337 39.5023H12.1806C15.8603 39.5023 18.854 36.5086 18.854 32.829V31.6826C18.854 31.1971 18.4606 30.8037 17.9751 30.8037H16.6498L11.1782 18.1704C11.4905 17.8933 11.7366 17.5435 11.8902 17.1475H26.2682V44.2353H25.7317C22.298 44.2353 19.0584 46.8834 19.0584 51.2018C17.9512 51.3596 17.0963 52.3114 17.0963 53.4615V55.088C17.0963 56.3481 18.1216 57.3732 19.3816 57.3732H27.7401C28.2256 57.3732 28.619 56.9798 28.619 56.4943C28.619 56.0088 28.2256 55.6154 27.7401 55.6154H19.3816C19.0957 55.6154 18.8542 55.3739 18.8542 55.0881V53.4616C18.8542 53.1758 19.0957 52.9343 19.3816 52.9343C19.6628 52.9343 39.9132 52.9343 40.2007 52.9343C40.4865 52.9343 40.728 53.1758 40.728 53.4616V55.0881C40.728 55.3739 40.4865 55.6154 40.2007 55.6154H31.8421C31.3566 55.6154 30.9632 56.0088 30.9632 56.4943C30.9632 56.9798 31.3566 57.3732 31.8421 57.3732H40.2007C41.4608 57.3732 42.4859 56.3481 42.4859 55.088V53.4615C42.4859 52.3114 41.6311 51.3596 40.5239 51.2018C40.5239 46.9214 37.317 44.2353 33.8505 44.2353H33.314V33.7335C33.314 33.248 32.9206 32.8546 32.4351 32.8546C31.9496 32.8546 31.5562 33.248 31.5562 33.7335V44.2353H28.0266V16.8673C29.1732 17.2505 30.4096 17.2505 31.5562 16.8673V29.6319C31.5562 30.1174 31.9496 30.5109 32.4351 30.5109C32.9206 30.5109 33.314 30.1175 33.314 29.6319V17.1476H48.1101C48.2638 17.5435 48.5099 17.8933 48.8222 18.1705L43.3504 30.8039H42.0249C41.5394 30.8039 41.146 31.1973 41.146 31.6828V32.8291C41.146 36.5088 44.1398 39.5025 47.8194 39.5025H53.3266C57.0063 39.5025 60 36.5087 60 32.8291V31.6828C60.0001 31.1971 59.6066 30.8037 59.1212 30.8037ZM9.42705 15.3115C9.91596 15.3115 10.3292 15.7157 10.3078 16.232C10.3076 16.2382 10.3082 16.2443 10.308 16.2504C10.2783 16.7257 9.87963 17.0785 9.42717 17.0785C8.94881 17.0785 8.54357 16.6896 8.54357 16.195C8.54334 15.708 8.9399 15.3115 9.42705 15.3115ZM17.0963 32.5617C17.0963 35.8224 14.6933 37.7445 12.1807 37.7445H6.67337C4.15325 37.7445 1.75782 35.8177 1.75782 32.5617C2.2745 32.5617 16.6049 32.5617 17.0963 32.5617ZM14.7342 30.8037H4.11985L9.30435 18.8336C9.38557 18.838 9.47814 18.8375 9.54974 18.8336L14.7342 30.8037ZM13.1168 15.3897C16.6813 13.906 20.4141 12.9074 24.2485 12.4126C24.4209 13.5067 24.9158 14.55 25.7105 15.3897H13.1168ZM28.9499 4.84126C28.9499 4.58943 29.1548 4.38458 29.4066 4.38458H30.1753C30.4271 4.38458 30.6319 4.58943 30.6319 4.84126V5.98747C30.3704 5.94787 30.0534 5.92455 29.7909 5.92455C29.5338 5.92455 29.2167 5.94716 28.9499 5.98747V4.84126ZM33.8504 45.9934C36.3706 45.9934 38.7658 47.9202 38.7658 51.1764H20.8163C20.8163 47.9156 23.2192 45.9934 25.7317 45.9934C26.5477 45.9934 33.0349 45.9934 33.8504 45.9934ZM29.791 15.3898C27.6397 15.3898 25.8924 13.618 25.9399 11.4508C25.9399 11.4487 25.9396 11.4467 25.9396 11.4446C25.9783 9.80299 27.0496 8.40822 28.5297 7.89553C31.0448 7.0206 33.6447 8.91811 33.6447 11.5361C33.6447 13.6641 31.9144 15.3898 29.791 15.3898ZM33.8707 15.3897C34.6667 14.5475 35.1694 13.486 35.3375 12.3918C39.2301 12.8789 43.0177 13.8844 46.6334 15.3897H33.8707ZM49.6923 16.2323C49.6713 15.7212 50.0796 15.3115 50.573 15.3115C51.0601 15.3115 51.4565 15.708 51.4565 16.1951C51.4565 16.6895 51.0511 17.0786 50.573 17.0786C50.116 17.0786 49.7217 16.7225 49.6922 16.2505C49.6921 16.2444 49.6926 16.2384 49.6923 16.2323ZM50.4503 18.8336C50.4505 18.8336 50.4507 18.8336 50.4511 18.8336C50.5302 18.8372 50.6093 18.8383 50.6956 18.8336L55.8801 30.8037H45.2658L50.4503 18.8336ZM53.3266 37.7444H47.8194C45.2992 37.7444 42.904 35.8176 42.904 32.5614C43.4205 32.5614 57.7509 32.5614 58.2423 32.5614C58.2422 35.8224 55.8393 37.7444 53.3266 37.7444Z" fill="url(#paint0_linear_123_1136)"/>
<path d="M29.7909 8.93707C28.3577 8.93707 27.1919 10.103 27.1919 11.5359C27.1919 12.9692 28.3579 14.1349 29.7909 14.1349C31.2241 14.1349 32.3899 12.969 32.3899 11.5359C32.39 10.1029 31.2241 8.93707 29.7909 8.93707ZM29.7909 12.3771C29.3272 12.3771 28.9498 11.9998 28.9498 11.5361C28.9498 11.0724 29.3272 10.6951 29.7909 10.6951C30.2546 10.6951 30.6319 11.0724 30.6319 11.5361C30.6321 11.9998 30.2547 12.3771 29.7909 12.3771Z" fill="url(#paint1_linear_123_1136)"/>
<defs>
<linearGradient id="paint0_linear_123_1136" x1="30" y1="2.62665" x2="30" y2="57.3732" gradientUnits="userSpaceOnUse">
<stop stop-color="#00A5C2"/>
<stop offset="1" stop-color="#00B2D0"/>
</linearGradient>
<linearGradient id="paint1_linear_123_1136" x1="29.7909" y1="8.93707" x2="29.7909" y2="14.1349" gradientUnits="userSpaceOnUse">
<stop stop-color="#00A5C2"/>
<stop offset="1" stop-color="#00B2D0"/>
</linearGradient>
</defs>
</svg>
