<svg width="60" height="60" viewBox="0 0 60 60" fill="none" xmlns="http://www.w3.org/2000/svg">
<path d="M4.23867 37.9269H4.78844C4.99189 37.9269 5.18701 37.8461 5.33088 37.7023C5.47474 37.5584 5.55556 37.3633 5.55556 37.1598C5.55556 36.9564 5.47474 36.7612 5.33088 36.6174C5.18701 36.4735 4.99189 36.3927 4.78844 36.3927H4.23867C4.03521 36.3927 3.84009 36.4735 3.69623 36.6174C3.55236 36.7612 3.47154 36.9564 3.47154 37.1598C3.47154 37.3633 3.55236 37.5584 3.69623 37.7023C3.84009 37.8461 4.03521 37.9269 4.23867 37.9269Z" fill="url(#paint0_linear_123_1158)"/>
<path d="M7.2171 37.9269H18.4682C18.6717 37.9269 18.8668 37.8461 19.0107 37.7023C19.1545 37.5584 19.2354 37.3633 19.2354 37.1598C19.2354 36.9564 19.1545 36.7612 19.0107 36.6174C18.8668 36.4735 18.6717 36.3927 18.4682 36.3927H7.2171C7.01364 36.3927 6.81852 36.4735 6.67466 36.6174C6.53079 36.7612 6.44997 36.9564 6.44997 37.1598C6.44997 37.3633 6.53079 37.5584 6.67466 37.7023C6.81852 37.8461 7.01364 37.9269 7.2171 37.9269Z" fill="url(#paint1_linear_123_1158)"/>
<path d="M58.5571 32.5571H56.895V23.8726C56.8944 22.7945 56.6803 21.7272 56.2652 20.7322C55.85 19.7372 55.242 18.8343 54.4761 18.0755C54.3201 17.9195 54.1377 17.768 53.9696 17.6249C53.3215 17.0728 52.8014 16.3861 52.4455 15.6127C52.0896 14.8392 51.9064 13.9976 51.9087 13.1462V2.81827C51.9086 2.6086 51.8282 2.40693 51.684 2.25474C51.5398 2.10254 51.3427 2.01138 51.1334 2H46.1794C45.9684 2.01067 45.7692 2.10111 45.6223 2.25302C45.4754 2.40493 45.3917 2.60697 45.3881 2.81827V13.2384C45.3783 14.0785 45.1864 14.9064 44.8256 15.6651C44.4647 16.4239 43.9436 17.0953 43.2981 17.6331C42.3925 18.4015 41.6645 19.3573 41.1644 20.4346C40.6644 21.5119 40.4042 22.6849 40.4018 23.8726V32.5571H37.8448V23.8726C37.8489 22.7961 37.6396 21.7295 37.2289 20.7344C36.8181 19.7393 36.2141 18.8356 35.4518 18.0755C35.2959 17.9195 35.1116 17.768 34.9435 17.6249C34.2922 17.074 33.7684 16.3882 33.4084 15.6149C33.0484 14.8415 32.8607 13.9992 32.8585 13.1462V2.81827C32.8585 2.39469 32.5627 2 32.139 2H27.1852C26.7615 2 26.4658 2.39494 26.4658 2.81827V13.2384C26.4559 14.0785 26.264 14.9064 25.9032 15.6651C25.5423 16.4239 25.0212 17.0953 24.3757 17.6331C23.4701 18.4015 22.7421 19.3573 22.242 20.4346C21.742 21.5119 21.4818 22.6849 21.4795 23.8726V32.5571H18.9224V23.8726C18.9199 22.7938 18.704 21.7262 18.2871 20.7313C17.8701 19.7363 17.2605 18.8337 16.4932 18.0755C16.337 17.9195 16.1707 17.7678 16.0027 17.6249C15.3539 17.073 14.833 16.3866 14.4761 15.6131C14.1192 14.8397 13.935 13.9979 13.9361 13.1462V2.81827C13.9325 2.60697 13.8488 2.40493 13.7019 2.25302C13.555 2.10111 13.3558 2.01067 13.1448 2H8.19083C7.98148 2.01138 7.78444 2.10254 7.64023 2.25474C7.49602 2.40693 7.41561 2.6086 7.41553 2.81827V13.2384C7.40572 14.0785 7.21378 14.9064 6.85295 15.6651C6.49211 16.4239 5.97098 17.0953 5.3255 17.6331C4.41987 18.4015 3.69187 19.3573 3.19181 20.4346C2.69176 21.5119 2.43157 22.6849 2.42922 23.8726V32.5571H0.767123C0.56367 32.5571 0.368549 32.6379 0.224685 32.7818C0.0808216 32.9256 0 33.1207 0 33.3242V57.2329C0 57.4363 0.0808216 57.6315 0.224685 57.7753C0.368549 57.9192 0.56367 58 0.767123 58H58.5571C58.7605 58 58.9557 57.9192 59.0995 57.7753C59.2434 57.6315 59.3242 57.4363 59.3242 57.2329V33.3242C59.3242 33.1207 59.2434 32.9256 59.0995 32.7818C58.9557 32.6379 58.7605 32.5571 58.5571 32.5571ZM46.9224 3.53425H50.3744V6.34703H46.9224V3.53425ZM41.9361 23.8726C41.9385 22.9068 42.1506 21.9531 42.5576 21.0773C42.9646 20.2015 43.5569 19.4245 44.2936 18.8C45.1081 18.1184 45.765 17.2681 46.2188 16.3079C46.6727 15.3477 46.9127 14.3004 46.9224 13.2384V7.88128H50.3744V13.1462C50.3721 14.2199 50.6035 15.2812 51.0527 16.2564C51.5019 17.2317 52.158 18.0974 52.9755 18.7935C53.1123 18.91 53.2642 19.0333 53.3909 19.16C54.014 19.7767 54.5088 20.5106 54.8469 21.3194C55.185 22.1282 55.3596 22.996 55.3607 23.8726V25.1416H48.6563C48.2328 25.1416 47.9452 25.5407 47.9452 25.9643V32.5571H41.9361V23.8726ZM55.3607 26.6758V32.5571H49.4795V26.6758H55.3607ZM28 3.53425H31.3242V6.34703H28V3.53425ZM23.0137 23.8726C23.0162 22.9068 23.2282 21.9531 23.6352 21.0773C24.0423 20.2015 24.6346 19.4245 25.3712 18.8C26.1857 18.1184 26.8426 17.2681 27.2965 16.3079C27.7503 15.3477 27.9904 14.3004 28 13.2384V7.88128H31.3242V13.1462C31.3271 14.2217 31.5637 15.2838 32.0176 16.2589C32.4715 17.234 33.1319 18.0988 33.9531 18.7935C34.0899 18.91 34.228 19.0333 34.3547 19.16C34.9759 19.7774 35.4685 20.5117 35.8042 21.3206C36.1399 22.1295 36.312 22.9968 36.3105 23.8726V25.1416H29.6621C29.4586 25.1416 29.2635 25.2224 29.1197 25.3662C28.9758 25.5101 28.895 25.7052 28.895 25.9087V27.0594C28.895 27.2628 28.9758 27.4579 29.1197 27.6018C29.2635 27.7457 29.4586 27.8265 29.6621 27.8265C29.8656 27.8265 30.0607 27.7457 30.2045 27.6018C30.3484 27.4579 30.4292 27.2628 30.4292 27.0594V26.6758H36.3105V32.5571H30.4292V31.4064C30.4292 31.2029 30.3484 31.0078 30.2045 30.864C30.0607 30.7201 29.8656 30.6393 29.6621 30.6393C29.4586 30.6393 29.2635 30.7201 29.1197 30.864C28.9758 31.0078 28.895 31.2029 28.895 31.4064V32.5571H23.0137V23.8726ZM8.94977 3.53425H12.4018V6.34703H8.94977V3.53425ZM3.96347 23.8726C3.96592 22.9068 4.17799 21.9531 4.58501 21.0773C4.99204 20.2015 5.58433 19.4245 6.32097 18.8C7.13549 18.1184 7.79237 17.2681 8.24623 16.3079C8.7001 15.3477 8.94014 14.3004 8.94977 13.2384V7.88128H12.4018V13.1462C12.398 14.2193 12.6279 15.2805 13.0757 16.2558C13.5235 17.231 14.1784 18.0971 14.9948 18.7936C15.1316 18.9098 15.2876 19.0332 15.4143 19.16C16.0379 19.7765 16.5334 20.5103 16.8722 21.3191C17.2109 22.1279 17.3863 22.9957 17.3881 23.8726V25.1416H10.6679C10.453 25.1519 10.2497 25.2419 10.0975 25.394C9.94533 25.5461 9.85524 25.7494 9.84475 25.9643V32.5571H3.96347V23.8726ZM17.3881 26.6758V32.5571H11.379V26.6758H17.3881ZM57.79 56.4658H1.53425V50.3288H57.79V56.4658ZM57.79 40.9954H12.274C12.0705 40.9954 11.8754 41.0763 11.7315 41.2201C11.5877 41.364 11.5069 41.5591 11.5069 41.7626C11.5069 41.966 11.5877 42.1611 11.7315 42.305C11.8754 42.4489 12.0705 42.5297 12.274 42.5297H57.79V48.7945H1.53425V42.5297H7.92694C8.13039 42.5297 8.32552 42.4489 8.46938 42.305C8.61324 42.1611 8.69406 41.966 8.69406 41.7626C8.69406 41.5591 8.61324 41.364 8.46938 41.2201C8.32552 41.0763 8.13039 40.9954 7.92694 40.9954H1.53425V34.0913H57.79V40.9954Z" fill="url(#paint2_linear_123_1158)"/>
<defs>
<linearGradient id="paint0_linear_123_1158" x1="29.6621" y1="2" x2="29.6621" y2="58" gradientUnits="userSpaceOnUse">
<stop stop-color="#00A5C2"/>
<stop offset="1" stop-color="#00B2D0"/>
</linearGradient>
<linearGradient id="paint1_linear_123_1158" x1="29.6621" y1="2" x2="29.6621" y2="58" gradientUnits="userSpaceOnUse">
<stop stop-color="#00A5C2"/>
<stop offset="1" stop-color="#00B2D0"/>
</linearGradient>
<linearGradient id="paint2_linear_123_1158" x1="29.6621" y1="2" x2="29.6621" y2="58" gradientUnits="userSpaceOnUse">
<stop stop-color="#00A5C2"/>
<stop offset="1" stop-color="#00B2D0"/>
</linearGradient>
</defs>
</svg>
