<svg width="60" height="60" viewBox="0 0 60 60" fill="none" xmlns="http://www.w3.org/2000/svg">
<g clip-path="url(#clip0_123_1115)">
<path d="M30.3249 21.2703H7.82679C7.3414 21.2703 6.948 21.6638 6.948 22.1491C6.948 22.6344 7.3414 23.0278 7.82679 23.0278H30.325C30.8104 23.0278 31.2038 22.6343 31.2038 22.1491C31.2038 21.6638 30.8104 21.2703 30.3249 21.2703Z" fill="url(#paint0_linear_123_1115)"/>
<path d="M30.3249 27.4455H7.82679C7.3414 27.4455 6.948 27.839 6.948 28.3243C6.948 28.8096 7.3414 29.2031 7.82679 29.2031H30.325C30.8104 29.2031 31.2038 28.8096 31.2038 28.3243C31.2038 27.839 30.8104 27.4455 30.3249 27.4455Z" fill="url(#paint1_linear_123_1115)"/>
<path d="M30.3249 33.6208H7.82679C7.3414 33.6208 6.948 34.0143 6.948 34.4996C6.948 34.9848 7.3414 35.3784 7.82679 35.3784H30.325C30.8104 35.3784 31.2038 34.9848 31.2038 34.4996C31.2038 34.0143 30.8104 33.6208 30.3249 33.6208Z" fill="url(#paint2_linear_123_1115)"/>
<path d="M31.2038 40.6749C31.2038 40.1895 30.8104 39.7961 30.325 39.7961H7.82679C7.3414 39.7961 6.948 40.1897 6.948 40.6749C6.948 41.1602 7.3414 41.5537 7.82679 41.5537H30.325C30.8104 41.5537 31.2038 41.1603 31.2038 40.6749Z" fill="url(#paint3_linear_123_1115)"/>
<path d="M7.82679 48.8462C7.3414 48.8462 6.948 49.2397 6.948 49.725C6.948 50.2103 7.3414 50.6038 7.82679 50.6038H19.1047C19.5901 50.6038 19.9835 50.2103 19.9835 49.725C19.9835 49.2397 19.5901 48.8462 19.1047 48.8462H7.82679Z" fill="url(#paint4_linear_123_1115)"/>
<path d="M40.4524 10.8812V8.02954C40.4524 6.94321 39.5687 6.05939 38.4823 6.05939H20.4393C19.3529 6.05939 18.4692 6.94321 18.4692 8.02954V10.8812C18.4692 11.9675 19.3529 12.8512 20.4393 12.8512H21.9629C22.4483 12.8512 22.8417 12.4577 22.8417 11.9724C22.8417 11.487 22.4483 11.0936 21.9629 11.0936H20.4393C20.3222 11.0936 20.2269 10.9984 20.2269 10.8813V8.02954C20.2269 7.91247 20.3222 7.81708 20.4393 7.81708H38.4823C38.5995 7.81708 38.6947 7.91236 38.6947 8.02954V10.8812C38.6947 10.9983 38.5995 11.0935 38.4823 11.0935H26.0715C25.5862 11.0935 25.1928 11.487 25.1928 11.9723C25.1928 12.4577 25.5862 12.8511 26.0715 12.8511H38.4824C39.5687 12.8513 40.4524 11.9675 40.4524 10.8812Z" fill="url(#paint5_linear_123_1115)"/>
<path d="M47.0236 53.5894C46.5382 53.5894 46.1448 53.9829 46.1448 54.4682V55.6516C46.1448 57.08 44.9826 58.2423 43.554 58.2423H4.67563C3.24724 58.2423 2.08497 57.0802 2.08497 55.6516V13.4095C2.08497 13.2193 2.10724 13.0328 2.14696 12.8512H10.1489C11.8195 12.8512 13.1786 11.4921 13.1786 9.82148V1.81969C13.3602 1.77996 13.5466 1.7577 13.7368 1.7577H43.5539C44.9824 1.7577 46.1447 2.91984 46.1447 4.34836V16.0486C46.1447 16.534 46.5381 16.9274 47.0234 16.9274C47.5088 16.9274 47.9022 16.5339 47.9022 16.0486V4.34824C47.9024 1.9507 45.9517 0 43.554 0H13.7369C12.5755 0 11.4834 0.452344 10.6622 1.27359L1.60087 10.3349C0.779619 11.1561 0.327393 12.2481 0.327393 13.4096V55.6518C0.327393 58.0494 2.27798 60 4.67563 60H43.554C45.9517 60 47.9024 58.0493 47.9024 55.6518V54.4683C47.9024 53.9829 47.509 53.5894 47.0236 53.5894ZM11.4211 3.00047V9.82148C11.4211 10.523 10.8504 11.0937 10.1489 11.0937H3.32786L11.4211 3.00047Z" fill="url(#paint6_linear_123_1115)"/>
<path d="M59.0602 31.4061C59.6771 30.5006 59.8367 29.3837 59.4982 28.3417C59.1596 27.2996 58.3739 26.4899 57.3426 26.12C56.6585 25.8746 56.202 25.2465 56.1802 24.5199C56.1471 23.4248 55.6196 22.4273 54.7331 21.7833C53.8468 21.1393 52.7349 20.9461 51.6835 21.2529C50.9853 21.4565 50.2474 21.2165 49.8025 20.6417C49.1321 19.7751 48.1191 19.2781 47.0234 19.2781C45.9278 19.2781 44.9148 19.7751 44.2442 20.6417C43.7994 21.2167 43.061 21.4563 42.3634 21.2529C41.3118 20.9458 40.2001 21.1393 39.3136 21.7833C38.4271 22.4273 37.8999 23.4247 37.8666 24.5198C37.8447 25.2464 37.3884 25.8744 36.7041 26.1199C35.6729 26.4897 34.8872 27.2996 34.5487 28.3415C34.2102 29.3836 34.3698 30.5006 34.9866 31.406C35.3959 32.0068 35.3959 32.7831 34.9866 33.3838C34.3698 34.2893 34.2102 35.4062 34.5487 36.4482C34.8872 37.4902 35.6729 38.3 36.7041 38.67C37.3884 38.9155 37.8448 39.5435 37.8666 40.2701C37.8972 41.2774 38.3588 42.2239 39.1334 42.8667C39.6445 43.2909 40.2584 43.5563 40.901 43.6451V51.6464C40.901 52.3215 41.2672 52.9455 41.8565 53.2747C42.4452 53.6036 43.1688 53.589 43.7441 53.2347L46.9673 51.2505C47.0198 51.2181 47.0511 51.2327 47.08 51.2505L50.303 53.2347C50.8781 53.5886 51.6015 53.6039 52.1907 53.2746C52.7801 52.9453 53.1462 52.3213 53.1462 51.6463V43.6448C53.7885 43.5562 54.4025 43.2908 54.9135 42.8667C55.6883 42.2239 56.15 41.2775 56.1806 40.2699C56.2024 39.5434 56.6588 38.9152 57.343 38.6699C58.3743 38.3 59.1601 37.4901 59.4985 36.4481C59.8371 35.4061 59.6774 34.2892 59.0606 33.3836C58.6509 32.7832 58.6509 32.0069 59.0602 31.4061ZM51.2243 51.738L48.0011 49.7538C47.4019 49.385 46.6454 49.3844 46.0456 49.7538L42.8225 51.7379C42.7491 51.7826 42.6586 51.7311 42.6586 51.6463V43.4782C43.2628 43.4082 43.8618 43.6541 44.2442 44.1483C44.9149 45.0147 45.9278 45.5117 47.0236 45.5117C48.1191 45.5117 49.1321 45.0147 49.8025 44.1483C50.185 43.654 50.7842 43.4082 51.3883 43.4782V51.6463C51.3883 51.7317 51.2966 51.7827 51.2243 51.738ZM57.6077 34.3736C57.9161 34.8262 57.9958 35.3844 57.8266 35.9052C57.6574 36.4259 57.2647 36.8307 56.7492 37.0156C55.3802 37.5067 54.4673 38.7633 54.4234 40.217C54.4078 40.728 54.1831 41.1887 53.7909 41.5142C53.3499 41.8802 52.7527 42.0183 52.1759 41.85C50.7799 41.4426 49.3025 41.9226 48.4123 43.0727C48.0773 43.5057 47.5709 43.7542 47.0233 43.7542C46.4758 43.7542 45.9694 43.5058 45.6342 43.0727C44.9546 42.1943 43.9326 41.7068 42.8659 41.7068C42.5356 41.7068 42.2009 41.7535 41.8709 41.8499C41.2885 42.0195 40.6931 41.8773 40.2556 41.5141C39.8634 41.1886 39.6388 40.7279 39.6234 40.217C39.5793 38.7633 38.6664 37.5067 37.2973 37.0155C36.782 36.8306 36.3894 36.4259 36.22 35.9052C36.0508 35.3844 36.1305 34.8261 36.4389 34.3735C37.2577 33.1715 37.2577 31.6184 36.4389 30.4165C36.1305 29.9639 36.0508 29.4056 36.22 28.8847C36.3893 28.3639 36.782 27.9592 37.2973 27.7743C38.6664 27.2832 39.5793 26.0266 39.6234 24.5729C39.6399 24.0255 39.9034 23.527 40.3464 23.2052C40.7893 22.8833 41.3448 22.7867 41.8708 22.94C43.2665 23.3475 44.7443 22.8674 45.6342 21.7173C45.9693 21.2842 46.4756 21.0357 47.0233 21.0357C47.5709 21.0357 48.0772 21.284 48.4123 21.7172C49.3024 22.8674 50.7794 23.3474 52.1758 22.94C52.7015 22.7865 53.257 22.8832 53.7001 23.2051C54.1432 23.5269 54.4068 24.0255 54.4232 24.5728C54.4673 26.0265 55.3802 27.2832 56.7492 27.7742C57.2647 27.959 57.6573 28.3638 57.8266 28.8846C57.9958 29.4054 57.9161 29.9638 57.6077 30.4162C56.7887 31.6183 56.7887 33.1717 57.6077 34.3736Z" fill="url(#paint7_linear_123_1115)"/>
<path d="M47.0234 25.0292C42.9619 25.0292 39.6577 28.3335 39.6577 32.3949C39.6577 36.4564 42.9619 39.7606 47.0234 39.7606C51.0848 39.7606 54.389 36.4564 54.389 32.3949C54.389 28.3335 51.0848 25.0292 47.0234 25.0292ZM47.0234 38.003C43.9311 38.003 41.4153 35.4873 41.4153 32.395C41.4153 29.3028 43.9311 26.7869 47.0234 26.7869C50.1158 26.7869 52.6314 29.3027 52.6314 32.395C52.6314 35.4874 50.1156 38.003 47.0234 38.003Z" fill="url(#paint8_linear_123_1115)"/>
</g>
<defs>
<linearGradient id="paint0_linear_123_1115" x1="19.0759" y1="21.2703" x2="19.0759" y2="23.0278" gradientUnits="userSpaceOnUse">
<stop stop-color="#00A5C2"/>
<stop offset="1" stop-color="#00B2D0"/>
</linearGradient>
<linearGradient id="paint1_linear_123_1115" x1="19.0759" y1="27.4455" x2="19.0759" y2="29.2031" gradientUnits="userSpaceOnUse">
<stop stop-color="#00A5C2"/>
<stop offset="1" stop-color="#00B2D0"/>
</linearGradient>
<linearGradient id="paint2_linear_123_1115" x1="19.0759" y1="33.6208" x2="19.0759" y2="35.3784" gradientUnits="userSpaceOnUse">
<stop stop-color="#00A5C2"/>
<stop offset="1" stop-color="#00B2D0"/>
</linearGradient>
<linearGradient id="paint3_linear_123_1115" x1="19.0759" y1="39.7961" x2="19.0759" y2="41.5537" gradientUnits="userSpaceOnUse">
<stop stop-color="#00A5C2"/>
<stop offset="1" stop-color="#00B2D0"/>
</linearGradient>
<linearGradient id="paint4_linear_123_1115" x1="13.4657" y1="48.8462" x2="13.4657" y2="50.6038" gradientUnits="userSpaceOnUse">
<stop stop-color="#00A5C2"/>
<stop offset="1" stop-color="#00B2D0"/>
</linearGradient>
<linearGradient id="paint5_linear_123_1115" x1="29.4608" y1="6.05939" x2="29.4608" y2="12.8512" gradientUnits="userSpaceOnUse">
<stop stop-color="#00A5C2"/>
<stop offset="1" stop-color="#00B2D0"/>
</linearGradient>
<linearGradient id="paint6_linear_123_1115" x1="24.1149" y1="0" x2="24.1149" y2="60" gradientUnits="userSpaceOnUse">
<stop stop-color="#00A5C2"/>
<stop offset="1" stop-color="#00B2D0"/>
</linearGradient>
<linearGradient id="paint7_linear_123_1115" x1="47.0236" y1="19.2781" x2="47.0236" y2="53.5113" gradientUnits="userSpaceOnUse">
<stop stop-color="#00A5C2"/>
<stop offset="1" stop-color="#00B2D0"/>
</linearGradient>
<linearGradient id="paint8_linear_123_1115" x1="47.0234" y1="25.0292" x2="47.0234" y2="39.7606" gradientUnits="userSpaceOnUse">
<stop stop-color="#00A5C2"/>
<stop offset="1" stop-color="#00B2D0"/>
</linearGradient>
<clipPath id="clip0_123_1115">
<rect width="60" height="60" fill="white"/>
</clipPath>
</defs>
</svg>
