<svg width="60" height="60" viewBox="0 0 60 60" fill="none" xmlns="http://www.w3.org/2000/svg">
<path d="M59 0.55835H1C0.44775 0.55835 0 1.0061 0 1.55835V41.5583C0 42.1106 0.44775 42.5583 1 42.5583H19.057C19.087 42.8913 19.136 43.2193 19.195 43.5443L13.71 50.0813C13.3547 50.5042 13.4096 51.135 13.8325 51.4902C13.9516 51.5904 14.0926 51.6612 14.244 51.6973L20.282 53.1394L22.751 58.8394C22.9705 59.3461 23.5592 59.5791 24.066 59.3596C24.2087 59.2979 24.335 59.2036 24.435 59.0844L29.911 52.5583C29.941 52.5583 29.97 52.5583 30 52.5583C30.03 52.5583 30.059 52.5583 30.089 52.5583L35.565 59.0844C35.9198 59.5076 36.5505 59.5631 36.9738 59.2084C37.0929 59.1085 37.1871 58.9821 37.249 58.8394L39.718 53.1394L45.756 51.6973C46.2933 51.5694 46.6251 51.0301 46.4971 50.4929C46.461 50.3415 46.3901 50.2005 46.29 50.0813L40.805 43.5443C40.864 43.2193 40.913 42.8913 40.943 42.5583H59C59.5522 42.5583 60 42.1106 60 41.5583V1.55835C60 1.00597 59.5522 0.55835 59 0.55835ZM23.943 56.5583L21.918 51.8884C21.7929 51.5996 21.5391 51.3866 21.233 51.3134L16.283 50.1303L19.873 45.8513C19.892 45.8953 19.917 45.9354 19.936 45.9794C20.066 46.2794 20.207 46.5644 20.363 46.8474C20.427 46.9654 20.495 47.0813 20.563 47.1964C20.7004 47.425 20.8456 47.649 20.999 47.8684C21.106 48.0214 21.218 48.1684 21.333 48.3184C21.467 48.4883 21.605 48.6544 21.75 48.8184C21.895 48.9824 22.064 49.1633 22.231 49.3293C22.354 49.4524 22.481 49.5714 22.611 49.6884C22.719 49.7883 22.816 49.8933 22.929 49.9883C23.042 50.0834 23.148 50.1474 23.256 50.2313C23.305 50.2693 23.347 50.3134 23.397 50.3503C23.487 50.4184 23.582 50.4774 23.674 50.5424C23.818 50.6423 23.96 50.7504 24.109 50.8424C24.393 51.0243 24.686 51.1903 24.983 51.3424C25.097 51.4003 25.213 51.4534 25.329 51.5074C25.5956 51.6327 25.864 51.7467 26.134 51.8493C26.212 51.8783 26.289 51.9114 26.367 51.9384C26.7458 52.0715 27.1318 52.1833 27.523 52.2733L27.534 52.2764L23.943 56.5583ZM31.878 50.3464C31.4194 50.4432 30.954 50.5045 30.486 50.5294H30.473C30.315 50.5373 30.157 50.5484 29.998 50.5484C29.839 50.5484 29.681 50.5373 29.523 50.5294H29.51C29.043 50.5043 28.5786 50.4435 28.121 50.3474L28.037 50.3303C27.859 50.2913 27.683 50.2434 27.509 50.1934C27.436 50.1724 27.362 50.1533 27.29 50.1303C27.165 50.0913 27.042 50.0453 26.919 50.0014C26.796 49.9574 26.679 49.9143 26.561 49.8653C26.488 49.8344 26.416 49.8013 26.344 49.7654C26.18 49.6913 26.017 49.6164 25.858 49.5334L25.778 49.4893C25.3657 49.2688 24.9712 49.0167 24.598 48.7354C24.39 48.5804 24.198 48.4093 24.009 48.2403C23.7855 48.041 23.5721 47.8303 23.37 47.6093C23.29 47.5233 23.204 47.4413 23.128 47.3523C22.8488 47.0238 22.594 46.6752 22.366 46.3093C22.332 46.2553 22.303 46.1983 22.266 46.1423C22.0534 45.7871 21.8662 45.4171 21.706 45.0354C21.692 45.0014 21.676 44.9674 21.663 44.9353C21.4859 44.4978 21.3434 44.0472 21.237 43.5873C21.237 43.5693 21.223 43.5554 21.218 43.5373C21.0728 42.8877 20.9996 42.224 21 41.5583C20.997 36.5877 25.024 32.556 29.9945 32.5528C34.9651 32.5498 38.9969 36.5769 39 41.5474C39.0004 42.2206 38.9253 42.8917 38.776 43.5482C38.771 43.5652 38.761 43.5802 38.757 43.5972C38.6507 44.0566 38.5086 44.507 38.332 44.9442C38.318 44.9792 38.302 45.0142 38.287 45.0442C38.1272 45.4236 37.9408 45.7912 37.729 46.1442C37.696 46.2002 37.666 46.2592 37.629 46.3152C37.401 46.6806 37.1466 47.0288 36.868 47.3572C36.793 47.4452 36.708 47.5252 36.629 47.6112C36.4241 47.8342 36.2081 48.0469 35.982 48.2482C35.792 48.4172 35.603 48.5882 35.396 48.7422C35.189 48.8962 35.004 49.0262 34.802 49.1552L34.79 49.1622C34.609 49.2772 34.424 49.3832 34.236 49.4832C34.199 49.5032 34.163 49.5242 34.126 49.5432C33.975 49.6222 33.826 49.6932 33.667 49.7622C33.587 49.7982 33.508 49.8352 33.427 49.8682C33.315 49.9152 33.201 49.9562 33.087 49.9972C32.973 50.0382 32.832 50.0912 32.702 50.1312C32.633 50.1532 32.563 50.1722 32.493 50.1922C32.316 50.2422 32.138 50.2922 31.958 50.3302L31.878 50.3464ZM43.717 50.1273L38.767 51.3103C38.4609 51.3836 38.2071 51.5966 38.082 51.8853L36.057 56.5583L32.466 52.2794H32.475C32.8677 52.1896 33.2551 52.0775 33.635 51.9434C33.71 51.9174 33.782 51.8863 33.857 51.8593C34.136 51.7533 34.411 51.6374 34.681 51.5084C34.791 51.4574 34.901 51.4083 35.009 51.3523C35.309 51.1964 35.609 51.0274 35.897 50.8424C36.036 50.7543 36.169 50.6553 36.304 50.5603C36.404 50.4913 36.504 50.4284 36.604 50.3554C36.657 50.3153 36.704 50.2683 36.756 50.2273C36.856 50.1453 36.972 50.0763 37.074 49.9903C37.176 49.9044 37.28 49.7904 37.386 49.6964C37.518 49.5764 37.648 49.4553 37.774 49.3303C37.9386 49.1657 38.098 48.9963 38.252 48.8223C38.397 48.6583 38.535 48.4923 38.67 48.3223C38.785 48.1754 38.897 48.0224 39.004 47.8723C39.158 47.6544 39.304 47.4304 39.439 47.2024C39.509 47.0863 39.577 46.9693 39.639 46.8503C39.7944 46.5683 39.936 46.28 40.064 45.9854C40.082 45.9344 40.108 45.8933 40.127 45.8484L43.717 50.1273ZM58 40.5583H40.949C40.4064 34.5108 35.0639 30.0482 29.0164 30.591C23.7209 31.0662 19.5243 35.2628 19.049 40.5583H2V2.55835H58V40.5583Z" fill="url(#paint0_linear_123_1471)"/>
<path d="M5 4.55835C4.44775 4.55835 4 5.0061 4 5.55835V9.55835H6V6.55835H9V4.55835H5Z" fill="url(#paint1_linear_123_1471)"/>
<path d="M55 4.55835H51V6.55835H54V9.55835H56V5.55835C56 5.00597 55.5522 4.55835 55 4.55835Z" fill="url(#paint2_linear_123_1471)"/>
<path d="M54 33.5581V36.5581H51V38.5581H55C55.5522 38.5581 56 38.1104 56 37.5581V33.5581H54Z" fill="url(#paint3_linear_123_1471)"/>
<path d="M6 36.5581V33.5581H4V37.5581C4 38.1104 4.44775 38.5581 5 38.5581H9V36.5581H6Z" fill="url(#paint4_linear_123_1471)"/>
<path d="M42 11.5583H18V13.5583H42V11.5583Z" fill="url(#paint5_linear_123_1471)"/>
<path d="M48 17.5581H12V19.5581H48V17.5581Z" fill="url(#paint6_linear_123_1471)"/>
<path d="M30 34.5581C26.134 34.5581 23 37.6921 23 41.5581C23.0044 45.4222 26.1359 48.5537 30 48.5581C33.866 48.5581 37 45.4241 37 41.5581C37 37.6921 33.866 34.5581 30 34.5581ZM30 46.5581C27.2386 46.5581 25 44.3195 25 41.5581C25.0032 38.7981 27.24 36.5614 30 36.5581C32.7614 36.5581 35 38.7967 35 41.5581C35 44.3195 32.7614 46.5581 30 46.5581Z" fill="url(#paint7_linear_123_1471)"/>
<defs>
<linearGradient id="paint0_linear_123_1471" x1="30" y1="0.55835" x2="30" y2="59.4422" gradientUnits="userSpaceOnUse">
<stop stop-color="#00A5C2"/>
<stop offset="1" stop-color="#00B2D0"/>
</linearGradient>
<linearGradient id="paint1_linear_123_1471" x1="6.5" y1="4.55835" x2="6.5" y2="9.55835" gradientUnits="userSpaceOnUse">
<stop stop-color="#00A5C2"/>
<stop offset="1" stop-color="#00B2D0"/>
</linearGradient>
<linearGradient id="paint2_linear_123_1471" x1="53.5" y1="4.55835" x2="53.5" y2="9.55835" gradientUnits="userSpaceOnUse">
<stop stop-color="#00A5C2"/>
<stop offset="1" stop-color="#00B2D0"/>
</linearGradient>
<linearGradient id="paint3_linear_123_1471" x1="53.5" y1="33.5581" x2="53.5" y2="38.5581" gradientUnits="userSpaceOnUse">
<stop stop-color="#00A5C2"/>
<stop offset="1" stop-color="#00B2D0"/>
</linearGradient>
<linearGradient id="paint4_linear_123_1471" x1="6.5" y1="33.5581" x2="6.5" y2="38.5581" gradientUnits="userSpaceOnUse">
<stop stop-color="#00A5C2"/>
<stop offset="1" stop-color="#00B2D0"/>
</linearGradient>
<linearGradient id="paint5_linear_123_1471" x1="30" y1="11.5583" x2="30" y2="13.5583" gradientUnits="userSpaceOnUse">
<stop stop-color="#00A5C2"/>
<stop offset="1" stop-color="#00B2D0"/>
</linearGradient>
<linearGradient id="paint6_linear_123_1471" x1="30" y1="17.5581" x2="30" y2="19.5581" gradientUnits="userSpaceOnUse">
<stop stop-color="#00A5C2"/>
<stop offset="1" stop-color="#00B2D0"/>
</linearGradient>
<linearGradient id="paint7_linear_123_1471" x1="30" y1="34.5581" x2="30" y2="48.5581" gradientUnits="userSpaceOnUse">
<stop stop-color="#00A5C2"/>
<stop offset="1" stop-color="#00B2D0"/>
</linearGradient>
</defs>
</svg>
