<svg width="60" height="60" viewBox="0 0 60 60" fill="none" xmlns="http://www.w3.org/2000/svg">
<path d="M30 39.9463C29.6918 39.9463 29.3895 40.0717 29.1715 40.2896C28.9535 40.5076 28.8281 40.81 28.8281 41.1182C28.8281 41.4264 28.9534 41.7287 29.1715 41.9467C29.3896 42.1646 29.6918 42.29 30 42.29C30.3082 42.29 30.6105 42.1646 30.8284 41.9467C31.0464 41.7287 31.1719 41.4264 31.1719 41.1182C31.1719 40.81 31.0465 40.5076 30.8284 40.2896C30.6105 40.0717 30.3082 39.9463 30 39.9463Z" fill="url(#paint0_linear_123_2508)"/>
<path d="M30 26.9556C35.1694 26.9556 39.375 22.7499 39.375 17.5806C39.375 12.4112 35.1694 8.20557 30 8.20557C24.8306 8.20557 20.625 12.4112 20.625 17.5806C20.625 22.7499 24.8306 26.9556 30 26.9556ZM30 10.5493C33.877 10.5493 37.0312 13.7035 37.0312 17.5806C37.0312 21.4576 33.877 24.6118 30 24.6118C26.123 24.6118 22.9688 21.4576 22.9688 17.5806C22.9688 13.7035 26.123 10.5493 30 10.5493Z" fill="url(#paint1_linear_123_2508)"/>
<path d="M55.0781 6.32861H43.6091L40.2602 2.97975C40.0404 2.76002 39.7424 2.6365 39.4316 2.6365C39.1208 2.6365 38.8227 2.76002 38.603 2.97975L37.3548 4.22803C36.366 3.68205 35.3237 3.2501 34.2397 2.93721V1.17236C34.2397 0.525137 33.715 0.000488281 33.0678 0.000488281H26.9323C26.2852 0.000488281 25.7604 0.525137 25.7604 1.17236V2.93721C24.6764 3.2501 23.634 3.68205 22.6453 4.22803L21.3971 2.97975C21.1774 2.76002 20.8793 2.6365 20.5685 2.6365C20.2577 2.6365 19.9597 2.76002 19.7399 2.97975L16.3909 6.32861H4.92188C2.20793 6.32861 0 8.53654 0 11.2505V44.2974C0 47.0113 2.20793 49.2192 4.92188 49.2192H24.5604V52.883C24.5604 54.9076 23.537 56.7593 21.8227 57.8363C21.3804 58.1141 21.1754 58.6511 21.3199 59.153C21.4644 59.6549 21.9237 60.0005 22.446 60.0005H37.554C38.0763 60.0005 38.5356 59.6549 38.6801 59.153C38.8246 58.6511 38.6196 58.1141 38.1773 57.8363C36.463 56.7593 35.4396 54.9076 35.4396 52.883V49.2192H55.0781C57.7921 49.2192 60 47.0113 60 44.2974V11.2505C60 8.53654 57.7921 6.32861 55.0781 6.32861ZM20.5684 5.46564L21.6313 6.52865C22.0195 6.91689 22.6255 6.98357 23.0889 6.68885C24.3509 5.88623 25.7295 5.31506 27.1867 4.99103C27.7227 4.87174 28.1041 4.39631 28.1041 3.84705V2.34424H31.896V3.84705C31.896 4.39631 32.2774 4.87174 32.8134 4.99103C34.2707 5.31506 35.6493 5.88635 36.9113 6.68885C37.3744 6.98346 37.9804 6.91701 38.3688 6.52865L39.4317 5.46564L42.113 8.14701L41.0505 9.20943C40.6623 9.59779 40.5956 10.2038 40.8906 10.6671C41.6936 11.9291 42.2651 13.3079 42.5895 14.7653C42.7087 15.3013 43.1842 15.6826 43.7333 15.6826H45.2344V19.4745H43.734C43.1848 19.4745 42.7092 19.8559 42.59 20.3922C42.2659 21.8501 41.6945 23.2294 40.8918 24.4917C40.5969 24.9551 40.6636 25.561 41.0518 25.9493L42.1129 27.0103L39.4316 29.6916L38.3711 28.631C37.9826 28.2427 37.3765 28.1761 36.9134 28.471C35.6509 29.2743 34.2715 29.846 32.8134 30.1703C32.2774 30.2895 31.896 30.765 31.896 31.3142V32.813H28.1041V31.3143C28.1041 30.765 27.7227 30.2896 27.1867 30.1704C25.7286 29.846 24.3492 29.2744 23.0868 28.4711C22.6236 28.1762 22.0175 28.2428 21.6291 28.6312L20.5685 29.6917L17.8873 27.0104L18.9483 25.9494C19.3365 25.5611 19.4032 24.9552 19.1084 24.4919C18.3055 23.2295 17.7341 21.8502 17.4101 20.3923C17.2909 19.856 16.8154 19.4746 16.2661 19.4746H14.7656V15.6828H16.2669C16.8161 15.6828 17.2915 15.3014 17.4108 14.7654C17.7353 13.308 18.3068 11.9292 19.1096 10.6672C19.4046 10.2039 19.3379 9.59791 18.9497 9.20955L17.8873 8.14713L20.5684 5.46564ZM34.623 57.6567H25.377C26.3586 56.2895 26.9041 54.6324 26.9041 52.883V49.2192H33.0959V52.883C33.0959 54.6324 33.6414 56.2895 34.623 57.6567ZM55.0781 46.8755H4.92188C3.50027 46.8755 2.34375 45.719 2.34375 44.2974V42.2899H24.7421C25.3893 42.2899 25.914 41.7653 25.914 41.1181C25.914 40.4708 25.3893 39.9462 24.7421 39.9462H2.34375V11.2505C2.34375 9.82889 3.50027 8.67236 4.92188 8.67236H15.1828C15.2377 8.7817 15.3098 8.88447 15.4011 8.97564L16.6488 10.2232C16.1025 11.2121 15.6702 12.2546 15.3572 13.3389H13.5938C12.9466 13.3389 12.4219 13.8635 12.4219 14.5108V20.6463C12.4219 21.2936 12.9466 21.8182 13.5938 21.8182H15.356C15.669 22.903 16.1011 23.946 16.6475 24.9353L15.4011 26.1816C14.9435 26.6392 14.9435 27.3812 15.4011 27.839L19.7396 32.1775C20.1974 32.6351 20.9392 32.6351 21.397 32.1775L22.6427 30.9318C23.6321 31.4785 24.6754 31.9108 25.7604 32.224V33.9849C25.7604 34.6321 26.2852 35.1567 26.9323 35.1567H33.0678C33.715 35.1567 34.2397 34.6321 34.2397 33.9849V32.224C35.3248 31.9109 36.3679 31.4785 37.3574 30.9318L38.6031 32.1775C39.0608 32.6351 39.8026 32.6351 40.2605 32.1775L44.599 27.839C45.0566 27.3813 45.0566 26.6393 44.599 26.1816L43.3526 24.9353C43.8989 23.946 44.3311 22.903 44.6441 21.8182H46.4062C47.0534 21.8182 47.5781 21.2936 47.5781 20.6463V14.5108C47.5781 13.8635 47.0534 13.3389 46.4062 13.3389H44.6428C44.3297 12.2547 43.8975 11.2122 43.3512 10.2232L44.5989 8.97564C44.69 8.88447 44.7623 8.7817 44.8172 8.67236H55.0781C56.4997 8.67236 57.6562 9.82889 57.6562 11.2505V39.9462H35.2888C34.6417 39.9462 34.1169 40.4708 34.1169 41.1181C34.1169 41.7653 34.6417 42.2899 35.2888 42.2899H57.6562V44.2974C57.6562 45.719 56.4997 46.8755 55.0781 46.8755Z" fill="url(#paint2_linear_123_2508)"/>
<defs>
<linearGradient id="paint0_linear_123_2508" x1="30" y1="39.9463" x2="30" y2="42.29" gradientUnits="userSpaceOnUse">
<stop stop-color="#68D7F0"/>
<stop offset="0.5" stop-color="#2DA5D3"/>
<stop offset="1" stop-color="#057BA9"/>
</linearGradient>
<linearGradient id="paint1_linear_123_2508" x1="30" y1="8.20557" x2="30" y2="26.9556" gradientUnits="userSpaceOnUse">
<stop stop-color="#68D7F0"/>
<stop offset="0.5" stop-color="#2DA5D3"/>
<stop offset="1" stop-color="#057BA9"/>
</linearGradient>
<linearGradient id="paint2_linear_123_2508" x1="30" y1="0.000488281" x2="30" y2="60.0005" gradientUnits="userSpaceOnUse">
<stop stop-color="#68D7F0"/>
<stop offset="0.5" stop-color="#2DA5D3"/>
<stop offset="1" stop-color="#057BA9"/>
</linearGradient>
</defs>
</svg>
