<svg width="51" height="60" viewBox="0 0 51 60" fill="none" xmlns="http://www.w3.org/2000/svg">
<path d="M49.4911 16.5619L21.9876 32.2777V17.5804L49.4833 1.86875C49.9562 1.59181 50.1178 0.985737 49.8459 0.510125C49.574 0.0340551 48.9697 -0.1344 48.4909 0.132473L20.9997 15.8419L8.00989 8.04805L19.4617 1.88157C19.9478 1.61973 20.13 1.0132 19.8681 0.526604C19.6063 0.040006 18.9998 -0.142182 18.5132 0.119656L5.51327 7.11971L5.50549 7.12612L5.49496 7.1307C5.39746 7.18792 5.31094 7.26162 5.23861 7.34859C5.21893 7.37102 5.20245 7.39391 5.18506 7.41817C5.12509 7.49919 5.07794 7.58937 5.04498 7.68459C5.0404 7.69786 5.03262 7.70976 5.0285 7.7235C5.00195 7.81367 4.98822 7.9066 4.9873 8.0009V25.0007C4.9873 25.3518 5.17178 25.6773 5.47299 25.8581L16.9875 32.7666V37.9997L5.51693 44.1177C5.4327 44.163 5.35534 44.2206 5.28759 44.2879C5.27752 44.298 5.27157 44.3099 5.26196 44.3204C5.19375 44.3946 5.13699 44.4784 5.09396 44.5699C5.08023 44.5978 5.06833 44.6253 5.05734 44.6546C5.0134 44.7649 4.99005 44.8821 4.9873 45.0002V59.0003C4.9873 59.5524 5.43499 60.0001 5.98751 60.0001C6.53957 60.0001 6.98771 59.5524 6.98771 59.0003V46.6674L19.9872 53.6006V59.0003C19.9872 59.5524 20.4348 60.0001 20.9874 60.0001C21.5394 60.0001 21.9876 59.5524 21.9876 59.0003V53.6001L34.987 46.6669V59.0003C34.987 59.5524 35.4347 60.0001 35.9872 60.0001C36.5393 60.0001 36.9874 59.5524 36.9874 59.0003V45.0002C36.9847 44.8821 36.9609 44.7649 36.9174 44.6546C36.9064 44.6248 36.8945 44.5978 36.8808 44.5699C36.8377 44.4784 36.781 44.3946 36.7123 44.3204C36.7027 44.3104 36.6967 44.298 36.6867 44.2879C36.6189 44.2206 36.542 44.163 36.4578 44.1177L24.9873 37.9997V32.8664L50.4831 18.2987C50.956 18.0217 51.118 17.4152 50.8461 16.9396C50.5742 16.4635 49.9699 16.295 49.4911 16.5619ZM6.98771 9.76739L19.9872 17.5672V32.2342L6.98771 24.434V9.76739ZM33.8623 45.0002L20.9874 51.8666L8.11243 45.0002L16.9875 40.267V44.0005C16.9893 45.6566 18.3314 46.9983 19.9872 47.0002H21.9876C23.6433 46.9983 24.9854 45.6566 24.9873 44.0005V40.267L33.8623 45.0002ZM22.9873 44.0005C22.9869 44.5525 22.5396 44.9998 21.9876 45.0002H19.9872C19.4351 44.9998 18.9879 44.5525 18.9874 44.0005V33.9668L20.4728 34.8576L20.4783 34.8604L20.4852 34.8654C20.541 34.8952 20.5996 34.9194 20.6601 34.9377C20.682 34.9455 20.7026 34.9588 20.7255 34.9652C20.8944 35.0114 21.0725 35.0124 21.2414 34.9675C21.2597 34.9625 21.2767 34.9515 21.295 34.9455C21.3591 34.9272 21.4213 34.902 21.4799 34.8705L21.4836 34.8686L22.9873 34.0094V44.0005Z" fill="url(#paint0_linear_123_2518)"/>
<path d="M7.6947 36.7079C8.07373 36.3156 8.06824 35.6917 7.68234 35.3062C7.2969 34.9203 6.67297 34.9148 6.28067 35.2939L4.98749 36.5866V30.0007C4.98749 29.4487 4.53979 29.001 3.98773 29.001C3.43521 29.001 2.98752 29.4487 2.98752 30.0007V36.5866L1.69479 35.2939C1.30249 34.9148 0.678557 34.9203 0.292663 35.3062C-0.0927744 35.6917 -0.0982677 36.3156 0.280761 36.7079L3.28049 39.7081C3.56567 39.9937 3.9946 40.0793 4.36722 39.9251L4.37042 39.9246C4.47937 39.8775 4.57916 39.8111 4.66431 39.7282C4.67346 39.7195 4.68582 39.7168 4.69406 39.7081L7.6947 36.7079Z" fill="url(#paint1_linear_123_2518)"/>
<path d="M40.2801 35.2939L38.9874 36.5866V30.0007C38.9874 29.4487 38.5397 29.001 37.9872 29.001C37.4351 29.001 36.9874 29.4487 36.9874 30.0007V36.5866L35.6943 35.2939C35.3019 34.9148 34.678 34.9203 34.2926 35.3062C33.9067 35.6917 33.9012 36.3156 34.2802 36.7079L37.2804 39.7081C37.5651 39.9937 37.9941 40.0793 38.3671 39.9251L38.3699 39.9246C38.4788 39.8775 38.5786 39.8111 38.6638 39.7282C38.6729 39.7195 38.6853 39.7168 38.6944 39.7081L41.6942 36.7084C42.0732 36.3156 42.0677 35.6921 41.6823 35.3062C41.2964 34.9208 40.6724 34.9153 40.2801 35.2943V35.2939Z" fill="url(#paint2_linear_123_2518)"/>
<defs>
<linearGradient id="paint0_linear_123_2518" x1="27.9826" y1="0" x2="27.9826" y2="60.0001" gradientUnits="userSpaceOnUse">
<stop stop-color="#68D7F0"/>
<stop offset="0.5" stop-color="#2DA5D3"/>
<stop offset="1" stop-color="#057BA9"/>
</linearGradient>
<linearGradient id="paint1_linear_123_2518" x1="3.9877" y1="29.001" x2="3.9877" y2="40.0009" gradientUnits="userSpaceOnUse">
<stop stop-color="#68D7F0"/>
<stop offset="0.5" stop-color="#2DA5D3"/>
<stop offset="1" stop-color="#057BA9"/>
</linearGradient>
<linearGradient id="paint2_linear_123_2518" x1="37.9872" y1="29.001" x2="37.9872" y2="40.0009" gradientUnits="userSpaceOnUse">
<stop stop-color="#68D7F0"/>
<stop offset="0.5" stop-color="#2DA5D3"/>
<stop offset="1" stop-color="#057BA9"/>
</linearGradient>
</defs>
</svg>
