<svg width="60" height="60" viewBox="0 0 60 60" fill="none" xmlns="http://www.w3.org/2000/svg">
<path d="M59.8896 14.2184C59.6831 13.4505 59.1792 12.7958 58.4899 12.3989C57.8001 12.0001 56.9799 11.8922 56.2105 12.0987C55.4421 12.3057 54.7874 12.809 54.3905 13.4983L53.8906 14.3683C53.4156 14.0954 52.8087 14.256 52.531 14.7286L49.9913 19.0574L49.1214 18.5575C48.8909 18.4243 48.6166 18.3881 48.3598 18.4575C48.1025 18.5273 47.8838 18.6962 47.7515 18.9276C47.4805 19.4055 47.6456 20.0128 48.1215 20.2872L48.9915 20.7871L40.493 35.5146L38.3932 41.124L37.3934 42.9933C36.808 44.0117 36.8705 45.2776 37.5535 46.233L35.3039 48.9923L34.6741 47.413C34.39 46.709 33.7324 46.2266 32.9762 46.1676C32.2195 46.108 31.4945 46.482 31.1044 47.1327L30.7446 47.7425L30.4048 43.7432C30.3267 42.7971 29.5939 42.0364 28.6517 41.9222C27.709 41.8085 26.8166 42.3733 26.5154 43.2735L24.0558 50.6522C23.884 51.174 24.1652 51.7365 24.6856 51.9122C24.7832 51.9576 24.8882 51.9849 24.9956 51.9918C25.4252 51.9932 25.808 51.7194 25.9456 51.3122L28.3949 43.9336L28.745 47.9925C28.8172 48.8585 29.4397 49.5786 30.2862 49.7749C31.1327 49.9711 32.0086 49.5981 32.4543 48.8527L32.8243 48.2424L33.4444 49.8125C33.7075 50.474 34.3026 50.9461 35.0071 51.051C35.7116 51.156 36.4185 50.8782 36.8637 50.3221L39.1934 47.3729C39.4511 47.4403 39.7167 47.474 39.9833 47.473C41.0549 47.4813 42.0498 46.917 42.5927 45.9928L43.5925 44.3232L47.4019 39.6941L55.9903 24.7865L56.8603 25.2864C57.0922 25.4192 57.2611 25.6384 57.3299 25.8966C57.3993 26.1529 57.3631 26.4263 57.2303 26.6562L53.231 33.5852C53.0802 33.8127 53.0289 34.092 53.0895 34.3586C53.15 34.6246 53.3165 34.8546 53.5508 34.9947C53.7812 35.1284 54.0556 35.1646 54.3124 35.0952C54.5697 35.0254 54.7884 34.8565 54.9207 34.6251L58.92 27.6961C59.3189 27.0063 59.4267 26.1861 59.2198 25.4167C59.0128 24.6483 58.5094 23.9936 57.8201 23.5967L56.9501 23.0968L59.4497 18.7675C59.7226 18.2924 59.562 17.6861 59.0899 17.4078L59.5898 16.5379C59.9994 15.8373 60.1078 15.0005 59.8896 14.2184ZM56.1202 14.4982C56.2525 14.2668 56.4722 14.0974 56.7304 14.0285C56.9872 13.9651 57.2587 14.0007 57.4901 14.1286C57.722 14.2609 57.8909 14.4806 57.9602 14.7384C58.0237 14.9951 57.988 15.2666 57.8601 15.498L57.3602 16.368L55.6203 15.3681L56.1202 14.4982ZM42.4926 42.4138L41.9927 42.1238L40.513 41.2636L41.9327 37.4645L45.082 39.284L42.4926 42.4138ZM39.4931 45.303C39.0708 45.0086 38.941 44.4423 39.1934 43.9931L39.6933 43.1237L41.4327 44.1235L40.9328 44.9832C40.7927 45.2263 40.5574 45.3992 40.2835 45.4602C40.0096 45.5207 39.7231 45.4641 39.4931 45.303ZM46.222 37.6446L42.7626 35.645L50.7612 21.787L54.2206 23.7866L46.222 37.6446ZM55.2204 22.0569L51.7611 20.0573L53.7607 16.5979L57.2201 18.5976L55.2204 22.0569Z" fill="url(#paint0_linear_123_2527)"/>
<path d="M15.7771 44.8029L12.2381 48.3326L10.1184 46.2128C9.72829 45.8252 9.09852 45.8252 8.70845 46.2128C8.51902 46.4008 8.4126 46.6561 8.4126 46.9227C8.4126 47.1892 8.51902 47.445 8.70845 47.6325L10.8282 49.7522C11.2031 50.1242 11.7099 50.3327 12.2381 50.3322C12.7693 50.3352 13.2804 50.1267 13.6578 49.7522L17.187 46.2128C17.5268 45.8159 17.5038 45.2247 17.1347 44.8556C16.7652 44.4861 16.174 44.4631 15.7771 44.8029Z" fill="url(#paint1_linear_123_2527)"/>
<path d="M3.99902 47.4929C3.99902 52.1869 7.80404 55.9914 12.4976 55.9914C17.1911 55.9914 20.9961 52.1869 20.9961 47.4929C20.9961 46.9408 20.5485 46.4931 19.9963 46.4931C19.4441 46.4931 18.9965 46.9408 18.9965 47.4929C18.9965 51.0821 16.0868 53.9918 12.4976 53.9918C8.90834 53.9918 5.99868 51.0821 5.99868 47.4929C5.99868 43.9037 8.90834 40.994 12.4976 40.994C13.9046 40.9901 15.274 41.4466 16.3968 42.2941C16.8386 42.6256 17.4655 42.5357 17.7965 42.0939C18.128 41.6521 18.0386 41.0257 17.5968 40.6943C15.0216 38.763 11.5759 38.4525 8.69695 39.8917C5.81756 41.3314 3.99902 44.2742 3.99902 47.4929Z" fill="url(#paint2_linear_123_2527)"/>
<path d="M35.9939 7.99917C36.5461 7.99917 36.9938 7.55198 36.9938 6.99934C36.9938 6.44719 36.5461 5.99951 35.9939 5.99951H9.99837C9.44621 5.99951 8.99854 6.44719 8.99854 6.99934V10.9987C8.99854 11.5513 9.44621 11.9985 9.99837 11.9985H35.9939C36.5461 11.9985 36.9938 11.5513 36.9938 10.9987C36.9938 10.4465 36.5461 9.99883 35.9939 9.99883H10.9982V7.99917H35.9939Z" fill="url(#paint3_linear_123_2527)"/>
<path d="M12.9979 13.998C12.4457 13.998 11.998 14.4457 11.998 14.9979C11.998 15.5505 12.4457 15.9977 12.9979 15.9977H32.9945C33.5466 15.9977 33.9943 15.5505 33.9943 14.9979C33.9943 14.4457 33.5466 13.998 32.9945 13.998H12.9979Z" fill="url(#paint4_linear_123_2527)"/>
<path d="M38.9932 20.9971H16.9969C16.4447 20.9971 15.9971 21.4447 15.9971 21.9969C15.9971 22.5495 16.4447 22.9967 16.9969 22.9967H38.9932C39.5453 22.9967 39.993 22.5495 39.993 21.9969C39.993 21.4447 39.5453 20.9971 38.9932 20.9971Z" fill="url(#paint5_linear_123_2527)"/>
<path d="M28.9953 27.9959C28.9953 27.4438 28.5476 26.9961 27.9954 26.9961H7.99885C7.4467 26.9961 6.99902 27.4438 6.99902 27.9959C6.99902 28.5486 7.4467 28.9957 7.99885 28.9957H27.9954C28.5476 28.9957 28.9953 28.5486 28.9953 27.9959Z" fill="url(#paint6_linear_123_2527)"/>
<path d="M38.9933 26.9961H31.9945C31.4423 26.9961 30.9946 27.4438 30.9946 27.9959C30.9946 28.5486 31.4423 28.9957 31.9945 28.9957H38.9933C39.5454 28.9957 39.9931 28.5486 39.9931 27.9959C39.9931 27.4438 39.5454 26.9961 38.9933 26.9961Z" fill="url(#paint7_linear_123_2527)"/>
<path d="M17.9971 33.9953C18.5493 33.9953 18.997 33.5481 18.997 32.9954C18.997 32.4433 18.5493 31.9956 17.9971 31.9956H7.99885C7.4467 31.9956 6.99902 32.4433 6.99902 32.9954C6.99902 33.5481 7.4467 33.9953 7.99885 33.9953H17.9971Z" fill="url(#paint8_linear_123_2527)"/>
<path d="M21.9959 33.9953H28.9947C29.5469 33.9953 29.9946 33.5481 29.9946 32.9954C29.9946 32.4433 29.5469 31.9956 28.9947 31.9956H21.9959C21.4438 31.9956 20.9961 32.4433 20.9961 32.9954C20.9961 33.5481 21.4438 33.9953 21.9959 33.9953Z" fill="url(#paint9_linear_123_2527)"/>
<path d="M44.9923 45.9927C44.4402 45.9927 43.9925 46.4403 43.9925 46.9925V56.9908C43.9925 57.5434 43.5448 57.9906 42.9927 57.9906H2.99949C2.44734 57.9906 1.99966 57.5434 1.99966 56.9908V2.99998C1.99966 2.44783 2.44734 2.00015 2.99949 2.00015H42.9927C43.5448 2.00015 43.9925 2.44783 43.9925 2.99998V21.7771C43.9925 22.3292 44.4402 22.7769 44.9923 22.7769C45.5445 22.7769 45.9922 22.3292 45.9922 21.7771V2.99998C45.9922 1.34352 44.6491 0.000488281 42.9927 0.000488281H2.99949C1.34303 0.000488281 0 1.34352 0 2.99998V56.9908C0 58.6477 1.34303 59.9903 2.99949 59.9903H42.9927C44.6491 59.9903 45.9922 58.6477 45.9922 56.9908V46.9925C45.9922 46.4403 45.5445 45.9927 44.9923 45.9927Z" fill="url(#paint10_linear_123_2527)"/>
<defs>
<linearGradient id="paint0_linear_123_2527" x1="42.0026" y1="11.9961" x2="42.0026" y2="51.9918" gradientUnits="userSpaceOnUse">
<stop stop-color="#68D7F0"/>
<stop offset="0.5" stop-color="#2DA5D3"/>
<stop offset="1" stop-color="#057BA9"/>
</linearGradient>
<linearGradient id="paint1_linear_123_2527" x1="12.92" y1="44.5625" x2="12.92" y2="50.3323" gradientUnits="userSpaceOnUse">
<stop stop-color="#68D7F0"/>
<stop offset="0.5" stop-color="#2DA5D3"/>
<stop offset="1" stop-color="#057BA9"/>
</linearGradient>
<linearGradient id="paint2_linear_123_2527" x1="12.4976" y1="38.9946" x2="12.4976" y2="55.9914" gradientUnits="userSpaceOnUse">
<stop stop-color="#68D7F0"/>
<stop offset="0.5" stop-color="#2DA5D3"/>
<stop offset="1" stop-color="#057BA9"/>
</linearGradient>
<linearGradient id="paint3_linear_123_2527" x1="22.9962" y1="5.99951" x2="22.9962" y2="11.9985" gradientUnits="userSpaceOnUse">
<stop stop-color="#68D7F0"/>
<stop offset="0.5" stop-color="#2DA5D3"/>
<stop offset="1" stop-color="#057BA9"/>
</linearGradient>
<linearGradient id="paint4_linear_123_2527" x1="22.9962" y1="13.998" x2="22.9962" y2="15.9977" gradientUnits="userSpaceOnUse">
<stop stop-color="#68D7F0"/>
<stop offset="0.5" stop-color="#2DA5D3"/>
<stop offset="1" stop-color="#057BA9"/>
</linearGradient>
<linearGradient id="paint5_linear_123_2527" x1="27.995" y1="20.9971" x2="27.995" y2="22.9967" gradientUnits="userSpaceOnUse">
<stop stop-color="#68D7F0"/>
<stop offset="0.5" stop-color="#2DA5D3"/>
<stop offset="1" stop-color="#057BA9"/>
</linearGradient>
<linearGradient id="paint6_linear_123_2527" x1="17.9971" y1="26.9961" x2="17.9971" y2="28.9957" gradientUnits="userSpaceOnUse">
<stop stop-color="#68D7F0"/>
<stop offset="0.5" stop-color="#2DA5D3"/>
<stop offset="1" stop-color="#057BA9"/>
</linearGradient>
<linearGradient id="paint7_linear_123_2527" x1="35.4939" y1="26.9961" x2="35.4939" y2="28.9957" gradientUnits="userSpaceOnUse">
<stop stop-color="#68D7F0"/>
<stop offset="0.5" stop-color="#2DA5D3"/>
<stop offset="1" stop-color="#057BA9"/>
</linearGradient>
<linearGradient id="paint8_linear_123_2527" x1="12.998" y1="31.9956" x2="12.998" y2="33.9953" gradientUnits="userSpaceOnUse">
<stop stop-color="#68D7F0"/>
<stop offset="0.5" stop-color="#2DA5D3"/>
<stop offset="1" stop-color="#057BA9"/>
</linearGradient>
<linearGradient id="paint9_linear_123_2527" x1="25.4953" y1="31.9956" x2="25.4953" y2="33.9953" gradientUnits="userSpaceOnUse">
<stop stop-color="#68D7F0"/>
<stop offset="0.5" stop-color="#2DA5D3"/>
<stop offset="1" stop-color="#057BA9"/>
</linearGradient>
<linearGradient id="paint10_linear_123_2527" x1="22.9961" y1="0.000488281" x2="22.9961" y2="59.9903" gradientUnits="userSpaceOnUse">
<stop stop-color="#68D7F0"/>
<stop offset="0.5" stop-color="#2DA5D3"/>
<stop offset="1" stop-color="#057BA9"/>
</linearGradient>
</defs>
</svg>
