<svg width="60" height="60" viewBox="0 0 60 60" fill="none" xmlns="http://www.w3.org/2000/svg">
<g clip-path="url(#clip0_117_119)">
<path d="M33.3398 52.6454H20.7422C19.6058 52.6454 19.6058 54.4033 20.7422 54.4033H33.3398C34.4762 54.4033 34.4762 52.6454 33.3398 52.6454Z" fill="url(#paint0_linear_117_119)"/>
<path d="M8.90436 52.6454C6.69585 52.6454 4.57569 51.9732 2.77299 50.7014C1.84452 50.0463 0.83108 51.4827 1.75979 52.1378C3.86061 53.6198 6.33116 54.4032 8.90448 54.4032C10.0408 54.4032 10.0408 52.6454 8.90436 52.6454Z" fill="url(#paint1_linear_117_119)"/>
<path d="M16.2891 52.6454H13.0266C11.8902 52.6454 11.8902 54.4033 13.0266 54.4033H16.2891C17.4255 54.4033 17.4255 52.6454 16.2891 52.6454Z" fill="url(#paint2_linear_117_119)"/>
<path d="M52.3236 31.3917C54.1765 31.605 55.9497 32.3094 57.4521 33.4288C58.3377 34.0886 59.4299 32.7103 58.5024 32.0193C56.752 30.715 54.6849 29.8942 52.5246 29.6455C51.3961 29.5141 51.1945 31.2618 52.3236 31.3917Z" fill="url(#paint3_linear_117_119)"/>
<path d="M51.0956 33.0793H49.2342C49.3379 32.7948 49.3945 32.4879 49.3945 32.1681V15.7758C49.3945 14.339 48.4303 13.1235 47.1151 12.7418V10.6885C47.9255 10.4363 48.5156 9.67932 48.5156 8.78694V7.586C48.5156 6.48912 47.6232 5.59674 46.5264 5.59674H42.0673C40.9705 5.59674 40.078 6.48912 40.078 7.586V8.78694C40.078 9.67932 40.6682 10.4363 41.4785 10.6885V12.7418C40.1632 13.1233 39.1991 14.339 39.1991 15.7758V32.1679C39.1991 32.4879 39.2558 32.7948 39.3594 33.0792H34.9371C35.0408 32.7947 35.0974 32.4878 35.0974 32.1679V15.7758C35.0974 14.339 34.1332 13.1235 32.818 12.7418V10.6885C33.6286 10.4363 34.2188 9.67932 34.2188 8.78694V7.586C34.2188 6.48912 33.3264 5.59674 32.2295 5.59674H27.7703C26.6735 5.59686 25.7812 6.48924 25.7812 7.586V8.78694C25.7812 9.67932 26.3714 10.4363 27.1818 10.6885V12.7418C25.8664 13.1233 24.9023 14.339 24.9023 15.7758V32.1679C24.9023 32.4879 24.9591 32.7948 25.0627 33.0792H20.6404C20.7441 32.7947 20.8007 32.4878 20.8007 32.1679V15.7758C20.8007 14.339 19.8364 13.1233 18.5212 12.7418V10.6885C19.3317 10.4363 19.9219 9.67932 19.9219 8.78694V7.586C19.9219 6.48912 19.0295 5.59674 17.9326 5.59674H13.4734C12.3766 5.59686 11.4844 6.48924 11.4844 7.586V8.78694C11.4844 9.67932 12.0745 10.4363 12.8849 10.6885V12.7418C11.5697 13.1233 10.6055 14.339 10.6055 15.7758V21.3281C10.6055 22.4645 12.3633 22.4645 12.3633 21.3281V19.9326H14.8242V27.2373H12.3633V26.0156C12.3633 24.8792 10.6055 24.8792 10.6055 26.0156V32.1679C10.6055 32.4879 10.6622 32.7948 10.7658 33.0792H8.90438C3.99445 33.0793 0 37.0737 0 41.9835C0 46.8933 3.99445 50.8876 8.90438 50.8876H51.0955C56.0054 50.8876 59.9999 46.8933 59.9999 41.9835C60 37.0737 56.0055 33.0793 51.0956 33.0793ZM41.8359 7.586C41.8359 7.45838 41.9398 7.35455 42.0674 7.35455H46.5265C46.6541 7.35455 46.7579 7.45838 46.7579 7.586V8.78694C46.7579 8.91561 46.6533 9.02014 46.5247 9.02014H42.0693C41.9406 9.02014 41.8361 8.91549 41.8361 8.78694V7.586H41.8359ZM40.957 19.9326H43.418V27.2373H40.957V19.9326ZM40.957 32.1679V28.9951H44.2969C44.7824 28.9951 45.1758 28.6016 45.1758 28.1162V19.0537C45.1758 18.5683 44.7824 18.1748 44.2969 18.1748H40.957V15.7758C40.957 15.0035 41.5853 14.3753 42.3575 14.3753C42.843 14.3753 43.2364 13.9817 43.2364 13.4963V10.778H45.3573V13.4962C45.3573 13.9816 45.7507 14.3751 46.2362 14.3751C47.0085 14.3751 47.6367 15.0034 47.6367 15.7756V32.1679C47.6367 32.6705 47.228 33.0792 46.7255 33.0792H41.8684C41.3658 33.0793 40.957 32.6706 40.957 32.1679ZM27.5391 7.586C27.5391 7.45838 27.6429 7.35455 27.7705 7.35455H32.2296C32.3572 7.35455 32.4611 7.45838 32.4611 7.586V8.78694C32.4611 8.91561 32.3564 9.02014 32.2279 9.02014H27.7724C27.6437 9.02014 27.5392 8.91549 27.5392 8.78694V7.586H27.5391ZM26.6602 19.9326H29.1211V27.2373H26.6602V19.9326ZM26.6602 32.1679V28.9951H30C30.4855 28.9951 30.8789 28.6016 30.8789 28.1162V19.0537C30.8789 18.5683 30.4855 18.1748 30 18.1748H26.6602V15.7758C26.6602 15.0035 27.2884 14.3753 28.0607 14.3753C28.5462 14.3753 28.9396 13.9817 28.9396 13.4963V10.778H31.0604V13.4962C31.0604 13.9816 31.4538 14.3751 31.9393 14.3751C32.7116 14.3751 33.3398 15.0034 33.3398 15.7756V32.1679C33.3398 32.6705 32.9311 33.0792 32.4286 33.0792H27.5715C27.0689 33.0793 26.6602 32.6706 26.6602 32.1679ZM13.2422 7.586C13.2422 7.45838 13.346 7.35455 13.4736 7.35455H17.9327C18.0604 7.35455 18.1642 7.45838 18.1642 7.586V8.78694C18.1642 8.91561 18.0595 9.02014 17.931 9.02014H13.4755C13.3468 9.02014 13.2423 8.91549 13.2423 8.78694V7.586H13.2422ZM12.3633 32.1679V28.9951H15.7031C16.1886 28.9951 16.582 28.6016 16.582 28.1162V19.0537C16.582 18.5683 16.1886 18.1748 15.7031 18.1748H12.3633V15.7758C12.3633 15.0035 12.9915 14.3751 13.7638 14.3751C14.2493 14.3751 14.6427 13.9816 14.6427 13.4962V10.778H16.7636V13.4962C16.7636 13.9816 17.157 14.3751 17.6425 14.3751C18.4147 14.3751 19.043 15.0034 19.043 15.7758V32.1679C19.043 32.6705 18.6342 33.0792 18.1317 33.0792H13.2746C12.772 33.0793 12.3633 32.6706 12.3633 32.1679ZM51.0956 49.1298H8.90438C4.96371 49.1298 1.75781 45.924 1.75781 41.9835C1.75781 38.043 4.96371 34.8371 8.90438 34.8371H51.0955C55.0362 34.8371 58.2421 38.0429 58.2421 41.9835C58.2422 45.924 55.0363 49.1298 51.0956 49.1298Z" fill="url(#paint4_linear_117_119)"/>
<path d="M11.1118 41.9835C11.1118 40.7663 10.1216 39.776 8.90436 39.776C7.68713 39.776 6.6969 40.7663 6.6969 41.9835C6.6969 43.2006 7.68713 44.1908 8.90436 44.1908C10.1216 44.1908 11.1118 43.2007 11.1118 41.9835ZM8.45471 41.9835C8.45471 41.7355 8.65651 41.5338 8.90436 41.5338C9.15221 41.5338 9.35401 41.7355 9.35401 41.9835C9.35401 42.2313 9.15221 42.433 8.90436 42.433C8.65651 42.433 8.45471 42.2315 8.45471 41.9835Z" fill="url(#paint5_linear_117_119)"/>
<path d="M51.0956 36.4277H8.90437C5.84085 36.4277 3.34851 38.92 3.34851 41.9834C3.34851 45.0468 5.84097 47.5393 8.90437 47.5393H51.0955C52.2373 47.5393 53.3345 47.1953 54.2686 46.5446C55.2009 45.895 54.1962 44.4527 53.2638 45.1022C52.6261 45.5466 51.8762 45.7815 51.0955 45.7815C49.0012 45.7815 47.2975 44.0777 47.2975 41.9834C47.2975 39.8892 49.0012 38.1855 51.0955 38.1855C52.9935 38.1855 54.5708 39.5847 54.8498 41.4058C54.8787 41.5941 54.8937 41.7871 54.8937 41.9834C54.8937 43.1198 56.6515 43.1198 56.6515 41.9834C56.6516 38.9199 54.1591 36.4277 51.0956 36.4277ZM5.10632 41.9834C5.10632 39.8892 6.81011 38.1855 8.90437 38.1855C10.9986 38.1855 12.7025 39.8893 12.7025 41.9834C12.7025 44.0776 10.9986 45.7815 8.90437 45.7815C6.81011 45.7815 5.10632 44.0776 5.10632 41.9834ZM47.0461 45.7813H12.9539C13.8871 44.787 14.4603 43.4512 14.4603 41.9833C14.4603 40.5154 13.8871 39.1796 12.9539 38.1854H47.0461C46.1129 39.1796 45.5398 40.5154 45.5398 41.9833C45.5398 43.4512 46.1129 44.7871 47.0461 45.7813Z" fill="url(#paint6_linear_117_119)"/>
<path d="M48.8882 41.9835C48.8882 43.2006 49.8784 44.1908 51.0956 44.1908C52.3129 44.1908 53.3031 43.2006 53.3031 41.9835C53.3031 40.7663 52.3129 39.776 51.0956 39.776C49.8784 39.776 48.8882 40.7664 48.8882 41.9835ZM51.5453 41.9835C51.5453 42.2313 51.3435 42.433 51.0956 42.433C50.8478 42.433 50.646 42.2313 50.646 41.9835C50.646 41.7355 50.8478 41.5338 51.0956 41.5338C51.3435 41.5338 51.5453 41.7356 51.5453 41.9835Z" fill="url(#paint7_linear_117_119)"/>
</g>
<defs>
<linearGradient id="paint0_linear_117_119" x1="27.041" y1="52.6454" x2="27.041" y2="54.4033" gradientUnits="userSpaceOnUse">
<stop stop-color="#00A5C2"/>
<stop offset="1" stop-color="#00B2D0"/>
</linearGradient>
<linearGradient id="paint1_linear_117_119" x1="5.57435" y1="50.5342" x2="5.57435" y2="54.4032" gradientUnits="userSpaceOnUse">
<stop stop-color="#00A5C2"/>
<stop offset="1" stop-color="#00B2D0"/>
</linearGradient>
<linearGradient id="paint2_linear_117_119" x1="14.6578" y1="52.6454" x2="14.6578" y2="54.4033" gradientUnits="userSpaceOnUse">
<stop stop-color="#00A5C2"/>
<stop offset="1" stop-color="#00B2D0"/>
</linearGradient>
<linearGradient id="paint3_linear_117_119" x1="55.2133" y1="29.6385" x2="55.2133" y2="33.603" gradientUnits="userSpaceOnUse">
<stop stop-color="#00A5C2"/>
<stop offset="1" stop-color="#00B2D0"/>
</linearGradient>
<linearGradient id="paint4_linear_117_119" x1="29.9999" y1="5.59674" x2="29.9999" y2="50.8876" gradientUnits="userSpaceOnUse">
<stop stop-color="#00A5C2"/>
<stop offset="1" stop-color="#00B2D0"/>
</linearGradient>
<linearGradient id="paint5_linear_117_119" x1="8.90436" y1="39.776" x2="8.90436" y2="44.1908" gradientUnits="userSpaceOnUse">
<stop stop-color="#00A5C2"/>
<stop offset="1" stop-color="#00B2D0"/>
</linearGradient>
<linearGradient id="paint6_linear_117_119" x1="30" y1="36.4277" x2="30" y2="47.5393" gradientUnits="userSpaceOnUse">
<stop stop-color="#00A5C2"/>
<stop offset="1" stop-color="#00B2D0"/>
</linearGradient>
<linearGradient id="paint7_linear_117_119" x1="51.0956" y1="39.776" x2="51.0956" y2="44.1908" gradientUnits="userSpaceOnUse">
<stop stop-color="#00A5C2"/>
<stop offset="1" stop-color="#00B2D0"/>
</linearGradient>
<clipPath id="clip0_117_119">
<rect width="60" height="60" fill="white"/>
</clipPath>
</defs>
</svg>
