<svg width="60" height="60" viewBox="0 0 60 60" fill="none" xmlns="http://www.w3.org/2000/svg">
<g clip-path="url(#clip0_123_1131)">
<path d="M59.6153 51.0939L53.7653 39.4547C53.6417 39.2089 53.4103 39.0351 53.1399 38.9851C52.8695 38.9351 52.5911 39.0145 52.3879 39.1998C51.9748 39.5763 51.4372 39.7837 50.8742 39.7837C49.6302 39.7837 48.6183 38.7712 48.6183 37.5267C48.6183 36.4514 49.3831 35.5204 50.437 35.3129C50.7065 35.2598 50.9357 35.0838 51.0566 34.8371C51.1774 34.5904 51.1759 34.3014 51.0526 34.0559L49.5794 31.1235C48.8725 29.7179 47.4559 28.8448 45.8827 28.8446C45.8825 28.8446 45.8824 28.8446 45.8823 28.8446C45.7302 28.8446 45.5803 28.8552 45.4316 28.8712C45.3931 26.7001 45.3372 24.5261 45.263 22.3932C45.1886 20.2382 44.5549 18.1333 43.4304 16.3061C43.176 15.8927 42.6345 15.7638 42.2212 16.0183C41.8079 16.2727 41.679 16.8141 41.9334 17.2275C42.8985 18.7956 43.4423 20.6029 43.5062 22.4541C43.5867 24.7642 43.6458 27.1228 43.6841 29.4735C43.0565 29.8666 42.5347 30.4294 42.1859 31.1226L37.8859 39.6784C36.2213 37.0913 33.8905 35.0845 31.1714 35.0845C26.4285 35.0845 22.8668 41.1888 21.9623 45.8303H21.9055C21.4416 43.4502 20.279 40.6861 18.6167 38.5569C18.6047 36.8822 18.6045 35.1998 18.6147 33.5139C19.5228 33.532 20.433 33.5438 21.3457 33.5438C23.6262 33.5438 25.9159 33.4877 28.1875 33.3759C29.7275 33.3 30.9773 32.1338 31.1594 30.6027C31.4053 28.5353 31.4053 26.4386 31.1594 24.3712C30.9773 22.8401 29.7276 21.6738 28.188 21.5981C25.1142 21.447 22.0014 21.3988 18.9201 21.4525C19.3783 17.8441 21.6141 14.7411 24.9396 13.1707H37.4045C38.2786 13.5835 39.0944 14.1136 39.8302 14.7517C39.9965 14.896 40.2015 14.9667 40.4056 14.9667C40.6516 14.9667 40.8963 14.864 41.0701 14.6636C41.388 14.2969 41.3485 13.7418 40.9818 13.4237C40.5858 13.0804 40.1689 12.765 39.7355 12.4758C40.4956 11.879 40.9853 10.9526 40.9853 9.91348C40.9853 8.4219 39.9773 7.16223 38.607 6.77762V3.66954C38.6066 1.64615 36.9606 0 34.9371 0H27.4064C25.3831 0 23.7369 1.64615 23.7369 3.66954V6.77785C22.3665 7.16247 21.3584 8.42213 21.3584 9.91371C21.3584 10.9527 21.8479 11.8788 22.6078 12.4757C21.2809 13.3607 20.1297 14.4964 19.223 15.8287C17.9029 17.7685 17.1621 20.0386 17.0809 22.3932C16.916 27.1515 16.8386 31.9615 16.8494 36.7222C15.6191 35.7145 14.2187 35.0846 12.6963 35.0846C10.5592 35.0846 8.39676 36.393 6.60717 38.7688C6.31502 39.1564 6.39259 39.7076 6.78037 39.9996C7.16815 40.2918 7.71917 40.2142 8.01121 39.8264C8.85075 38.7119 10.5758 36.8424 12.6964 36.8424C14.3482 36.8424 16.0834 37.9992 17.5826 40.0995C18.7697 41.7626 19.6803 43.8433 20.1118 45.8305H5.28012C5.50465 44.7992 5.86173 43.7306 6.33236 42.6903C6.5324 42.248 6.33611 41.7273 5.89384 41.5272C5.45168 41.3271 4.9309 41.5234 4.73074 41.9657C4.15358 43.2415 3.73147 44.5625 3.48842 45.8303H2.28161C1.02429 45.8303 0.00146484 46.8532 0.00146484 48.1105C0.00146484 49.3677 1.02441 50.3906 2.28161 50.3906H2.71357C2.85947 51.7371 3.10545 53.0791 3.34604 54.3838C3.51748 55.3136 3.69479 56.2752 3.82956 57.2122C4.01214 58.4775 5.02371 59.462 6.29005 59.6065C8.59446 59.8684 10.6443 59.9994 12.695 59.9994C14.7427 59.9994 16.7911 59.8689 19.0938 59.6077C19.514 59.5598 19.9051 59.4187 20.2485 59.2077C21.1455 59.7274 22.1561 59.9998 23.2084 59.9998H31.1725L31.1703 59.9992C33.2216 59.9993 35.2725 59.8684 37.5781 59.6064C38.1886 59.5368 38.7388 59.2704 39.1667 58.8728C41.3412 59.6235 43.6032 59.9925 45.8551 59.9925C50.4353 59.9925 54.9721 58.471 58.6375 55.5562C59.9704 54.4972 60.3817 52.6205 59.6153 51.0939ZM25.4947 3.66954C25.4947 2.61542 26.3523 1.75783 27.4064 1.75783H34.9371C35.9912 1.75783 36.8488 2.61542 36.8488 3.66954V6.65633H25.4947V3.66954ZM24.6158 8.41416H37.7277C38.5546 8.41416 39.2272 9.08683 39.2272 9.91359C39.2272 10.7405 38.5545 11.4131 37.7277 11.4131H24.6158C23.7889 11.4131 23.1163 10.7405 23.1163 9.91359C23.1163 9.08683 23.789 8.41416 24.6158 8.41416ZM28.1014 23.3541C28.7813 23.3875 29.3333 23.9027 29.4136 24.579C29.6431 26.5087 29.6431 28.4656 29.4136 30.3953C29.3333 31.0716 28.7812 31.5869 28.1009 31.6203C24.9538 31.7752 21.7722 31.8204 18.6291 31.7577C18.6592 28.9071 18.7207 26.0521 18.8136 23.2129C21.9008 23.1562 25.0207 23.2027 28.1014 23.3541ZM43.756 31.9124C44.1688 31.0922 44.9634 30.6026 45.8821 30.6026H45.8823C46.8011 30.6027 47.5961 31.0927 48.0087 31.9131L49.0362 33.9583C47.7298 34.6334 46.8605 35.9982 46.8605 37.5268C46.8605 39.7406 48.661 41.5417 50.8742 41.5417C51.494 41.5417 52.0971 41.4001 52.6414 41.1328L57.5589 50.9165C57.5536 50.9207 57.5488 50.9254 57.5435 50.9296C55.0713 52.8959 52.1151 54.2111 48.9946 54.7331C46.1816 55.2036 43.2794 55.024 40.5526 54.2197C40.7834 52.9663 41.0146 51.6808 41.1542 50.3906H41.5866C42.844 50.3906 43.8668 49.3678 43.8668 48.1105C43.8668 46.8532 42.844 45.8303 41.5866 45.8303H40.3801C40.113 44.4598 39.6143 42.962 38.9218 41.5311L43.756 31.9124ZM26.2847 40.0997C27.784 37.9992 29.5195 36.8424 31.1711 36.8424C32.8233 36.8424 34.5587 37.9992 36.0579 40.0997C37.2449 41.7627 38.1553 43.8434 38.5867 45.8306H23.7555C24.1869 43.8436 25.0975 41.7629 26.2847 40.0997ZM1.7593 48.1107C1.7593 47.8227 1.99368 47.5884 2.28161 47.5884H41.5866C41.8747 47.5884 42.109 47.8227 42.109 48.1107C42.109 48.3987 41.8747 48.633 41.5866 48.633H2.28161C1.99356 48.6329 1.7593 48.3987 1.7593 48.1107ZM21.3996 57.8297C21.4759 57.6335 21.5326 57.4274 21.5635 57.2121C21.6457 56.6359 21.7432 55.9492 21.8451 55.2166C21.8521 55.1669 21.8559 55.1395 21.9338 55.1395C22.0119 55.1395 22.0156 55.1669 22.0225 55.2159C22.1246 55.9494 22.2221 56.636 22.3044 57.2131C22.3558 57.5704 22.4756 57.9042 22.647 58.2042C22.212 58.146 21.7926 58.02 21.3996 57.8297ZM37.3791 57.8601C32.916 58.3673 29.4374 58.3677 24.9729 57.8613C24.4944 57.8068 24.1125 57.4374 24.0444 56.964C23.9625 56.3894 23.8653 55.7049 23.7634 54.9727C23.6321 54.0359 22.8797 53.3816 21.9337 53.3818C20.9878 53.3818 20.2354 54.036 20.1042 54.9735C20.0023 55.7049 19.9052 56.3895 19.8234 56.9631C19.7552 57.4374 19.3733 57.8068 18.8951 57.8613C14.4298 58.3677 10.9512 58.3673 6.48892 57.8601C6.01607 57.8062 5.6379 57.4366 5.56934 56.9616C5.42965 55.9906 5.24918 55.0117 5.07457 54.0652C4.85156 52.856 4.6241 51.6144 4.4823 50.3907H39.3854C39.2433 51.6177 39.0153 52.8627 38.7918 54.0752C38.6179 55.0188 38.438 55.9944 38.2983 56.9623C38.2299 57.4371 37.8517 57.8062 37.3791 57.8601ZM57.5435 54.1804C52.6221 58.0939 45.9826 59.2574 40.0211 57.3045C40.0265 57.2741 40.0338 57.2443 40.0382 57.2136C40.0981 56.7989 40.1669 56.3793 40.2391 55.9599C42.0754 56.4828 43.9815 56.748 45.891 56.748C47.0258 56.748 48.1619 56.6546 49.2847 56.4669C52.532 55.9237 55.6156 54.5938 58.2382 52.6128C58.272 53.2044 58.0261 53.797 57.5435 54.1804Z" fill="url(#paint0_linear_123_1131)"/>
<path d="M46.7014 50.7883C47.2937 51.6498 48.186 52.2289 49.2138 52.4192C49.4543 52.4637 49.6953 52.4858 49.9346 52.4858C50.7186 52.4858 51.4837 52.2498 52.1437 51.796C53.0052 51.2037 53.5843 50.3115 53.7746 49.2836C53.965 48.2558 53.7436 47.2153 53.1514 46.3538C52.5592 45.4924 51.6669 44.9132 50.639 44.7229C49.6108 44.5326 48.5707 44.754 47.7092 45.3461C46.8478 45.9384 46.2687 46.8307 46.0783 47.8585C45.8878 48.8865 46.1092 49.927 46.7014 50.7883ZM47.8066 48.1786C47.9115 47.6123 48.2306 47.1208 48.7051 46.7946C49.0686 46.5446 49.49 46.4146 49.9218 46.4146C50.0537 46.4146 50.1866 46.4268 50.3189 46.4513C50.8851 46.5562 51.3766 46.8752 51.703 47.3498C52.0292 47.8243 52.1511 48.3975 52.0463 48.9637C51.9415 49.53 51.6224 50.0214 51.1479 50.3477C50.6733 50.6739 50.1 50.7958 49.5341 50.6911C48.9678 50.5862 48.4763 50.2672 48.15 49.7926C47.8237 49.318 47.7017 48.7448 47.8066 48.1786Z" fill="url(#paint1_linear_123_1131)"/>
<path d="M43.0098 45.5164C43.1851 45.5489 43.3609 45.5649 43.5354 45.5649C44.1069 45.5649 44.6647 45.3928 45.1459 45.0621C45.7739 44.6302 46.1961 43.9797 46.3349 43.2304C46.4737 42.481 46.3122 41.7225 45.8805 41.0943C45.4488 40.4662 44.7982 40.044 44.0489 39.9052C42.5019 39.619 41.0102 40.6443 40.7238 42.1913C40.4372 43.7383 41.4628 45.23 43.0098 45.5164ZM42.4521 42.5114C42.562 41.9175 43.1348 41.5235 43.7287 41.6338C44.0164 41.6871 44.2662 41.8491 44.432 42.0903C44.5978 42.3315 44.6597 42.6227 44.6065 42.9104C44.5532 43.1981 44.3911 43.4479 44.1499 43.6136C43.9089 43.7795 43.6179 43.8414 43.3298 43.7881C42.7359 43.678 42.3422 43.1053 42.4521 42.5114Z" fill="url(#paint2_linear_123_1131)"/>
</g>
<defs>
<linearGradient id="paint0_linear_123_1131" x1="30.0001" y1="0" x2="30.0001" y2="59.9998" gradientUnits="userSpaceOnUse">
<stop stop-color="#00A5C2"/>
<stop offset="1" stop-color="#00B2D0"/>
</linearGradient>
<linearGradient id="paint1_linear_123_1131" x1="49.9264" y1="44.6564" x2="49.9264" y2="52.4858" gradientUnits="userSpaceOnUse">
<stop stop-color="#00A5C2"/>
<stop offset="1" stop-color="#00B2D0"/>
</linearGradient>
<linearGradient id="paint2_linear_123_1131" x1="43.5296" y1="39.8573" x2="43.5296" y2="45.5649" gradientUnits="userSpaceOnUse">
<stop stop-color="#00A5C2"/>
<stop offset="1" stop-color="#00B2D0"/>
</linearGradient>
<clipPath id="clip0_123_1131">
<rect width="60" height="60" fill="white"/>
</clipPath>
</defs>
</svg>
