<svg width="60" height="60" viewBox="0 0 60 60" fill="none" xmlns="http://www.w3.org/2000/svg">
<g clip-path="url(#clip0_123_1127)">
<path d="M46.0492 44.606C46.5347 44.606 46.9281 44.2126 46.9281 43.7271V39.4687C46.9281 38.9832 46.5347 38.5898 46.0492 38.5898H15.9062C15.4207 38.5898 15.0273 38.9832 15.0273 39.4687V43.7271C15.0273 44.2126 15.4207 44.606 15.9062 44.606H46.0492ZM35.0931 42.8482H31.8568V40.3477H35.0931V42.8482ZM36.8509 40.3477H40.0874V42.8482H36.8509V40.3477ZM30.0989 42.8482H26.8625V40.3477H30.0989V42.8482ZM25.1046 42.8482H21.8683V40.3477H25.1046V42.8482ZM45.1703 42.8482H41.8452V40.3477H45.1703V42.8482ZM16.7852 40.3477H20.1104V42.8482H16.7852V40.3477Z" fill="url(#paint0_linear_123_1127)"/>
<path d="M59.1211 54.3328H56.5884V20.9323H56.9578C57.4433 20.9323 57.8367 20.5389 57.8367 20.0533C57.8367 19.5678 57.4433 19.1744 56.9578 19.1744H56.5884V16.0638H56.9578C57.4433 16.0638 57.8367 15.6704 57.8367 15.1849C57.8367 14.6994 57.4433 14.306 56.9578 14.306C55.5138 14.306 47.4363 14.306 45.7964 14.306C45.3109 14.306 44.9175 14.6994 44.9175 15.1849C44.9175 15.6704 45.3109 16.0638 45.7964 16.0638H46.1658V19.1744H45.7964C45.3109 19.1744 44.9175 19.5678 44.9175 20.0533C44.9175 20.5389 45.3109 20.9323 45.7964 20.9323H46.1658V24.7589L40.1164 18.7096C39.5632 18.1561 38.8275 17.8514 38.0448 17.8514H34.1815V10.8308H34.6918C35.1773 10.8308 35.5707 10.4374 35.5707 9.9519C35.5707 9.46639 35.1773 9.07299 34.6918 9.07299H34.1815V5.66718H34.6918C35.1773 5.66718 35.5707 5.27378 35.5707 4.78827C35.5707 4.30276 35.1773 3.90936 34.6918 3.90936C32.4704 3.90936 20.555 3.90936 18.0813 3.90936C17.5958 3.90936 17.2024 4.30276 17.2024 4.78827C17.2024 5.27378 17.5958 5.66718 18.0813 5.66718H18.5918V9.07288H18.0813C17.5958 9.07288 17.2024 9.46628 17.2024 9.95178C17.2024 10.4373 17.5958 10.8307 18.0813 10.8307H18.5918V14.7742C18.5918 15.2597 18.9852 15.6531 19.4707 15.6531C19.9562 15.6531 20.3496 15.2597 20.3496 14.7742V10.8308H32.4236V34.6413H20.3497V18.2884C20.3497 17.8029 19.9563 17.4095 19.4708 17.4095C18.9853 17.4095 18.5919 17.8029 18.5919 18.2884V34.6413H15.2228V30.6676H15.6462C16.1317 30.6676 16.5251 30.2742 16.5251 29.7887C16.5251 29.3032 16.1317 28.9098 15.6462 28.9098H15.2228V28.6107C15.2228 28.1252 14.8294 27.7318 14.3439 27.7318C13.8584 27.7318 13.465 28.1252 13.465 28.6107V28.9098H13.0417C12.5562 28.9098 12.1628 29.3032 12.1628 29.7887C12.1628 30.2742 12.5562 30.6676 13.0417 30.6676H13.465V34.6413H11.5646C10.6914 34.6413 9.98074 35.3518 9.98074 36.2252V41.9804H8.24414C6.44367 41.9804 4.74504 42.7747 3.58383 44.1599C3.27199 44.5318 3.32074 45.0861 3.6927 45.398C4.06465 45.7099 4.61895 45.661 4.93078 45.2891C5.75719 44.3035 6.96469 43.7382 8.24402 43.7382H9.98063V46.082H8.24414C7.15289 46.082 6.26496 46.9698 6.26496 48.0612V54.3329H3.92121V48.0807C3.92121 47.5952 3.52781 47.2018 3.0423 47.2018C2.5568 47.2018 2.1634 47.5952 2.1634 48.0807V54.3329H0.878906C0.393398 54.3329 0 54.7263 0 55.2118C0 55.6973 0.393398 56.0907 0.878906 56.0907H59.1211C59.6066 56.0907 60 55.6973 60 55.2118C60 54.7263 59.6066 54.3328 59.1211 54.3328ZM20.3497 9.07299V5.66718H32.4237V9.07288H20.3497V9.07299ZM47.9236 16.0638H54.8305V19.1744H47.9236V16.0638ZM38.0448 19.6092C38.3578 19.6092 38.6521 19.7311 38.8733 19.9526L46.1658 27.245V30.5594L37.8169 22.2104C37.652 22.0457 37.4285 21.9531 37.1953 21.9531H34.1815V19.6093H38.0448V19.6092ZM8.02277 48.061C8.02277 47.939 8.12215 47.8397 8.24414 47.8397H9.98074V54.3327H8.02277V48.061ZM11.7386 36.399H38.3988C38.8843 36.399 39.2777 36.0056 39.2777 35.5201C39.2777 35.0346 38.8843 34.6412 38.3988 34.6412H34.1816V23.7108H36.8313L46.1658 33.0453V34.6412H41.9129C41.4274 34.6412 41.034 35.0346 41.034 35.5201C41.034 36.0056 41.4274 36.399 41.9129 36.399H50.2165V54.3328H38.3377V48.2318C38.3377 47.7463 37.9443 47.3529 37.4588 47.3529H24.4962C24.0107 47.3529 23.6173 47.7463 23.6173 48.2318V54.3328H11.7386C11.7386 53.5601 11.7386 37.1829 11.7386 36.399ZM25.3751 54.3328V49.1107H36.5798V54.3328H25.3751ZM51.9744 54.3328V36.2251C51.9744 35.3518 51.2639 34.6412 50.3905 34.6412H47.9236C47.9236 31.9078 47.9236 23.7763 47.9236 20.9323H54.8305V54.3328H51.9744Z" fill="url(#paint1_linear_123_1127)"/>
</g>
<defs>
<linearGradient id="paint0_linear_123_1127" x1="30.9777" y1="38.5898" x2="30.9777" y2="44.606" gradientUnits="userSpaceOnUse">
<stop stop-color="#00A5C2"/>
<stop offset="1" stop-color="#00B2D0"/>
</linearGradient>
<linearGradient id="paint1_linear_123_1127" x1="30" y1="3.90936" x2="30" y2="56.0907" gradientUnits="userSpaceOnUse">
<stop stop-color="#00A5C2"/>
<stop offset="1" stop-color="#00B2D0"/>
</linearGradient>
<clipPath id="clip0_123_1127">
<rect width="60" height="60" fill="white"/>
</clipPath>
</defs>
</svg>
