<svg width="60" height="60" viewBox="0 0 60 60" fill="none" xmlns="http://www.w3.org/2000/svg">
<g clip-path="url(#clip0_117_67)">
<path d="M59.5527 16.5254L30.4317 0.113203C30.1639 -0.0377344 29.8365 -0.0377344 29.5687 0.113203L12.3554 9.81445C11.9326 10.0528 11.7829 10.5887 12.0213 11.0116C12.2597 11.4346 12.7956 11.5841 13.2185 11.3459L30.0002 1.88777L57.9242 17.6255L56.8408 19.5492L30.4317 4.66524C30.1639 4.5143 29.8365 4.5143 29.5687 4.66524L3.15958 19.5492L2.07618 17.6255L9.64309 13.3608C10.0659 13.1224 10.2156 12.5865 9.97719 12.1636C9.73895 11.7408 9.20305 11.5913 8.78001 11.8295L0.447741 16.5254C0.0250456 16.7637 -0.124603 17.2995 0.113405 17.7224L2.0593 21.1778C2.1738 21.3809 2.36423 21.5303 2.58876 21.593C2.81364 21.6559 3.05364 21.6266 3.25673 21.5121L5.09798 20.4744V46.4322H3.63313C3.14774 46.4322 2.75423 46.8257 2.75423 47.3111V51.2756C2.75423 51.761 3.14774 52.1545 3.63313 52.1545H10.4486C10.934 52.1545 11.3275 51.761 11.3275 51.2756C11.3275 50.7902 10.934 50.3967 10.4486 50.3967H4.51204V48.19H10.522C11.0074 48.19 11.4009 47.7964 11.4009 47.3111C11.4009 46.8257 11.0074 46.4322 10.522 46.4322H6.85579V19.4837L30.0002 6.43981L53.1446 19.4837V27.0376C53.1446 27.523 53.5381 27.9165 54.0235 27.9165C54.5089 27.9165 54.9024 27.523 54.9024 27.0376V20.4743L56.7437 21.512C56.8766 21.5869 57.0253 21.6252 57.1753 21.6252C57.2545 21.6252 57.334 21.6145 57.4117 21.5929C57.6362 21.5302 57.8266 21.3807 57.9411 21.1777L59.887 17.7223C60.1251 17.2996 59.9755 16.7638 59.5527 16.5254Z" fill="url(#paint0_linear_117_67)"/>
<path d="M56.367 46.4323H54.9021V31.0642C54.9021 30.5788 54.5086 30.1853 54.0232 30.1853C53.5378 30.1853 53.1443 30.5788 53.1443 31.0642V46.4323H49.3303C48.8449 46.4323 48.4514 46.8258 48.4514 47.3112C48.4514 47.7966 48.8449 48.1901 49.3303 48.1901H55.4881V50.3968H49.3303C48.8449 50.3968 48.4514 50.7903 48.4514 51.2757C48.4514 51.7611 48.8449 52.1546 49.3303 52.1546H56.367C56.8524 52.1546 57.2459 51.7611 57.2459 51.2757V47.3112C57.2459 46.8257 56.8524 46.4323 56.367 46.4323Z" fill="url(#paint1_linear_117_67)"/>
<path d="M42.9824 40.8432C42.8258 40.5697 42.5347 40.401 42.2196 40.401H39.7303V37.2766C39.7303 36.7913 39.3368 36.3977 38.8514 36.3977H21.6253C21.1399 36.3977 20.7464 36.7913 20.7464 37.2766C20.7464 37.762 21.1399 38.1555 21.6253 38.1555H37.9725V51.9192C36.4213 52.2599 35.1971 53.4831 34.8559 55.0332H25.2198C24.8163 53.2001 23.1782 51.8242 21.2244 51.8242C19.2707 51.8242 17.6324 53.2001 17.2289 55.0332H14.947V38.1555H17.515C18.0003 38.1555 18.3939 37.762 18.3939 37.2766C18.3939 36.7913 18.0003 36.3977 17.515 36.3977H14.0681C13.5827 36.3977 13.1892 36.7913 13.1892 37.2766V55.912C13.1892 56.3974 13.5827 56.7909 14.0681 56.7909H17.2289C17.6324 58.6241 19.2707 60 21.2244 60C23.1782 60 24.8164 58.6241 25.2198 56.7909H34.8559C35.2594 58.6241 36.8976 60 38.8514 60C40.8051 60 42.4434 58.6241 42.8469 56.7909H45.9321C46.4175 56.7909 46.811 56.3974 46.811 55.912V47.7666C46.811 47.6134 46.771 47.4629 46.6949 47.3299L42.9824 40.8432ZM21.2244 58.2422C19.938 58.2422 18.8914 57.1969 18.8914 55.912C18.8914 54.6272 19.938 53.5819 21.2244 53.5819C22.5108 53.5819 23.5573 54.6272 23.5573 55.912C23.5573 57.1969 22.5108 58.2422 21.2244 58.2422ZM39.7303 42.1587H41.7098L44.4164 46.8877H39.7303V42.1587ZM38.8514 58.2422C37.565 58.2422 36.5185 57.1969 36.5185 55.912C36.5185 54.6272 37.565 53.5819 38.8514 53.5819C40.1378 53.5819 41.1844 54.6272 41.1844 55.912C41.1844 57.1969 40.1378 58.2422 38.8514 58.2422ZM45.0532 55.0331H42.8469C42.5058 53.483 41.2816 52.2598 39.7303 51.9191V48.6455H45.0532V55.0331Z" fill="url(#paint2_linear_117_67)"/>
<path d="M20.8291 46.5943C20.8291 47.0797 21.2226 47.4732 21.708 47.4732H29.0886L28.0845 48.4767C27.7412 48.8198 27.7411 49.3763 28.0842 49.7196C28.2557 49.8914 28.4807 49.9772 28.7059 49.9772C28.9306 49.9772 29.1555 49.8914 29.3272 49.7199L31.8327 47.2159C31.9975 47.0511 32.0902 46.8274 32.0902 46.5942C32.0902 46.361 31.9975 46.1374 31.8327 45.9725L29.3272 43.4685C28.9838 43.1252 28.4273 43.1253 28.0843 43.4688C27.7412 43.8122 27.7413 44.3687 28.0847 44.7117L29.0887 45.7152H21.7081C21.2226 45.7154 20.8291 46.1089 20.8291 46.5943Z" fill="url(#paint3_linear_117_67)"/>
<path d="M17.8022 32.3652V25.7729C17.8022 25.2875 17.4087 24.894 16.9233 24.894H10.3335C9.84811 24.894 9.45459 25.2875 9.45459 25.7729V32.3652C9.45459 32.8506 9.84811 33.2441 10.3335 33.2441H16.9233C17.4087 33.2441 17.8022 32.8506 17.8022 32.3652ZM16.0444 31.4863H11.2124V26.6518H12.7495V27.4706C12.7495 27.956 13.1431 28.3495 13.6285 28.3495C14.1138 28.3495 14.5074 27.956 14.5074 27.4706V26.6518H16.0445V31.4863H16.0444Z" fill="url(#paint4_linear_117_67)"/>
<path d="M20.3416 32.3652C20.3416 32.8506 20.7351 33.2441 21.2205 33.2441H27.8103C28.2957 33.2441 28.6892 32.8506 28.6892 32.3652V25.7729C28.6892 25.2875 28.2957 24.894 27.8103 24.894H21.2205C20.7351 24.894 20.3416 25.2875 20.3416 25.7729V32.3652ZM22.0994 26.6518H23.6365V27.4706C23.6365 27.956 24.03 28.3495 24.5154 28.3495C25.0008 28.3495 25.3943 27.956 25.3943 27.4706V26.6518H26.9315V31.4863H22.0994V26.6518Z" fill="url(#paint5_linear_117_67)"/>
<path d="M31.2278 32.3652C31.2278 32.8506 31.6213 33.2441 32.1067 33.2441H38.6965C39.1819 33.2441 39.5754 32.8506 39.5754 32.3652V25.7729C39.5754 25.2875 39.1819 24.894 38.6965 24.894H32.1067C31.6213 24.894 31.2278 25.2875 31.2278 25.7729V32.3652ZM32.9856 26.6518H34.5227V27.4706C34.5227 27.956 34.9163 28.3495 35.4017 28.3495C35.887 28.3495 36.2806 27.956 36.2806 27.4706V26.6518H37.8177V31.4863H32.9857V26.6518H32.9856Z" fill="url(#paint6_linear_117_67)"/>
<path d="M42.9937 33.2441H49.5835C50.0688 33.2441 50.4624 32.8506 50.4624 32.3652V25.7729C50.4624 25.2875 50.0688 24.894 49.5835 24.894H42.9937C42.5083 24.894 42.1147 25.2875 42.1147 25.7729V32.3652C42.1147 32.8506 42.5083 33.2441 42.9937 33.2441ZM43.8726 26.6518H45.4097V27.4706C45.4097 27.956 45.8032 28.3495 46.2886 28.3495C46.774 28.3495 47.1675 27.956 47.1675 27.4706V26.6518H48.7047V31.4863H43.8727V26.6518H43.8726Z" fill="url(#paint7_linear_117_67)"/>
<path d="M21.2205 22.6327H27.8103C28.2957 22.6327 28.6892 22.2392 28.6892 21.7538V15.1615C28.6892 14.6761 28.2957 14.2826 27.8103 14.2826H21.2205C20.7351 14.2826 20.3416 14.6761 20.3416 15.1615V21.7538C20.3416 22.2392 20.7351 22.6327 21.2205 22.6327ZM22.0994 16.0404H23.6365V16.8593C23.6365 17.3447 24.03 17.7382 24.5154 17.7382C25.0008 17.7382 25.3943 17.3447 25.3943 16.8593V16.0404H26.9315V20.8749H22.0994V16.0404Z" fill="url(#paint8_linear_117_67)"/>
<path d="M32.1067 22.6327H38.6965C39.1819 22.6327 39.5754 22.2392 39.5754 21.7538V15.1615C39.5754 14.6761 39.1819 14.2826 38.6965 14.2826H32.1067C31.6213 14.2826 31.2278 14.6761 31.2278 15.1615V21.7538C31.2278 22.2392 31.6213 22.6327 32.1067 22.6327ZM32.9856 16.0404H34.5227V16.8593C34.5227 17.3447 34.9163 17.7382 35.4017 17.7382C35.887 17.7382 36.2806 17.3447 36.2806 16.8593V16.0404H37.8177V20.8749H32.9857V16.0404H32.9856Z" fill="url(#paint9_linear_117_67)"/>
</g>
<defs>
<linearGradient id="paint0_linear_117_67" x1="30.0002" y1="0" x2="30.0002" y2="52.1545" gradientUnits="userSpaceOnUse">
<stop stop-color="#00A5C2"/>
<stop offset="1" stop-color="#00B2D0"/>
</linearGradient>
<linearGradient id="paint1_linear_117_67" x1="52.8486" y1="30.1853" x2="52.8486" y2="52.1546" gradientUnits="userSpaceOnUse">
<stop stop-color="#00A5C2"/>
<stop offset="1" stop-color="#00B2D0"/>
</linearGradient>
<linearGradient id="paint2_linear_117_67" x1="30.0001" y1="36.3977" x2="30.0001" y2="60" gradientUnits="userSpaceOnUse">
<stop stop-color="#00A5C2"/>
<stop offset="1" stop-color="#00B2D0"/>
</linearGradient>
<linearGradient id="paint3_linear_117_67" x1="26.4597" y1="43.2111" x2="26.4597" y2="49.9772" gradientUnits="userSpaceOnUse">
<stop stop-color="#00A5C2"/>
<stop offset="1" stop-color="#00B2D0"/>
</linearGradient>
<linearGradient id="paint4_linear_117_67" x1="13.6284" y1="24.894" x2="13.6284" y2="33.2441" gradientUnits="userSpaceOnUse">
<stop stop-color="#00A5C2"/>
<stop offset="1" stop-color="#00B2D0"/>
</linearGradient>
<linearGradient id="paint5_linear_117_67" x1="24.5154" y1="24.894" x2="24.5154" y2="33.2441" gradientUnits="userSpaceOnUse">
<stop stop-color="#00A5C2"/>
<stop offset="1" stop-color="#00B2D0"/>
</linearGradient>
<linearGradient id="paint6_linear_117_67" x1="35.4016" y1="24.894" x2="35.4016" y2="33.2441" gradientUnits="userSpaceOnUse">
<stop stop-color="#00A5C2"/>
<stop offset="1" stop-color="#00B2D0"/>
</linearGradient>
<linearGradient id="paint7_linear_117_67" x1="46.2886" y1="24.894" x2="46.2886" y2="33.2441" gradientUnits="userSpaceOnUse">
<stop stop-color="#00A5C2"/>
<stop offset="1" stop-color="#00B2D0"/>
</linearGradient>
<linearGradient id="paint8_linear_117_67" x1="24.5154" y1="14.2826" x2="24.5154" y2="22.6327" gradientUnits="userSpaceOnUse">
<stop stop-color="#00A5C2"/>
<stop offset="1" stop-color="#00B2D0"/>
</linearGradient>
<linearGradient id="paint9_linear_117_67" x1="35.4016" y1="14.2826" x2="35.4016" y2="22.6327" gradientUnits="userSpaceOnUse">
<stop stop-color="#00A5C2"/>
<stop offset="1" stop-color="#00B2D0"/>
</linearGradient>
<clipPath id="clip0_117_67">
<rect width="60" height="60" fill="white"/>
</clipPath>
</defs>
</svg>
