<svg width="60" height="60" viewBox="0 0 60 60" fill="none" xmlns="http://www.w3.org/2000/svg">
<g clip-path="url(#clip0_123_1196)">
<path d="M40.3132 14.5249H37.6547C37.169 14.5249 36.7754 14.9185 36.7754 15.4042C36.7754 15.8898 37.169 16.2834 37.6547 16.2834H40.3132C40.7988 16.2834 41.1924 15.8898 41.1924 15.4042C41.1924 14.9185 40.7989 14.5249 40.3132 14.5249Z" fill="url(#paint0_linear_123_1196)"/>
<path d="M22.3454 14.5249H19.6869C19.2012 14.5249 18.8076 14.9185 18.8076 15.4042C18.8076 15.8898 19.2012 16.2834 19.6869 16.2834H22.3454C22.831 16.2834 23.2246 15.8898 23.2246 15.4042C23.2246 14.9185 22.831 14.5249 22.3454 14.5249Z" fill="url(#paint1_linear_123_1196)"/>
<path d="M58.2207 15.877L31.2677 0.338206C30.4859 -0.112615 29.5139 -0.112732 28.7318 0.338323L9.32625 11.526C8.90566 11.7684 8.76117 12.3061 9.00375 12.7268C9.24609 13.1473 9.78398 13.292 10.2046 13.0493L29.6101 1.86164C29.8508 1.72289 30.1492 1.72301 30.3896 1.86153L57.3425 17.4004C58.1387 17.8595 58.0903 19.0204 57.2597 19.4122L56.9501 19.5582L31.268 4.75207C30.4856 4.30102 29.514 4.30102 28.7317 4.75207H28.7318L3.0498 19.5582L2.7402 19.4122C1.90875 19.0201 1.86187 17.8591 2.65734 17.4004L6.63797 15.1055C7.05855 14.863 7.20305 14.3254 6.96047 13.9047C6.71812 13.4841 6.18012 13.3393 5.75965 13.5822L1.77891 15.8772C-0.243281 17.0432 -0.122227 20.0066 1.98996 21.0027L2.21121 21.1071V22.3914C2.21121 23.5949 2.99695 24.6176 4.08211 24.9755V26.6726C4.08211 27.883 4.95375 28.8921 6.10207 29.1091V50.7266C4.95375 50.9436 4.08211 51.9527 4.08211 53.163V54.4233C3.04793 54.439 2.21121 55.2838 2.21121 56.3217V58.1004C2.21121 59.1479 3.0634 60.0001 4.11094 60.0001H55.8884C56.9359 60.0001 57.7881 59.1479 57.7881 58.1004V56.3217C57.7881 55.2838 56.9514 54.439 55.9172 54.4233V53.163C55.9172 51.9527 55.0455 50.9436 53.8972 50.7266V47.6575C53.8972 47.1718 53.5036 46.7782 53.018 46.7782C52.5323 46.7782 52.1387 47.1718 52.1387 47.6575V50.682H49.326V29.1538H52.1387V43.5536C52.1387 44.0392 52.5323 44.4328 53.018 44.4328C53.5036 44.4328 53.8972 44.0392 53.8972 43.5536V29.1091C55.0455 28.8921 55.9172 27.883 55.9172 26.6726V24.9755C57.0023 24.6176 57.7881 23.5948 57.7881 22.3914V21.1071L58.0093 21.0027C60.1211 20.0071 60.2439 17.0435 58.2207 15.877ZM29.6101 6.27539C29.8505 6.13688 30.1491 6.13688 30.3895 6.27539L53.6236 19.6704H6.37605L29.6101 6.27539ZM5.84074 26.6726V25.1121H12.6934V26.6726C12.6934 27.0711 12.3691 27.3953 11.9707 27.3953H6.56344C6.165 27.3953 5.84074 27.0711 5.84074 26.6726ZM45.5479 25.1121V26.6726C45.5479 27.883 46.4195 28.8921 47.5678 29.1091V50.7266C46.4195 50.9436 45.5479 51.9527 45.5479 53.163V54.4218H14.4519V53.163C14.4519 51.9527 13.5803 50.9436 12.432 50.7266V29.1091C13.5803 28.8921 14.4519 27.883 14.4519 26.6726V25.1121H45.5479ZM7.8607 50.682V29.1538H10.6734V50.682H7.8607ZM6.56344 52.4404H11.9706C12.3691 52.4404 12.6933 52.7646 12.6933 53.1629V54.4216H5.84074V53.1629C5.84074 52.7646 6.165 52.4404 6.56344 52.4404ZM56.0298 56.3216V58.1003C56.0298 58.1781 55.9664 58.2416 55.8885 58.2416H4.11117C4.03336 58.2416 3.96984 58.1782 3.96984 58.1003V56.3216C3.96984 56.2437 4.03324 56.1802 4.11117 56.1802H55.8886C55.9664 56.1803 56.0298 56.2437 56.0298 56.3216ZM54.1589 53.163V54.4218H47.3063V53.163C47.3063 52.7646 47.6305 52.4405 48.0289 52.4405H53.4361C53.8348 52.4404 54.1589 52.7646 54.1589 53.163ZM53.4362 27.3953H48.0291C47.6305 27.3953 47.3064 27.071 47.3064 26.6726V25.1121H54.159V26.6726C54.1589 27.0711 53.8348 27.3953 53.4362 27.3953ZM55.0673 23.3537H4.9323C4.40156 23.3537 3.96984 22.922 3.96984 22.3914V21.4289H56.0298V22.3914C56.0298 22.922 55.5981 23.3537 55.0673 23.3537Z" fill="url(#paint2_linear_123_1196)"/>
<path d="M29.9996 9.21118C27.5619 9.21118 25.5786 11.1943 25.5786 13.6321C25.5786 16.0698 27.5619 18.0531 29.9996 18.0531C32.4374 18.0531 34.4206 16.0698 34.4206 13.6321C34.4206 11.1943 32.4372 9.21118 29.9996 9.21118ZM29.9996 16.2946C28.5315 16.2946 27.3371 15.1002 27.3371 13.6321C27.3371 12.1641 28.5315 10.9697 29.9996 10.9697C31.4677 10.9697 32.6621 12.1641 32.6621 13.6321C32.6621 15.1002 31.4677 16.2946 29.9996 16.2946Z" fill="url(#paint3_linear_123_1196)"/>
<path d="M18.6273 42.6764H19.5233C19.8386 43.3431 20.4745 43.8275 21.2318 43.9298V49.0373C21.2318 50.0907 22.0888 50.9476 23.1422 50.9476H24.5739C25.4753 50.9476 26.242 50.3331 26.4384 49.4531L27.6653 43.9519L29.1045 43.9517H29.1062C31.5435 43.9517 34.9126 44.462 37.3373 46.8456V47.1458C37.3373 48.5194 38.4491 49.6316 39.8231 49.6316H39.8235C41.1942 49.6314 42.3093 48.5162 42.309 47.1455L42.3076 30.5448C42.3074 29.1712 41.1959 28.0591 39.8218 28.0591C39.8217 28.0591 39.8216 28.0591 39.8215 28.0591C38.4509 28.0594 37.3358 29.1745 37.3358 30.5453V30.8457C34.911 33.23 31.541 33.7406 29.1035 33.7409L21.5295 33.7414C20.538 33.7416 19.6966 34.395 19.4121 35.2937L18.6267 35.2938C16.5866 35.2938 14.9353 36.945 14.9355 38.9855C14.9358 41.0257 16.5872 42.6766 18.6273 42.6764ZM24.7221 49.0701C24.7065 49.1402 24.6455 49.1891 24.5739 49.1891H23.1422C23.0584 49.1891 22.9903 49.121 22.9903 49.0373V43.9522L25.8635 43.952L24.7221 49.0701ZM39.8217 29.8174C40.2236 29.8174 40.5491 30.1429 40.5491 30.5448L40.5505 47.1455C40.5505 47.5465 40.2244 47.8728 39.8232 47.8728C39.4213 47.8728 39.0959 47.5476 39.0959 47.1455L39.0943 30.5449C39.0943 30.1438 39.4206 29.8174 39.8217 29.8174ZM29.1038 35.4991C32.3772 35.4989 35.1822 34.6875 37.3361 33.1366L37.3371 44.5543C35.1834 43.0039 32.3789 42.1931 29.1062 42.1931C29.1057 42.1931 29.1048 42.1931 29.1042 42.1931H28.9099L28.9093 35.4991H29.1038ZM21.5297 35.4997L27.1508 35.4993L27.1514 42.1932C24.935 42.1934 23.0898 42.1936 21.5302 42.1937C21.4066 42.1937 21.2905 42.1457 21.2032 42.0582C21.0554 41.9105 21.073 41.7424 21.0676 41.7166L21.0671 35.9624C21.0673 35.7073 21.2747 35.4997 21.5297 35.4997ZM18.6268 37.0521L19.3088 37.052L19.3091 40.9178H18.6271C17.5588 40.9178 16.6941 40.0534 16.6941 38.9849C16.6941 37.9167 17.5584 37.0521 18.6268 37.0521Z" fill="url(#paint4_linear_123_1196)"/>
</g>
<defs>
<linearGradient id="paint0_linear_123_1196" x1="38.9839" y1="14.5249" x2="38.9839" y2="16.2834" gradientUnits="userSpaceOnUse">
<stop stop-color="#00A5C2"/>
<stop offset="1" stop-color="#00B2D0"/>
</linearGradient>
<linearGradient id="paint1_linear_123_1196" x1="21.0161" y1="14.5249" x2="21.0161" y2="16.2834" gradientUnits="userSpaceOnUse">
<stop stop-color="#00A5C2"/>
<stop offset="1" stop-color="#00B2D0"/>
</linearGradient>
<linearGradient id="paint2_linear_123_1196" x1="29.9998" y1="6.10352e-05" x2="29.9998" y2="60.0001" gradientUnits="userSpaceOnUse">
<stop stop-color="#00A5C2"/>
<stop offset="1" stop-color="#00B2D0"/>
</linearGradient>
<linearGradient id="paint3_linear_123_1196" x1="29.9996" y1="9.21118" x2="29.9996" y2="18.0531" gradientUnits="userSpaceOnUse">
<stop stop-color="#00A5C2"/>
<stop offset="1" stop-color="#00B2D0"/>
</linearGradient>
<linearGradient id="paint4_linear_123_1196" x1="28.6223" y1="28.0591" x2="28.6223" y2="50.9476" gradientUnits="userSpaceOnUse">
<stop stop-color="#00A5C2"/>
<stop offset="1" stop-color="#00B2D0"/>
</linearGradient>
<clipPath id="clip0_123_1196">
<rect width="60" height="60" fill="white"/>
</clipPath>
</defs>
</svg>
