<svg width="60" height="60" viewBox="0 0 60 60" fill="none" xmlns="http://www.w3.org/2000/svg">
<path d="M7.5 58.125H16.875C18.1178 58.1236 19.3093 57.6293 20.188 56.7505C21.0668 55.8717 21.5611 54.6803 21.5625 53.4375V51.5625C21.563 50.8702 21.307 50.2022 20.844 49.6875C21.3066 49.1725 21.5625 48.5047 21.5625 47.8125C21.5625 47.1203 21.3066 46.4525 20.844 45.9375C21.3066 45.4225 21.5625 44.7547 21.5625 44.0625C21.5625 43.3703 21.3066 42.7025 20.844 42.1875C21.3066 41.6725 21.5625 41.0047 21.5625 40.3125C21.5625 39.6203 21.3066 38.9525 20.844 38.4375C21.307 37.9228 21.563 37.2548 21.5625 36.5625V17.7532C21.563 17.3408 21.4726 16.9334 21.2977 16.56C21.1228 16.1865 20.8677 15.8562 20.5506 15.5926L15.9375 11.7484V9.375C16.1861 9.375 16.4246 9.27623 16.6004 9.10041C16.7762 8.9246 16.875 8.68614 16.875 8.4375V4.6875C16.8741 3.94185 16.5775 3.22698 16.0503 2.69972C15.523 2.17246 14.8082 1.87587 14.0625 1.875H10.3125C9.56685 1.87587 8.85198 2.17246 8.32472 2.69972C7.79747 3.22698 7.50087 3.94185 7.5 4.6875V8.4375C7.5 8.68614 7.59877 8.9246 7.77459 9.10041C7.95041 9.27623 8.18886 9.375 8.4375 9.375V11.7484L3.82442 15.5921C3.50724 15.8558 3.25212 16.1862 3.07721 16.5597C2.9023 16.9332 2.81192 17.3407 2.8125 17.7532V36.5625C2.81203 37.2548 3.06798 37.9228 3.53098 38.4375C3.06839 38.9525 2.8125 39.6203 2.8125 40.3125C2.8125 41.0047 3.06839 41.6725 3.53098 42.1875C3.06839 42.7025 2.8125 43.3703 2.8125 44.0625C2.8125 44.7547 3.06839 45.4225 3.53098 45.9375C3.06839 46.4525 2.8125 47.1203 2.8125 47.8125C2.8125 48.5047 3.06839 49.1725 3.53098 49.6875C3.06798 50.2022 2.81203 50.8702 2.8125 51.5625V53.4375C2.8139 54.6803 3.30821 55.8717 4.18698 56.7505C5.06576 57.6293 6.25723 58.1236 7.5 58.125ZM19.6875 53.4375C19.6867 54.1832 19.3901 54.898 18.8628 55.4253C18.3356 55.9526 17.6207 56.2492 16.875 56.25H7.5C6.75434 56.2492 6.03945 55.9526 5.51219 55.4253C4.98493 54.898 4.68834 54.1832 4.6875 53.4375V51.5625C4.68778 51.3139 4.78664 51.0756 4.9624 50.8999C5.13815 50.7241 5.37645 50.6253 5.625 50.625H18.75C18.9986 50.6253 19.2369 50.7241 19.4126 50.8999C19.5884 51.0756 19.6872 51.3139 19.6875 51.5625V53.4375ZM4.6875 47.8125C4.68778 47.5639 4.78664 47.3256 4.9624 47.1499C5.13815 46.9741 5.37645 46.8753 5.625 46.875H18.75C18.9986 46.875 19.2371 46.9738 19.4129 47.1496C19.5887 47.3254 19.6875 47.5639 19.6875 47.8125C19.6875 48.0611 19.5887 48.2996 19.4129 48.4754C19.2371 48.6512 18.9986 48.75 18.75 48.75H5.625C5.37645 48.7497 5.13815 48.6509 4.9624 48.4751C4.78664 48.2994 4.68778 48.0611 4.6875 47.8125ZM4.6875 44.0625C4.68778 43.8139 4.78664 43.5756 4.9624 43.3999C5.13815 43.2241 5.37645 43.1253 5.625 43.125H18.75C18.9986 43.125 19.2371 43.2238 19.4129 43.3996C19.5887 43.5754 19.6875 43.8139 19.6875 44.0625C19.6875 44.3111 19.5887 44.5496 19.4129 44.7254C19.2371 44.9012 18.9986 45 18.75 45H5.625C5.37645 44.9997 5.13815 44.9009 4.9624 44.7251C4.78664 44.5494 4.68778 44.3111 4.6875 44.0625ZM4.6875 40.3125C4.68778 40.0639 4.78664 39.8256 4.9624 39.6499C5.13815 39.4741 5.37645 39.3753 5.625 39.375H18.75C18.9986 39.375 19.2371 39.4738 19.4129 39.6496C19.5887 39.8254 19.6875 40.0639 19.6875 40.3125C19.6875 40.5611 19.5887 40.7996 19.4129 40.9754C19.2371 41.1512 18.9986 41.25 18.75 41.25H5.625C5.37645 41.2497 5.13815 41.1509 4.9624 40.9751C4.78664 40.7994 4.68778 40.5611 4.6875 40.3125ZM4.6875 36.5625V35.625H19.6875V36.5625C19.6872 36.8111 19.5884 37.0494 19.4126 37.2251C19.2369 37.4009 18.9986 37.4997 18.75 37.5H5.625C5.37645 37.4997 5.13815 37.4009 4.9624 37.2251C4.78664 37.0494 4.68778 36.8111 4.6875 36.5625ZM19.6875 33.75H4.6875V20.625H19.6875V33.75ZM9.375 4.6875C9.37528 4.43895 9.47414 4.20065 9.6499 4.0249C9.82565 3.84914 10.0639 3.75028 10.3125 3.75H14.0625C14.3111 3.75028 14.5494 3.84914 14.7251 4.0249C14.9009 4.20065 14.9997 4.43895 15 4.6875V7.5H9.375V4.6875ZM14.0625 9.375V11.25H10.3125V9.375H14.0625ZM5.02477 17.033L9.71485 13.125H14.6602L19.3497 17.033C19.4555 17.1208 19.5406 17.2309 19.599 17.3553C19.6574 17.4798 19.6876 17.6157 19.6875 17.7532V18.75H4.6875V17.7532C4.68731 17.6157 4.71744 17.4799 4.77573 17.3554C4.83403 17.2309 4.91906 17.1208 5.02477 17.033Z" fill="url(#paint0_linear_123_1602)"/>
<path d="M9.4778 30.8765C9.83962 31.2157 10.266 31.4787 10.7315 31.6499C11.197 31.821 11.6921 31.8968 12.1875 31.8727C12.2344 31.8742 12.281 31.875 12.3272 31.8751C13.2811 31.8888 14.2029 31.5307 14.8972 30.8765C15.2276 30.5622 15.4902 30.1838 15.6691 29.7644C15.848 29.345 15.9393 28.8935 15.9375 28.4376C15.9375 27.6393 15.5807 27.0157 15.3201 26.5603C15.0636 26.134 14.781 25.7241 14.474 25.3327C14.1881 24.9705 13.9258 24.5903 13.6888 24.1944L13.0046 22.978C12.923 22.833 12.8043 22.7123 12.6607 22.6283C12.5171 22.5443 12.3538 22.5 12.1874 22.5C12.021 22.5 11.8577 22.5443 11.7141 22.6283C11.5705 22.7123 11.4518 22.833 11.3703 22.978L10.686 24.1944C10.449 24.5903 10.1868 24.9705 9.90085 25.3327C9.59378 25.7241 9.31121 26.134 9.05475 26.5603C8.79436 27.0157 8.43753 27.6393 8.43753 28.4376C8.43572 28.8935 8.52706 29.345 8.70594 29.7644C8.88482 30.1838 9.14747 30.5622 9.4778 30.8765ZM10.6824 27.4914C10.9008 27.1335 11.1404 26.7889 11.3998 26.4595C11.6686 26.1019 11.9451 25.7343 12.1875 25.3394C12.43 25.7343 12.7064 26.1019 12.9753 26.4595C13.2347 26.7889 13.4742 27.1335 13.6927 27.4914C13.9022 27.8578 14.0625 28.1594 14.0625 28.4376C14.0634 28.6404 14.0228 28.8413 13.9432 29.0279C13.8637 29.2145 13.7469 29.3829 13.6 29.5228C13.4157 29.6913 13.1988 29.8203 12.9628 29.902C12.7268 29.9837 12.4767 30.0163 12.2276 29.9978C12.2142 29.9974 12.2009 29.9971 12.1875 29.9971C12.1742 29.9971 12.1608 29.9974 12.1474 29.9978C11.8984 30.0163 11.6482 29.9837 11.4122 29.902C11.1762 29.8203 10.9594 29.6913 10.7751 29.5228C10.6281 29.3829 10.5113 29.2145 10.4318 29.0279C10.3523 28.8413 10.3117 28.6404 10.3125 28.4376C10.3125 28.1602 10.4728 27.8578 10.6824 27.4914Z" fill="url(#paint1_linear_123_1602)"/>
<path d="M55.7704 16.9985C55.7469 16.985 55.7235 16.9727 55.6984 16.9614L44.0625 11.5879V9.375C44.3111 9.375 44.5496 9.27623 44.7254 9.10041C44.9012 8.9246 45 8.68614 45 8.4375V4.6875C44.9991 3.94185 44.7025 3.22698 44.1753 2.69972C43.648 2.17246 42.9332 1.87587 42.1875 1.875H38.4375C37.6918 1.87587 36.977 2.17246 36.4497 2.69972C35.9225 3.22698 35.6259 3.94185 35.625 4.6875V8.4375C35.625 8.68614 35.7238 8.9246 35.8996 9.10041C36.0754 9.27623 36.3139 9.375 36.5625 9.375V11.5879L24.9267 16.9614C24.9022 16.9731 24.8781 16.9848 24.8546 16.9985C24.4246 17.245 24.0671 17.6005 23.8183 18.0293C23.5695 18.458 23.4381 18.9448 23.4375 19.4405V25.3125C23.437 26.0048 23.693 26.6728 24.156 27.1875C23.6934 27.7025 23.4375 28.3703 23.4375 29.0625C23.4375 29.7547 23.6934 30.4225 24.156 30.9375C23.6934 31.4525 23.4375 32.1203 23.4375 32.8125C23.4375 33.5047 23.6934 34.1725 24.156 34.6875C23.6934 35.2025 23.4375 35.8703 23.4375 36.5625C23.4375 37.2547 23.6934 37.9225 24.156 38.4375C23.6934 38.9525 23.4375 39.6203 23.4375 40.3125C23.4375 41.0047 23.6934 41.6725 24.156 42.1875C23.6934 42.7025 23.4375 43.3703 23.4375 44.0625C23.4375 44.7547 23.6934 45.4225 24.156 45.9375C23.6934 46.4525 23.4375 47.1203 23.4375 47.8125C23.4375 48.5047 23.6934 49.1725 24.156 49.6875C23.693 50.2022 23.437 50.8702 23.4375 51.5625V53.4375C23.4389 54.6803 23.9332 55.8717 24.812 56.7505C25.6908 57.6293 26.8822 58.1236 28.125 58.125H52.5C53.7428 58.1236 54.9342 57.6293 55.813 56.7505C56.6918 55.8717 57.1861 54.6803 57.1875 53.4375V51.5625C57.188 50.8702 56.932 50.2022 56.469 49.6875C56.9316 49.1725 57.1875 48.5047 57.1875 47.8125C57.1875 47.1203 56.9316 46.4525 56.469 45.9375C56.9316 45.4225 57.1875 44.7547 57.1875 44.0625C57.1875 43.3703 56.9316 42.7025 56.469 42.1875C56.9316 41.6725 57.1875 41.0047 57.1875 40.3125C57.1875 39.6203 56.9316 38.9525 56.469 38.4375C56.9316 37.9225 57.1875 37.2547 57.1875 36.5625C57.1875 35.8703 56.9316 35.2025 56.469 34.6875C56.9316 34.1725 57.1875 33.5047 57.1875 32.8125C57.1875 32.1203 56.9316 31.4525 56.469 30.9375C56.9316 30.4225 57.1875 29.7547 57.1875 29.0625C57.1875 28.3703 56.9316 27.7025 56.469 27.1875C56.932 26.6728 57.188 26.0048 57.1875 25.3125V19.4405C57.1869 18.9448 57.0555 18.458 56.8067 18.0293C56.5579 17.6005 56.2004 17.245 55.7704 16.9985ZM37.5 4.6875C37.5003 4.43895 37.5991 4.20065 37.7749 4.0249C37.9507 3.84914 38.1889 3.75028 38.4375 3.75H42.1875C42.4361 3.75028 42.6744 3.84914 42.8501 4.0249C43.0259 4.20065 43.1247 4.43895 43.125 4.6875V7.5H37.5V4.6875ZM42.1875 9.375V11.25H38.4375V9.375H42.1875ZM37.706 13.125H42.919L54.8691 18.6437C54.918 18.6748 54.964 18.7104 55.0063 18.75H48.75C48.5014 18.75 48.2629 18.8488 48.0871 19.0246C47.9113 19.2004 47.8125 19.4389 47.8125 19.6875C47.8125 19.9361 47.9113 20.1746 48.0871 20.3504C48.2629 20.5262 48.5014 20.625 48.75 20.625H55.3125V25.3125C55.3122 25.5611 55.2134 25.7993 55.0376 25.9751C54.8619 26.1509 54.6236 26.2497 54.375 26.25H26.25C26.0014 26.2497 25.7632 26.1509 25.5874 25.9751C25.4116 25.7993 25.3128 25.5611 25.3125 25.3125V20.625H45C45.2486 20.625 45.4871 20.5262 45.6629 20.3504C45.8387 20.1746 45.9375 19.9361 45.9375 19.6875C45.9375 19.4389 45.8387 19.2004 45.6629 19.0246C45.4871 18.8488 45.2486 18.75 45 18.75H25.6188C25.6611 18.7103 25.7071 18.6747 25.7561 18.6437L37.706 13.125ZM55.3125 29.0625C55.3122 29.3111 55.2134 29.5493 55.0376 29.7251C54.8619 29.9009 54.6236 29.9997 54.375 30H53.4375V28.125H54.375C54.6236 28.1253 54.8619 28.2241 55.0376 28.3999C55.2134 28.5757 55.3122 28.8139 55.3125 29.0625ZM55.3125 32.8125C55.3122 33.0611 55.2134 33.2994 55.0376 33.4751C54.8619 33.6509 54.6236 33.7497 54.375 33.75H53.4375V31.875H54.375C54.6236 31.8753 54.8619 31.9741 55.0376 32.1499C55.2134 32.3256 55.3122 32.5639 55.3125 32.8125ZM55.3125 36.5625C55.3122 36.8111 55.2134 37.0494 55.0376 37.2251C54.8619 37.4009 54.6236 37.4997 54.375 37.5H53.4375V35.625H54.375C54.6236 35.6253 54.8619 35.7241 55.0376 35.8999C55.2134 36.0756 55.3122 36.3139 55.3125 36.5625ZM55.3125 40.3125C55.3122 40.5611 55.2134 40.7994 55.0376 40.9751C54.8619 41.1509 54.6236 41.2497 54.375 41.25H53.4375V39.375H54.375C54.6236 39.3753 54.8619 39.4741 55.0376 39.6499C55.2134 39.8256 55.3122 40.0639 55.3125 40.3125ZM55.3125 44.0625C55.3122 44.3111 55.2134 44.5494 55.0376 44.7251C54.8619 44.9009 54.6236 44.9997 54.375 45H26.25C26.0014 45 25.7629 44.9012 25.5871 44.7254C25.4113 44.5496 25.3125 44.3111 25.3125 44.0625C25.3125 43.8139 25.4113 43.5754 25.5871 43.3996C25.7629 43.2238 26.0014 43.125 26.25 43.125H54.375C54.6236 43.1253 54.8619 43.2241 55.0376 43.3999C55.2134 43.5756 55.3122 43.8139 55.3125 44.0625ZM55.3125 47.8125C55.3122 48.0611 55.2134 48.2994 55.0376 48.4751C54.8619 48.6509 54.6236 48.7497 54.375 48.75H26.25C26.0014 48.75 25.7629 48.6512 25.5871 48.4754C25.4113 48.2996 25.3125 48.0611 25.3125 47.8125C25.3125 47.5639 25.4113 47.3254 25.5871 47.1496C25.7629 46.9738 26.0014 46.875 26.25 46.875H54.375C54.6236 46.8753 54.8619 46.9741 55.0376 47.1499C55.2134 47.3256 55.3122 47.5639 55.3125 47.8125ZM25.3125 40.3125C25.3128 40.0639 25.4116 39.8256 25.5874 39.6499C25.7632 39.4741 26.0014 39.3753 26.25 39.375H27.1875V41.25H26.25C26.0014 41.2497 25.7632 41.1509 25.5874 40.9751C25.4116 40.7994 25.3128 40.5611 25.3125 40.3125ZM25.3125 36.5625C25.3128 36.3139 25.4116 36.0756 25.5874 35.8999C25.7632 35.7241 26.0014 35.6253 26.25 35.625H27.1875V37.5H26.25C26.0014 37.4997 25.7632 37.4009 25.5874 37.2251C25.4116 37.0494 25.3128 36.8111 25.3125 36.5625ZM25.3125 32.8125C25.3128 32.5639 25.4116 32.3256 25.5874 32.1499C25.7632 31.9741 26.0014 31.8753 26.25 31.875H27.1875V33.75H26.25C26.0014 33.7497 25.7632 33.6509 25.5874 33.4751C25.4116 33.2994 25.3128 33.0611 25.3125 32.8125ZM25.3125 29.0625C25.3128 28.8139 25.4116 28.5757 25.5874 28.3999C25.7632 28.2241 26.0014 28.1253 26.25 28.125H27.1875V30H26.25C26.0014 29.9997 25.7632 29.9009 25.5874 29.7251C25.4116 29.5493 25.3128 29.3111 25.3125 29.0625ZM51.5625 41.25H29.0625V28.125H51.5625V41.25ZM55.3125 53.4375C55.3116 54.1832 55.015 54.898 54.4878 55.4253C53.9605 55.9525 53.2457 56.2491 52.5 56.25H28.125C27.3793 56.2491 26.6645 55.9525 26.1372 55.4253C25.61 54.898 25.3134 54.1832 25.3125 53.4375V51.5625C25.3128 51.3139 25.4116 51.0756 25.5874 50.8999C25.7632 50.7241 26.0014 50.6253 26.25 50.625H54.375C54.6236 50.6253 54.8619 50.7241 55.0376 50.8999C55.2134 51.0756 55.3122 51.3139 55.3125 51.5625V53.4375Z" fill="url(#paint2_linear_123_1602)"/>
<path d="M37.6028 38.3765C37.9643 38.7162 38.3906 38.9794 38.8562 39.1506C39.3218 39.3218 39.8171 39.3973 40.3125 39.3727C40.3594 39.3742 40.4059 39.375 40.4522 39.3751C41.4061 39.3888 42.3278 39.0307 43.0222 38.3765C43.3526 38.0623 43.6152 37.6838 43.7941 37.2645C43.973 36.8451 44.0643 36.3936 44.0625 35.9376C44.0625 35.1392 43.7055 34.5155 43.445 34.0603C43.1885 33.634 42.9059 33.2239 42.5988 32.8325C42.3129 32.4704 42.0506 32.0902 41.8137 31.6944L41.1294 30.478C41.0479 30.333 40.9292 30.2123 40.7856 30.1283C40.642 30.0443 40.4786 30 40.3123 30C40.1459 30 39.9825 30.0443 39.8389 30.1283C39.6953 30.2123 39.5767 30.333 39.4951 30.478L38.8109 31.6944C38.5739 32.0902 38.3116 32.4704 38.0257 32.8325C37.7187 33.2239 37.4361 33.6339 37.1796 34.0602C36.919 34.5155 36.562 35.1392 36.562 35.9376C36.5603 36.3936 36.6517 36.8451 36.8306 37.2645C37.0096 37.6839 37.2723 38.0623 37.6028 38.3765ZM38.8075 34.9914C39.0259 34.6334 39.2654 34.2888 39.5249 33.9593C39.7936 33.6018 40.07 33.2342 40.3125 32.8393C40.555 33.2342 40.8314 33.6018 41.1001 33.9593C41.3596 34.2888 41.5992 34.6335 41.8177 34.9916C42.0272 35.3578 42.1875 35.6595 42.1875 35.9376C42.1884 36.1405 42.1478 36.3413 42.0683 36.5279C41.9887 36.7145 41.8719 36.8829 41.725 37.0228C41.5406 37.1912 41.3238 37.3203 41.0878 37.402C40.8518 37.4837 40.6016 37.5163 40.3526 37.4978C40.3392 37.4974 40.3259 37.4971 40.3125 37.4971C40.2991 37.4971 40.2858 37.4974 40.2724 37.4978C40.0234 37.5162 39.7732 37.4836 39.5372 37.4019C39.3012 37.3202 39.0844 37.1912 38.9 37.0228C38.7531 36.8829 38.6363 36.7145 38.5567 36.5279C38.4772 36.3413 38.4366 36.1405 38.4375 35.9376C38.4375 35.6602 38.5978 35.3578 38.8075 34.9914Z" fill="url(#paint3_linear_123_1602)"/>
<defs>
<linearGradient id="paint0_linear_123_1602" x1="12.1875" y1="1.875" x2="12.1875" y2="58.125" gradientUnits="userSpaceOnUse">
<stop stop-color="#00A5C2"/>
<stop offset="1" stop-color="#00B2D0"/>
</linearGradient>
<linearGradient id="paint1_linear_123_1602" x1="12.1875" y1="22.5" x2="12.1875" y2="31.8771" gradientUnits="userSpaceOnUse">
<stop stop-color="#00A5C2"/>
<stop offset="1" stop-color="#00B2D0"/>
</linearGradient>
<linearGradient id="paint2_linear_123_1602" x1="40.3125" y1="1.875" x2="40.3125" y2="58.125" gradientUnits="userSpaceOnUse">
<stop stop-color="#00A5C2"/>
<stop offset="1" stop-color="#00B2D0"/>
</linearGradient>
<linearGradient id="paint3_linear_123_1602" x1="40.3123" y1="30" x2="40.3123" y2="39.3773" gradientUnits="userSpaceOnUse">
<stop stop-color="#00A5C2"/>
<stop offset="1" stop-color="#00B2D0"/>
</linearGradient>
</defs>
</svg>
