<svg width="60" height="60" viewBox="0 0 60 60" fill="none" xmlns="http://www.w3.org/2000/svg">
<path d="M15.3037 6.09094C14.9166 5.23875 14.0616 4.6875 13.125 4.6875C12.1884 4.6875 11.3334 5.23875 10.9462 6.09094L7.5 14.8219V15.9375C7.5 19.0397 10.0228 21.5625 13.125 21.5625C16.2272 21.5625 18.75 19.0397 18.75 15.8916C18.75 15.1819 18.6178 14.4872 18.3581 13.8263L15.3037 6.09094ZM13.125 19.6875C11.0569 19.6875 9.375 18.0056 9.375 15.9375V15.1781L12.6609 6.84938C12.8381 6.495 13.4513 6.54469 13.5788 6.82219L16.6134 14.5134C16.7869 14.955 16.875 15.4181 16.875 15.9375C16.875 18.0056 15.1931 19.6875 13.125 19.6875Z" fill="url(#paint0_linear_123_1554)"/>
<path d="M59.0625 30.9375V29.0625C59.0625 28.0284 58.2216 27.1875 57.1875 27.1875V15C57.1875 11.3822 54.2428 8.4375 50.625 8.4375H45.9375C45.9375 7.40344 45.0966 6.5625 44.0625 6.5625H42.1875C41.1534 6.5625 40.3125 7.40344 40.3125 8.4375H34.6875C34.6875 7.40344 33.8466 6.5625 32.8125 6.5625H30.9375C29.9034 6.5625 29.0625 7.40344 29.0625 8.4375H24.3722C22.5319 4.03781 18.1847 0.9375 13.125 0.9375C6.405 0.9375 0.9375 6.405 0.9375 13.125C0.9375 19.845 6.405 25.3125 13.125 25.3125C18.1847 25.3125 22.5319 22.2122 24.3722 17.8125H29.0625C29.0625 18.8466 29.9034 19.6875 30.9375 19.6875H32.8125C33.8466 19.6875 34.6875 18.8466 34.6875 17.8125H40.3125C40.3125 18.8466 41.1534 19.6875 42.1875 19.6875H44.0625C45.0966 19.6875 45.9375 18.8466 45.9375 17.8125H47.8125V27.1875C46.7784 27.1875 45.9375 28.0284 45.9375 29.0625V30.9375C45.9375 31.9716 46.7784 32.8125 47.8125 32.8125V34.6875H44.0625C44.0625 33.6534 43.2216 32.8125 42.1875 32.8125H40.3125C39.2784 32.8125 38.4375 33.6534 38.4375 34.6875H33.75V30.9375H34.6875C36.2381 30.9375 37.5 29.6756 37.5 28.125C37.5 26.5744 36.2381 25.3125 34.6875 25.3125H33.75C33.75 23.2444 32.0681 21.5625 30 21.5625C27.9319 21.5625 26.25 23.2444 26.25 25.3125H25.3125C23.7619 25.3125 22.5 26.5744 22.5 28.125C22.5 29.6756 23.7619 30.9375 25.3125 30.9375H26.25V34.6875H21.5625C21.5625 33.6534 20.7216 32.8125 19.6875 32.8125H17.8125C16.7784 32.8125 15.9375 33.6534 15.9375 34.6875H11.25C7.63219 34.6875 4.6875 37.6322 4.6875 41.25V47.8125C3.65344 47.8125 2.8125 48.6534 2.8125 49.6875V51.5625C2.8125 52.5966 3.65344 53.4375 4.6875 53.4375V59.0625H14.0625V53.4375C15.0966 53.4375 15.9375 52.5966 15.9375 51.5625V49.6875C15.9375 48.6534 15.0966 47.8125 14.0625 47.8125V44.0625H15.9375C15.9375 45.0966 16.7784 45.9375 17.8125 45.9375H19.6875C20.7216 45.9375 21.5625 45.0966 21.5625 44.0625H38.4375C38.4375 45.0966 39.2784 45.9375 40.3125 45.9375H42.1875C43.2216 45.9375 44.0625 45.0966 44.0625 44.0625H47.8125V47.8125C46.7784 47.8125 45.9375 48.6534 45.9375 49.6875V51.5625C45.9375 52.5966 46.7784 53.4375 47.8125 53.4375V59.0625H57.1875V53.4375C58.2216 53.4375 59.0625 52.5966 59.0625 51.5625V49.6875C59.0625 48.6534 58.2216 47.8125 57.1875 47.8125V32.8125C58.2216 32.8125 59.0625 31.9716 59.0625 30.9375ZM13.125 23.4375C7.43906 23.4375 2.8125 18.8109 2.8125 13.125C2.8125 7.43906 7.43906 2.8125 13.125 2.8125C18.8109 2.8125 23.4375 7.43906 23.4375 13.125C23.4375 18.8109 18.8109 23.4375 13.125 23.4375ZM24.9722 15.9375C25.1869 15.0328 25.3125 14.0944 25.3125 13.125C25.3125 12.1556 25.1869 11.2172 24.9722 10.3125H29.0625V15.9375H24.9722ZM30.9375 17.8125V8.4375H32.8125L32.8144 17.8125H30.9375ZM34.6875 15.9375V10.3125H40.3125V15.9375H34.6875ZM12.1875 57.1875H6.5625V53.4375H12.1875V57.1875ZM14.0644 51.5625H4.6875V49.6875H14.0625L14.0644 51.5625ZM14.0625 42.1875C13.0284 42.1875 12.1875 43.0284 12.1875 44.0625V47.8125H6.5625V41.25C6.5625 38.6653 8.66531 36.5625 11.25 36.5625H15.9375V42.1875H14.0625ZM30 23.4375C31.0341 23.4375 31.875 24.2784 31.875 25.3125H28.125C28.125 24.2784 28.9659 23.4375 30 23.4375ZM24.375 28.125C24.375 27.6075 24.795 27.1875 25.3125 27.1875H34.6875C35.205 27.1875 35.625 27.6075 35.625 28.125C35.625 28.6425 35.205 29.0625 34.6875 29.0625H25.3125C24.795 29.0625 24.375 28.6425 24.375 28.125ZM28.125 30.9375H31.875V34.6875H28.125V30.9375ZM17.8125 44.0625V34.6875H19.6875L19.6894 44.0625H17.8125ZM21.5625 42.1875V36.5625H38.4375V42.1875H21.5625ZM42.1875 17.8125V8.4375H44.0625L44.0644 17.8125H42.1875ZM47.8125 15.9375H45.9375V10.3125H50.625C53.2097 10.3125 55.3125 12.4153 55.3125 15V27.1875H49.6875V17.8125C49.6875 16.7784 48.8466 15.9375 47.8125 15.9375ZM47.8125 29.0625H57.1875L57.1894 30.9375H47.8125V29.0625ZM40.3125 44.0625V34.6875H42.1875L42.1894 44.0625H40.3125ZM44.0625 42.1875V36.5625H47.8125V42.1875H44.0625ZM55.3125 57.1875H49.6875V53.4375H55.3125V57.1875ZM57.1894 51.5625H47.8125V49.6875H57.1875L57.1894 51.5625ZM55.3125 47.8125H49.6875V32.8125H55.3125V47.8125Z" fill="url(#paint1_linear_123_1554)"/>
<path d="M51.5625 36.5625H53.4375V38.4375H51.5625V36.5625Z" fill="url(#paint2_linear_123_1554)"/>
<path d="M51.5625 44.0625H53.4375V45.9375H51.5625V44.0625Z" fill="url(#paint3_linear_123_1554)"/>
<path d="M51.5625 40.3125H53.4375V42.1875H51.5625V40.3125Z" fill="url(#paint4_linear_123_1554)"/>
<path d="M30.9375 38.4375H32.8125V40.3125H30.9375V38.4375Z" fill="url(#paint5_linear_123_1554)"/>
<path d="M23.4375 38.4375H25.3125V40.3125H23.4375V38.4375Z" fill="url(#paint6_linear_123_1554)"/>
<path d="M27.1875 38.4375H29.0625V40.3125H27.1875V38.4375Z" fill="url(#paint7_linear_123_1554)"/>
<path d="M51.5625 23.4375H53.4375V25.3125H51.5625V23.4375Z" fill="url(#paint8_linear_123_1554)"/>
<path d="M51.5625 15.9375H53.4375V17.8125H51.5625V15.9375Z" fill="url(#paint9_linear_123_1554)"/>
<path d="M51.5625 19.6875H53.4375V21.5625H51.5625V19.6875Z" fill="url(#paint10_linear_123_1554)"/>
<defs>
<linearGradient id="paint0_linear_123_1554" x1="13.125" y1="4.6875" x2="13.125" y2="21.5625" gradientUnits="userSpaceOnUse">
<stop stop-color="#00A5C2"/>
<stop offset="1" stop-color="#00B2D0"/>
</linearGradient>
<linearGradient id="paint1_linear_123_1554" x1="30" y1="0.9375" x2="30" y2="59.0625" gradientUnits="userSpaceOnUse">
<stop stop-color="#00A5C2"/>
<stop offset="1" stop-color="#00B2D0"/>
</linearGradient>
<linearGradient id="paint2_linear_123_1554" x1="52.5" y1="36.5625" x2="52.5" y2="38.4375" gradientUnits="userSpaceOnUse">
<stop stop-color="#00A5C2"/>
<stop offset="1" stop-color="#00B2D0"/>
</linearGradient>
<linearGradient id="paint3_linear_123_1554" x1="52.5" y1="44.0625" x2="52.5" y2="45.9375" gradientUnits="userSpaceOnUse">
<stop stop-color="#00A5C2"/>
<stop offset="1" stop-color="#00B2D0"/>
</linearGradient>
<linearGradient id="paint4_linear_123_1554" x1="52.5" y1="40.3125" x2="52.5" y2="42.1875" gradientUnits="userSpaceOnUse">
<stop stop-color="#00A5C2"/>
<stop offset="1" stop-color="#00B2D0"/>
</linearGradient>
<linearGradient id="paint5_linear_123_1554" x1="31.875" y1="38.4375" x2="31.875" y2="40.3125" gradientUnits="userSpaceOnUse">
<stop stop-color="#00A5C2"/>
<stop offset="1" stop-color="#00B2D0"/>
</linearGradient>
<linearGradient id="paint6_linear_123_1554" x1="24.375" y1="38.4375" x2="24.375" y2="40.3125" gradientUnits="userSpaceOnUse">
<stop stop-color="#00A5C2"/>
<stop offset="1" stop-color="#00B2D0"/>
</linearGradient>
<linearGradient id="paint7_linear_123_1554" x1="28.125" y1="38.4375" x2="28.125" y2="40.3125" gradientUnits="userSpaceOnUse">
<stop stop-color="#00A5C2"/>
<stop offset="1" stop-color="#00B2D0"/>
</linearGradient>
<linearGradient id="paint8_linear_123_1554" x1="52.5" y1="23.4375" x2="52.5" y2="25.3125" gradientUnits="userSpaceOnUse">
<stop stop-color="#00A5C2"/>
<stop offset="1" stop-color="#00B2D0"/>
</linearGradient>
<linearGradient id="paint9_linear_123_1554" x1="52.5" y1="15.9375" x2="52.5" y2="17.8125" gradientUnits="userSpaceOnUse">
<stop stop-color="#00A5C2"/>
<stop offset="1" stop-color="#00B2D0"/>
</linearGradient>
<linearGradient id="paint10_linear_123_1554" x1="52.5" y1="19.6875" x2="52.5" y2="21.5625" gradientUnits="userSpaceOnUse">
<stop stop-color="#00A5C2"/>
<stop offset="1" stop-color="#00B2D0"/>
</linearGradient>
</defs>
</svg>
