<svg width="40" height="40" viewBox="0 0 40 40" fill="none" xmlns="http://www.w3.org/2000/svg">
<path d="M34.1086 13.9309L32.5 11.6751V8.75C32.5 8.58424 32.4342 8.42527 32.3169 8.30806C32.1997 8.19085 32.0408 8.125 31.875 8.125H28.125C27.9592 8.125 27.8003 8.19085 27.6831 8.30806C27.5658 8.42527 27.5 8.58424 27.5 8.75V11.6751L25.892 13.9301C25.716 14.1759 25.5538 14.4314 25.4062 14.6953L26.4976 15.3047C26.6225 15.081 26.7599 14.8646 26.909 14.6563L28.6338 12.2375C28.7093 12.1317 28.7499 12.005 28.75 11.875V9.375H31.25V11.875C31.25 12.0051 31.2907 12.132 31.3663 12.2379L33.0928 14.6591C33.4442 15.1493 33.7283 15.6844 33.9375 16.25H29.375V17.5H34.2656C34.3341 17.8817 34.3707 18.2685 34.375 18.6562V18.75H29.375V20H34.375V21.25H29.375V22.5H34.1323L33.982 22.9587C33.673 23.8766 33.6727 24.8704 33.981 25.7886L34.2072 26.4786C34.3177 26.8078 34.3743 27.1527 34.375 27.5H29.375V28.75H34.375V30H29.375V31.25H34.375V32.5H29.375V33.75H34.375V36.25C34.3747 36.5814 34.2429 36.8992 34.0085 37.1335C33.7742 37.3679 33.4564 37.4997 33.125 37.5H31.7688C31.686 37.5 31.604 37.4836 31.5276 37.4518C31.4512 37.4199 31.3818 37.3733 31.3235 37.3145C30.9682 36.9718 30.4938 36.7803 30.0002 36.7803C29.5066 36.7803 29.0323 36.9718 28.677 37.3145L29.5608 38.1983C29.678 38.083 29.8358 38.0183 30.0002 38.0183C30.1647 38.0183 30.3225 38.083 30.4397 38.1983C30.6138 38.3735 30.8209 38.5125 31.049 38.6072C31.2772 38.7019 31.5218 38.7505 31.7688 38.75H33.125C33.7878 38.7493 34.4233 38.4856 34.8919 38.0169C35.3606 37.5483 35.6243 36.9128 35.625 36.25V27.5C35.6244 27.0195 35.5464 26.5421 35.394 26.0864L35.1678 25.3964C34.9437 24.7329 34.9441 24.0141 35.1687 23.3509L35.3953 22.6599C35.4675 22.4335 35.5251 22.2027 35.568 21.969C35.605 21.7311 35.624 21.4907 35.625 21.25V18.6562C35.624 18.0064 35.5468 17.359 35.3949 16.7272C35.1512 15.7206 34.7144 14.7709 34.1086 13.9309Z" fill="url(#paint0_linear_30_572)"/>
<path d="M4.37502 15V33.9062C4.37644 35.1905 4.88722 36.4216 5.79529 37.3297C6.70336 38.2378 7.93456 38.7486 9.21877 38.75C10.2678 38.7532 11.289 38.4126 12.1262 37.7805C12.4145 37.5644 12.7651 37.4477 13.1253 37.4477C13.4856 37.4477 13.8362 37.5644 14.1245 37.7805C14.913 38.3745 15.8652 38.7118 16.8518 38.7466L16.8982 37.4973C16.1668 37.4719 15.4609 37.2221 14.8764 36.7816C14.371 36.4033 13.7567 36.1988 13.1253 36.1988C12.494 36.1988 11.8796 36.4033 11.3742 36.7816C10.7536 37.2502 9.99646 37.5025 9.21877 37.5C8.26599 37.4989 7.35255 37.1199 6.67884 36.4462C6.00512 35.7725 5.62613 34.859 5.62502 33.9062V30.625H16.875V29.375H5.62502V16.875H19.375V15.625H5.62502V15C5.62218 13.4136 6.12364 11.8673 7.05699 10.5844C7.99034 9.30161 9.30727 8.34863 10.8176 7.86313C10.9433 7.82251 11.0528 7.74308 11.1305 7.63627C11.2082 7.52946 11.2501 7.40076 11.25 7.26867V5.625H15V7.26867C15 7.40076 15.0418 7.52946 15.1195 7.63627C15.1972 7.74308 15.3068 7.82251 15.4324 7.86313C16.8496 8.31722 18.0988 9.18416 19.02 10.3528C19.9412 11.5215 20.4925 12.9386 20.6031 14.4226L21.8494 14.3274C21.7266 12.6739 21.1345 11.0898 20.1426 9.7611C19.1508 8.43242 17.8004 7.41435 16.25 6.82648V5.625H17.5V4.375H16.25V1.875C16.25 1.70924 16.1842 1.55027 16.067 1.43306C15.9498 1.31585 15.7908 1.25 15.625 1.25H10.625C10.4593 1.25 10.3003 1.31585 10.1831 1.43306C10.0659 1.55027 10 1.70924 10 1.875V4.375H8.75002V5.625H10V6.82648C8.3433 7.45644 6.91769 8.57593 5.91285 10.036C4.90802 11.4961 4.37162 13.2276 4.37502 15ZM11.25 2.5H15V4.375H11.25V2.5Z" fill="url(#paint1_linear_30_572)"/>
<path d="M9.65393 9.80166L10.3461 10.8423C10.7302 10.5874 11.1474 10.3863 11.586 10.2448L11.2015 9.05518C10.6539 9.23203 10.1332 9.48321 9.65393 9.80166Z" fill="url(#paint2_linear_30_572)"/>
<path d="M8.15558 14.4437C8.2776 13.3525 8.75485 12.3317 9.51386 11.5384L8.61237 10.6719C7.66308 11.6644 7.06597 12.9411 6.91284 14.3059L8.15558 14.4437Z" fill="url(#paint3_linear_30_572)"/>
<path d="M8.125 18.125H6.875V19.375H8.125V18.125Z" fill="url(#paint4_linear_30_572)"/>
<path d="M8.125 20.625H6.875V26.25H8.125V20.625Z" fill="url(#paint5_linear_30_572)"/>
<path d="M21.8751 21.875H20.6251V23.75H21.8751V21.875Z" fill="url(#paint6_linear_30_572)"/>
<path d="M23.125 15C21.7231 15 20.625 15.8237 20.625 16.875V18.9892L19.1641 19.7223C18.8514 19.877 18.5884 20.1162 18.4047 20.4127C18.2211 20.7093 18.1242 21.0513 18.125 21.4002V24.375C18.125 24.472 18.1476 24.5677 18.1909 24.6545L18.6762 25.625L18.1909 26.5955C18.1476 26.6823 18.125 26.778 18.125 26.875V28.125C18.125 28.222 18.1476 28.3177 18.1909 28.4045L18.6762 29.375L18.1909 30.3455C18.1476 30.4323 18.125 30.528 18.125 30.625V31.875C18.125 31.972 18.1476 32.0677 18.1909 32.1545L18.6762 33.125L18.1909 34.0955C18.1476 34.1823 18.125 34.278 18.125 34.375V36.875C18.1258 37.372 18.3236 37.8485 18.675 38.2C19.0265 38.5514 19.503 38.7492 20 38.75H26.25C26.3929 38.7494 26.5354 38.7333 26.6748 38.7021C27.0876 38.6066 27.4558 38.3739 27.7192 38.042C27.9826 37.7101 28.1257 37.2987 28.125 36.875V34.375C28.125 34.278 28.1024 34.1823 28.0591 34.0955L27.5738 33.125L28.0591 32.1545C28.1024 32.0677 28.125 31.972 28.125 31.875V30.625C28.125 30.528 28.1024 30.4323 28.0591 30.3455L27.5738 29.375L28.0591 28.4045C28.1024 28.3177 28.125 28.222 28.125 28.125V26.875C28.125 26.778 28.1024 26.6823 28.0591 26.5955L27.5738 25.625L28.0591 24.6545C28.1024 24.5677 28.125 24.472 28.125 24.375V21.4002C28.1259 21.0515 28.0291 20.7095 27.8455 20.4131C27.662 20.1166 27.399 19.8775 27.0865 19.7229L25.625 18.9892V16.875C25.625 15.8237 24.527 15 23.125 15ZM23.125 16.25C23.888 16.25 24.375 16.6202 24.375 16.875C24.375 17.1298 23.888 17.5 23.125 17.5C22.362 17.5 21.875 17.1298 21.875 16.875C21.875 16.6202 22.362 16.25 23.125 16.25ZM26.5268 20.8405C26.6314 20.8919 26.7194 20.9716 26.781 21.0705C26.8425 21.1694 26.8751 21.2836 26.875 21.4002V24.2276L26.4887 25H21.25V26.25H26.4887L26.875 27.0224V27.9776L26.4887 28.75H21.25V30H26.4887L26.875 30.7724V31.7276L26.4887 32.5H21.25V33.75H26.4887L26.875 34.5224V36.875C26.8741 37.0143 26.8272 37.1495 26.7416 37.2593C26.6559 37.3692 26.5363 37.4477 26.4014 37.4826C26.3517 37.4936 26.3009 37.4995 26.25 37.5H20C19.9035 37.4996 19.8085 37.477 19.7222 37.4338C19.6359 37.3907 19.5608 37.3282 19.5026 37.2513C19.4196 37.1434 19.3747 37.0111 19.375 36.875V34.5224L19.9341 33.4045C19.9774 33.3177 20 33.222 20 33.125C20 33.028 19.9774 32.9323 19.9341 32.8455L19.375 31.7276V30.7724L19.9341 29.6545C19.9774 29.5677 20 29.472 20 29.375C20 29.278 19.9774 29.1823 19.9341 29.0955L19.375 27.9776V27.0224L19.9341 25.9045C19.9774 25.8177 20 25.722 20 25.625C20 25.528 19.9774 25.4323 19.9341 25.3455L19.375 24.2276V21.4002C19.375 21.2835 19.4077 21.1692 19.4693 21.0701C19.531 20.9711 19.6191 20.8913 19.7238 20.8398L21.5302 19.9336C21.6338 19.8817 21.721 19.8019 21.7819 19.7033C21.8428 19.6046 21.8751 19.4909 21.875 19.375V18.4972C22.2706 18.664 22.6956 18.75 23.125 18.75C23.5544 18.75 23.9794 18.664 24.375 18.4972V19.375C24.375 19.4909 24.4072 19.6046 24.4681 19.7032C24.529 19.8018 24.6162 19.8815 24.7199 19.9334L26.5268 20.8405Z" fill="url(#paint7_linear_30_572)"/>
<defs>
<linearGradient id="paint0_linear_30_572" x1="30.5156" y1="8.125" x2="30.5156" y2="38.75" gradientUnits="userSpaceOnUse">
<stop stop-color="#68D7F0"/>
<stop offset="0.5" stop-color="#2DA5D3"/>
<stop offset="1" stop-color="#057BA9"/>
</linearGradient>
<linearGradient id="paint1_linear_30_572" x1="13.1122" y1="1.25" x2="13.1122" y2="38.75" gradientUnits="userSpaceOnUse">
<stop stop-color="#68D7F0"/>
<stop offset="0.5" stop-color="#2DA5D3"/>
<stop offset="1" stop-color="#057BA9"/>
</linearGradient>
<linearGradient id="paint2_linear_30_572" x1="10.62" y1="9.05518" x2="10.62" y2="10.8423" gradientUnits="userSpaceOnUse">
<stop stop-color="#68D7F0"/>
<stop offset="0.5" stop-color="#2DA5D3"/>
<stop offset="1" stop-color="#057BA9"/>
</linearGradient>
<linearGradient id="paint3_linear_30_572" x1="8.21335" y1="10.6719" x2="8.21335" y2="14.4437" gradientUnits="userSpaceOnUse">
<stop stop-color="#68D7F0"/>
<stop offset="0.5" stop-color="#2DA5D3"/>
<stop offset="1" stop-color="#057BA9"/>
</linearGradient>
<linearGradient id="paint4_linear_30_572" x1="7.5" y1="18.125" x2="7.5" y2="19.375" gradientUnits="userSpaceOnUse">
<stop stop-color="#68D7F0"/>
<stop offset="0.5" stop-color="#2DA5D3"/>
<stop offset="1" stop-color="#057BA9"/>
</linearGradient>
<linearGradient id="paint5_linear_30_572" x1="7.5" y1="20.625" x2="7.5" y2="26.25" gradientUnits="userSpaceOnUse">
<stop stop-color="#68D7F0"/>
<stop offset="0.5" stop-color="#2DA5D3"/>
<stop offset="1" stop-color="#057BA9"/>
</linearGradient>
<linearGradient id="paint6_linear_30_572" x1="21.2501" y1="21.875" x2="21.2501" y2="23.75" gradientUnits="userSpaceOnUse">
<stop stop-color="#68D7F0"/>
<stop offset="0.5" stop-color="#2DA5D3"/>
<stop offset="1" stop-color="#057BA9"/>
</linearGradient>
<linearGradient id="paint7_linear_30_572" x1="23.125" y1="15" x2="23.125" y2="38.75" gradientUnits="userSpaceOnUse">
<stop stop-color="#68D7F0"/>
<stop offset="0.5" stop-color="#2DA5D3"/>
<stop offset="1" stop-color="#057BA9"/>
</linearGradient>
</defs>
</svg>
