<svg width="50" height="55" viewBox="0 0 50 55" fill="none" xmlns="http://www.w3.org/2000/svg">
<path d="M37.2756 23.133L17.1079 10.7012C15.6488 9.80294 13.8847 9.76559 12.3888 10.6013C10.893 11.4369 10 12.9589 10 14.6723V39.4226C10 42.0133 12.0875 44.1323 14.6531 44.1463C14.6601 44.1463 14.6671 44.1464 14.674 44.1464C15.4758 44.1463 16.3113 43.895 17.0916 43.4188C17.7194 43.0358 17.9178 42.2164 17.5348 41.5887C17.1518 40.9609 16.3323 40.7625 15.7047 41.1455C15.3397 41.3682 14.9832 41.4833 14.6675 41.4833C13.6994 41.478 12.663 40.6488 12.663 39.4226V14.6723C12.663 13.9373 13.046 13.2846 13.6876 12.9261C14.3293 12.5677 15.0859 12.5837 15.711 12.9686L35.8788 25.4003C36.4849 25.7735 36.8318 26.3958 36.8303 27.1077C36.8289 27.8195 36.4795 28.4404 35.87 28.8124L21.2886 37.7403C20.6614 38.1243 20.4643 38.944 20.8483 39.5711C21.2322 40.1983 22.0519 40.3955 22.6791 40.0114L37.2588 31.0846C38.6547 30.233 39.4901 28.7484 39.4934 27.113C39.4968 25.4779 38.6674 23.9898 37.2756 23.133Z" fill="url(#paint0_linear_117_13)"/>
<defs>
<linearGradient id="paint0_linear_117_13" x1="24.7467" y1="10" x2="24.7467" y2="44.1464" gradientUnits="userSpaceOnUse">
<stop stop-color="#68D7F0"/>
<stop offset="0.5" stop-color="#2DA5D3"/>
<stop offset="1" stop-color="#057BA9"/>
</linearGradient>
</defs>
</svg>
