<svg width="60" height="60" viewBox="0 0 60 60" fill="none" xmlns="http://www.w3.org/2000/svg">
<g clip-path="url(#clip0_123_1572)">
<path d="M8.01959 23.714C8.01959 11.949 17.2175 2.30459 28.9595 1.75744C29.4445 1.73482 29.8195 1.32314 29.797 0.838219C29.7744 0.35318 29.3619 -0.01807 28.8778 0.000679968C22.775 0.285094 17.0823 2.87799 12.8482 7.30193C4.2069 16.3308 4.09499 30.4111 12.345 39.5839C12.5185 39.7769 12.7583 39.8751 12.9989 39.8751C13.2084 39.8751 13.4187 39.8007 13.5867 39.6496C13.9476 39.3248 13.9772 38.7689 13.6524 38.4078C10.02 34.3692 8.01959 29.1508 8.01959 23.714Z" fill="url(#paint0_linear_123_1572)"/>
<path d="M47.6029 7.78581C43.6738 3.44635 38.318 0.719398 32.5218 0.107094C32.0384 0.0583438 31.606 0.406391 31.5549 0.889203C31.5039 1.37213 31.8541 1.80502 32.337 1.85612C43.5359 3.03889 51.9809 12.4358 51.981 23.7142C51.981 35.8344 42.1205 45.6949 30.0003 45.6949C24.9426 45.6949 20.005 43.9352 16.0969 40.74C15.721 40.4328 15.1669 40.4881 14.8596 40.8642C14.5524 41.2401 14.6079 41.7941 14.9839 42.1015C17.2401 43.9461 19.8142 45.3474 22.5557 46.2527V50.8556C22.5557 51.9868 23.4761 52.9072 24.6073 52.9072H25.428V58.5346C25.428 59.3426 26.0854 60 26.8934 60H33.1069C33.9149 60 34.5723 59.3426 34.5723 58.5346V52.9072H35.393C36.5243 52.9072 37.4446 51.9868 37.4446 50.8556V46.2565C46.8989 43.1263 53.7394 34.2046 53.7394 23.714C53.7394 17.8132 51.5602 12.1564 47.6029 7.78581ZM32.8139 58.2416H27.1866V52.9073H32.8139V58.2416ZM35.6862 50.8556C35.6862 51.0172 35.5547 51.1487 35.3931 51.1487H24.6073C24.4456 51.1487 24.3142 51.0172 24.3142 50.8556V46.7589C26.1648 47.2161 28.0744 47.4534 30.0002 47.4534C31.9595 47.4534 33.8636 47.2131 35.6861 46.7634V50.8556H35.6862Z" fill="url(#paint1_linear_123_1572)"/>
<path d="M46.5711 16.4958C47.0061 16.2797 47.1834 15.752 46.9673 15.3171C45.4212 12.2049 43.0493 9.57478 40.108 7.7108C27.6016 -0.215063 11.0679 8.78904 11.0679 23.714C11.0679 34.1535 19.561 42.6466 30.0004 42.6466C42.3994 42.6466 51.5491 30.8233 48.2756 18.7597C48.1485 18.2908 47.6652 18.0142 47.1968 18.1413C46.728 18.2685 46.4512 18.7515 46.5784 19.2201C49.5477 30.1636 41.2472 40.888 30.0004 40.888C20.5306 40.888 12.8264 33.1837 12.8264 23.7139C12.8264 14.2441 20.5306 6.53998 30.0006 6.53998C36.5651 6.53998 42.463 10.203 45.3924 16.0995C45.6085 16.5345 46.1362 16.7116 46.5711 16.4958Z" fill="url(#paint2_linear_123_1572)"/>
<path d="M40.0409 32.8593C40.2943 32.8593 40.5458 32.7504 40.7197 32.5395C48.1345 23.5491 41.7468 9.82227 29.9999 9.82227C18.2656 9.82227 11.855 23.5366 19.2802 32.5395C19.5893 32.9143 20.1435 32.9674 20.5181 32.6584C20.8927 32.3493 20.9459 31.7952 20.6369 31.4205C19.0381 29.4821 18.0847 27.0855 17.9017 24.5929H20.7979C21.2835 24.5929 21.6772 24.1993 21.6772 23.7137C21.6772 23.228 21.2835 22.8344 20.7979 22.8344H17.899C18.0923 20.1493 19.1628 17.7032 20.8252 15.7827C23.0106 17.9681 23.0106 18.0862 23.493 18.0862C24.2696 18.0862 24.6701 17.1407 24.1148 16.5852L22.0687 14.5391C23.9893 12.8765 26.4353 11.8061 29.1204 11.6129V14.5118C29.1204 14.9974 29.5141 15.391 29.9997 15.391C30.4853 15.391 30.879 14.9974 30.879 14.5118V11.613C33.5641 11.8062 36.0101 12.8768 37.9307 14.5392L35.8846 16.5853C35.5413 16.9288 35.5413 17.4854 35.8846 17.8289C36.0563 18.0004 36.2814 18.0863 36.5064 18.0863C36.7314 18.0863 36.9564 18.0004 37.1282 17.8289L39.1743 15.7828C40.8369 17.7034 41.9072 20.1494 42.1005 22.8345H39.2016C38.716 22.8345 38.3224 23.2282 38.3224 23.7138C38.3224 24.1994 38.716 24.593 39.2016 24.593H42.0978C41.9149 27.0856 40.9615 29.4821 39.3626 31.4206C38.8893 31.995 39.3026 32.8593 40.0409 32.8593Z" fill="url(#paint3_linear_123_1572)"/>
<path d="M30.0004 27.4461C30.6805 27.4461 31.318 27.2623 31.8677 26.9432L36.2663 31.3418C36.438 31.5135 36.6631 31.5993 36.8881 31.5993C37.1131 31.5993 37.3381 31.5134 37.5099 31.3418C37.8533 30.9984 37.8533 30.4417 37.5099 30.0982L33.1398 25.7281C33.5142 25.1466 33.7324 24.4554 33.7324 23.714C33.7324 21.6562 32.0582 19.982 30.0004 19.982C29.2589 19.982 28.5678 20.2004 27.9863 20.5747L26.3595 18.9479C26.016 18.6046 25.4594 18.6046 25.1159 18.9479C24.7726 19.2913 24.7726 19.848 25.1159 20.1915L26.7713 21.8468C26.4522 22.3965 26.2685 23.0341 26.2685 23.7141C26.2683 25.7719 27.9426 27.4461 30.0004 27.4461ZM30.0004 21.7407C31.0886 21.7407 31.9739 22.6259 31.9739 23.7141C31.9739 24.8023 31.0886 25.6875 30.0004 25.6875C28.9122 25.6875 28.027 24.8023 28.027 23.7141C28.027 22.6259 28.9122 21.7407 30.0004 21.7407Z" fill="url(#paint4_linear_123_1572)"/>
</g>
<defs>
<linearGradient id="paint0_linear_123_1572" x1="18.0291" y1="0" x2="18.0291" y2="39.8751" gradientUnits="userSpaceOnUse">
<stop stop-color="#00A5C2"/>
<stop offset="1" stop-color="#00B2D0"/>
</linearGradient>
<linearGradient id="paint1_linear_123_1572" x1="34.2003" y1="0.102539" x2="34.2003" y2="60" gradientUnits="userSpaceOnUse">
<stop stop-color="#00A5C2"/>
<stop offset="1" stop-color="#00B2D0"/>
</linearGradient>
<linearGradient id="paint2_linear_123_1572" x1="30.0065" y1="4.76758" x2="30.0065" y2="42.6466" gradientUnits="userSpaceOnUse">
<stop stop-color="#00A5C2"/>
<stop offset="1" stop-color="#00B2D0"/>
</linearGradient>
<linearGradient id="paint3_linear_123_1572" x1="29.9988" y1="9.82227" x2="29.9988" y2="32.8594" gradientUnits="userSpaceOnUse">
<stop stop-color="#00A5C2"/>
<stop offset="1" stop-color="#00B2D0"/>
</linearGradient>
<linearGradient id="paint4_linear_123_1572" x1="31.3129" y1="18.6904" x2="31.3129" y2="31.5993" gradientUnits="userSpaceOnUse">
<stop stop-color="#00A5C2"/>
<stop offset="1" stop-color="#00B2D0"/>
</linearGradient>
<clipPath id="clip0_123_1572">
<rect width="60" height="60" fill="white"/>
</clipPath>
</defs>
</svg>
