<svg width="40" height="40" viewBox="0 0 40 40" fill="none" xmlns="http://www.w3.org/2000/svg">
<g clip-path="url(#clip0_30_563)">
<path d="M28.3586 22.424C28.1034 22.6985 27.9735 23.0667 28 23.4407L28.3226 27.404C28.6593 31.5313 28.6593 31.5313 28.8253 33.604L29.2393 38.7707C29.2893 39.4682 29.8734 40.0064 30.5726 39.9993H37.4253C38.1239 40.0072 38.7079 39.4701 38.7586 38.7733L39.0473 35.198C39.3993 30.834 39.714 26.8973 39.9993 23.432C40.0251 23.0621 39.8964 22.6981 39.6438 22.4267C39.3912 22.1553 39.0374 22.0008 38.6666 22H29.3333C28.9637 22.0001 28.6107 22.1537 28.3586 22.424ZM37.4253 38.6667H30.5693L30.1546 33.4987C30.0966 32.7727 30.0586 32.2987 30.0213 31.8173C30.194 31.832 30.3673 31.846 30.542 31.846C30.9694 31.8455 31.3959 31.8038 31.8153 31.7213C32.6126 31.5291 33.3793 31.2268 34.0933 30.8233C34.8923 30.3031 35.8238 30.0229 36.7773 30.016C37.2395 30.0676 37.6867 30.2118 38.092 30.44C37.972 31.9307 37.8468 33.4813 37.7166 35.092L37.4253 38.6667ZM38.6666 23.3333C38.5222 25.1053 38.3682 27.0016 38.2046 29.022C37.7932 28.8512 37.3599 28.739 36.9173 28.6887C35.622 28.5453 34.5386 29.1 33.4886 29.632C32.8824 29.9779 32.232 30.2399 31.5553 30.4107C31.0125 30.5176 30.4562 30.5369 29.9073 30.468C29.85 29.7593 29.774 28.8047 29.6493 27.294L29.3333 23.3333H38.6666Z" fill="url(#paint0_linear_30_563)"/>
<path d="M2.01931 10.6667C4.99997 10.6387 7.19531 10.0793 8.92597 8.90599C9.52131 8.50599 10.074 8.05799 10.526 7.69533C11.0231 7.2695 11.5475 6.87666 12.096 6.51933C12.4863 6.27825 12.9011 6.07915 13.3333 5.92533V8.66666H11.3333C10.2287 8.66666 9.33331 9.56209 9.33331 10.6667V16C9.33331 17.1046 10.2287 18 11.3333 18V32.6667H10.6666C8.09053 32.6696 6.00291 34.7572 5.99997 37.3333V38C5.99997 39.1046 6.8954 40 7.99997 40H24C25.1045 40 26 39.1046 26 38V37.3333C25.997 34.7572 23.9094 32.6696 21.3333 32.6667H20.6666V18C21.2323 17.9982 21.7705 17.7558 22.1466 17.3333H30.6666V18.6667C30.6666 19.7712 31.5621 20.6667 32.6666 20.6667H36C37.1045 20.6667 38 19.7712 38 18.6667V18C37.9952 13.5837 34.4163 10.0048 30 9.99999H22.544C22.2625 9.20376 21.5112 8.67016 20.6666 8.66666H18.6666V5.31266C19.0368 4.81339 19.2584 4.21971 19.306 3.59999C19.306 3.58466 19.3186 3.57266 19.3206 3.55666C19.3293 3.48745 19.3335 3.41775 19.3333 3.34799V3.33333V3.31999C19.3333 3.28133 19.3333 3.24266 19.3266 3.17333C19.3229 3.14084 19.3164 3.10873 19.3073 3.07733C19.1985 1.59006 18.1094 0.358821 16.6465 0.0693583C15.1836 -0.220105 13.7076 0.503571 13.0406 1.83733C11.9606 2.10876 10.9283 2.54331 9.97931 3.12599C9.28874 3.57069 8.62759 4.05949 7.99997 4.58933C7.53331 4.96533 7.11731 5.30066 6.68531 5.59533C5.65931 6.29133 4.11997 6.64133 1.98064 6.66666C1.4502 6.67176 0.943513 6.88739 0.572061 7.26609C0.200608 7.64479 -0.00517997 8.15555 -2.75998e-05 8.686C0.0156877 9.78841 0.916789 10.6723 2.01931 10.6667ZM24.6666 37.3333V38C24.6666 38.3682 24.3682 38.6667 24 38.6667H7.99997C7.63178 38.6667 7.33331 38.3682 7.33331 38V37.3333C7.33551 35.4933 8.8266 34.0022 10.6666 34H21.3333C23.1733 34.0022 24.6644 35.4933 24.6666 37.3333ZM19.3333 32.6667H12.6666V18H19.3333V32.6667ZM36.6666 18V18.6667C36.6666 19.0349 36.3682 19.3333 36 19.3333H32.6666C32.2985 19.3333 32 19.0349 32 18.6667V17.3333C32 16.5969 31.403 16 30.6666 16H22.6666V11.3333H30C33.6802 11.3374 36.6626 14.3198 36.6666 18ZM21.3333 10.6667V16C21.3333 16.3682 21.0348 16.6667 20.6666 16.6667H11.3333C10.9651 16.6667 10.6666 16.3682 10.6666 16V10.6667C10.6666 10.2985 10.9651 9.99999 11.3333 9.99999H20.6666C21.0348 9.99999 21.3333 10.2985 21.3333 10.6667ZM14.6666 8.66666V6.38399C15.5156 6.76088 16.4844 6.76088 17.3333 6.38399V8.66666H14.6666ZM16 1.33333C17.0991 1.3333 17.9923 2.22023 18 3.31933V3.34466C17.9937 4.44773 17.0955 5.33747 15.9925 5.33331C14.8894 5.32915 13.9979 4.43266 14 3.32957C14.0021 2.22648 14.8969 1.33335 16 1.33333ZM1.52397 8.2C1.64748 8.07259 1.8172 8.00047 1.99464 7.99999C4.40531 7.97199 6.18464 7.54599 7.43531 6.69733C7.91064 6.37399 8.35264 6.01999 8.88731 5.58599C9.45598 5.10631 10.0545 4.6632 10.6793 4.25933C11.3032 3.87388 11.9702 3.56308 12.6666 3.33333C12.6671 3.78583 12.7601 4.23345 12.94 4.64866C12.3974 4.83723 11.8772 5.08471 11.3886 5.38666C10.7916 5.77313 10.221 6.19896 9.68064 6.66133C9.23464 7.02266 8.72797 7.43133 8.17931 7.80133C6.67464 8.82133 4.71331 9.30799 1.99997 9.33333C1.73156 9.33329 1.48935 9.17229 1.38541 8.92482C1.28148 8.67735 1.33608 8.39168 1.52397 8.2Z" fill="url(#paint1_linear_30_563)"/>
<path d="M14.6666 22C15.0348 22 15.3333 21.7016 15.3333 21.3334V20C15.3333 19.6319 15.0348 19.3334 14.6666 19.3334C14.2984 19.3334 13.9999 19.6319 13.9999 20V21.3334C13.9999 21.7016 14.2984 22 14.6666 22Z" fill="url(#paint2_linear_30_563)"/>
<path d="M14.6666 31.3334C15.0348 31.3334 15.3333 31.0349 15.3333 30.6667V24C15.3333 23.6319 15.0348 23.3334 14.6666 23.3334C14.2984 23.3334 13.9999 23.6319 13.9999 24V30.6667C13.9999 31.0349 14.2984 31.3334 14.6666 31.3334Z" fill="url(#paint3_linear_30_563)"/>
</g>
<defs>
<linearGradient id="paint0_linear_30_563" x1="33.9996" y1="22" x2="33.9996" y2="39.9994" gradientUnits="userSpaceOnUse">
<stop stop-color="#68D7F0"/>
<stop offset="0.5" stop-color="#2DA5D3"/>
<stop offset="1" stop-color="#057BA9"/>
</linearGradient>
<linearGradient id="paint1_linear_30_563" x1="18.9999" y1="0.00610352" x2="18.9999" y2="40" gradientUnits="userSpaceOnUse">
<stop stop-color="#68D7F0"/>
<stop offset="0.5" stop-color="#2DA5D3"/>
<stop offset="1" stop-color="#057BA9"/>
</linearGradient>
<linearGradient id="paint2_linear_30_563" x1="14.6666" y1="19.3334" x2="14.6666" y2="22" gradientUnits="userSpaceOnUse">
<stop stop-color="#68D7F0"/>
<stop offset="0.5" stop-color="#2DA5D3"/>
<stop offset="1" stop-color="#057BA9"/>
</linearGradient>
<linearGradient id="paint3_linear_30_563" x1="14.6666" y1="23.3334" x2="14.6666" y2="31.3334" gradientUnits="userSpaceOnUse">
<stop stop-color="#68D7F0"/>
<stop offset="0.5" stop-color="#2DA5D3"/>
<stop offset="1" stop-color="#057BA9"/>
</linearGradient>
<clipPath id="clip0_30_563">
<rect width="40" height="40" fill="white"/>
</clipPath>
</defs>
</svg>
