<svg width="60" height="60" viewBox="0 0 60 60" fill="none" xmlns="http://www.w3.org/2000/svg">
<g clip-path="url(#clip0_117_57)">
<path d="M37.3317 29.3005L33.5735 25.5418L16.0938 43.0215L19.852 46.7802L37.3317 29.3005ZM33.5735 28.028L34.846 29.3005L19.852 44.2941L18.5799 43.0215L33.5735 28.028Z" fill="url(#paint0_linear_117_57)"/>
<path d="M25.5002 29.469C25.5002 26.4478 23.042 23.99 20.0212 23.99C16.9995 23.99 14.5417 26.4482 14.5417 29.469C14.5417 32.4902 16.9995 34.9484 20.0212 34.9484C23.042 34.9484 25.5002 32.4907 25.5002 29.469ZM16.2996 29.469C16.2996 27.4173 17.969 25.7478 20.0212 25.7478C22.0729 25.7478 23.7423 27.4173 23.7423 29.469C23.7423 31.5211 22.0729 33.1906 20.0212 33.1906C17.969 33.1906 16.2996 31.5211 16.2996 29.469Z" fill="url(#paint1_linear_117_57)"/>
<path d="M22.4968 29.469C22.4968 28.1039 21.3863 26.993 20.0212 26.993C18.6557 26.993 17.5452 28.1039 17.5452 29.469C17.5452 30.8345 18.6557 31.945 20.0212 31.945C21.3863 31.945 22.4968 30.8345 22.4968 29.469ZM19.303 29.469C19.303 29.073 19.6252 28.7512 20.0212 28.7512C20.4172 28.7512 20.739 29.073 20.739 29.469C20.739 29.865 20.4167 30.1872 20.0212 30.1872C19.6252 30.1872 19.303 29.865 19.303 29.469Z" fill="url(#paint2_linear_117_57)"/>
<path d="M33.4043 45.3287C34.7698 45.3287 35.8803 44.2181 35.8803 42.8526C35.8803 41.4876 34.7698 40.377 33.4043 40.377C32.0392 40.377 30.9282 41.4876 30.9282 42.8526C30.9282 44.2181 32.0392 45.3287 33.4043 45.3287ZM33.4043 42.1349C33.8002 42.1349 34.1225 42.4567 34.1225 42.8526C34.1225 43.2491 33.8002 43.5709 33.4043 43.5709C33.0083 43.5709 32.6865 43.2486 32.6865 42.8526C32.6865 42.4571 33.0083 42.1349 33.4043 42.1349Z" fill="url(#paint3_linear_117_57)"/>
<path d="M33.4043 48.3321C36.426 48.3321 38.8837 45.8739 38.8837 42.8526C38.8837 39.8314 36.426 37.3737 33.4043 37.3737C30.383 37.3737 27.9253 39.8314 27.9253 42.8526C27.9253 45.8739 30.383 48.3321 33.4043 48.3321ZM33.4043 39.1315C35.4564 39.1315 37.1259 40.8009 37.1259 42.8526C37.1259 44.9048 35.4564 46.5742 33.4043 46.5742C31.3526 46.5742 29.6831 44.9048 29.6831 42.8526C29.6831 40.8009 31.3526 39.1315 33.4043 39.1315Z" fill="url(#paint4_linear_117_57)"/>
<path d="M55.274 52.7069C55.0543 52.457 49.8307 46.6013 43.205 46.5742C43.1895 46.5742 43.1744 46.5742 43.1588 46.5742C43.1437 46.5742 43.1281 46.5742 43.113 46.5742C36.4874 46.6013 31.2634 52.457 31.0436 52.7069L30.5337 53.2869L31.0436 53.8673C31.2634 54.1173 36.4874 59.973 43.113 60H43.1588H43.205C49.8307 59.973 55.0543 54.1173 55.274 53.8673L55.7844 53.2869L55.274 52.7069ZM48.1136 53.2869C48.1136 56.0193 45.8912 58.2422 43.1588 58.2422C40.4269 58.2422 38.204 56.0193 38.204 53.2869C38.204 50.555 40.4269 48.3321 43.1588 48.3321C45.8912 48.3321 48.1136 50.555 48.1136 53.2869ZM37.3049 50.0038C36.7584 50.9752 36.4462 52.0953 36.4462 53.2869C36.4462 54.4789 36.7584 55.5991 37.3049 56.57C35.2848 55.4562 33.717 54.0591 32.9278 53.2869C33.7174 52.5146 35.2848 51.118 37.3049 50.0038ZM49.0127 56.5704C49.5597 55.5991 49.8719 54.4789 49.8719 53.2869C49.8719 52.0953 49.5597 50.9752 49.0127 50.0038C51.0328 51.118 52.6006 52.5146 53.3903 53.2869C52.6006 54.0596 51.0328 55.4562 49.0127 56.5704Z" fill="url(#paint5_linear_117_57)"/>
<path d="M26.7128 58.2422C15.2142 58.2422 5.85938 48.8873 5.85938 37.3888C5.85938 27.0122 23.1107 6.75476 26.7128 2.63855C30.3149 6.75385 47.5658 27.0094 47.5658 37.3888C47.5658 40.1257 47.0439 42.7853 46.0149 45.2948L47.6413 45.9618C48.7578 43.2399 49.3236 40.3555 49.3236 37.3888C49.3236 32.2229 45.612 24.4661 38.291 14.3349C34.9535 9.71558 30.6738 4.38766 26.7128 0C22.7394 4.4014 18.4612 9.73022 15.1341 14.3344C7.81357 24.4661 4.10156 32.2224 4.10156 37.3888C4.10156 49.8569 14.2447 60 26.7128 60C29.1513 60 31.5509 59.6132 33.8448 58.851L33.2909 57.1829C31.176 57.8856 28.9627 58.2422 26.7128 58.2422Z" fill="url(#paint6_linear_117_57)"/>
<path d="M46.3945 37.3888H44.6362C44.6367 35.5138 43.7509 31.0089 37.8192 21.9109L39.2918 20.9509C45.1622 29.9551 46.3945 34.8601 46.3945 37.3888ZM37.1793 20.9413C36.8657 20.4716 36.5366 19.986 36.2001 19.4984L37.6471 18.5005C37.9886 18.9954 38.3232 19.4884 38.6414 19.9654L37.1793 20.9413ZM35.535 18.5435C35.2072 18.0771 34.8662 17.5983 34.5215 17.1213L35.947 16.0922C36.2958 16.5756 36.6409 17.0599 36.9733 17.5328L35.535 18.5435Z" fill="url(#paint7_linear_117_57)"/>
<path d="M43.1593 57.2502C43.1588 57.2502 43.1588 57.2502 43.1588 57.2502C42.0991 57.2502 41.1035 56.8382 40.3555 56.0907L41.5983 54.8474C42.0144 55.2635 42.5683 55.4924 43.1588 55.4924C43.4966 55.4924 43.8336 55.4146 44.1334 55.2672L44.9079 56.8451C44.3687 57.1101 43.7635 57.2502 43.1593 57.2502ZM46.1027 55.9428L44.7981 54.7646C45.0805 54.4519 45.2659 54.066 45.3346 53.649L47.069 53.9337C46.9459 54.6844 46.6117 55.3793 46.1027 55.9428ZM45.313 52.8131C45.2238 52.4016 45.0182 52.0258 44.7193 51.7268L45.9622 50.4836C46.5005 51.0214 46.8699 51.698 47.031 52.44L45.313 52.8131Z" fill="url(#paint8_linear_117_57)"/>
</g>
<defs>
<linearGradient id="paint0_linear_117_57" x1="26.7127" y1="25.5418" x2="26.7127" y2="46.7802" gradientUnits="userSpaceOnUse">
<stop stop-color="#00A5C2"/>
<stop offset="1" stop-color="#00B2D0"/>
</linearGradient>
<linearGradient id="paint1_linear_117_57" x1="20.021" y1="23.99" x2="20.021" y2="34.9484" gradientUnits="userSpaceOnUse">
<stop stop-color="#00A5C2"/>
<stop offset="1" stop-color="#00B2D0"/>
</linearGradient>
<linearGradient id="paint2_linear_117_57" x1="20.021" y1="26.993" x2="20.021" y2="31.945" gradientUnits="userSpaceOnUse">
<stop stop-color="#00A5C2"/>
<stop offset="1" stop-color="#00B2D0"/>
</linearGradient>
<linearGradient id="paint3_linear_117_57" x1="33.4043" y1="40.377" x2="33.4043" y2="45.3287" gradientUnits="userSpaceOnUse">
<stop stop-color="#00A5C2"/>
<stop offset="1" stop-color="#00B2D0"/>
</linearGradient>
<linearGradient id="paint4_linear_117_57" x1="33.4045" y1="37.3737" x2="33.4045" y2="48.3321" gradientUnits="userSpaceOnUse">
<stop stop-color="#00A5C2"/>
<stop offset="1" stop-color="#00B2D0"/>
</linearGradient>
<linearGradient id="paint5_linear_117_57" x1="43.159" y1="46.5742" x2="43.159" y2="60" gradientUnits="userSpaceOnUse">
<stop stop-color="#00A5C2"/>
<stop offset="1" stop-color="#00B2D0"/>
</linearGradient>
<linearGradient id="paint6_linear_117_57" x1="26.7126" y1="0" x2="26.7126" y2="60" gradientUnits="userSpaceOnUse">
<stop stop-color="#00A5C2"/>
<stop offset="1" stop-color="#00B2D0"/>
</linearGradient>
<linearGradient id="paint7_linear_117_57" x1="40.458" y1="16.0922" x2="40.458" y2="37.3888" gradientUnits="userSpaceOnUse">
<stop stop-color="#00A5C2"/>
<stop offset="1" stop-color="#00B2D0"/>
</linearGradient>
<linearGradient id="paint8_linear_117_57" x1="43.7122" y1="50.4836" x2="43.7122" y2="57.2502" gradientUnits="userSpaceOnUse">
<stop stop-color="#00A5C2"/>
<stop offset="1" stop-color="#00B2D0"/>
</linearGradient>
<clipPath id="clip0_117_57">
<rect width="60" height="60" fill="white"/>
</clipPath>
</defs>
</svg>
