<svg width="81" height="80" viewBox="0 0 81 80" fill="none" xmlns="http://www.w3.org/2000/svg">
<path d="M71.2314 26.8664L64.0292 49.3998C63.4907 50.9998 62.0772 52.0665 60.3945 52.0665H32.5953C30.9798 52.0665 29.4317 51.0663 28.8932 49.5997L18.3255 21.3998H12.133C10.6521 21.3998 9.44055 20.1998 9.44055 18.7331C9.44055 17.2665 10.6521 16.0665 12.133 16.0665H20.1429C21.2872 16.0665 22.2968 16.7998 22.7007 17.8664L33.6723 46.6664H59.2502L64.9715 28.6664H33.2684C31.7876 28.6664 30.576 27.4664 30.576 25.9997C30.576 24.5331 31.7876 23.3331 33.2684 23.3331H68.6736C69.5486 23.3331 70.3564 23.7997 70.8275 24.4664C71.366 25.133 71.5006 26.0664 71.2314 26.8664ZM33.9415 55.5331C32.7972 55.5331 31.6529 55.9997 30.8452 56.7997C30.0375 57.5997 29.5663 58.7331 29.5663 59.8664C29.5663 60.9998 30.0375 62.133 30.8452 62.933C31.6529 63.733 32.7972 64.1998 33.9415 64.1998C35.0858 64.1998 36.23 63.733 37.0378 62.933C37.8455 62.133 38.3167 60.9998 38.3167 59.8664C38.3167 58.7331 37.8455 57.5997 37.0378 56.7997C36.23 55.9997 35.0858 55.5331 33.9415 55.5331ZM58.1059 55.5331C56.9616 55.5331 55.8174 55.9997 55.0096 56.7997C54.2019 57.5997 53.7307 58.7331 53.7307 59.8664C53.7307 60.9998 54.2019 62.133 55.0096 62.933C55.8174 63.733 56.9616 64.1998 58.1059 64.1998C59.2502 64.1998 60.3945 63.733 61.2022 62.933C62.0099 62.133 62.4811 60.9998 62.4811 59.8664C62.4811 58.7331 62.0099 57.5997 61.2022 56.7997C60.3945 55.9997 59.2502 55.5331 58.1059 55.5331Z" fill="#00B2D0"/>
</svg>
