<svg width="200" height="50" viewBox="0 0 200 50" fill="none" xmlns="http://www.w3.org/2000/svg">
<path d="M93.3 17.7L87 24.1H84.5V17.7H82V33H84.5V26.6H87L93.3 33H96.6L89.1 25.4L96.7 17.7H93.3ZM34 22.1C34.5 21.4 35.2 20.8 36 20.4C36.8 20 37.7 19.8 38.6 19.8C39.9 19.8 41.3 20.3 42.3 21.2L44.3 19.2C43.3 18.3 42.1 17.6 40.8 17.3C39.5 17 38.1 16.9 36.8 17.3C35.5 17.6 34.3 18.2 33.2 19.1C32.2 20 31.4 21.1 30.9 22.4C30.4 23.7 30.2 25 30.4 26.4C30.6 27.7 31 29 31.8 30.1C32.6 31.2 33.6 32.1 34.8 32.8C36 33.5 37.3 33.8 38.7 33.8C40.7 33.8 42.7 33.1 44.2 31.7L42.2 29.8C41.5 30.4 40.7 30.8 39.8 30.9C38.9 31.1 38 31.1 37.2 30.8C36.3 30.6 35.6 30.1 34.9 29.5C34.2 28.9 33.8 28.1 33.5 27.3C33.2 26.5 33.1 25.6 33.2 24.7C33.2 23.7 33.5 22.8 34 22.1ZM3.6 16.6C1.3 18.9 0 22.1 0 25.3C0 28.5 1.3 31.7 3.6 34C5.9 36.3 9.1 37.6 12.3 37.6H12.8V33H12.3C10.3 32.9 8.4 32.1 7.1 30.7C5.7 29.3 5 27.4 5 25.4C5 23.4 5.8 21.5 7.1 20.1C8.5 18.7 10.4 17.8 12.3 17.8H12.8V13H12.3C9.1 13 5.9 14.3 3.6 16.6ZM60.2 19.4C58.6 17.8 56.5 17 54.3 17C52.7 17 51 17.5 49.7 18.4C48.3 19.3 47.3 20.6 46.6 22.1C46 23.6 45.8 25.3 46.1 26.9C46.4 28.5 47.2 30 48.4 31.2C49.6 32.4 51 33.2 52.7 33.5C54.3 33.8 56 33.7 57.5 33C59 32.4 60.3 31.3 61.2 29.9C62.1 28.5 62.6 26.9 62.6 25.3C62.7 23.1 61.8 21 60.2 19.4ZM59.5 27.5C59.2 28.2 58.8 28.8 58.3 29.3C57.8 29.8 57.2 30.2 56.5 30.5C55.8 30.8 55.1 30.9 54.4 30.9C53.3 30.9 52.2 30.6 51.3 30C50.4 29.4 49.7 28.5 49.2 27.5C48.8 26.5 48.7 25.4 48.9 24.3C49.1 23.2 49.6 22.2 50.4 21.4C51.2 20.6 52.2 20.1 53.3 19.9C54.4 19.7 55.5 19.8 56.5 20.2C57.5 20.6 58.4 21.3 59 22.3C59.6 23.2 59.9 24.3 59.9 25.4C59.9 26.1 59.7 26.8 59.5 27.5Z" fill="#FF4B5F"/>
<path d="M110.9 19.4C109.3 17.8 107.2 17 105 17C103.4 17 101.7 17.5 100.4 18.4C99 19.3 98 20.6 97.3 22.1C96.7 23.6 96.5 25.3 96.8 26.9C97.1 28.5 97.9 30 99.1 31.2C100.3 32.4 101.7 33.2 103.4 33.5C105 33.8 106.7 33.7 108.2 33C109.7 32.4 111 31.3 111.9 29.9C112.8 28.5 113.3 26.9 113.3 25.3C113.4 23.1 112.5 21 110.9 19.4ZM110.2 27.5C109.9 28.2 109.5 28.8 109 29.3C108.5 29.8 107.9 30.2 107.2 30.5C106.5 30.8 105.8 30.9 105.1 30.9C104 30.9 102.9 30.6 102 30C101.1 29.4 100.4 28.5 99.9 27.5C99.5 26.5 99.4 25.4 99.6 24.3C99.8 23.2 100.3 22.2 101.1 21.4C101.9 20.6 102.9 20.1 104 19.9C105.1 19.7 106.2 19.8 107.2 20.2C108.2 20.6 109.1 21.3 109.7 22.3C110.3 23.2 110.6 24.3 110.6 25.4C110.6 26.1 110.5 26.8 110.2 27.5ZM130.8 17.7L124.6 25.1L118.4 17.7V17.8V17.7H115.9V33H118.4V21.8L124.6 29.2L130.8 21.9V33H133.2V17.7H130.8ZM77.5 25.3C77.9 24.9 78.3 24.4 78.5 23.8C78.7 23.2 78.9 22.7 78.9 22.1C78.9 21.5 78.8 20.9 78.6 20.4C78.4 19.9 78.1 19.4 77.6 19C77.2 18.6 76.7 18.3 76.2 18C75.7 17.8 75.1 17.7 74.5 17.7H65.5V33H74.5C75.7 33 76.8 32.5 77.6 31.7C78.4 30.9 78.9 29.8 78.9 28.6C78.9 28 78.8 27.4 78.5 26.8C78.3 26.2 77.9 25.7 77.5 25.3ZM75.9 30C75.5 30.4 75 30.6 74.5 30.6H68V26.6H74.5C75 26.6 75.5 26.8 75.9 27.2C76.3 27.6 76.5 28.1 76.5 28.6C76.5 29.1 76.3 29.6 75.9 30ZM76.7 23C76.6 23.3 76.4 23.5 76.2 23.7C76 23.9 75.7 24 75.4 24.1C75.1 24.2 74.8 24.2 74.5 24.1H68V20.2H74.5C74.8 20.1 75.1 20.1 75.4 20.2C75.7 20.3 76 20.4 76.2 20.6C76.4 20.8 76.6 21 76.7 21.3C76.8 21.6 76.9 21.9 76.9 22.2C76.9 22.5 76.8 22.7 76.7 23Z" fill="#FF4B5F"/>
<path d="M14.8001 13.3V19.7H12.3001C10.8001 19.7 9.4001 20.3 8.3001 21.4C7.2001 22.5 6.6001 23.9 6.6001 25.4C6.6001 26.9 7.2001 28.3 8.3001 29.4C9.4001 30.5 10.8001 31.1 12.3001 31.1H14.8001V37.5C17.6001 36.9 20.1001 35.4001 21.9001 33.2001C23.7001 31 24.7001 28.2 24.7001 25.4C24.7001 22.6 23.7001 19.8 21.9001 17.6C20.1001 15.3 17.6001 13.8 14.8001 13.3ZM159.9 17.7H157.1L150.4 33H153L154.5 29.7001H162.4L163.9 33H166.6L159.9 17.7ZM155.6 27.3L158.5 20.8L161.4 27.3H155.6ZM200 17.7H196.7L190.3 24.1H187.8V17.7H185.3V33H187.8V26.6H190.3L196.6 33H199.9L192.5 25.4L200 17.7ZM149.1 26.8C148.9 26.3 148.5 25.8 148.1 25.4C147.7 25 147.2 24.7 146.6 24.4C146.1 24.2 145.5 24.1 144.9 24.1H138.4V20.1H147.9V17.6H136V33H144.9C146.1 33 147.2 32.5 148 31.7001C148.8 30.9001 149.3 29.7 149.3 28.6C149.5 28 149.4 27.4 149.1 26.8ZM146.4 30C146 30.4 145.5 30.6 145 30.6H138.6V26.6H145C145.5 26.6 146 26.8 146.4 27.2C146.8 27.6 147 28.1 147 28.6C147 29.1 146.8 29.6 146.4 30ZM179.8 24.1H170.9V17.7H168.4V33H170.9V26.6H179.8V33H182.3V17.7H179.8V24.1Z" fill="#003791"/>
</svg>
