<svg width="60" height="60" viewBox="0 0 60 60" fill="none" xmlns="http://www.w3.org/2000/svg">
<path d="M33.9993 55.9958C46.1487 55.9958 55.9977 46.1468 55.9977 33.9974C55.9977 21.8481 46.1487 11.9991 33.9993 11.9991C21.85 11.9991 12.001 21.8481 12.001 33.9974C12.0147 46.141 21.8556 55.982 33.9993 55.9958ZM17.0006 32.9975H14.0518C14.573 22.7567 22.7585 14.5711 32.9994 14.0499V16.9987C32.9994 17.5509 33.4471 17.9986 33.9993 17.9986C34.5515 17.9986 34.9993 17.5509 34.9993 16.9987V14.0499C45.2401 14.5711 53.4256 22.7567 53.9468 32.9975H49.9981C49.4459 32.9975 48.9982 33.4452 48.9982 33.9974C48.9982 34.5496 49.4459 34.9974 49.9981 34.9974H53.9468C53.4256 45.2381 45.2401 53.4237 34.9993 53.9449V50.9962C34.9993 50.4439 34.5515 49.9962 33.9993 49.9962C33.4471 49.9962 32.9994 50.4439 32.9994 50.9962V53.9449C22.7587 53.4237 14.573 45.2382 14.0518 34.9974H17.0006C17.5528 34.9974 18.0005 34.5496 18.0005 33.9974C18.0005 33.4452 17.5528 32.9975 17.0006 32.9975Z" fill="url(#paint0_linear_117_94)"/>
<path d="M56.5127 21.0157C56.2146 20.4992 55.8988 19.9932 55.5658 19.4985L58.0346 17.0297C58.425 16.6393 58.425 16.0063 58.0346 15.6158L52.385 9.96625C51.9946 9.57591 51.3616 9.57591 50.9711 9.96625L48.4983 12.4311C44.4984 9.73052 39.8222 8.20401 34.9993 8.0244V1.99985H41.9988C42.551 1.99985 42.9987 1.55213 42.9987 0.999925C42.9987 0.447716 42.551 0 41.9988 0H26C25.4478 0 25.0001 0.447716 25.0001 0.999925C25.0001 1.55213 25.4478 1.99985 26 1.99985H32.9995V8.0334C24.0817 8.37387 15.9633 13.2698 11.5011 20.9984H6.00151C5.44931 20.9984 5.00159 21.4461 5.00159 21.9983C5.00159 22.5506 5.44931 22.9983 6.00151 22.9983H12.0011C12.0271 22.9983 12.0491 22.9853 12.0751 22.9833C12.4354 22.9879 12.7696 22.7964 12.948 22.4833C19.3099 10.8562 33.8928 6.58776 45.5201 12.9495C57.1473 19.3113 61.4155 33.8945 55.0537 45.5216C48.6918 57.1487 34.1089 61.4171 22.4817 55.0554C18.458 52.8538 15.1495 49.5453 12.9479 45.5216C12.7713 45.2072 12.4375 45.0137 12.0769 45.0166C12.0509 45.0166 12.0279 45.0016 12.0009 45.0016H6.00139C5.44918 45.0016 5.00146 45.4493 5.00146 46.0015C5.00146 46.5538 5.44918 47.0015 6.00139 47.0015H11.501C18.6768 59.431 34.5701 63.6902 46.9997 56.5144C59.4294 49.3385 63.6884 33.4452 56.5127 21.0157ZM50.1323 13.6327L51.678 12.0871L55.9136 16.3228L54.3658 17.8707C53.1209 16.3013 51.7005 14.8794 50.1323 13.6327Z" fill="url(#paint1_linear_117_94)"/>
<path d="M10.0012 33.9975C10.0012 33.4452 9.55349 32.9975 9.00128 32.9975H1.00188C0.44967 32.9975 0.00195312 33.4452 0.00195312 33.9975C0.00195312 34.5497 0.44967 34.9974 1.00188 34.9974H9.00128C9.55349 34.9974 10.0012 34.5497 10.0012 33.9975Z" fill="url(#paint2_linear_117_94)"/>
<path d="M3.00163 28.9978H10.0011C10.5533 28.9978 11.001 28.5501 11.001 27.9979C11.001 27.4457 10.5533 26.998 10.0011 26.998H3.00163C2.44943 26.998 2.00171 27.4457 2.00171 27.9979C2.00171 28.5501 2.4493 28.9978 3.00163 28.9978Z" fill="url(#paint3_linear_117_94)"/>
<path d="M11.001 39.997C11.001 39.4448 10.5533 38.9971 10.0011 38.9971H3.00163C2.44943 38.9971 2.00171 39.4448 2.00171 39.997C2.00171 40.5492 2.44943 40.9969 3.00163 40.9969H10.0011C10.5533 40.9969 11.001 40.5492 11.001 39.997Z" fill="url(#paint4_linear_117_94)"/>
<path d="M31.2926 40.7039C31.6831 41.0943 32.3161 41.0943 32.7065 40.7039L46.6055 26.805C46.9892 26.4078 46.9782 25.7748 46.581 25.3911C46.1935 25.0169 45.5792 25.0169 45.1916 25.3911L31.9996 38.5831L26.05 32.6335C25.6528 32.2499 25.0197 32.2608 24.6361 32.658C24.2619 33.0455 24.2619 33.6598 24.6361 34.0474L31.2926 40.7039Z" fill="url(#paint5_linear_117_94)"/>
<defs>
<linearGradient id="paint0_linear_117_94" x1="33.9993" y1="11.9991" x2="33.9993" y2="55.9958" gradientUnits="userSpaceOnUse">
<stop stop-color="#00A5C2"/>
<stop offset="1" stop-color="#00B2D0"/>
</linearGradient>
<linearGradient id="paint1_linear_117_94" x1="32.4999" y1="0" x2="32.4999" y2="60" gradientUnits="userSpaceOnUse">
<stop stop-color="#00A5C2"/>
<stop offset="1" stop-color="#00B2D0"/>
</linearGradient>
<linearGradient id="paint2_linear_117_94" x1="5.00158" y1="32.9975" x2="5.00158" y2="34.9974" gradientUnits="userSpaceOnUse">
<stop stop-color="#00A5C2"/>
<stop offset="1" stop-color="#00B2D0"/>
</linearGradient>
<linearGradient id="paint3_linear_117_94" x1="6.50137" y1="26.998" x2="6.50137" y2="28.9978" gradientUnits="userSpaceOnUse">
<stop stop-color="#00A5C2"/>
<stop offset="1" stop-color="#00B2D0"/>
</linearGradient>
<linearGradient id="paint4_linear_117_94" x1="6.50137" y1="38.9971" x2="6.50137" y2="40.9969" gradientUnits="userSpaceOnUse">
<stop stop-color="#00A5C2"/>
<stop offset="1" stop-color="#00B2D0"/>
</linearGradient>
<linearGradient id="paint5_linear_117_94" x1="35.6209" y1="25.1104" x2="35.6209" y2="40.9967" gradientUnits="userSpaceOnUse">
<stop stop-color="#00A5C2"/>
<stop offset="1" stop-color="#00B2D0"/>
</linearGradient>
</defs>
</svg>
