<svg width="200" height="50" viewBox="0 0 200 50" fill="none" xmlns="http://www.w3.org/2000/svg">
<path d="M42.4585 12.3467C43.0419 13.525 41.8802 14.69 40.7019 14.1033C40.4952 13.9992 40.3285 13.8325 40.2244 13.6258C39.641 12.4475 40.8027 11.2825 41.981 11.8692C42.1877 11.9733 42.3544 12.14 42.4585 12.3467ZM47.5969 12.3467C48.1802 13.525 47.0194 14.69 45.8402 14.1033C45.6344 14 45.4669 13.8325 45.3635 13.6258C44.776 12.4475 45.941 11.2825 47.1194 11.8692C47.326 11.9733 47.4927 12.14 47.5969 12.3467Z" fill="#A54181"/>
<path d="M49.3333 15.8109C48.4425 16.4884 46.6817 17.1118 44.3958 17.1118C42.11 17.1118 40.3483 16.4884 39.4583 15.8109H37.5117C38.0025 17.5559 40.8925 18.8984 44.395 18.8984C47.8975 18.8984 50.7867 17.5559 51.2775 15.8109H49.3333ZM73.9009 34.1576C72.8375 34.1576 71.9959 34.0643 71.375 33.8768C70.7684 33.6968 70.2025 33.4001 69.7084 33.0051C69.1992 32.5959 68.7992 32.0684 68.5417 31.4684C68.2759 30.8576 68.1425 30.0501 68.1425 29.0459V21.1568H65.9825V18.5001H68.1392V13.4751H71.5959V18.5001H75.9692V21.1593H71.5959V28.3334C71.5959 28.6309 71.6209 28.9268 71.67 29.2201C71.7209 29.5209 71.81 29.8143 71.9359 30.0918C72.0642 30.3776 72.2625 30.6268 72.5125 30.8151C72.9084 31.1534 73.3984 31.3609 73.9167 31.4093C74.3425 31.4618 74.7717 31.4918 75.2009 31.5001H76.0575V34.1593L73.9009 34.1576ZM86.8717 18.5001C87.5067 18.4943 88.1375 18.6043 88.7325 18.8251C89.2567 19.0118 89.7317 19.3151 90.1217 19.7118C90.455 20.0451 90.7308 20.5226 90.9492 21.1451C91.1675 21.7676 91.2758 22.5209 91.2742 23.4051V31.5301C91.2675 31.8676 91.2333 32.2034 91.1708 32.5351C91.04 33.3151 90.4292 33.9259 89.6492 34.0568C89.27 34.1234 88.885 34.1576 88.5 34.1576H81.025C80.5558 34.1551 80.0867 34.1251 79.6208 34.0684C79.1208 34.0101 78.6433 33.7834 78.1883 33.3893C77.8792 33.1201 77.625 32.7943 77.4383 32.4293C77.2517 32.0693 77.1117 31.6868 77.0217 31.2918C76.9333 30.9126 76.8775 30.5276 76.855 30.1393C76.835 29.7651 76.825 29.4301 76.8258 29.1343C76.825 28.4484 76.8992 27.7651 77.0475 27.0959C77.195 26.4293 77.5642 25.8384 78.155 25.3234C78.6475 24.8901 79.145 24.6293 79.6475 24.5401C80.1008 24.4568 80.5608 24.4118 81.0217 24.4076H87.8167V23.3143C87.815 23.0659 87.7908 22.8184 87.7433 22.5751C87.6842 22.3018 87.5575 22.0476 87.3733 21.8368C87.1725 21.5651 86.8867 21.3676 86.5608 21.2751C86.2767 21.1993 85.9833 21.1593 85.6892 21.1568H77.9783V18.5001H86.8717ZM82.055 27.0684C81.8617 27.0776 81.6692 27.1026 81.4792 27.1426C81.1983 27.2018 80.95 27.3659 80.785 27.6009C80.6892 27.7493 80.61 27.9076 80.5483 28.0734C80.45 28.3101 80.4008 28.7143 80.4008 29.2851C80.4058 29.5801 80.43 29.8751 80.475 30.1668C80.5083 30.4893 80.6483 30.7909 80.8733 31.0243C81.0167 31.1593 81.1817 31.2693 81.3608 31.3493C81.56 31.4476 81.7783 31.4993 82 31.5001H86.8167C86.915 31.5001 87.0383 31.4951 87.1858 31.4851C87.3333 31.4759 87.4733 31.4184 87.585 31.3226C87.6883 31.2468 87.7617 31.1368 87.7917 31.0126C87.8117 30.9001 87.8208 30.7868 87.8208 30.6726V27.0659L82.055 27.0684ZM93.6375 13.4751H97.0942V34.1576H93.6375V13.4751ZM99.4575 34.1576V13.4751H102.917V34.1576H99.4575ZM110.419 34.1576L105.013 28.4259C104.753 28.1318 104.521 27.8159 104.318 27.4801C104.063 27.0526 103.934 26.5609 103.948 26.0634C103.948 25.4726 104.077 24.9943 104.333 24.6301C104.588 24.2659 104.825 23.9559 105.042 23.7001L109.769 18.5001H113.788L107.908 24.8234C107.775 24.9743 107.656 25.1376 107.553 25.3109C107.448 25.5059 107.398 25.7251 107.406 25.9459C107.409 26.2118 107.486 26.4709 107.628 26.6959C107.776 26.9443 107.949 27.1768 108.144 27.3901L114.556 34.1568L110.419 34.1576ZM118.781 13.4751V18.5001H123.364C123.853 18.5009 124.342 18.5309 124.827 18.5893C125.332 18.6484 125.827 18.7676 126.304 18.9434C126.799 19.1276 127.262 19.3868 127.678 19.7118C128.146 20.0868 128.537 20.5484 128.831 21.0709C129.273 21.8293 129.56 22.6676 129.672 23.5384C129.803 24.4926 129.867 25.4551 129.865 26.4184C129.865 27.6993 129.777 28.7484 129.599 29.5651C129.422 30.3818 129.174 31.0543 128.856 31.5834C128.574 32.0976 128.193 32.5509 127.733 32.9168C127.316 33.2426 126.853 33.5068 126.359 33.6993C125.884 33.8851 125.388 34.0093 124.882 34.0684C124.407 34.1259 123.928 34.1559 123.449 34.1576H118.515C118.075 34.1584 117.636 34.1284 117.2 34.0684C116.758 34.0009 116.349 33.7943 116.033 33.4776C115.743 33.2251 115.537 32.8901 115.442 32.5176C115.367 32.1934 115.327 31.8609 115.325 31.5276V13.4751H118.781ZM118.781 30.1984C118.781 30.3559 118.785 30.5318 118.796 30.7151C118.807 30.9084 118.886 31.0909 119.017 31.2326C119.133 31.3501 119.283 31.4276 119.446 31.4543C119.617 31.4843 119.789 31.4984 119.962 31.4984H122.474C122.71 31.4984 122.976 31.4884 123.272 31.4684C123.575 31.4476 123.873 31.3826 124.158 31.2768C124.469 31.1601 124.762 31.0009 125.03 30.8043C125.34 30.5668 125.588 30.2568 125.753 29.9026C125.892 29.5618 126.007 29.2118 126.093 28.8543C126.222 28.3718 126.286 27.6084 126.286 26.5643C126.286 25.3234 126.212 24.4276 126.064 23.8751C125.917 23.3226 125.812 22.9884 125.75 22.8709C125.455 22.2476 124.947 21.7501 124.318 21.4676C124.036 21.3409 123.737 21.2568 123.431 21.2176C123.152 21.1801 122.87 21.1601 122.588 21.1584H118.777L118.781 30.1984ZM141.442 18.5001C142.077 18.4943 142.708 18.6043 143.304 18.8251C143.828 19.0118 144.302 19.3151 144.692 19.7118C145.026 20.0451 145.302 20.5226 145.52 21.1451C145.738 21.7676 145.847 22.5209 145.845 23.4051V31.5301C145.839 31.8676 145.804 32.2034 145.742 32.5351C145.612 33.3151 145 33.9268 144.22 34.0568C143.839 34.1243 143.454 34.1593 143.067 34.1601H135.592C135.123 34.1576 134.655 34.1276 134.189 34.0709C133.689 34.0126 133.212 33.7859 132.756 33.3918C132.447 33.1226 132.192 32.7968 132.006 32.4318C131.819 32.0718 131.679 31.6901 131.589 31.2943C131.501 30.9159 131.445 30.5301 131.422 30.1418C131.402 29.7676 131.392 29.4326 131.392 29.1368C131.392 28.4509 131.467 27.7676 131.614 27.0984C131.762 26.4318 132.132 25.8409 132.722 25.3259C133.215 24.8926 133.712 24.6318 134.214 24.5426C134.667 24.4593 135.127 24.4143 135.588 24.4101H142.384V23.3143C142.382 23.0659 142.358 22.8184 142.31 22.5751C142.252 22.3018 142.125 22.0476 141.941 21.8368C141.739 21.5651 141.453 21.3676 141.128 21.2751C140.844 21.1993 140.551 21.1593 140.257 21.1568H132.545V18.5001H141.442ZM136.627 27.0684C136.433 27.0776 136.241 27.1026 136.051 27.1426C135.769 27.2018 135.521 27.3651 135.356 27.6009C135.261 27.7493 135.182 27.9076 135.12 28.0734C135.021 28.3101 134.971 28.7143 134.972 29.2851C134.977 29.5818 135.002 29.8776 135.046 30.1709C135.079 30.4934 135.22 30.7951 135.445 31.0284C135.588 31.1634 135.753 31.2734 135.932 31.3534C136.13 31.4501 136.347 31.5001 136.567 31.5009H141.383C141.482 31.5009 141.605 31.4959 141.753 31.4859C141.9 31.4768 142.04 31.4193 142.152 31.3234C142.255 31.2484 142.328 31.1384 142.358 31.0134C142.378 30.9009 142.388 30.7876 142.388 30.6734V27.0659L136.627 27.0684ZM148.208 20.8909C148.212 20.6134 148.237 20.3368 148.283 20.0634C148.336 19.7409 148.485 19.4426 148.711 19.2068C149.014 18.8501 149.443 18.6226 149.908 18.5718C150.305 18.5268 150.704 18.5018 151.104 18.4976H156.629C157.412 18.4934 158.193 18.5634 158.963 18.7051C159.691 18.8426 160.371 19.1968 161.002 19.7684C161.415 20.1426 161.774 20.6451 162.08 21.2751C162.386 21.9051 162.538 22.7618 162.538 23.8459V34.1576H159.083V24.8801C159.084 24.3801 159.044 23.8809 158.965 23.3876C158.893 22.9226 158.711 22.4818 158.433 22.1026C158.188 21.7759 157.855 21.5251 157.473 21.3784C157.089 21.2309 156.582 21.1576 155.952 21.1568H152.435C152.337 21.1568 152.238 21.1618 152.14 21.1718C152.026 21.1901 151.921 21.2476 151.844 21.3343C151.753 21.4193 151.695 21.5351 151.682 21.6593C151.672 21.7776 151.668 21.8859 151.668 21.9843V34.1576H148.208V20.8909ZM164.902 34.1576V13.4751H168.359V34.1576H164.902ZM175.863 34.1576L170.457 28.4259C170.197 28.1318 169.965 27.8159 169.762 27.4801C169.507 27.0526 169.378 26.5609 169.392 26.0634C169.392 25.4726 169.521 24.9943 169.777 24.6301C170.032 24.2659 170.269 23.9559 170.486 23.7001L175.213 18.5001H179.232L173.352 24.8234C173.219 24.9743 173.1 25.1376 172.997 25.3109C172.892 25.5059 172.842 25.7251 172.85 25.9459C172.853 26.2118 172.93 26.4709 173.072 26.6959C173.22 26.9443 173.393 27.1768 173.588 27.3901L180 34.1568L175.863 34.1576Z" fill="#A54181"/>
<path d="M57.2092 24.2667V6.30583C57.2092 4.48 55.73 3.00083 53.9042 3H33.9167C32.0908 3 30.6108 4.48 30.6108 6.30583V24.2667C30.6108 26.0925 32.0908 27.5725 33.9167 27.5725H48.5083C49.9325 30.8558 57.2092 30.5225 57.2092 30.5225C57.2092 30.5225 55.235 29.5833 54.6875 27.4783C56.1675 27.1167 57.2092 25.79 57.2092 24.2667ZM35.1975 21.8592V8.71333C35.1958 8.09083 35.7 7.585 36.3225 7.58333H51.5C52.1225 7.58333 52.6267 8.0875 52.6267 8.71V21.8592C52.6275 22.4817 52.1233 22.9858 51.5008 22.9867H36.325C35.7025 22.9867 35.1975 22.4817 35.1975 21.8592Z" fill="#A54181"/>
<path d="M40.2975 29.6667V33.615C40.295 34.2375 39.7892 34.74 39.1667 34.7383H25.7133C25.0908 34.74 24.585 34.2358 24.5833 33.6133V21.8067C24.5833 21.1842 25.0875 20.68 25.71 20.68H28.5542V16.0967H23.3042C21.48 16.0975 20.0017 17.5758 20 19.4V36.0192C20 37.5425 21.0417 38.8692 22.5217 39.2308C21.9742 41.3333 20 42.2742 20 42.2742C20 42.2742 27.2767 42.6075 28.7017 39.3242H41.5775C43.4033 39.3242 44.8825 37.845 44.8833 36.0192V29.6667H40.2975Z" fill="#1D9A9E"/>
<path d="M27.4824 24.7374C27.4816 25.4407 28.0524 26.0116 28.7558 26.0124C29.4591 26.0132 30.0299 25.4424 30.0308 24.7391C30.0316 24.0357 29.4608 23.4649 28.7574 23.4641H28.7566C28.0533 23.4632 27.4833 24.0332 27.4824 24.7366V24.7374ZM34.6332 30.6082H31.0916V32.8824H34.6332V30.6082Z" fill="#1D9A9E"/>
</svg>
