<svg width="200" height="50" viewBox="0 0 200 50" fill="none" xmlns="http://www.w3.org/2000/svg">
<path d="M181.836 18.8233C182.621 18.8233 183.406 18.8124 184.201 18.8233V25.1125C184.463 25.1125 184.735 25.1016 185.008 25.1016C185.705 23.0089 186.501 20.9488 187.166 18.8342C188.038 18.7797 188.91 18.8015 189.782 18.8233C188.921 21.2431 188.136 23.6956 187.275 26.1044C188.147 28.6986 189.084 31.2709 190 33.8542C189.139 33.876 188.289 33.8542 187.428 33.876C186.621 31.7505 185.891 29.5924 185.084 27.4669C184.801 27.4015 184.496 27.4342 184.212 27.4342C184.201 29.5815 184.212 31.7287 184.212 33.876H181.847C181.836 28.873 181.836 23.8481 181.836 18.8233ZM171.874 18.8233C172.68 18.8342 173.487 18.8124 174.304 18.8342V25.1234C175.209 25.1125 176.114 25.1234 177.018 25.1234C177.007 23.0307 177.018 20.927 177.018 18.8342H179.384V33.8869H177.018C177.007 31.7396 177.007 29.6033 177.018 27.456H174.304C174.315 29.5924 174.304 31.7396 174.304 33.8869H171.874C171.874 28.8621 171.863 23.8481 171.874 18.8233ZM165.028 28.9929C165.726 28.982 166.424 29.0147 167.121 28.9711C166.751 26.5513 166.38 24.1315 166.097 21.7009C165.704 24.1206 165.366 26.5622 165.028 28.9929ZM164.462 18.7906C165.541 18.8124 166.62 18.7688 167.688 18.8233C168.516 23.8481 169.399 28.873 170.249 33.8978C169.432 33.8869 168.614 33.8869 167.808 33.8978L167.415 31.2491H164.669C164.56 32.132 164.418 33.004 164.32 33.8869C163.502 33.8978 162.685 33.8869 161.867 33.8869C162.739 28.8512 163.59 23.8155 164.462 18.7906ZM155.938 26.2788C155.938 28.0228 155.927 29.7777 155.949 31.5216C156.472 31.5107 156.995 31.5543 157.508 31.478C157.965 31.369 158.26 30.9003 158.26 30.4426C158.281 29.5161 158.26 28.5787 158.271 27.6522C158.281 27.2162 158.183 26.7257 157.791 26.475C157.213 26.2025 156.559 26.2788 155.938 26.2788ZM153.54 18.8342C155.611 18.8233 157.693 18.8342 159.764 18.8342V21.1232C158.489 21.1232 157.224 21.1341 155.96 21.1123C155.927 22.0606 155.949 23.0089 155.949 23.9571C157.213 24.0116 158.707 23.8481 159.709 24.7746C160.701 25.6684 160.734 27.1181 160.701 28.3607C160.647 29.7559 160.941 31.3036 160.134 32.5462C159.589 33.44 158.521 33.7997 157.529 33.8542C156.2 33.9196 154.87 33.8651 153.551 33.8869C153.529 28.873 153.54 23.8481 153.54 18.8342ZM137.931 18.8233C138.738 18.8233 139.545 18.8124 140.351 18.8342C140.395 20.7308 140.264 22.6274 140.286 24.5348C140.297 25.7556 140.286 26.9655 140.253 28.1863C141.136 25.0798 142.008 21.9625 142.847 18.8451C143.85 18.8124 144.853 18.8342 145.856 18.8233V33.8869H143.458C143.49 30.6933 143.479 27.4996 143.534 24.3059C142.564 27.4887 141.648 30.6824 140.722 33.876C139.795 33.8978 138.858 33.876 137.921 33.8869C137.931 28.873 137.921 23.8481 137.931 18.8233ZM127.609 18.8233C128.394 18.8233 129.179 18.8124 129.975 18.8233C130.007 21.9189 129.909 25.0035 129.92 28.0882C130.792 25.0035 131.631 21.908 132.503 18.8233C133.495 18.8124 134.498 18.8124 135.49 18.8233C135.501 23.8372 135.468 28.8403 135.512 33.8542C134.694 33.9087 133.866 33.876 133.048 33.876C133.135 32.8514 133.092 31.8159 133.103 30.7804C133.07 28.6223 133.277 26.4641 133.103 24.3059C132.253 27.5214 131.25 30.6824 130.334 33.876H127.544C127.522 28.8621 127.544 23.8481 127.609 18.8233ZM117.734 18.8342H120.132C120.143 20.927 120.121 23.0307 120.143 25.1343H120.939C121.669 23.0307 122.388 20.927 123.14 18.8342C124.001 18.8451 124.852 18.8342 125.713 18.8451C124.884 21.2649 124.045 23.6847 123.238 26.1153C124.023 28.7313 125.07 31.2927 125.909 33.8978H123.347C122.563 31.7505 121.789 29.6142 121.015 27.4669H120.143C120.132 29.6142 120.143 31.7614 120.132 33.8978H117.734C117.723 28.873 117.734 23.8481 117.734 18.8342ZM100 18.8233H106.365V21.1559H102.365C102.365 22.453 102.376 23.7392 102.365 25.0362C103.477 25.058 104.6 25.0362 105.711 25.0471C105.701 25.821 105.701 26.5949 105.711 27.3688C104.589 27.3797 103.477 27.347 102.354 27.3797C102.387 28.764 102.365 30.1483 102.365 31.5434H106.355C106.355 32.3173 106.365 33.1021 106.355 33.8869H99.9891C100 28.8621 100 23.8481 100 18.8233ZM90.2991 18.8342C91.1057 18.8342 91.9232 18.8233 92.7298 18.8342C92.7516 21.036 92.6862 23.2487 92.7625 25.4504C92.8715 26.584 94.2339 26.3769 95.0405 26.3769V18.8233C95.8471 18.8124 96.6537 18.8233 97.4712 18.8233V33.8869C96.6646 33.8869 95.858 33.876 95.0514 33.8978C95.0296 32.1647 95.0405 30.4426 95.0405 28.7095C93.8961 28.6877 92.6535 28.7967 91.6289 28.1754C90.6915 27.5977 90.3427 26.4423 90.2991 25.4068C90.2991 23.216 90.31 21.0251 90.2991 18.8342ZM80.0097 18.8233H82.4076C82.4403 20.9597 82.364 23.0852 82.3749 25.2215C82.364 26.2243 82.4185 27.2162 82.3313 28.219C83.2142 25.1016 84.0862 21.9734 84.9364 18.8451C85.9392 18.8124 86.942 18.8342 87.9447 18.8233C87.9556 23.8481 87.9556 28.8621 87.9447 33.8869H85.5468C85.5795 30.6933 85.5686 27.4996 85.634 24.3059C84.6639 27.4887 83.7374 30.6933 82.8109 33.8869C81.8844 33.8978 80.947 33.8869 80.0206 33.8869C80.0097 28.8621 79.9988 23.8481 80.0097 18.8233ZM73.0229 21.1668C73.0229 22.8999 73.012 24.6438 73.0338 26.3769C73.7096 26.3333 74.5161 26.5404 75.072 26.0499C75.5298 25.3414 75.2791 24.4476 75.3445 23.6629C75.2791 22.9326 75.5407 22.0824 75.0393 21.4611C74.5052 20.9597 73.6877 21.2213 73.0229 21.1668ZM70.6249 18.8342H74.418C75.4753 18.8451 76.6634 19.1939 77.2302 20.164C77.9932 21.363 77.7425 22.8454 77.7861 24.186C77.8188 25.4831 77.8079 26.9982 76.7724 27.9465C75.7478 28.8294 74.2981 28.7095 73.0338 28.7095C73.012 30.4426 73.0338 32.1756 73.0229 33.8978C72.2272 33.8869 71.4206 33.8978 70.6249 33.8978V18.8342ZM63.4746 27.1072C63.4637 28.5787 63.4746 30.0502 63.4637 31.5216C64.1831 31.4344 65.0442 31.7396 65.6546 31.2382C66.1124 30.824 65.9707 30.1374 66.0143 29.5815C65.9707 28.873 66.1778 27.9901 65.5892 27.4451C65.0224 26.8892 64.1722 27.1835 63.4746 27.1072ZM63.4746 21.0142C63.4637 22.3113 63.4637 23.6084 63.4746 24.9163C64.2703 24.8945 65.5129 25.1016 65.7745 24.0879C65.8508 23.2705 65.938 22.3985 65.6764 21.6137C65.2404 20.8071 64.2267 21.0578 63.4746 21.0142ZM61.0984 18.8342H65.0442C66.1015 18.8451 67.2459 19.2811 67.7909 20.2294C68.3795 21.2758 68.2923 22.5293 68.2487 23.6956C68.1942 24.5675 67.8999 25.5921 66.9843 25.9191C67.8018 26.1916 68.2814 27.0418 68.3686 27.8593C68.4885 28.9493 68.4776 30.0611 68.3359 31.151C68.2269 32.0121 67.8127 32.8841 67.0606 33.3528C66.2541 33.8433 65.2731 33.8869 64.3575 33.8542H61.1093C61.0984 28.8403 61.0984 23.8372 61.0984 18.8342ZM55.049 21.7009C54.7656 24.1206 54.395 26.5404 54.0135 28.9602C54.7111 29.0038 55.4087 28.9711 56.1063 28.9929C55.7575 26.5622 55.4414 24.1206 55.049 21.7009ZM53.4467 18.8124C54.5258 18.7688 55.6049 18.8015 56.684 18.7906C57.556 23.8155 58.4171 28.8512 59.2673 33.8869H56.8148C56.6949 33.004 56.5641 32.1211 56.4442 31.2491C55.5286 31.26 54.6239 31.2491 53.7083 31.26C53.5666 32.1429 53.4576 33.0258 53.3268 33.8978C52.5094 33.8978 51.7028 33.8869 50.8853 33.8978C51.7355 28.873 52.6293 23.8481 53.4467 18.8124ZM42.9502 18.8233H50.2422C50.264 19.6081 50.264 20.382 50.2422 21.1668C49.4356 21.1559 48.629 21.1559 47.8224 21.1668V33.8869H45.4245C45.4136 29.6469 45.4245 25.4068 45.4245 21.1668C44.607 21.1668 43.7895 21.1559 42.972 21.1668C42.9502 20.3929 42.9502 19.6081 42.9502 18.8233ZM108.556 20.6C108.949 19.401 110.191 18.6162 111.434 18.6271C112.567 18.529 113.832 18.7034 114.638 19.5972C115.609 20.6872 115.576 22.2568 115.554 23.6302H113.123C113.102 22.9544 113.2 22.2568 112.96 21.6137C112.687 20.7853 111.368 20.6872 110.922 21.4175C110.638 21.8753 110.649 22.4421 110.638 22.9653C110.649 25.276 110.638 27.5977 110.638 29.9085C110.66 30.4426 110.671 31.0638 111.085 31.4671C111.608 31.8922 112.535 31.805 112.884 31.1837C113.232 30.5298 113.091 29.745 113.112 29.0365C113.919 29.0365 114.737 29.0365 115.543 29.0474C115.554 30.1919 115.576 31.4017 115.042 32.4481C114.529 33.4509 113.407 33.9959 112.306 34.0395C111.227 34.1158 110.028 33.9632 109.232 33.1566C108.36 32.3173 108.262 31.042 108.197 29.8976C108.175 27.8157 108.197 25.7338 108.186 23.652C108.197 22.6383 108.218 21.581 108.556 20.6ZM138.727 14.9103H145.093C145.114 15.5861 145.114 16.2728 145.093 16.9485C142.967 16.9376 140.853 16.9485 138.727 16.9485V14.9103ZM13.1065 19.0958H31.2656V33.9196L27.2763 36.2195L27.2654 23.096H24.1916V37.9852L20.1805 40.2851V23.096H17.1067V42.0509L13.1065 44.3507V19.0958ZM10 12H34.3611V16.0002L10 16.0111V12Z" fill="#002456"/>
</svg>
