<svg width="60" height="60" viewBox="0 0 60 60" fill="none" xmlns="http://www.w3.org/2000/svg">
<path d="M13.7078 11.0713C14.1932 11.0713 14.5867 10.6778 14.5867 10.1924C14.5867 9.70703 14.1932 9.31352 13.7078 9.31352C13.2224 9.31352 12.8289 9.70703 12.8289 10.1924C12.8289 10.6778 13.2223 11.0713 13.7078 11.0713ZM6.67652 11.0713C7.16191 11.0713 7.55543 10.6778 7.55543 10.1924C7.55543 9.70703 7.16191 9.31352 6.67652 9.31352C6.19113 9.31352 5.79762 9.70703 5.79762 10.1924C5.79762 10.6778 6.19102 11.0713 6.67652 11.0713ZM10.1921 11.0713C10.6775 11.0713 11.0711 10.6778 11.0711 10.1924C11.0711 9.70703 10.6775 9.31352 10.1921 9.31352C9.70676 9.31352 9.31324 9.70703 9.31324 10.1924C9.31324 10.6778 9.70664 11.0713 10.1921 11.0713ZM9.99938 20.3822C10.0048 20.3823 10.0102 20.3823 10.0155 20.3823L17.9619 20.3843H17.9624C18.5114 20.3843 18.9775 20.0287 19.1224 19.4992C19.2675 18.9695 19.0473 18.4259 18.5748 18.1464L17.3663 17.4313C19.3088 15.5061 20.4013 12.8792 20.3839 10.1269C20.3491 4.62285 15.8442 0.0807815 10.3418 0.0015628C4.64004 -0.0803513 0 4.5318 0 10.1927C0 15.6211 4.47281 20.2647 9.99938 20.3822ZM4.27148 4.18563C5.89219 2.58813 8.03438 1.72738 10.3166 1.75914C14.8697 1.82465 18.5973 5.58332 18.6261 10.1379C18.6417 12.5952 17.588 14.9321 15.735 16.549C15.4252 16.8193 15.2629 17.2248 15.3004 17.6339C15.3379 18.0428 15.5714 18.4117 15.9247 18.6207L15.9335 18.6258L10.0242 18.6244C5.45602 18.5368 1.75781 14.7734 1.75781 10.1927C1.75781 7.91676 2.65055 5.78348 4.27148 4.18563ZM59.1211 58.2427H58.2422V45.154C58.2422 41.7249 56.2159 38.611 53.0701 37.2166L48.4382 35.2313C49.5653 34.8756 50.5835 34.2414 51.412 33.3617C52.6621 32.0345 53.3789 30.2337 53.3789 28.4209C53.3789 26.7552 52.797 25.183 51.6957 23.8739C50.3183 22.2384 49.5598 20.1597 49.5598 18.0205V13.8088C49.5598 10.12 48.1232 6.65266 45.5148 4.04559C42.9064 1.43699 39.4388 0.000508113 35.7504 0.000508113C28.1365 0.000508113 21.9422 6.19481 21.9422 13.8087V17.8833C21.9427 20.0968 21.0728 22.2095 19.6593 23.9126C17.8802 26.056 17.5106 28.9539 18.6948 31.4754C19.5737 33.3471 21.159 34.6919 23.0569 35.2611L18.4573 37.2612C15.2303 38.6192 13.145 41.7588 13.145 45.2596V55.6061C13.145 56.0915 13.5384 56.485 14.0239 56.485C14.5095 56.485 14.9029 56.0915 14.9029 55.6061V45.2596C14.9029 42.468 16.5656 39.9643 19.1487 38.8773L24.9141 36.3702V41.6607H22.2653C21.5188 41.6607 20.8043 41.9789 20.305 42.5339C19.8057 43.0889 19.5646 43.833 19.6433 44.5752L21.0921 58.2427H0.878906C0.393398 58.2427 0 58.6362 0 59.1216C0 59.607 0.393398 60.0005 0.878906 60.0005H59.1211C59.6066 60.0005 60 59.607 60 59.1216C60 58.6362 59.6066 58.2427 59.1211 58.2427ZM50.3509 25.0057C51.1819 25.9936 51.6211 27.1745 51.6211 28.4208C51.6211 29.7904 51.0785 31.1519 50.1325 32.1564C49.1307 33.2199 47.7546 33.8056 46.2575 33.8056H45.1121L43.6076 33.1607C42.2933 32.597 41.3943 31.3887 41.2105 29.9978C43.9223 28.5377 45.77 25.672 45.77 22.3821V15.7748C46.0273 15.7922 46.2843 15.8017 46.5405 15.8017C46.9632 15.8017 47.3843 15.7777 47.8021 15.7304V18.0204C47.802 20.5732 48.7073 23.0541 50.3509 25.0057ZM35.964 38.8809C32.8198 38.9365 29.6992 38.5381 26.6719 37.6984V35.6058L26.9261 35.4953C26.928 35.4945 26.93 35.4936 26.9321 35.4927L28.5001 34.8109C30.2455 34.0522 31.4789 32.498 31.8529 30.6818C32.6182 30.9044 33.426 31.026 34.2622 31.026H37.1262C37.9656 31.026 38.7764 30.9034 39.5443 30.6793C39.9306 32.4871 41.1687 34.0273 42.9149 34.7764L44.5883 35.4936C44.5894 35.494 44.5904 35.4945 44.5915 35.4948L44.7155 35.5479V37.5257C41.871 38.3732 38.9303 38.8291 35.964 38.8809ZM44.7152 39.3557V41.6608H26.6719V39.5186C29.5212 40.2657 32.4466 40.6437 35.3919 40.6437C35.5928 40.6437 35.7938 40.642 35.9947 40.6384C38.9467 40.5869 41.8745 40.1555 44.7152 39.3557ZM47.802 13.958C45.381 14.2851 42.652 13.6366 40.7719 12.1798C40.3883 11.8826 39.8363 11.9525 39.5388 12.3363C39.2415 12.7199 39.3116 13.272 39.6953 13.5693C40.9245 14.5216 42.407 15.1923 44.0122 15.5305V20.3154C43.5899 21.278 43.1197 22.0785 42.0598 22.953C41.6135 23.3212 41.1251 23.6269 40.602 23.8695C40.1748 23.0359 39.3073 22.4638 38.3081 22.4638H36.2484C34.8278 22.4638 33.6721 23.6196 33.6721 25.0402C33.6721 26.4607 34.8278 27.6166 36.2484 27.6166H38.3081C39.5037 27.6166 40.5115 26.7979 40.8008 25.6919C41.9766 25.2439 43.8936 23.6457 43.8941 23.6451C43.2989 26.8404 40.4916 29.2677 37.1263 29.2677H34.2621C30.4652 29.2677 27.3762 26.1788 27.3762 22.3818V15.588C30.3613 15.12 33.1814 14.1099 35.7677 12.5801C39.7057 10.2508 42.2317 7.20695 43.7561 4.80215C46.3643 7.12516 47.848 10.4555 47.802 13.958ZM39.1264 25.0427C39.1252 25.493 38.7586 25.859 38.308 25.859H36.2483C35.7969 25.859 35.4298 25.4917 35.4298 25.0404C35.4298 24.5891 35.797 24.2219 36.2483 24.2219H38.308C38.7585 24.2219 39.1249 24.5876 39.1264 25.0377V25.0427ZM23.7 13.8087C23.7 7.16406 29.1057 1.75832 35.7504 1.75832C38.1334 1.75832 40.4106 2.44621 42.3565 3.72684C40.9536 5.97555 38.5924 8.86727 34.8728 11.0676C32.321 12.577 29.522 13.5406 26.5532 13.9318H26.4983C26.498 13.9318 26.4976 13.9318 26.4971 13.9318C26.4967 13.9318 26.4964 13.9318 26.496 13.9318H23.6999V13.8087H23.7ZM20.2857 30.7282C19.3945 28.83 19.6727 26.6486 21.0108 25.0366C22.6897 23.0138 23.7019 20.5144 23.7 17.8833V15.6896H25.6184V22.3821C25.6184 25.6738 27.4684 28.5409 30.1827 30.0003C30.0129 31.4017 29.1165 32.626 27.7991 33.1988L26.4036 33.8056H25.1297C23.0332 33.8056 21.1772 32.6264 20.2857 30.7282ZM50.8819 44.3901L49.4134 58.2427H22.8598L21.3913 44.3901C21.3647 44.1389 21.443 43.8973 21.6118 43.7097C21.7807 43.522 22.0129 43.4186 22.2653 43.4186H50.0079C50.2603 43.4186 50.4925 43.522 50.6613 43.7097C50.8302 43.8973 50.9085 44.1389 50.8819 44.3901ZM56.4844 58.2427H51.1811L52.6298 44.5755C52.7086 43.8331 52.4673 43.0891 51.9682 42.5341C51.4689 41.9791 50.7545 41.6608 50.0079 41.6608H46.473V36.3014L52.3677 38.8279C54.8685 39.9365 56.4844 42.4196 56.4844 45.154V58.2427ZM36.1365 47.4907C34.2949 47.4907 32.7967 48.989 32.7967 50.8306C32.7967 52.6722 34.2949 54.1704 36.1365 54.1704C37.9781 54.1704 39.4764 52.6722 39.4764 50.8306C39.4764 48.989 37.9781 47.4907 36.1365 47.4907ZM36.1365 52.4126C35.2642 52.4126 34.5545 51.7029 34.5545 50.8306C34.5545 49.9582 35.2642 49.2486 36.1365 49.2486C37.0089 49.2486 37.7186 49.9582 37.7186 50.8306C37.7186 51.7029 37.009 52.4126 36.1365 52.4126Z" fill="url(#paint0_linear_123_2493)"/>
<defs>
<linearGradient id="paint0_linear_123_2493" x1="30" y1="0.000488281" x2="30" y2="60.0005" gradientUnits="userSpaceOnUse">
<stop stop-color="#68D7F0"/>
<stop offset="0.5" stop-color="#2DA5D3"/>
<stop offset="1" stop-color="#057BA9"/>
</linearGradient>
</defs>
</svg>
