<svg width="200" height="50" viewBox="0 0 200 50" fill="none" xmlns="http://www.w3.org/2000/svg">
<path d="M58.1184 22.3659L58.7625 20.3431L56.6675 20.4094C55.6863 20.3732 54.7411 20.0421 53.9465 19.4582H54.2294C55.5057 19.4522 56.6736 18.7237 57.2394 17.5799L58.1605 15.6114C57.4381 15.6174 56.7157 15.5752 55.9993 15.4849C55.313 15.3224 54.699 14.9492 54.2354 14.4194C53.6093 13.7512 52.7425 13.3719 51.8274 13.3659C51.4722 13.3659 51.117 13.4261 50.7739 13.5344C50.8221 13.3719 50.8642 13.2094 50.8943 13.0408C51.0388 11.8669 50.7077 10.6809 49.9792 9.74782L48.3899 7.7913L47.4147 10.0789C47.2582 10.404 47.0234 10.687 46.7224 10.8916C46.5538 10.0729 46.1565 9.32642 45.5665 8.73645C44.5793 7.72508 43.2247 7.1592 41.81 7.17124C41.5632 7.17124 41.3164 7.1893 41.0756 7.22542L39.1732 7.59866C39.3358 6.96053 39.5946 6.35251 39.9438 5.79264L40.9913 4.1612L38.3545 4.40803L37.5117 2.60201L35.8863 3.48696L34.3813 2L32.8762 3.48696L31.2508 2.64415L30.408 4.40803L27.7712 4.10702L28.8187 5.74448C29.1679 6.30435 29.4267 6.91237 29.5893 7.5505L27.7833 7.19532H27.7231C27.4702 7.1592 27.2174 7.14114 26.9645 7.14114C25.5498 7.1291 24.1953 7.69498 23.208 8.70635C22.612 9.30234 22.2027 10.0609 22.0401 10.8916C21.7512 10.693 21.5164 10.4221 21.3599 10.103L20.3786 7.79732L18.7773 9.75986C18.0609 10.693 17.7418 11.8729 17.8803 13.0408C17.9104 13.2094 17.9525 13.3719 18.0007 13.5344C17.6575 13.4261 17.3023 13.3659 16.9472 13.3659C16.0321 13.3719 15.1652 13.7512 14.5391 14.4194C14.0816 14.9431 13.4736 15.3164 12.7933 15.4849C12.0709 15.5933 11.3365 15.6354 10.602 15.6114L11.499 17.61C12.0649 18.7538 13.2328 19.4823 14.509 19.4883H14.792C14.0094 20.0602 13.0763 20.3913 12.107 20.4334L10 20.3431L10.6441 22.3659C11.1258 23.9492 12.4923 25.111 14.1358 25.3217C13.9672 26.3873 13.293 27.3084 12.3298 27.79L10.7164 28.4461L11.5833 29.9572C12.2997 31.0709 13.5338 31.7331 14.8522 31.7211C15.1953 31.7211 15.5385 31.6849 15.8756 31.6127C15.9599 31.9799 16.0682 32.3471 16.1886 32.7023C16.4896 33.497 16.5077 34.3639 16.2488 35.1706L15.4662 36.814L17.2181 37.2776C17.6094 37.3799 18.0187 37.4281 18.4221 37.4281C18.711 37.4281 18.994 37.398 19.2769 37.3318C19.4816 37.2836 19.6863 37.2234 19.8789 37.1451C20.1017 37.5485 20.3846 37.9217 20.7037 38.2528C21.8234 39.4027 23.4127 39.9866 25.4294 39.9866H26.8682L23.9003 41.2207L26.1518 42.3344C27.0609 42.7799 27.988 43.1833 28.9331 43.5384L28.6622 44.3211L29.4388 44.6762C30.7271 45.1819 32.0936 45.4649 33.4783 45.513H35.3264C36.705 45.4649 38.0655 45.1759 39.3478 44.6702L40.1003 44.3211L39.8354 43.5384C40.7926 43.1712 41.7318 42.7558 42.6468 42.2923L44.8562 41.2207L41.8943 40.0167H43.3391C45.3558 40.0167 46.9512 39.4147 48.0649 38.2829C48.3899 37.9518 48.6669 37.5786 48.8896 37.1752C49.0823 37.2535 49.2869 37.3137 49.4916 37.3619C49.7746 37.4281 50.0575 37.4582 50.3465 37.4582C50.7498 37.4582 51.1592 37.404 51.5505 37.3077L53.3083 36.8441L52.5438 35.2308C52.2548 34.412 52.2669 33.515 52.5739 32.7023C52.7003 32.3351 52.8027 31.9619 52.8869 31.5886C53.2241 31.6609 53.5732 31.697 53.9164 31.697C55.2468 31.709 56.4869 31.0227 57.1913 29.891L58.0461 28.398L56.4568 27.7478C55.4936 27.2662 54.8194 26.3451 54.6508 25.2796C56.2943 25.0629 57.6609 23.907 58.1425 22.3177L58.1184 22.3659Z" fill="white"/>
<path d="M41.6176 28.7592H27.1694V34.1772C27.1694 36.4047 28.7768 37.7893 31.1547 37.7893C33.1413 37.7893 33.6651 37.8675 34.3995 38.602C34.8631 38.1023 35.5192 37.8194 36.2055 37.8314V37.7471L36.6631 36.3384L35.8865 35.4896C35.5734 35.5859 35.2483 35.6221 34.9233 35.604C34.4356 35.598 33.954 35.5498 33.4784 35.4535H33.3279C33.2617 35.4535 33.2617 35.4535 33.2437 35.4896L33.1534 35.6401L32.9908 35.911L32.6778 35.8388L31.2871 35.5137L31.0945 35.8267V35.8629L31.2631 36.0495L31.1908 36.2903C31.0644 36.5853 30.8838 36.8501 30.655 37.0789L30.3059 37.4522L29.9868 37.0548L29.752 36.7598C29.4992 36.4287 29.439 35.9953 29.5835 35.604L29.1922 35.7665L29.0176 35.3813L28.9213 35.1103C28.6744 34.5384 28.861 33.8762 29.3607 33.515L30.4804 32.913L31.546 33.1237C31.546 33.0214 31.6122 32.6542 31.6423 32.5639H31.5821L30.9801 32.7926L30.3781 32.3833C30.2577 32.2629 30.2517 32.0642 30.3781 31.9378L30.95 31.0709L29.4992 29.2649L31.6724 30.1197L31.8229 29.9391L32.1239 29.5779L32.4671 29.903C32.5574 29.9933 32.6176 30.1017 32.6477 30.2281C33.2497 30.4689 34.3634 31.1732 34.4537 32.317L34.1105 32.4555C34.1527 32.5157 34.2069 32.5639 34.2731 32.594L35.8624 32.7505L36.0069 32.7083C36.2778 32.606 36.5667 32.5518 36.8557 32.5458C37.1447 32.5458 37.4276 32.612 37.6865 32.7384C37.8008 32.6963 37.9273 32.6722 38.0477 32.6662H38.1259C38.9748 32.6662 39.4022 33.3043 39.7393 33.81L39.9139 34.0629C40.2089 34.4843 40.6002 35.0983 40.6182 35.1224L40.7928 35.3933L40.5761 35.6461C40.3774 35.911 40.0644 36.0615 39.7333 36.0615C39.637 36.0675 39.5406 36.0675 39.4443 36.0615C39.36 36.0435 39.2758 36.0194 39.1915 35.9833C39.1915 36.0675 39.1915 36.1699 39.1433 36.2542L38.8965 37.6749C40.534 37.3438 41.6898 35.8749 41.6236 34.2013L41.6176 28.7592ZM27.1514 28.3197H38.4029C37.9453 27.8381 37.7888 27.1458 37.9935 26.5137C37.843 26.4415 37.6985 26.3451 37.5721 26.2368C37.1326 26.5619 35.7661 27.5371 35.441 27.7839L35.3688 27.8321L30.95 27.0495H30.8597C30.7152 27.0555 30.5708 27.0555 30.4263 27.0495C30.3841 27.2481 30.2096 27.3866 30.0109 27.3866H29.9387C29.7039 27.3445 29.5413 27.1217 29.5775 26.8869V26.7906C29.0055 26.3813 28.7346 25.6709 28.8851 24.9846V24.9063L28.9514 24.8582C28.9514 24.8582 29.0356 24.798 29.15 24.7318L28.831 24.6836C28.7106 24.6595 28.6323 24.5512 28.6504 24.4308C28.6684 24.3104 28.7768 24.2321 28.8972 24.2502H28.9032L29.6678 24.3706L29.74 21.6796L30.8778 20.4756L31.5882 21.9685L30.8417 24.5572L31.5159 24.6655C31.6363 24.6896 31.7146 24.798 31.6965 24.9184C31.6785 25.0267 31.5882 25.099 31.4798 25.099H31.4437L30.8958 25.0087V25.0508C30.956 25.1592 31.0464 25.2435 31.1607 25.2976L34.5259 25.3518L35.3868 24.503C34.7306 24.2742 34.2611 23.6963 34.1828 23.004C33.7614 22.8415 33.4183 22.5284 33.2256 22.1251C33.0631 21.7458 33.033 21.3184 33.1474 20.9211C32.6176 20.7104 32.136 20.3913 31.7447 19.9819H26.748C26.9888 20.5719 27.1273 21.198 27.1514 21.8301V28.3197Z" fill="#FCE527"/>
<path d="M65.9863 23.672H70.9468V32.1001H74.5588V23.672H79.5194V20.6138H65.9863V23.672ZM84.2873 27.2841V20.662H80.7957V32.1001H83.878L89.898 25.4058V32.1001H93.3897V20.6138H90.3074L84.2873 27.2841ZM105.015 24.876H99.4037V20.662H95.912V32.1001H99.4037V27.8138H105.015V32.1001H108.506V20.662H105.015V24.876ZM120.685 23.9851C119.86 23.7322 118.993 23.6299 118.132 23.672H114.52V20.662H111.029V32.1001L118.108 32.052C118.849 32.064 119.583 31.9797 120.3 31.7871C122.118 31.3416 123.37 29.6861 123.31 27.8138C123.382 26.0981 122.316 24.5329 120.685 23.9851ZM118.903 29.1623C118.463 29.3128 117.994 29.373 117.53 29.3309H114.52V26.4172H117.53C117.982 26.3871 118.439 26.4413 118.879 26.5617C119.433 26.7242 119.806 27.2359 119.794 27.8138C119.8 28.4038 119.451 28.9396 118.903 29.1623ZM137.938 20.662H133.556L129.342 24.9724H128.379V20.662H124.887V32.1001H128.379V27.7657H129.342L133.508 32.1001H138.155L132.352 26.0801L137.938 20.662Z" fill="#222220"/>
<path d="M145.452 20.3009C140.732 20.3009 137.914 22.9497 137.914 26.3691C137.914 29.7885 140.756 32.4373 145.427 32.4373C150.099 32.4373 152.916 29.7885 152.916 26.3691C152.916 22.9497 150.171 20.3009 145.452 20.3009ZM145.427 29.644C143.092 29.644 141.599 28.2474 141.599 26.3691C141.599 24.4909 143.116 23.1183 145.427 23.1183C147.739 23.1183 149.256 24.4909 149.256 26.3691C149.256 28.2474 147.763 29.644 145.427 29.644ZM164.421 21.1196V19.9638H160.929V21.1196C156.546 21.2159 153.922 23.0701 153.922 26.345C153.922 29.62 156.546 31.3297 160.929 31.426V32.5818H164.421V31.426C168.827 31.3297 171.452 29.62 171.452 26.345C171.452 23.0701 168.833 21.2159 164.421 21.1196ZM160.929 28.9698C158.521 28.8735 157.461 27.8862 157.461 26.345C157.461 24.8039 158.521 23.6962 160.929 23.5999V28.9698ZM164.421 28.9698V23.5999C166.853 23.6962 167.888 24.8039 167.888 26.345H167.894C167.894 27.8862 166.859 28.8735 164.421 28.9698ZM182.968 21.1196V19.9638H179.477V21.1196C175.094 21.2159 172.469 23.0701 172.469 26.345C172.469 29.62 175.094 31.3297 179.477 31.426V32.5818H182.968V31.426C187.375 31.3297 190 29.62 190 26.345C190 23.0701 187.375 21.2159 182.968 21.1196ZM179.477 28.9698C177.069 28.8735 176.009 27.8862 176.009 26.345C176.009 24.8039 177.069 23.6962 179.477 23.5999V28.9698ZM186.43 26.345C186.43 27.8862 185.401 28.8735 182.968 28.9698V23.5999C185.401 23.6962 186.436 24.8039 186.436 26.345H186.43ZM31.7683 31.125C31.696 31.125 31.6298 31.1792 31.6238 31.2514V31.2574C31.6178 31.3357 31.678 31.4079 31.7562 31.4139H31.7622C31.8465 31.4139 31.9067 31.3477 31.9067 31.2695C31.9067 31.1852 31.8465 31.125 31.7683 31.125ZM31.7623 31.1189C31.7683 31.1189 31.7683 31.125 31.7683 31.125C31.7743 31.125 31.7743 31.1189 31.7803 31.1189H31.7623ZM41.599 40.9919L40.7682 40.6728L40.997 39.8119L41.2498 38.8728C40.112 39.4567 38.9201 39.9263 37.692 40.2755C37.09 40.444 36.6565 40.5223 36.6565 40.5223V41.1303C35.9161 41.2507 35.1696 41.3169 34.4171 41.323H34.3508C33.5983 41.3169 32.8518 41.2507 32.1114 41.1303V40.5283C32.1114 40.5283 31.6719 40.444 31.0699 40.2755C29.8418 39.9263 28.6498 39.4567 27.512 38.8728L27.7589 39.8119L27.9936 40.6728L27.1569 40.9919L26.2539 41.335C27.494 41.9791 28.7883 42.5149 30.1248 42.9363L29.8057 43.8032C31.2565 44.3571 32.8097 44.628 34.3629 44.5919H34.399C35.9522 44.628 37.5054 44.3571 38.9562 43.8032L38.6431 42.9363C39.9736 42.5149 41.2679 41.9791 42.508 41.335L41.599 40.9919ZM27.2592 41.3892L28.6077 40.9377L28.2044 39.6133C29.0893 40.0527 30.0044 40.42 30.9495 40.7089L30.2873 42.5149C29.2458 42.238 28.2284 41.8588 27.2592 41.3892ZM34.4171 44.1644L34.387 44.1404C33.0625 44.1343 31.7441 43.9537 30.4679 43.6046L31.2806 41.4012C32.292 41.6541 33.3334 41.7925 34.3809 41.7985H34.4472C35.4947 41.7865 36.5361 41.6541 37.5475 41.4012L38.3602 43.6046C37.0779 43.9658 35.7475 44.1524 34.4171 44.1644ZM38.5227 42.5511V42.533L37.8605 40.727C38.8057 40.438 39.7207 40.0708 40.6057 39.6313L40.2023 40.9557L41.5689 41.4133C40.5936 41.8889 39.5702 42.2741 38.5227 42.5511ZM34.3809 6.62931C35.7414 6.59319 37.0779 7.00255 38.1855 7.79118C38.3601 6.90021 38.6912 6.04536 39.1668 5.26877L37.8003 5.42529L37.0899 3.90222L35.7113 4.61259L34.3809 3.29419L33.0504 4.61259L31.6718 3.90222L30.9615 5.42529L29.5949 5.26877C30.0705 6.04536 30.4016 6.90021 30.5762 7.79118C31.6839 7.00255 33.0203 6.59319 34.3809 6.62931ZM30.9013 5.95506L31.2805 5.9972L31.4431 5.65406L31.9187 4.63065L32.8036 5.08817L33.1468 5.26275L33.4237 5.00991L34.3809 4.04068L35.3381 5.00991L35.615 5.28081L35.9581 5.10623L36.8371 4.64871L37.3187 5.67212L37.4812 6.01526L37.8605 5.97312L38.2217 5.93098C38.0772 6.26208 37.9508 6.60523 37.8484 6.95439C35.6752 5.84068 33.0926 5.84068 30.9193 6.95439C30.817 6.60523 30.6906 6.26208 30.5461 5.93098L30.9013 5.95506ZM52.2365 19.0547L52.0739 18.8561C50.9542 17.4293 49.8886 16.0748 47.9863 15.4547C48.0646 15.3885 48.1428 15.3283 48.2271 15.2741C49.1301 14.7624 49.7682 13.8835 49.9729 12.8661C50.0753 11.945 49.8164 11.024 49.2505 10.2895L48.6485 9.537L48.2692 10.434C48.2692 10.4882 47.601 11.927 46.2525 11.927H45.8552C45.9274 10.9818 45.5843 10.0487 44.9161 9.37446C44.1034 8.54369 42.9836 8.08015 41.8218 8.08617C41.605 8.08617 41.3883 8.10423 41.1776 8.13433L40.2565 8.31493L40.8284 9.06744C41.2739 9.66944 41.6773 10.7109 41.2017 11.2708C40.9729 11.4695 40.7141 11.626 40.4311 11.7343C39.8291 12.0173 38.9622 12.4206 38.9622 13.432C38.9622 14.0882 39.4739 14.7745 40.395 15.3584C43.11 17.0802 44.7896 18.8561 45.5181 20.8547C46.6438 23.9009 45.1749 25.6347 43.7482 26.5497L43.11 26.9591L43.6699 27.4708C44.1696 27.8982 44.7836 28.1631 45.4398 28.2293H45.9876C46.5475 28.2293 47.1014 28.1511 47.6371 27.9885C47.5047 28.2233 47.3422 28.446 47.1676 28.6507C46.3549 29.5959 45.1508 30.1136 43.9047 30.0474H43.3689L43.3268 30.5832C43.3208 31.3357 43.6519 32.046 44.2238 32.5337C44.3743 32.6661 44.5428 32.7745 44.7234 32.8587C43.8325 33.7256 43.3268 34.9116 43.3087 36.1577C43.3087 36.838 43.1522 37.5123 42.8572 38.1263L42.2552 39.0293H43.3268C45.0967 39.0293 46.4512 38.5417 47.3903 37.5725C47.8779 37.0608 48.2391 36.4407 48.4498 35.7664C48.799 36.0614 49.2084 36.2661 49.6539 36.3684C49.8646 36.4166 50.0813 36.4407 50.298 36.4407C50.6231 36.4407 50.9482 36.3985 51.2612 36.3263L51.9475 36.1457L51.6465 35.5076C51.2672 34.4902 51.2672 33.3644 51.6465 32.347C51.8692 31.6848 52.0258 30.9985 52.11 30.3002C52.6518 30.5771 53.2539 30.7156 53.8619 30.7096C54.8612 30.7216 55.7943 30.228 56.3361 29.3912L56.6672 28.7892L56.0652 28.5363C54.0485 27.6996 53.603 25.4481 53.5127 24.232C53.7114 24.2741 53.91 24.2982 54.1147 24.3042L54.2833 24.4186C56.4746 24.4186 57.209 22.1852 57.2391 22.0889L57.486 21.3002H56.6612C54.9274 21.24 53.308 20.4213 52.2365 19.0547ZM54.2893 23.8106H54.205C53.7656 23.8166 53.3321 23.6962 52.9589 23.4675C52.9589 23.4675 52.6398 27.82 55.8846 29.1685V29.1865C55.4572 29.8367 54.7228 30.222 53.9462 30.2099C53.0672 30.2641 52.2184 29.8909 51.6646 29.2106C51.6826 30.234 51.5141 31.2574 51.1709 32.2206C50.7314 33.3825 50.7314 34.6708 51.1709 35.8327C50.9 35.8989 50.6291 35.935 50.3522 35.935C50.1836 35.935 50.009 35.9169 49.8465 35.8748C49.0458 35.6822 48.4077 35.0922 48.1488 34.3156C48.1488 34.3156 48.2753 38.4935 43.405 38.4935H43.3689C43.7361 37.7952 43.9288 37.0186 43.9228 36.23C44.1335 33.1417 46.2284 32.7022 46.2284 32.7022C45.6505 32.63 45.1027 32.4253 44.6211 32.1002C44.1816 31.733 43.9288 31.1912 43.9167 30.6193C45.3254 30.6795 46.686 30.0955 47.607 29.024C48.1609 28.3919 48.5281 27.6213 48.6846 26.7965C47.908 27.3805 46.9508 27.6755 45.9816 27.6333H45.488C44.9642 27.5792 44.4646 27.3745 44.0612 27.0313C45.9154 25.8273 47.2157 23.7685 46.0659 20.644C45.1388 18.1397 42.9174 16.2675 40.684 14.8588C39.9435 14.4012 39.498 13.8835 39.498 13.438C39.498 12.3905 40.985 12.3604 41.599 11.632C42.3034 10.8133 41.8639 9.48884 41.2498 8.69419C41.4244 8.66409 41.605 8.65205 41.7796 8.65205C42.785 8.64001 43.7542 9.04336 44.4525 9.76576C45.1629 10.44 45.4338 11.4574 45.1629 12.3966L45.488 12.4628C45.6866 12.4989 45.8853 12.517 46.09 12.523H46.2224C47.9863 12.523 48.7809 10.6748 48.7809 10.6748C48.7809 10.6748 50.6592 12.9865 47.896 14.7925C47.4204 15.0996 47.2097 15.3945 47.294 15.6955L47.3361 15.8942L47.5348 15.9303C49.5395 16.4721 50.5448 17.8568 51.791 19.428C52.9709 20.927 54.7529 21.83 56.6612 21.8962H56.6973C56.6973 21.8962 56.0953 23.8106 54.2893 23.8106Z" fill="#222220"/>
<path d="M50.4244 15.7256C51.0986 16.1109 51.6826 16.6347 52.1401 17.2608C52.4833 17.7905 52.9709 18.2119 53.5488 18.4648C53.7655 18.537 54.0003 18.5731 54.2291 18.5731C55.1501 18.5731 55.993 18.0494 56.4144 17.2307L56.7635 16.4481L55.9147 16.3999C54.9996 16.2313 54.1749 15.7618 53.5669 15.0574C53.1154 14.5698 52.4833 14.2868 51.815 14.2808C51.2973 14.2868 50.7976 14.4434 50.3642 14.7203L49.5816 15.2681L50.4244 15.7256ZM51.8331 14.8648L51.815 14.8708C52.3267 14.8708 52.8083 15.0935 53.1515 15.4728C53.8558 16.2795 54.819 16.8153 55.8786 16.9899C55.5535 17.5979 54.9214 17.9771 54.2291 17.9832C54.0605 17.9832 53.892 17.9531 53.7294 17.8989C52.7542 17.5678 52.411 16.0929 50.7194 15.2019C51.0505 14.9852 51.4358 14.8708 51.8331 14.8648ZM50.8217 23.4855L50.8097 23.4735C50.3161 19.5002 47.4324 16.6287 44.2238 14.8889C43.9288 14.7263 43.6518 14.5939 43.387 14.4675C44.7114 14.7384 46.09 14.4133 47.1555 13.5825C47.1555 13.5825 45.2953 14.9491 41.4906 13.7089C42.5442 14.3952 44.591 15.3584 46.4632 16.9236C51.1348 21.0293 47.7937 25.0387 47.7937 25.0387C49.1903 23.7143 49.6779 21.6915 49.0518 19.8735C50.0391 21.5169 50.5147 23.4193 50.4124 25.3337C50.2799 28.4882 48.5281 31.2454 46.7221 33.4427C46.1803 34.135 45.807 34.9477 45.6505 35.8146C45.9575 34.9537 46.4211 34.1591 47.0231 33.4728C48.9796 31.1792 50.6351 28.8012 50.8699 25.3758C51.0746 25.9778 51.9054 27.7297 53.2298 28.3858C53.2298 28.3858 51.5682 27.3865 50.8217 23.4855ZM25.8987 38.1685C25.6097 37.5544 25.4532 36.8802 25.4472 36.1999C25.4291 34.9537 24.9174 33.7678 24.0264 32.9009C24.207 32.8166 24.3756 32.7083 24.5261 32.5758C25.098 32.0882 25.4291 31.3778 25.4231 30.6253L25.387 30.0895H24.8451C23.605 30.1497 22.401 29.638 21.5883 28.6929C21.4137 28.4882 21.2572 28.2654 21.1187 28.0307C21.6545 28.1932 22.2084 28.2715 22.7682 28.2715H23.3161C23.9722 28.2052 24.5923 27.9404 25.092 27.5129L25.6518 27.0012L25.0137 26.5919C23.5809 25.6768 22.1181 23.943 23.2438 20.8969C23.9722 18.9163 25.6518 17.1283 28.391 15.4066C29.312 14.8046 29.8177 14.1364 29.8177 13.4802C29.8177 12.4688 28.9689 12.0655 28.3488 11.7825C28.0659 11.6741 27.807 11.5176 27.5783 11.319C27.0967 10.7591 27.5 9.69354 27.9515 9.11561L28.5535 8.3631L27.6264 8.1825C27.4157 8.14638 27.199 8.13434 26.9823 8.13434C25.8084 8.09822 24.6766 8.54973 23.8458 9.37447C23.1656 10.0427 22.8104 10.9818 22.8766 11.933H22.5154C21.1609 11.933 20.5227 10.5002 20.4987 10.44L20.1194 9.54304L19.5174 10.2956C18.9575 11.03 18.6987 11.9511 18.801 12.8721C19.0057 13.8895 19.6378 14.7685 20.5408 15.2802C20.6251 15.3343 20.7094 15.3945 20.7816 15.4608C18.8793 16.0628 17.8137 17.4354 16.694 18.8621L16.5314 19.0668C15.4599 20.4333 13.8345 21.2521 12.1007 21.3123H11.2759L11.5288 22.1009C11.5288 22.1972 12.2873 24.4307 14.4846 24.4307H14.593C14.7977 24.4246 14.9963 24.4006 15.195 24.3584C15.1047 25.5624 14.6592 27.826 12.6365 28.6628L12.0345 28.9156L12.3656 29.5176C12.9074 30.3544 13.8405 30.8481 14.8398 30.836C15.4478 30.842 16.0438 30.7036 16.5856 30.4267C16.6699 31.125 16.8264 31.8113 17.0492 32.4735C17.4284 33.4909 17.4284 34.6166 17.0492 35.634L16.7482 36.2721L17.4344 36.4527C17.7475 36.525 18.0726 36.5671 18.3977 36.5671C18.6144 36.5671 18.8311 36.543 19.0418 36.4949C19.4873 36.3925 19.8967 36.1879 20.2458 35.8929C20.4565 36.5671 20.8177 37.1872 21.3054 37.6989C22.2505 38.6681 23.605 39.1497 25.3689 39.1557H26.4405L25.8987 38.1685ZM25.3809 38.5056C20.5107 38.5056 20.6311 34.3277 20.6311 34.3277C20.3722 35.1042 19.7341 35.6942 18.9334 35.8869C18.7709 35.929 18.5963 35.9471 18.4278 35.9471C18.1508 35.9471 17.8799 35.9109 17.6151 35.8447C18.0545 34.6828 18.0545 33.3945 17.6151 32.2327C17.2719 31.2695 17.1094 30.2461 17.1274 29.2226C16.5736 29.9029 15.7248 30.2762 14.8458 30.222H14.8157C14.0331 30.234 13.2987 29.8427 12.8712 29.1925C16.1161 27.844 15.797 23.4915 15.797 23.4915C15.4237 23.7203 14.9903 23.8407 14.5508 23.8347H14.4846C12.6786 23.8347 12.0766 21.9203 12.0766 21.9203H12.1127C14.0211 21.8601 15.809 20.9571 16.989 19.4581C18.2291 17.8869 19.2405 16.5022 21.2452 15.9604L21.4438 15.9243L21.486 15.7257C21.5401 15.4186 21.3294 15.1236 20.8839 14.8226C18.1207 13.0166 19.999 10.7049 19.999 10.7049C19.999 10.7049 20.7816 12.5531 22.5575 12.5531H22.6418C22.8465 12.5471 23.0451 12.529 23.2438 12.4929L23.5689 12.4267C23.292 11.4875 23.5689 10.4701 24.2793 9.79588C24.9776 9.07347 25.9468 8.67013 26.9522 8.68217C27.1268 8.68217 27.3074 8.69421 27.4819 8.72431C26.8799 9.52498 26.4344 10.8494 27.1388 11.6621C27.7408 12.3665 29.2338 12.3966 29.2338 13.4681C29.2338 13.9136 28.8184 14.4313 28.0779 14.8949C25.8385 16.3036 23.6171 18.1758 22.696 20.6802C21.5462 23.8046 22.8465 25.8815 24.7007 27.0675C24.2973 27.4046 23.7977 27.6153 23.2739 27.6695H22.7742C21.805 27.7116 20.8478 27.4166 20.0712 26.8327C20.2278 27.6574 20.595 28.428 21.1428 29.0601C22.0639 30.1256 23.4304 30.7156 24.8391 30.6554C24.8271 31.2273 24.5742 31.7691 24.1348 32.1364C23.6532 32.4614 23.1053 32.6661 22.5274 32.7384C22.5274 32.7384 24.6284 33.1658 24.8572 36.2661C24.8512 37.0547 25.0438 37.8313 25.411 38.5297L25.3809 38.5056Z" fill="#222220"/>
<path d="M14.5268 18.5671H14.5329C14.7616 18.5671 14.9964 18.531 15.2131 18.4588C15.7911 18.2059 16.2787 17.7845 16.6218 17.2547C17.0733 16.6287 17.6573 16.1049 18.3315 15.7196L19.1743 15.2681L18.3917 14.7203C17.9583 14.4434 17.4586 14.2868 16.9469 14.2808C16.2787 14.2868 15.6466 14.5698 15.1951 15.0634C14.5931 15.7618 13.7623 16.2374 12.8533 16.4059L12.0044 16.4481L12.3476 17.2307C12.769 18.0494 13.6058 18.5611 14.5268 18.5671ZM15.6105 15.4728C15.9476 15.0935 16.4292 14.8708 16.9409 14.8708C17.3322 14.8768 17.7175 14.9972 18.0486 15.2079C16.3449 16.1169 15.9897 17.5738 15.0386 17.9049C14.882 17.9591 14.7135 17.9892 14.5449 17.9892C13.8466 17.9892 13.2085 17.6039 12.8834 16.9899C13.9429 16.8153 14.9061 16.2795 15.6105 15.4728ZM18.3617 25.3578C18.2594 23.4434 18.729 21.541 19.7223 19.8976C19.0962 21.7156 19.5838 23.7384 20.9805 25.0628C20.9805 25.0628 17.6333 21.0534 22.3109 16.9477C24.1831 15.3825 26.224 14.4193 27.2775 13.733C23.4728 14.9731 21.6126 13.6066 21.6126 13.6066C22.6781 14.4374 24.0507 14.7624 25.3751 14.4915C25.1102 14.618 24.8333 14.7564 24.5383 14.9129C21.3296 16.6588 18.428 19.5303 17.9524 23.5036V23.4735C17.2059 27.3745 15.5444 28.3738 15.5444 28.3738C16.8627 27.7236 17.6995 25.9658 17.8982 25.3638C18.1209 28.7952 19.7945 31.1731 21.751 33.4608C22.347 34.147 22.8166 34.9417 23.1236 35.8026C22.9611 34.9417 22.5878 34.129 22.04 33.4427C20.234 31.2454 18.4882 28.4882 18.3617 25.3578ZM33.2793 18.1096C33.49 17.9049 33.785 17.8086 34.08 17.8447V18.9825C34.074 19.2654 34.0017 19.5363 33.8633 19.7832H35.0011C34.8626 19.5363 34.7904 19.2654 34.7844 18.9825V17.8447C35.0733 17.8086 35.3683 17.9049 35.579 18.1096V17.321H33.2793V18.1096ZM32.8038 12.6494H32.7918C32.9664 12.7999 33.1711 12.9203 33.3938 12.9925L33.5383 13.0588V12.3123L32.2018 11.7524C32.268 12.1256 32.4848 12.4507 32.8038 12.6494ZM35.9765 12.6434L35.9705 12.6494C36.2895 12.4507 36.5062 12.1256 36.5725 11.7524L35.236 12.3123V13.0527L35.3745 12.9865C35.5972 12.9143 35.8019 12.7939 35.9765 12.6434Z" fill="#222220"/>
<path d="M38.3723 9.62736C38.3723 8.5016 36.476 7.49023 34.387 7.49023C32.298 7.49023 30.4017 8.5016 30.4017 9.62736L30.4439 9.90428L31.2806 14.7203L30.4439 15.2079L28.2586 16.4481C28.2586 16.4481 27.7709 16.7009 27.5422 16.8514C26.7174 17.4534 26.5429 18.2601 27.0184 18.6093C27.1388 17.7905 27.8552 17.1885 28.686 17.2126C29.3783 17.2307 30.0225 17.5798 30.4138 18.1517C30.5342 18.2962 30.6425 18.4527 30.7388 18.6093C30.8653 18.8139 30.9917 18.9945 31.1181 19.1691H25.5435C26.0131 19.9758 26.284 20.8848 26.3442 21.818V34.2012C26.3442 37.2113 28.6499 38.626 31.1602 38.626C33.0867 38.626 33.3455 38.5357 34.4051 39.5952C35.4646 38.5357 35.7235 38.626 37.6499 38.626C40.1422 38.626 42.4659 37.1992 42.4659 34.2012V21.83C42.5261 20.8969 42.797 19.9879 43.2666 19.1812H37.6318C37.7582 19.0066 37.8847 18.826 38.0111 18.6213C38.1134 18.4648 38.2218 18.3083 38.3362 18.1638C38.7335 17.5919 39.3776 17.2427 40.0699 17.2246C40.9007 17.2006 41.6171 17.8026 41.7375 18.6213C42.2191 18.2782 42.0445 17.4173 41.2138 16.8634C40.991 16.7069 40.5034 16.4601 40.5034 16.4601L38.3362 15.1838L37.4994 14.6962L38.3362 9.8802L38.3723 9.62736ZM31.2084 10.1812L34.1462 11.1745V15.7859L31.985 14.642L31.2084 10.1812ZM26.7475 19.9818H31.8104C32.2017 20.3912 32.6833 20.7163 33.2131 20.921C33.0987 21.3183 33.1288 21.7457 33.2913 22.125C33.484 22.5283 33.8271 22.8414 34.2485 23.0039C34.3268 23.6962 34.7964 24.2741 35.4525 24.5029C35.0913 24.8701 34.7362 25.2133 34.5917 25.3517L31.2265 25.2976C31.1121 25.2434 31.0218 25.1591 30.9616 25.0507V25.0086L31.5094 25.0989H31.5455C31.6539 25.0989 31.7442 25.0267 31.7623 24.9183C31.7803 24.7979 31.702 24.6895 31.5816 24.6654L30.9074 24.5571L31.6539 21.9685L30.9435 20.4755L29.8057 21.6795L29.7335 24.3705L28.9689 24.2501C28.8485 24.226 28.7402 24.3042 28.7161 24.4246V24.4307C28.698 24.5511 28.7763 24.6594 28.8967 24.6835L29.2158 24.7317C29.1014 24.7979 29.0231 24.846 29.0171 24.8581L28.9509 24.9062V24.9845C28.8004 25.6708 29.0773 26.3812 29.6432 26.7905V26.8869C29.6071 27.1216 29.7696 27.3444 30.0044 27.3865H30.0766C30.2753 27.3865 30.4499 27.2481 30.492 27.0494C30.6365 27.0554 30.775 27.0554 30.9194 27.0494H31.0097L35.4224 27.8501L35.4947 27.8019C35.8439 27.5551 37.1863 26.5979 37.6258 26.2547C37.7522 26.3631 37.8967 26.4594 38.0472 26.5317C37.8425 27.1638 37.999 27.8561 38.4566 28.3377H27.1509V21.83C27.1268 21.1979 26.9883 20.5718 26.7475 19.9818ZM37.2465 25.9357C36.789 26.2728 35.6633 27.0915 35.2539 27.3805L31.2505 26.6822V26.5738C31.3168 26.3029 31.3529 26.026 31.3589 25.7491L34.7301 25.8032L34.7964 25.737C34.8505 25.6828 35.9161 24.6534 36.4579 24.0574C36.6024 24.238 36.7709 24.3885 36.9636 24.5089C36.8673 25.0026 36.9696 25.5143 37.2465 25.9357ZM30.5582 25.2133V25.2313C30.6485 25.3999 30.781 25.5444 30.9435 25.6407C30.9375 25.8875 30.9134 26.1283 30.8713 26.3691C30.8713 26.4233 30.8713 26.4775 30.8291 26.5317V26.6159C30.5522 26.6159 30.2813 26.5738 30.0164 26.4895C29.5348 26.2307 29.2639 25.7009 29.3422 25.1591C29.5589 25.0086 29.8057 24.9123 30.0646 24.8761C30.2873 24.8701 30.486 25.0026 30.5582 25.2133ZM30.1429 24.4126L30.2091 21.8661L30.8111 21.2641L31.1783 22.0287L30.4619 24.5089L30.1429 24.4126ZM37.2164 37.8253H36.6385L37.09 36.3504C37.1622 36.1457 36.789 35.8808 36.6325 35.646C36.9997 35.8688 37.379 36.0674 37.7703 36.248C37.7703 36.2962 37.2164 37.8253 37.2164 37.8253ZM38.7636 36.1758L38.7154 36.1337L38.4024 37.7591C38.2037 37.7591 37.993 37.8012 37.8004 37.8133L38.1315 36.248C38.2278 35.7845 36.9816 35.646 36.3676 34.725C35.9643 35.0621 35.4465 35.2186 34.9288 35.1644C34.4713 35.1584 34.0198 35.1103 33.5743 35.02C33.496 35.0139 33.4178 35.0139 33.3395 35.02C33.1529 35.0079 32.9723 35.1042 32.876 35.2668L32.7857 35.4173L31.0699 35.0019L30.6606 35.7123C30.5944 35.8086 30.6064 35.941 30.6907 36.0253L30.8051 36.1517C30.6907 36.3745 30.5462 36.5792 30.3716 36.7537L30.1188 36.4407C29.9261 36.1276 29.9442 35.7243 30.1609 35.4293L30.8352 34.2915L32.274 34.5083L32.0512 33.9965C31.7502 33.3223 32.2077 32.4614 32.2559 31.9678C32.2559 32.1183 32.0994 32.1484 31.9429 32.1484H31.5275C31.4974 32.1424 31.4612 32.1424 31.4311 32.1484L31.0398 32.3832L30.7328 32.1002C30.6847 32.0099 30.7027 31.9016 30.775 31.8353L31.4853 31.0347L30.6425 30.0534L31.8465 30.6554L32.2077 30.222C32.3041 30.3183 32.2619 30.5711 32.2619 30.5711C33.1348 30.7879 33.7429 31.5825 33.7188 32.4855V32.6601C33.8392 32.8527 34.0318 32.9852 34.2485 33.0394L35.88 33.2019C36.2051 33.0996 36.5362 33.0333 36.8733 32.9912C37.1622 32.9912 37.4512 33.0815 37.692 33.238C37.8064 33.1598 37.9449 33.1116 38.0833 33.1056H38.1375C38.8659 33.1056 39.1729 33.7678 39.5643 34.3096C39.8592 34.725 40.2566 35.3511 40.2566 35.3511C40.1422 35.5196 39.9556 35.622 39.7509 35.622C39.6786 35.628 39.6124 35.628 39.5402 35.622C38.7576 35.4775 38.6432 33.8641 38.1977 33.7377H38.1255C38.0412 33.7377 37.9629 33.7858 37.9208 33.8641C38.1255 34.4119 38.0051 34.6347 38.2278 35.0681C38.3903 35.327 38.595 35.5618 38.8298 35.7604C38.8298 35.7604 38.7997 36.0012 38.7636 36.1758ZM29.9924 34.5986H29.9803L30.0526 34.7852C30.0044 34.9477 29.4505 35.1825 29.4505 35.1825L29.3301 34.9176C29.1736 34.5384 29.288 34.1049 29.6191 33.8581L30.5281 33.3042L31.4974 33.5089C31.4913 33.7016 31.5515 33.8882 31.6659 34.0447L30.6485 33.8521L30.0465 34.2735C29.9502 34.3578 29.9321 34.4902 29.9924 34.5986ZM41.6352 34.2072C41.7014 35.8808 40.5395 37.3497 38.896 37.6748L39.1729 36.218C39.1729 36.1337 39.203 36.0313 39.2151 35.947C39.2994 35.9832 39.3837 36.0072 39.4679 36.0253C39.5643 36.0313 39.6606 36.0313 39.7569 36.0253C40.088 36.0253 40.401 35.8748 40.5997 35.6099L40.8164 35.3571L40.6358 35.1103C40.6358 35.1103 40.2325 34.4721 39.9315 34.0507L39.7629 33.7979C39.4258 33.2922 38.9984 32.6541 38.1495 32.6541H38.0713C37.9509 32.6601 37.8245 32.6842 37.7101 32.7263C37.4512 32.5999 37.1683 32.5337 36.8793 32.5337C36.5903 32.5397 36.3014 32.5939 36.0305 32.6962L35.886 32.7384L34.2967 32.5818C34.2305 32.5517 34.1763 32.5036 34.1342 32.4434L34.4773 32.3049C34.381 31.1551 33.2733 30.4507 32.6713 30.2159C32.6412 30.0895 32.581 29.9812 32.4907 29.8909L32.1475 29.5658L31.8465 29.927L31.696 30.1076L29.4686 29.1925L30.9194 30.9986L30.3475 31.8654C30.2271 31.9858 30.2211 32.1845 30.3475 32.3109L30.9495 32.7203L31.5515 32.4915H31.6117C31.6117 32.5818 31.5455 32.9491 31.5154 33.0514L30.4679 32.8708L29.3482 33.4728C28.8305 33.846 28.6499 34.5323 28.9208 35.1103L29.0472 35.3812L29.2218 35.7664L29.6131 35.6039C29.4686 35.9952 29.5288 36.4287 29.7816 36.7598L30.0164 37.0608L30.3295 37.4581L30.6786 37.0848C30.9074 36.8561 31.088 36.5912 31.2144 36.2962L31.2867 36.0554L31.1181 35.8688V35.8327L31.3107 35.5196L32.7014 35.8447L33.0144 35.9169L33.183 35.64L33.2733 35.4895C33.2733 35.4594 33.2733 35.4534 33.3576 35.4534H33.5081C33.9837 35.5497 34.4653 35.5979 34.9469 35.6039C35.2719 35.622 35.597 35.5858 35.9101 35.4895L36.6806 36.3685L36.2231 37.7771V37.8614C35.5368 37.8494 34.8806 38.1323 34.4171 38.632C33.6766 37.8975 33.1529 37.8193 31.1723 37.8193C28.7944 37.8193 27.187 36.4287 27.187 34.2072V28.7892H41.6352V34.2072ZM42.0265 19.9818C41.7796 20.5658 41.6472 21.1919 41.6231 21.83V25.8875C41.0994 25.7731 40.7081 25.3277 40.6719 24.7919V24.6052H40.4913C40.1783 24.5812 39.8893 24.4367 39.6726 24.2139C39.4077 23.9069 39.2632 23.5216 39.2572 23.1183C38.9984 23.5397 39.0224 24.0815 39.3235 24.4788C39.5582 24.7738 39.9014 24.9725 40.2746 25.0206C40.383 25.719 40.9428 26.2608 41.6412 26.3511V28.3377H39.1127C38.4505 28.0006 38.1736 27.2119 38.4686 26.5317L38.5649 26.3149L38.3422 26.2307C37.6198 25.9778 37.2224 25.2012 37.4512 24.4668L37.4994 24.2862L37.3308 24.2079C36.6987 23.8407 36.3495 23.1243 36.4519 22.4019C36.1208 22.739 36.0365 23.2507 36.2472 23.6721C36.1268 23.8106 35.9703 23.9731 35.7957 24.1537C35.1636 24.0213 34.7061 23.4735 34.682 22.8293V22.6788L34.5435 22.6246C34.1763 22.5163 33.8753 22.2634 33.7007 21.9263C33.5863 21.6494 33.5622 21.3364 33.6405 21.0474C33.7609 21.0715 33.8813 21.0895 34.0017 21.1016C34.1221 21.1076 34.2485 21.1076 34.3689 21.1016C35.3442 21.1016 36.2713 20.6802 36.9214 19.9578L42.0265 19.9818ZM38.1255 15.8762L39.1127 16.4782L39.3596 16.6226C38.8479 16.7611 38.3843 17.038 38.0171 17.4233L37.975 17.4594C37.8907 17.5497 37.8124 17.64 37.7342 17.7364L37.686 17.7966C37.6077 17.8929 37.5355 17.9952 37.4693 18.1036L37.4332 18.1578C37.3489 18.2782 37.2706 18.4106 37.1923 18.543C36.6445 19.6327 35.579 20.3611 34.3689 20.4815C33.1589 20.3611 32.0934 19.6327 31.5455 18.543C31.4673 18.4106 31.389 18.2842 31.3107 18.1578L31.2626 18.0915L31.0699 17.7785L31.0158 17.7123C30.9375 17.616 30.8592 17.5256 30.781 17.4414L30.7388 17.3992C30.3716 17.0139 29.9081 16.737 29.3964 16.5986L29.6492 16.4541L30.6425 15.8521L31.6599 15.2501L34.375 16.725L37.09 15.2982L38.1255 15.8762ZM36.789 14.6721L34.6278 15.8099V11.1805L37.5596 10.1872L36.789 14.6721ZM34.381 10.6929L31.1663 9.40461C31.4372 8.75445 32.7014 8.2006 34.381 8.2006C36.0606 8.2006 37.3248 8.75445 37.5957 9.40461L34.381 10.6929Z" fill="#222220"/>
</svg>
