<svg width="200" height="50" viewBox="0 0 200 50" fill="none" xmlns="http://www.w3.org/2000/svg">
<path d="M45 16.6499H55.34C59.9805 24.7279 66.682 31.4294 74.76 36.0699V46.4099C67.8541 44.0552 61.5803 40.148 56.4211 34.9888C51.2619 29.8296 47.3547 23.5558 45 16.6499Z" fill="#00AFAA"/>
<path d="M74.7899 16.65H55.3399C52.8774 12.3841 51.0387 7.7874 49.8799 3H61.1099C64.7329 2.99999 68.2079 4.43715 70.7725 6.99617C73.3372 9.55518 74.782 13.027 74.7899 16.65Z" fill="#00AFAA"/>
<path d="M74.6802 3C75.4229 6.36425 77.1118 9.44608 79.548 11.8822C81.9841 14.3184 85.0659 16.0073 88.4302 16.75V3H74.6802Z" fill="#00AFAA"/>
<path d="M74.7901 16.6501V36.0701C66.7121 31.4296 60.0106 24.7281 55.3701 16.6501H74.7901Z" fill="#00539B"/>
<path d="M111.11 19.8501V33.7301H106.86V19.8501H102.37V16.5901H115.6V19.8401L111.11 19.8501ZM137.72 18.1401C139.141 16.9972 140.897 16.351 142.72 16.3001C147.63 16.3001 149.96 19.7601 149.96 24.7201C149.96 30.9901 146.44 34.1901 141.35 34.1901C136.26 34.1901 133.58 30.9901 133.58 23.6101C133.58 17.4701 134.97 13.2401 137.1 11.2801C139.54 9.02009 140.3 9.08009 143.16 8.34009C144.92 7.89009 146.62 7.61009 147.28 7.34009L148.83 10.8601C147.99 11.3601 146.42 11.7301 143.29 12.3601C139.67 13.0701 138.04 14.3601 137.67 18.1101L137.72 18.1401ZM141.6 30.7401C144.41 30.7401 145.46 28.4601 145.46 25.2001C145.46 22.2601 144.59 19.8501 141.76 19.8501C140.476 19.7732 139.208 20.164 138.19 20.9501C138.055 22.2788 138.011 23.6154 138.06 24.9501C138 28.4601 139.14 30.7401 141.6 30.7401ZM127.9 33.7401L122.18 25.7401V33.7401H117.88V16.5901H122.18V24.1001L127.27 16.5901H132L126.46 24.3601L132.97 33.7601H127.97L127.9 33.7401Z" fill="#00539B"/>
<path d="M88.43 30.2699V41.4999C83.6477 40.316 79.0559 38.4645 74.79 35.9999V16.6499C76.5799 16.6486 78.3526 16.9998 80.0067 17.6836C81.6609 18.3674 83.1642 19.3702 84.4308 20.635C85.6974 21.8997 86.7025 23.4015 87.3887 25.0547C88.0748 26.7078 88.4287 28.48 88.43 30.2699Z" fill="#F39A00"/>
</svg>
