<svg width="200" height="50" viewBox="0 0 200 50" fill="none" xmlns="http://www.w3.org/2000/svg">
<path d="M70.66 37.4701C67.3494 37.5776 64.1251 36.4025 61.66 34.1901C60.3394 32.9873 59.304 31.5049 58.6292 29.851C57.9545 28.1971 57.6576 26.4134 57.76 24.6301C57.682 21.6071 58.7096 18.6595 60.65 16.3401C62.4636 14.2533 64.9314 12.8432 67.65 12.3401C70.9866 11.5619 74.4939 12.0726 77.47 13.7701C79.264 14.7588 80.7641 16.2048 81.818 17.9613C82.8719 19.7177 83.4419 21.7219 83.47 23.7701C83.67 27.6401 82.75 31.1201 79.89 33.8801C77.4291 36.2124 74.1499 37.4838 70.76 37.4201L70.66 37.4701ZM70.83 18.1801C69.5185 18.1069 68.2219 18.4888 67.1596 19.2614C66.0973 20.034 65.3344 21.1498 65 22.4201C64.5114 23.9657 64.5114 25.6245 65 27.1701C65.2974 28.221 65.891 29.164 66.7099 29.8867C67.5287 30.6093 68.5383 31.0811 69.618 31.2455C70.6976 31.41 71.8018 31.2603 72.7988 30.8143C73.7957 30.3682 74.6431 29.6447 75.24 28.7301C75.9376 27.6371 76.3354 26.3797 76.3933 25.0843C76.4513 23.7889 76.1673 22.501 75.57 21.3501C75.1514 20.4031 74.4616 19.6014 73.5877 19.0461C72.7139 18.4909 71.6951 18.2069 70.66 18.2301L70.83 18.1801ZM125 27.1301C123.76 27.2001 122.59 27.2901 121.29 27.3601V36.8801H114.29V12.7601H121.15V21.6701C122.643 21.7994 124.147 21.6777 125.6 21.3101C126.458 21.0598 127.238 20.5939 127.864 19.9566C128.491 19.3194 128.944 18.5322 129.18 17.6701C129.64 16.0801 129.83 14.4201 130.18 12.6701H136.55C136.68 17.6701 135.7 22.0301 130.96 24.7301C131.16 25.0901 131.29 25.3801 131.48 25.6701C133.48 28.9201 135.38 32.1701 137.33 35.4501C137.556 35.904 137.753 36.3716 137.92 36.8501H130.61C128.72 33.6601 126.84 30.3801 124.95 27.1001L125 27.1301ZM155.95 22.4201C155.999 21.7276 155.999 21.0326 155.95 20.3401C155.853 19.8025 155.602 19.3046 155.227 18.9069C154.853 18.5093 154.371 18.229 153.84 18.1001C152.008 17.4969 150.064 17.309 148.15 17.5501C146.354 17.667 144.598 18.1323 142.98 18.9201C142.69 17.2001 142.39 15.5701 142.07 13.9201C143.469 13.2443 144.957 12.7728 146.49 12.5201C149.678 11.8646 152.971 11.909 156.14 12.6501C159.52 13.5001 161.89 15.4501 162.54 19.0201C162.675 19.9134 162.728 20.8171 162.7 21.7201V30.7201C162.83 32.5701 162.99 32.7201 164.88 33.0601V36.9001C163.013 37.5136 160.99 37.457 159.16 36.7401C158.677 36.4911 158.26 36.131 157.944 35.6894C157.628 35.2478 157.421 34.7374 157.34 34.2001C157.285 33.9434 157.251 33.6825 157.24 33.4201C154.93 36.7401 151.65 37.5501 148.01 37.3501C143.95 37.1201 140.83 34.3501 140.24 31.1701C139.3 25.9401 141.96 22.0401 147.24 21.2201C150.65 20.7301 151.6 20.9601 155.92 22.4201H155.95ZM155.9 27.0001C154.805 26.2605 153.544 25.8036 152.23 25.6701C151.564 25.5349 150.877 25.537 150.212 25.6763C149.546 25.8156 148.916 26.0891 148.36 26.4801C147.83 26.8764 147.44 27.431 147.245 28.0638C147.051 28.6966 147.063 29.3747 147.28 30.0001C147.462 30.5562 147.808 31.0446 148.271 31.4014C148.735 31.7581 149.296 31.9668 149.88 32.0001C151.065 32.1206 152.262 31.9418 153.36 31.4801C154.262 31.1788 155.02 30.5545 155.489 29.7273C155.958 28.9001 156.105 27.9287 155.9 27.0001ZM102.06 12.7301H108.82V36.9101H102V29.1801C100.73 29.4701 99.59 29.8001 98.39 29.9601C95.27 30.3801 92.31 29.9601 89.81 27.9601C87.9647 26.3734 86.7422 24.1835 86.36 21.7801C85.77 18.7801 86.13 15.7801 86.03 12.7801H93.08V13.8501C93.08 15.8501 93.08 17.7501 93.18 19.7301C93.1992 20.3159 93.3348 20.892 93.5787 21.425C93.8227 21.9579 94.1702 22.437 94.6011 22.8344C95.0319 23.2317 95.5375 23.5394 96.0884 23.7396C96.6393 23.9397 97.2245 24.0283 97.81 24.0001C99.3344 24.0473 100.832 23.5904 102.07 22.7001L102.06 12.7301ZM48.91 36.8201H42.12V18.9101H35V12.7601H56V18.8401H48.91V36.8201Z" fill="#333333"/>
</svg>
