<svg width="200" height="50" viewBox="0 0 200 50" fill="none" xmlns="http://www.w3.org/2000/svg">
<path d="M25.0002 8.24008C25 7.93924 25.1167 7.65009 25.3257 7.43366C25.5346 7.21723 25.8195 7.09045 26.1202 7.08008H60.0502C60.1999 7.08268 60.3476 7.11476 60.4849 7.17446C60.6222 7.23417 60.7464 7.32035 60.8505 7.42807C60.9545 7.53579 61.0362 7.66295 61.0911 7.80227C61.1459 7.9416 61.1728 8.09037 61.1702 8.24008V42.1301C61.1703 42.4309 61.0536 42.7201 60.8447 42.9365C60.6357 43.1529 60.3508 43.2797 60.0502 43.2901H26.1202C25.9704 43.2875 25.8227 43.2554 25.6854 43.1957C25.5481 43.136 25.4239 43.0498 25.3199 42.9421C25.2159 42.8344 25.1341 42.7072 25.0792 42.5679C25.0244 42.4286 24.9975 42.2798 25.0002 42.1301V8.24008Z" fill="#003870"/>
<path d="M95.0698 18.66H93.5698C93.5414 18.6623 93.5147 18.6746 93.4945 18.6948C93.4744 18.7149 93.462 18.7416 93.4598 18.77V22.14H88.9998V18.77C88.9975 18.7416 88.9852 18.7149 88.965 18.6948C88.9449 18.6746 88.9182 18.6623 88.8898 18.66H87.3898C87.3198 18.66 87.2798 18.73 87.2798 18.81V27C87.2798 27.07 87.3498 27.11 87.4298 27.15H88.9998C89.0698 27.15 89.1098 27.08 89.1498 27.04V23.57H93.5698V27C93.5698 27.07 93.6398 27.11 93.7198 27.11H95.2198C95.2898 27.11 95.3298 27.04 95.3698 26.96V18.81C95.2198 18.74 95.1798 18.7 95.1098 18.66H95.0698ZM74.9998 22.82C74.804 22.59 74.555 22.4114 74.2743 22.2999C73.9937 22.1883 73.69 22.1472 73.3898 22.18H69.3098V20.5C69.3098 20.39 69.3098 20.2 69.4198 20.13C69.5469 20.0679 69.6892 20.0437 69.8298 20.06H73.9998C74.0388 20.0576 74.0756 20.0411 74.1032 20.0134C74.1308 19.9858 74.1474 19.949 74.1498 19.91V18.81C74.1474 18.771 74.1308 18.7342 74.1032 18.7066C74.0756 18.6789 74.0388 18.6624 73.9998 18.66H68.7898C68.6183 18.6513 68.4469 18.6769 68.2855 18.7353C68.1241 18.7936 67.9759 18.8836 67.8498 19C67.7325 19.1255 67.6418 19.2736 67.5834 19.4351C67.525 19.5967 67.4999 19.7685 67.5098 19.94V25.94C67.4921 26.2361 67.5847 26.5282 67.7698 26.76C67.8946 26.8783 68.0426 26.9695 68.2043 27.0281C68.366 27.0866 68.5381 27.111 68.7098 27.1H73.4298C73.7139 27.1258 74.0004 27.092 74.2707 27.0007C74.5411 26.9094 74.7894 26.7627 74.9998 26.57C75.3844 26.0115 75.558 25.3346 75.4898 24.66C75.5422 24.0086 75.3692 23.359 74.9998 22.82ZM73.3898 25.56C73.2753 25.6507 73.1435 25.717 73.0025 25.7548C72.8615 25.7926 72.7142 25.8012 72.5698 25.78H69.8698C69.6798 25.78 69.4198 25.78 69.3498 25.67C69.331 25.534 69.331 25.396 69.3498 25.26V23.61H72.6498C72.7942 23.5888 72.9415 23.5974 73.0825 23.6352C73.2235 23.673 73.3553 23.7393 73.4698 23.83C73.5691 23.9483 73.6434 24.0855 73.6881 24.2333C73.7328 24.3811 73.7469 24.5365 73.7298 24.69C73.7402 25.0053 73.6373 25.314 73.4398 25.56H73.3898ZM85.8498 27L82.6998 19.56C82.5874 19.2419 82.3717 18.9706 82.0872 18.7893C81.8026 18.6081 81.4656 18.5273 81.1298 18.56C80.7923 18.516 80.4501 18.592 80.1631 18.7748C79.8761 18.9576 79.6625 19.2356 79.5598 19.56L76.3998 26.95C76.4021 26.989 76.4187 27.0258 76.4463 27.0534C76.474 27.0811 76.5108 27.0976 76.5498 27.1H77.9998C77.9998 27.1 78.1098 27.1 78.1098 27.03L78.9698 24.89H83.2998L84.1598 27.03C84.1598 27.03 84.2298 27.1 84.2698 27.1H85.6998C85.7388 27.0976 85.7756 27.0811 85.8032 27.0534C85.8308 27.0258 85.8474 26.989 85.8498 26.95V27ZM79.5098 23.59L80.8598 20.25C80.8598 20.25 80.9698 19.95 81.0798 19.95C81.1898 19.95 81.2998 20.25 81.2998 20.25L82.6498 23.59H79.5098ZM105 26.91L101 23.5C100.81 23.35 100.48 23.05 100.48 22.79C100.48 22.53 100.7 22.42 100.93 22.19L104.57 18.89C104.577 18.8672 104.577 18.8428 104.57 18.82C104.568 18.787 104.557 18.7553 104.537 18.7286C104.518 18.702 104.491 18.6816 104.46 18.67H102.55L99.0998 21.78C98.9647 21.8971 98.8499 22.0356 98.7598 22.19V18.81C98.7575 18.7816 98.7452 18.7549 98.725 18.7348C98.7048 18.7146 98.6782 18.7023 98.6498 18.7H97.1498C97.0798 18.7 97.0398 18.77 97.0398 18.85V27.06C97.0398 27.13 97.1098 27.17 97.1498 27.21H98.6498C98.6782 27.2077 98.7048 27.1954 98.725 27.1752C98.7452 27.1551 98.7575 27.1284 98.7598 27.1V23.46C98.8741 23.6612 99.027 23.8379 99.2098 23.98L103 27.17H104.94C104.979 27.1676 105.016 27.1511 105.043 27.1234C105.071 27.0958 105.088 27.059 105.09 27.02C105.09 26.95 105.09 26.91 105.02 26.87L105 26.91ZM166.19 8.64998C166.204 8.32587 166.139 8.00327 166 7.70998C165.881 7.50051 165.705 7.32913 165.493 7.21582C165.28 7.1025 165.04 7.05192 164.8 7.06998C164.479 7.06798 164.164 7.16214 163.897 7.34035C163.63 7.51856 163.422 7.77266 163.3 8.06998L159.78 13.54C159.78 13.61 159.67 13.69 159.63 13.69C159.59 13.69 159.63 13.54 159.63 13.43V7.18998C159.628 7.16157 159.615 7.1349 159.595 7.11474C159.575 7.09459 159.548 7.08226 159.52 7.07998H158.02C157.95 7.07998 157.91 7.14998 157.91 7.22998V14.09C157.91 14.54 157.91 15.59 159.26 15.59C159.553 15.62 159.848 15.5569 160.103 15.4096C160.358 15.2624 160.56 15.0386 160.68 14.77L164.32 9.21998C164.39 9.10998 164.47 8.95998 164.54 8.95998C164.61 8.95998 164.61 8.95998 164.61 9.17998V15.48C164.61 15.55 164.68 15.59 164.72 15.63H166.22C166.248 15.6277 166.275 15.6154 166.295 15.5952C166.315 15.5751 166.328 15.5484 166.33 15.52L166.19 8.64998ZM74.9998 11.69C74.7957 11.461 74.5145 11.3151 74.2098 11.28C74.4625 11.2177 74.6875 11.0735 74.8498 10.87C75.0091 10.6784 75.1277 10.4563 75.1982 10.2173C75.2687 9.97828 75.2897 9.72738 75.2598 9.47998C75.3141 8.81772 75.1139 8.15967 74.6998 7.63998C74.2359 7.26314 73.6459 7.0772 73.0498 7.11998H68.7898C68.606 7.10193 68.4204 7.12586 68.2472 7.18995C68.074 7.25404 67.9176 7.35663 67.7898 7.48998C67.591 7.74748 67.4852 8.06471 67.4898 8.38998V14.39C67.4803 14.716 67.5866 15.0349 67.7898 15.29C67.9309 15.4299 68.1036 15.5338 68.2933 15.5929C68.483 15.6521 68.6841 15.6648 68.8798 15.63H73.1898C73.4979 15.6615 73.8091 15.621 74.0989 15.5116C74.3887 15.4023 74.6492 15.2272 74.8598 15C75.0622 14.7499 75.2125 14.4617 75.3018 14.1526C75.3912 13.8435 75.4176 13.5196 75.3798 13.2C75.4321 12.9359 75.4251 12.6634 75.3594 12.4023C75.2937 12.1412 75.1709 11.8979 74.9998 11.69ZM69.2998 10.6V8.86998C69.2945 8.80884 69.3015 8.74725 69.3204 8.68886C69.3393 8.63047 69.3697 8.57645 69.4098 8.52998C69.4527 8.49906 69.5013 8.47696 69.5528 8.46494C69.6043 8.45293 69.6576 8.45124 69.7098 8.45998H72.4998C72.7773 8.42779 73.0572 8.49512 73.2898 8.64998C73.4855 8.89166 73.5788 9.20035 73.5498 9.50998C73.5848 9.79715 73.5176 10.0875 73.3598 10.33C73.2466 10.4374 73.1099 10.5169 72.9606 10.562C72.8113 10.6072 72.6535 10.6167 72.4998 10.59L69.2998 10.6ZM73.3898 13.94C73.1225 14.1463 72.785 14.2397 72.4498 14.2H69.8798C69.7698 14.2 69.5098 14.2 69.4298 14.09C69.3747 13.9467 69.3509 13.7933 69.3598 13.64V12H72.6598C73.1798 12 73.4098 12.19 73.4798 12.34C73.6211 12.5892 73.6871 12.874 73.6698 13.16C73.6807 13.4382 73.5999 13.7122 73.4398 13.94H73.3898ZM84.7898 7.93998C83.7805 7.21848 82.545 6.88477 81.3098 6.99998C80.0655 6.85483 78.8116 7.17543 77.7898 7.89998C77.3951 8.37555 77.1027 8.92732 76.9306 9.52088C76.7586 10.1145 76.7106 10.7371 76.7898 11.35C76.7124 11.9629 76.7612 12.5851 76.9332 13.1784C77.1052 13.7716 77.3967 14.3235 77.7898 14.8C78.8152 15.5168 80.0661 15.8367 81.3098 15.7C82.3098 15.7 83.8998 15.7 84.8298 14.8C85.7598 13.9 85.8298 12.1 85.8298 11.35C85.8498 10.19 85.7298 8.71998 84.8398 7.89998L84.7898 7.93998ZM79.0998 9.05998C79.747 8.61931 80.5118 8.38364 81.2948 8.38364C82.0777 8.38364 82.8426 8.61931 83.4898 9.05998C83.9151 9.74316 84.095 10.5509 83.9998 11.35C84.0738 12.1365 83.8914 12.9258 83.4798 13.6C83.189 13.8777 82.8391 14.0858 82.4563 14.2088C82.0735 14.3318 81.6678 14.3664 81.2698 14.31C80.2698 14.31 79.5498 14.2 79.0998 13.6C78.6599 12.9367 78.4621 12.1421 78.5398 11.35C78.4509 10.5445 78.6492 9.73353 79.0998 9.05998ZM113.48 7.89998C112.465 7.19259 111.23 6.87319 110 6.99998C108.756 6.85483 107.502 7.17543 106.48 7.89998C106.085 8.37555 105.793 8.92732 105.621 9.52088C105.449 10.1145 105.401 10.7371 105.48 11.35C105.403 11.9629 105.451 12.5851 105.623 13.1784C105.795 13.7716 106.087 14.3235 106.48 14.8C107.505 15.5168 108.756 15.8367 110 15.7C111 15.7 112.59 15.7 113.52 14.8C114.45 13.9 114.52 12.1 114.52 11.35C114.49 10.19 114.38 8.71998 113.48 7.89998ZM107.74 9.05998C108.387 8.61931 109.152 8.38364 109.935 8.38364C110.718 8.38364 111.483 8.61931 112.13 9.05998C112.559 9.74191 112.742 10.5497 112.65 11.35C112.724 12.1365 112.542 12.9258 112.13 13.6C111.839 13.8777 111.489 14.0858 111.106 14.2088C110.724 14.3318 110.318 14.3664 109.92 14.31C108.92 14.31 108.2 14.2 107.75 13.6C107.31 12.9367 107.112 12.1421 107.19 11.35C107.098 10.5457 107.293 9.73483 107.74 9.05998ZM146.21 14.2H141.6C141.38 14.2 141.15 14.2 141.08 14.13C141.041 14.0996 141.01 14.0598 140.991 14.0143C140.972 13.9688 140.965 13.9191 140.97 13.87V12H145.21C145.249 11.9976 145.286 11.9811 145.313 11.9534C145.341 11.9258 145.358 11.889 145.36 11.85V10.75C145.358 10.711 145.341 10.6742 145.313 10.6466C145.286 10.6189 145.249 10.6024 145.21 10.6H141V8.94998C140.992 8.88407 140.998 8.81729 141.017 8.75369C141.036 8.69009 141.068 8.63099 141.11 8.57998C141.233 8.50512 141.376 8.46696 141.52 8.46998H146.17C146.209 8.46761 146.246 8.45105 146.273 8.42342C146.301 8.39579 146.318 8.35899 146.32 8.31998V7.21998C146.318 7.18097 146.301 7.14418 146.273 7.11655C146.246 7.08892 146.209 7.07235 146.17 7.06998H140.62C140.425 7.04751 140.227 7.06616 140.039 7.12471C139.851 7.18327 139.678 7.28044 139.53 7.40998C139.331 7.66748 139.225 7.98471 139.23 8.30999V14.23C139.21 14.4114 139.23 14.5949 139.289 14.7677C139.348 14.9404 139.444 15.0982 139.57 15.23C139.861 15.434 140.216 15.5263 140.57 15.49H146.19C146.229 15.4876 146.266 15.4711 146.293 15.4434C146.321 15.4158 146.338 15.379 146.34 15.34V14.27C146.299 14.2309 146.246 14.2064 146.19 14.2H146.21ZM174.82 14.2H170.2C169.98 14.2 169.75 14.2 169.68 14.13C169.641 14.0996 169.61 14.0598 169.591 14.0143C169.572 13.9688 169.565 13.9191 169.57 13.87V12H173.84C173.879 11.9976 173.916 11.9811 173.943 11.9534C173.971 11.9258 173.988 11.889 173.99 11.85V10.75C173.988 10.711 173.971 10.6742 173.943 10.6466C173.916 10.6189 173.879 10.6024 173.84 10.6H169.6V8.94998C169.592 8.88407 169.598 8.81729 169.617 8.75369C169.636 8.69009 169.668 8.63099 169.71 8.57998C169.833 8.50512 169.976 8.46696 170.12 8.46998H174.77C174.809 8.46761 174.846 8.45105 174.873 8.42342C174.901 8.39579 174.918 8.35899 174.92 8.31998V7.21998C174.918 7.18097 174.901 7.14418 174.873 7.11655C174.846 7.08892 174.809 7.07235 174.77 7.06998H169.22C169.025 7.04751 168.827 7.06616 168.639 7.12471C168.451 7.18327 168.278 7.28044 168.13 7.40998C167.931 7.66748 167.825 7.98471 167.83 8.30999V14.23C167.81 14.4114 167.83 14.5949 167.889 14.7677C167.948 14.9404 168.044 15.0982 168.17 15.23C168.461 15.434 168.816 15.5263 169.17 15.49H174.79C174.829 15.4876 174.866 15.4711 174.893 15.4434C174.921 15.4158 174.938 15.379 174.94 15.34V14.27C174.94 14.27 174.83 14.2 174.75 14.2H174.82ZM155.88 7.10998H154.38C154.352 7.11226 154.325 7.12459 154.305 7.14474C154.285 7.1649 154.272 7.19157 154.27 7.21998V10.6H149.85V7.21998C149.848 7.19157 149.835 7.1649 149.815 7.14474C149.795 7.12459 149.768 7.11226 149.74 7.10998H148.24C148.17 7.10998 148.13 7.17998 148.13 7.25998V15.47C148.13 15.54 148.2 15.58 148.28 15.62H149.78C149.85 15.62 149.89 15.55 149.93 15.51V12H154.35V15.45C154.35 15.52 154.42 15.56 154.5 15.56H156C156.07 15.56 156.11 15.49 156.15 15.41V7.21998C156 7.14998 155.96 7.10998 155.89 7.10998H155.88ZM103.36 7.59998C102.862 7.20611 102.232 7.0198 101.6 7.07998H97.4298C97.2489 7.06766 97.0673 7.09137 96.8957 7.14974C96.724 7.2081 96.5657 7.29996 96.4298 7.41998C96.3112 7.55554 96.2231 7.71494 96.1713 7.88745C96.1196 8.05995 96.1054 8.24154 96.1298 8.41998V15.42C96.1298 15.49 96.1998 15.53 96.2398 15.57H97.7398C97.7682 15.5677 97.7949 15.5554 97.815 15.5352C97.8352 15.5151 97.8475 15.4884 97.8498 15.46V12.62H101.85C102.345 12.6339 102.832 12.4903 103.24 12.21C103.54 11.9089 103.766 11.5434 103.903 11.1414C104.04 10.7393 104.084 10.3113 104.03 9.88998C104.091 9.0644 103.837 8.24637 103.32 7.59998H103.36ZM101.94 10.94C101.803 11.0564 101.644 11.1432 101.471 11.1948C101.299 11.2464 101.118 11.2618 100.94 11.24H97.8098V8.90998C97.8098 8.75998 97.8098 8.64998 97.9198 8.56998C98.0099 8.51565 98.1149 8.49116 98.2198 8.49998H100.92C101.274 8.45898 101.631 8.55171 101.92 8.75998C102.149 9.0747 102.256 9.46226 102.22 9.84998C102.253 10.0398 102.247 10.2343 102.202 10.4217C102.157 10.6091 102.075 10.7855 101.96 10.94H101.94ZM127.25 15.36L123.79 12C123.559 11.8084 123.4 11.5439 123.34 11.25C123.378 11.0269 123.5 10.8266 123.68 10.69L126.79 7.38998V7.31998C126.79 7.24998 126.79 7.16998 126.68 7.16998H124.81L122.07 10.24C121.958 10.3675 121.858 10.5047 121.77 10.65V7.21998C121.768 7.19157 121.755 7.1649 121.735 7.14474C121.715 7.12459 121.688 7.11226 121.66 7.10998H120.16C120.09 7.10998 120.05 7.17998 120.05 7.25998V10.67C119.962 10.5247 119.862 10.3875 119.75 10.26L117 7.18998H115.13C115.06 7.18998 115.02 7.25998 115.02 7.33998V7.40998L118.13 10.71C118.32 10.9 118.47 11.05 118.47 11.27C118.448 11.4185 118.397 11.5612 118.32 11.6899C118.243 11.8186 118.141 11.9308 118.02 12.02L114.57 15.39C114.563 15.4128 114.563 15.4372 114.57 15.46C114.572 15.499 114.589 15.5358 114.617 15.5634C114.644 15.5911 114.681 15.6076 114.72 15.61H116.66L119.66 12.46C119.815 12.2876 119.953 12.1 120.07 11.9V15.54C120.07 15.61 120.14 15.65 120.18 15.69H121.68C121.708 15.6877 121.735 15.6754 121.755 15.6552C121.775 15.6351 121.788 15.6084 121.79 15.58V11.84C121.898 12.0459 122.036 12.2347 122.2 12.4L125.2 15.55H127.14C127.179 15.5476 127.216 15.5311 127.243 15.5034C127.271 15.4758 127.288 15.439 127.29 15.4C127.27 15.4 127.27 15.36 127.24 15.36H127.25ZM137.93 14.2H137.26L134.66 7.99998C134.551 7.67982 134.336 7.40639 134.05 7.22465C133.765 7.04291 133.426 6.96367 133.09 6.99998C132.756 6.95314 132.416 7.02851 132.133 7.21225C131.85 7.39598 131.643 7.67572 131.55 7.99998L129 14.2H128.33C128.291 14.2024 128.254 14.2189 128.227 14.2466C128.199 14.2742 128.182 14.311 128.18 14.35V15.44C128.182 15.479 128.199 15.5158 128.227 15.5434C128.254 15.5711 128.291 15.5876 128.33 15.59H138C138.039 15.5876 138.076 15.5711 138.103 15.5434C138.131 15.5158 138.148 15.479 138.15 15.44V14.35C138.13 14.3053 138.098 14.2673 138.057 14.2406C138.017 14.2139 137.969 14.1998 137.92 14.2H137.93ZM132.87 8.64998C132.87 8.64998 132.98 8.34999 133.09 8.34999C133.2 8.34999 133.31 8.64998 133.31 8.64998L135.56 14.2H130.61L132.87 8.64998ZM93.9998 11.69C93.7957 11.461 93.5145 11.3151 93.2098 11.28C93.4625 11.2177 93.6875 11.0735 93.8498 10.87C94.0091 10.6784 94.1277 10.4563 94.1982 10.2173C94.2687 9.97828 94.2897 9.72738 94.2598 9.47998C94.3141 8.81772 94.1138 8.15967 93.6998 7.63998C93.2246 7.24715 92.614 7.0568 91.9998 7.10998H87.1998C87.1608 7.11235 87.124 7.12892 87.0963 7.15655C87.0687 7.18418 87.0521 7.22097 87.0498 7.25998V8.34999C87.0521 8.389 87.0687 8.42578 87.0963 8.45341C87.124 8.48105 87.1608 8.49761 87.1998 8.49998H91.3198C91.5973 8.46779 91.8772 8.53512 92.1098 8.68998C92.3055 8.93166 92.3988 9.24035 92.3698 9.54998C92.4048 9.83715 92.3376 10.1275 92.1798 10.37C92.0666 10.4774 91.9299 10.5569 91.7806 10.602C91.6313 10.6472 91.4735 10.6567 91.3198 10.63H88.1698C88.1308 10.6324 88.094 10.6489 88.0663 10.6766C88.0387 10.7042 88.0221 10.741 88.0198 10.78V11.87C88.0221 11.909 88.0387 11.9458 88.0663 11.9734C88.094 12.0011 88.1308 12.0176 88.1698 12.02H91.5398C92.0598 12.02 92.2898 12.21 92.3598 12.36C92.5011 12.6092 92.5671 12.894 92.5498 13.18C92.5695 13.4702 92.4921 13.7587 92.3298 14C92.0625 14.2063 91.7251 14.2997 91.3898 14.26H87.1598C87.1208 14.2624 87.084 14.2789 87.0563 14.3066C87.0287 14.3342 87.0121 14.371 87.0098 14.41V15.5C87.0121 15.539 87.0287 15.5758 87.0563 15.6034C87.084 15.6311 87.1208 15.6476 87.1598 15.65H92.1598C92.4592 15.6872 92.7632 15.6561 93.049 15.5591C93.3347 15.4622 93.5948 15.3018 93.8098 15.09C94.0122 14.8399 94.1625 14.5517 94.2519 14.2426C94.3412 13.9335 94.3677 13.6096 94.3298 13.29C94.385 13.0148 94.3843 12.7313 94.3276 12.4564C94.2709 12.1815 94.1594 11.9209 93.9998 11.69ZM69.4598 43.29H67.5498V39.09H70.7398V39.8H68.4898V40.66H69.4898C70.4898 40.66 71.0598 41.18 71.0598 41.97C71.0598 42.76 70.4398 43.29 69.4598 43.29ZM69.4598 41.38H68.5198V42.54H69.4598C69.8698 42.54 70.1298 42.32 70.1298 41.98C70.1293 41.8926 70.11 41.8063 70.0733 41.7269C70.0365 41.6476 69.9831 41.5771 69.9168 41.5202C69.8504 41.4633 69.7725 41.4213 69.6885 41.3971C69.6045 41.3729 69.5162 41.3671 69.4298 41.38H69.4598ZM74.7498 43.29L74.4498 42.54H72.6898L72.3898 43.29H71.3898L73.1498 39.09H73.8998L75.6598 43.29H74.6598H74.7498ZM73.6298 40.29L72.9998 41.87H74.1998L73.5998 40.33L73.6298 40.29ZM78.9198 43.29V41.53H77.2598V43.29H76.3198V39.09H77.2598V40.81H78.8698V39.09H79.8098V43.29H78.9198ZM80.9798 43.29V39.09H81.9198V41.09L83.4598 39.09H84.5798L82.9198 41L84.6798 43.21H83.5198L81.8298 41.04V43.21H80.9298L80.9798 43.29ZM85.1798 44.23V42.43H86.1798V43.59L85.1798 44.23ZM88.7398 43.29V39.09H89.6798V41.09L91.2198 39.09H92.2998L90.6798 41L92.4398 43.21H91.3598L89.6698 41.04V43.21H88.6698L88.7398 43.29ZM96.3098 41.34C96.3537 41.611 96.3322 41.8886 96.2469 42.1495C96.1617 42.4105 96.0152 42.6472 95.8198 42.84C95.4448 43.1303 94.984 43.2878 94.5098 43.2878C94.0355 43.2878 93.5748 43.1303 93.1998 42.84C93.0206 42.6363 92.8848 42.3982 92.8006 42.1404C92.7163 41.8825 92.6854 41.6102 92.7098 41.34V41C92.7098 40.18 92.8198 39.84 93.1998 39.5C93.5748 39.2097 94.0355 39.0522 94.5098 39.0522C94.984 39.0522 95.4448 39.2097 95.8198 39.5C96.0011 39.6796 96.1394 39.898 96.2243 40.1388C96.3091 40.3795 96.3384 40.6363 96.3098 40.89V41.34ZM95.1098 40C94.9438 39.8544 94.7305 39.7742 94.5098 39.7742C94.289 39.7742 94.0758 39.8544 93.9098 40C93.6898 40.19 93.6898 40.6 93.6898 41.12V41.34C93.6898 41.79 93.6898 42.16 93.9098 42.34C94.0758 42.4856 94.289 42.5658 94.5098 42.5658C94.7305 42.5658 94.9438 42.4856 95.1098 42.34C95.2998 42.15 95.3298 41.93 95.3298 41.1C95.3298 40.27 95.2898 40.18 95.1098 40ZM98.9298 39.81V43.26H97.9998V39.8H96.7198V39.09H100.17V39.8L98.9298 39.81ZM104.22 41.35C104.264 41.621 104.242 41.8986 104.157 42.1595C104.072 42.4205 103.925 42.6572 103.73 42.85C103.355 43.1403 102.894 43.2978 102.42 43.2978C101.946 43.2978 101.485 43.1403 101.11 42.85C100.931 42.6463 100.795 42.4082 100.711 42.1504C100.627 41.8925 100.596 41.6202 100.62 41.35V41C100.62 40.18 100.73 39.84 101.11 39.5C101.485 39.2097 101.946 39.0522 102.42 39.0522C102.894 39.0522 103.355 39.2097 103.73 39.5C103.911 39.6796 104.05 39.898 104.134 40.1388C104.219 40.3795 104.249 40.6363 104.22 40.89V41.35ZM103.06 40C102.894 39.8544 102.681 39.7742 102.46 39.7742C102.239 39.7742 102.026 39.8544 101.86 40C101.64 40.19 101.64 40.6 101.64 41.12V41.34C101.64 41.79 101.64 42.16 101.86 42.34C102.026 42.4856 102.239 42.5658 102.46 42.5658C102.681 42.5658 102.894 42.4856 103.06 42.34C103.25 42.15 103.28 41.93 103.28 41.1C103.28 40.27 103.24 40.18 103.06 40ZM107.06 39.1C108 39.1 108.63 39.62 108.63 40.41C108.63 41.2 107.99 41.72 107.06 41.72H106.12V43.29H105.18V39.09L107.06 39.1ZM107 41C107.41 41 107.71 40.78 107.71 40.44C107.71 40.1 107.45 39.88 107 39.88H106.14V41H107ZM111.35 43.32H109.48V39.12H110.42V40.69H111.36C112.3 40.69 112.93 41.21 112.93 42C112.89 42.3817 112.7 42.7318 112.402 42.9736C112.104 43.2154 111.722 43.3292 111.34 43.29L111.35 43.32ZM111.28 41.41H110.42V42.57H111.28C111.69 42.57 111.99 42.35 111.99 42.01C111.985 41.9211 111.962 41.834 111.923 41.754C111.884 41.6739 111.829 41.6025 111.762 41.5438C111.695 41.4852 111.617 41.4405 111.533 41.4123C111.448 41.3842 111.359 41.3732 111.27 41.38L111.28 41.41ZM113.42 43.32V39.12H114.36V43.32H113.42ZM118.18 43.32V40.62L116.31 43.32H115.49V39.12H116.43V41.78L118.3 39.12H119.12V43.32H118.18ZM117.32 38.9C116.8 38.9 116.32 38.71 116.23 38.08H116.9C116.904 38.1345 116.918 38.1876 116.943 38.2361C116.968 38.2846 117.003 38.3276 117.045 38.3622C117.087 38.3969 117.136 38.4225 117.188 38.4376C117.241 38.4527 117.296 38.4569 117.35 38.45C117.458 38.4585 117.566 38.4247 117.65 38.3557C117.733 38.2867 117.787 38.1879 117.8 38.08H118.47C118.404 38.3313 118.249 38.55 118.034 38.6953C117.818 38.8407 117.558 38.9028 117.3 38.87L117.32 38.9ZM125 41.34C125.103 41.4258 125.184 41.535 125.236 41.6586C125.288 41.7821 125.31 41.9163 125.3 42.05C125.3 42.8 124.74 43.25 123.84 43.25H121.84V39.09H123.79C124.69 39.09 125.29 39.54 125.29 40.25C125.298 40.4442 125.244 40.6358 125.136 40.7975C125.028 40.9592 124.872 41.0826 124.69 41.15C124.805 41.1913 124.911 41.256 125 41.34ZM123.69 40.78C124.06 40.78 124.33 40.59 124.33 40.29C124.33 39.99 124.11 39.8 123.69 39.8H122.75V40.8L123.69 40.78ZM123.69 42.54C124.06 42.54 124.33 42.35 124.33 42.02C124.33 41.69 124.11 41.5 123.69 41.5H122.69V42.5H123.69V42.54ZM127.85 43.29C127.373 43.3082 126.905 43.1478 126.54 42.84C126.05 42.43 126.05 41.9 126.05 41.15C125.997 40.8496 126.014 40.5411 126.099 40.2482C126.184 39.9553 126.335 39.6857 126.54 39.46C126.905 39.1522 127.373 38.9918 127.85 39.01C128.254 38.9678 128.659 39.079 128.985 39.3217C129.312 39.5644 129.534 39.9207 129.61 40.32H128.67C128.623 40.1825 128.542 40.0588 128.436 39.96C128.329 39.8612 128.2 39.7903 128.059 39.7536C127.919 39.717 127.771 39.7157 127.63 39.75C127.489 39.7843 127.358 39.853 127.25 39.95C127.06 40.14 127.03 40.32 127.03 41.15C127.03 41.98 127.03 42.15 127.25 42.35C127.357 42.4543 127.488 42.5298 127.632 42.5694C127.775 42.609 127.927 42.6114 128.072 42.5764C128.217 42.5414 128.351 42.4702 128.46 42.3693C128.57 42.2685 128.653 42.1414 128.7 42H129.64C129.556 42.3954 129.329 42.7457 129.002 42.9838C128.675 43.2219 128.272 43.3309 127.87 43.29H127.85ZM130.44 43.29V39.09H133.63V39.8H131.42V40.8H133.33V41.51H131.42V42.51H133.63V43.22H130.44V43.29ZM135.44 39.8V43.25H134.5V39.09H137.5V39.8H135.44ZM141.14 44.19V43.25H138.48V44.19H137.58V42.54H138.03C138.46 41.8171 138.656 40.9786 138.59 40.14V39.05H141.48V42.5H142.04V44.15H141.14V44.19ZM140.54 39.8H139.54V40.4C139.572 41.1355 139.431 41.8683 139.13 42.54H140.63V39.8H140.54ZM145.54 43.29L145.24 42.54H143.52L143.22 43.29H142.22L143.98 39.09H144.73L146.49 43.29H145.49H145.54ZM144.42 40.29L143.82 41.83H145L144.42 40.29ZM150.27 43.29C149.793 43.3082 149.325 43.1478 148.96 42.84C148.47 42.43 148.47 41.9 148.47 41.15C148.417 40.8496 148.434 40.5411 148.519 40.2482C148.604 39.9553 148.755 39.6857 148.96 39.46C149.325 39.1522 149.793 38.9918 150.27 39.01C150.674 38.9678 151.079 39.079 151.405 39.3217C151.731 39.5644 151.954 39.9207 152.03 40.32H151.09C151.043 40.1825 150.962 40.0588 150.856 39.96C150.749 39.8612 150.62 39.7903 150.479 39.7536C150.339 39.717 150.191 39.7157 150.05 39.75C149.909 39.7843 149.778 39.853 149.67 39.95C149.48 40.14 149.45 40.32 149.45 41.15C149.45 41.98 149.45 42.15 149.67 42.35C149.778 42.447 149.909 42.5157 150.05 42.55C150.191 42.5843 150.339 42.583 150.479 42.5464C150.62 42.5097 150.749 42.4388 150.856 42.34C150.962 42.2412 151.043 42.1175 151.09 41.98H152.03C151.961 42.3788 151.743 42.7363 151.419 42.9797C151.096 43.2231 150.692 43.3341 150.29 43.29H150.27ZM156.27 39.8V43.25H155.33V39.8H154.06V39.09H157.51V39.8H156.27ZM161.56 41.34C161.604 41.611 161.582 41.8886 161.497 42.1495C161.412 42.4105 161.265 42.6472 161.07 42.84C160.695 43.1303 160.234 43.2878 159.76 43.2878C159.286 43.2878 158.825 43.1303 158.45 42.84C158.271 42.6363 158.135 42.3982 158.051 42.1404C157.967 41.8825 157.936 41.6102 157.96 41.34V41C157.96 40.18 158.07 39.84 158.45 39.5C158.825 39.2097 159.286 39.0522 159.76 39.0522C160.234 39.0522 160.695 39.2097 161.07 39.5C161.251 39.6796 161.39 39.898 161.474 40.1388C161.559 40.3795 161.589 40.6363 161.56 40.89V41.34ZM160.42 40C160.254 39.8544 160.041 39.7742 159.82 39.7742C159.599 39.7742 159.386 39.8544 159.22 40C159 40.19 159 40.6 159 41.12V41.34C159 41.79 159 42.16 159.22 42.34C159.386 42.4856 159.599 42.5658 159.82 42.5658C160.041 42.5658 160.254 42.4856 160.42 42.34C160.61 42.15 160.64 41.93 160.64 41.1C160.64 40.27 160.6 40.18 160.42 40ZM164.42 43.3H162.51V39.1H165.7V39.81H163.45V40.67H164.45C165.45 40.67 166.02 41.19 166.02 41.98C166.02 42.77 165.44 43.29 164.47 43.29L164.42 43.3ZM164.42 41.39H163.48V42.55H164.42C164.83 42.55 165.09 42.33 165.09 41.99C165.09 41.9055 165.073 41.8219 165.039 41.7444C165.006 41.6669 164.956 41.5973 164.894 41.54C164.832 41.4826 164.759 41.4388 164.679 41.4113C164.599 41.3837 164.514 41.3731 164.43 41.38L164.42 41.39ZM170.34 41.39C170.384 41.661 170.362 41.9386 170.277 42.1995C170.192 42.4605 170.045 42.6972 169.85 42.89C169.475 43.1803 169.014 43.3378 168.54 43.3378C168.066 43.3378 167.605 43.1803 167.23 42.89C167.051 42.6863 166.915 42.4482 166.831 42.1904C166.747 41.9325 166.716 41.6602 166.74 41.39V41C166.74 40.18 166.85 39.84 167.23 39.5C167.605 39.2097 168.066 39.0522 168.54 39.0522C169.014 39.0522 169.475 39.2097 169.85 39.5C170.031 39.6796 170.17 39.898 170.254 40.1388C170.339 40.3795 170.369 40.6363 170.34 40.89V41.39ZM169.19 40C169.024 39.8544 168.811 39.7742 168.59 39.7742C168.369 39.7742 168.156 39.8544 167.99 40C167.77 40.19 167.77 40.6 167.77 41.12V41.34C167.77 41.79 167.77 42.16 167.99 42.34C168.156 42.4856 168.369 42.5658 168.59 42.5658C168.811 42.5658 169.024 42.4856 169.19 42.34C169.38 42.15 169.41 41.93 169.41 41.1C169.41 40.27 169.38 40.18 169.19 40ZM174.03 43.3V40.6L172.16 43.3H171.34V39.1H172.28V41.76L174.15 39.1H175V43.3H174.03ZM173.13 38.88C172.61 38.88 172.13 38.69 172.04 38.06H172.71C172.714 38.1145 172.728 38.1676 172.753 38.2161C172.778 38.2646 172.813 38.3076 172.855 38.3422C172.897 38.3769 172.946 38.4025 172.998 38.4176C173.051 38.4327 173.106 38.4369 173.16 38.43C173.268 38.4385 173.376 38.4047 173.46 38.3357C173.543 38.2667 173.597 38.1679 173.61 38.06H174.28C174.21 38.64 173.69 38.87 173.13 38.87V38.88Z" fill="#003870"/>
<path d="M40.4801 14.1602C40.5901 14.1602 40.6701 14.0902 40.5901 13.9702L40.3701 13.4102C40.3434 13.3532 40.3009 13.3051 40.2478 13.2714C40.1946 13.2377 40.133 13.22 40.0701 13.2202H30.4701C30.3601 13.2202 30.2801 13.2902 30.3601 13.4102L30.6201 13.9702C30.6468 14.0272 30.6892 14.0753 30.7423 14.109C30.7955 14.1427 30.8571 14.1604 30.9201 14.1602H40.4801ZM41.2301 15.2502C41.2034 15.1932 41.1609 15.1451 41.1078 15.1114C41.0546 15.0777 40.993 15.06 40.9301 15.0602H31.3701C31.2601 15.0602 31.1801 15.1302 31.2601 15.2502L31.5201 15.8102C31.5468 15.8672 31.5892 15.9153 31.6423 15.949C31.6955 15.9827 31.7571 16.0004 31.8201 16.0002H41.3801C41.4901 16.0002 41.5701 15.9302 41.4901 15.8102L41.2301 15.2502ZM42.1301 17.1202C42.1034 17.0632 42.0609 17.0151 42.0078 16.9814C41.9546 16.9477 41.893 16.93 41.8301 16.9302H32.2301C32.1201 16.9302 32.0401 17.0002 32.1201 17.1202L32.3801 17.6802C32.4068 17.7372 32.4492 17.7853 32.5023 17.819C32.5555 17.8527 32.6171 17.8704 32.6801 17.8702H42.2401C42.3501 17.8702 42.4301 17.8002 42.3501 17.6802L42.1301 17.1202ZM43.0001 19.0002C42.9734 18.9432 42.9309 18.8951 42.8778 18.8614C42.8246 18.8277 42.763 18.81 42.7001 18.8102H33.1401C33.0301 18.8102 32.9501 18.8802 33.0301 19.0002L33.2901 19.5602C33.3168 19.6172 33.3592 19.6653 33.4123 19.699C33.4655 19.7327 33.5271 19.7504 33.5901 19.7502H43.1501C43.2601 19.7502 43.3401 19.6802 43.2601 19.5602L43.0001 19.0002ZM43.9001 20.8402C43.8734 20.7832 43.8309 20.7351 43.7778 20.7014C43.7246 20.6677 43.663 20.65 43.6001 20.6502H34.0001C33.8901 20.6502 33.8101 20.7202 33.8901 20.8402L34.1501 21.4002C34.1768 21.4572 34.2192 21.5053 34.2723 21.539C34.3255 21.5727 34.3871 21.5904 34.4501 21.5902H44.0001C44.1101 21.5902 44.1901 21.5202 44.1101 21.4002L43.9001 20.8402ZM44.8001 22.7102C44.7734 22.6532 44.7309 22.6051 44.6778 22.5714C44.6246 22.5377 44.563 22.52 44.5001 22.5202H34.9001C34.7901 22.5202 34.7101 22.5902 34.7901 22.7102L35.0501 23.2702C35.0768 23.3272 35.1192 23.3753 35.1723 23.409C35.2255 23.4427 35.2871 23.4604 35.3501 23.4602H44.9101C45.0201 23.4602 45.1001 23.3902 45.0201 23.2702L44.8001 22.7102ZM45.6601 24.5502C45.6334 24.4932 45.5909 24.4451 45.5378 24.4114C45.4846 24.3777 45.423 24.36 45.3601 24.3602H35.8001C35.6901 24.3602 35.6101 24.4302 35.6901 24.5502L35.9501 25.1102C35.9768 25.1672 36.0192 25.2153 36.0723 25.249C36.1255 25.2827 36.1871 25.3004 36.2501 25.3002H45.8101C45.9201 25.3002 46.0001 25.2302 45.9201 25.1102L45.6601 24.5502Z" fill="white"/>
<path d="M42.9201 12.2901C42.9769 12.2855 43.0302 12.2609 43.0706 12.2206C43.1109 12.1803 43.1355 12.1269 43.1401 12.0701V11.5801C43.1355 11.5233 43.1109 11.4699 43.0706 11.4296C43.0302 11.3893 42.9769 11.3647 42.9201 11.3601H28.0701C28.0133 11.3647 27.9599 11.3893 27.9196 11.4296C27.8793 11.4699 27.8546 11.5233 27.8501 11.5801V12.0701C27.8546 12.1269 27.8793 12.1803 27.9196 12.2206C27.9599 12.2609 28.0133 12.2855 28.0701 12.2901H42.9201ZM36.5801 26.2301C36.4701 26.2301 36.3901 26.3001 36.4701 26.4201L42.4701 38.9401C42.4794 38.9615 42.4948 38.9797 42.5143 38.9925C42.5339 39.0053 42.5567 39.0121 42.5801 39.0121C42.6034 39.0121 42.6263 39.0053 42.6458 38.9925C42.6654 38.9797 42.6807 38.9615 42.6901 38.9401L48.2001 27.3201C48.2268 27.2631 48.2692 27.215 48.3223 27.1813C48.3755 27.1476 48.4372 27.1299 48.5001 27.1301H57.4201C57.4769 27.1255 57.5302 27.1009 57.5706 27.0606C57.6109 27.0203 57.6355 26.9669 57.6401 26.9101V26.4201C57.6355 26.3633 57.6109 26.3099 57.5706 26.2696C57.5302 26.2293 57.4769 26.2047 57.4201 26.2001L36.5801 26.2301ZM57.5001 11.3501H49.8601C49.8033 11.3547 49.7499 11.3793 49.7096 11.4196C49.6693 11.4599 49.6446 11.5133 49.6401 11.5701V12.0601C49.6446 12.1169 49.6693 12.1703 49.7096 12.2106C49.7499 12.2509 49.8033 12.2755 49.8601 12.2801H51.0001C51.3001 12.2801 52.9101 12.2801 52.2701 14.1901L47.1701 25.0601C47.1701 25.1701 47.1701 25.2501 47.2801 25.2501H49.0001C49.063 25.2503 49.1247 25.2326 49.1778 25.1989C49.231 25.1652 49.2734 25.1171 49.3001 25.0601L54.8101 13.5501C55.0052 13.1355 55.3183 12.7877 55.7101 12.5501C56.1552 12.3491 56.6426 12.2599 57.1301 12.2901H57.4701C57.5269 12.2855 57.5802 12.2609 57.6206 12.2206C57.6609 12.1803 57.6855 12.1269 57.6901 12.0701V11.5801C57.6943 11.5523 57.6926 11.5238 57.6851 11.4967C57.6776 11.4695 57.6645 11.4443 57.6466 11.4226C57.6286 11.4009 57.6063 11.3832 57.5811 11.3707C57.5558 11.3582 57.5282 11.3512 57.5001 11.3501Z" fill="white"/>
<path d="M55.3701 25.3001C55.8275 25.2902 56.2718 25.1453 56.6471 24.8836C57.0224 24.6218 57.3119 24.255 57.4793 23.8291C57.6466 23.4033 57.6843 22.9374 57.5876 22.4902C57.4908 22.043 57.264 21.6344 56.9357 21.3157C56.6073 20.9971 56.1921 20.7827 55.7422 20.6994C55.2923 20.6161 54.8278 20.6677 54.4072 20.8478C53.9865 21.0278 53.6285 21.3282 53.3781 21.7111C53.1278 22.0941 52.9962 22.5426 53.0001 23.0001C53.0106 23.619 53.2659 24.2085 53.7101 24.6395C54.1543 25.0706 54.7511 25.3081 55.3701 25.3001Z" fill="#ED1B34"/>
</svg>
