<svg width="200" height="50" viewBox="0 0 200 50" fill="none" xmlns="http://www.w3.org/2000/svg">
<path d="M79 9.73H55.15L56.88 5H80.7L79 9.73ZM78.15 12.08H54.3L52.58 16.8H76.4L78.15 12.08ZM75.57 19.13H51.73L50 23.85H73.8L75.57 19.13Z" fill="#009FDF"/>
<path d="M135.73 35.6501H140C140.61 35.7269 141.23 35.6501 141.803 35.4265C142.375 35.203 142.883 34.8399 143.28 34.3701C143.876 33.601 144.171 32.6411 144.11 31.6701C144.146 31.0518 144.03 30.434 143.772 29.8709C143.514 29.3078 143.122 28.8166 142.63 28.4401C141.831 27.9196 140.881 27.6803 139.93 27.7601H135.68V35.6401L135.73 35.6501ZM130.1 40.4001V12.0801H148.53L146.9 16.8301H135.73V23.1001H140.28C143.96 23.1001 145.86 23.9801 147.18 25.1001C148.123 25.9391 148.864 26.9799 149.349 28.1451C149.834 29.3104 150.05 30.57 149.98 31.8301C150.049 33.1815 149.781 34.5288 149.199 35.7508C148.618 36.9727 147.742 38.0309 146.65 38.8301C144.87 40.0601 143.02 40.4101 139.25 40.4101L130.1 40.4001ZM113.77 40.4001V16.8301H105.57V12.0801H128.32L126.69 16.8301H119.44V40.4301H113.76L113.77 40.4001ZM91.0702 23.4001H94.3002C94.9706 23.4559 95.6457 23.4054 96.3002 23.2501C96.9706 23.0335 97.548 22.5964 97.9384 22.0099C98.3288 21.4234 98.5092 20.7222 98.4502 20.0201C98.5421 19.3225 98.3736 18.6156 97.9769 18.0344C97.5803 17.4533 96.9833 17.0388 96.3002 16.8701C95.5964 16.7034 94.8727 16.6361 94.1502 16.6701H91.1502V23.4001H91.0702ZM91.0702 28.3001V35.7301H95.0002C96.0695 35.8469 97.143 35.5499 98.0002 34.9001C98.4029 34.5356 98.7202 34.0866 98.9293 33.5853C99.1385 33.084 99.2344 32.5427 99.2102 32.0001C99.2312 31.1301 98.9679 30.2769 98.4602 29.5701C97.6302 28.4901 96.5802 28.2901 94.8302 28.2901H91.0802L91.0702 28.3001ZM100.15 25.3V25.4001C101.115 25.7916 102.012 26.3316 102.81 27.0001C103.62 27.6702 104.259 28.5224 104.676 29.487C105.093 30.4516 105.276 31.5013 105.21 32.5501C105.21 36.43 103.16 39.2301 99.7802 40.0501C98.4303 40.3836 97.039 40.5184 95.6502 40.4501H85.4502V12.0801H94.5302C95.9748 12.0259 97.4204 12.1603 98.8302 12.4801C102.11 13.3601 104.26 15.6301 104.26 19.2101C104.288 20.0588 104.142 20.9043 103.833 21.6952C103.523 22.486 103.056 23.2055 102.46 23.8101C101.825 24.4549 101.067 24.965 100.23 25.3101H100.15V25.3Z" fill="#0A2973"/>
</svg>
