<svg width="200" height="50" viewBox="0 0 200 50" fill="none" xmlns="http://www.w3.org/2000/svg">
<path d="M73.0732 11.9918C75.4243 11.3276 77.8712 11.0341 80.3119 11.0032C82.3541 10.9846 84.4118 11.0371 86.4199 11.445C87.6218 11.6798 88.8452 12.1123 89.7103 13.0175C90.702 13.9444 90.9399 15.381 90.9183 16.6786C90.9029 17.9361 90.5136 19.2955 89.5002 20.1142C88.8947 20.5931 88.1903 20.9546 87.4333 21.1121C87.4271 21.1492 87.4179 21.2264 87.4117 21.2635C89.043 21.5786 90.7175 22.3418 91.6196 23.8031C92.3241 25.0358 92.4384 26.5126 92.3333 27.8998C92.2314 29.2685 91.6752 30.6433 90.6248 31.5547C89.6547 32.4136 88.3942 32.8462 87.1491 33.1273C85.592 33.4579 83.9978 33.5722 82.4097 33.6216C79.1843 33.773 75.9279 33.4764 72.8136 32.6083C73.0175 31.1222 73.3605 29.6547 73.6046 28.1748C73.9784 28.1933 74.3553 28.2211 74.723 28.3107C76.6447 28.7494 78.5972 29.148 80.5776 29.1171C81.625 29.1264 82.7002 29.0708 83.6981 28.7093C84.2789 28.4868 84.8968 28.0976 85.0482 27.4488C85.2459 26.6486 85.181 25.6939 84.5971 25.0605C84.0286 24.4241 83.1636 24.1831 82.3479 24.0626C80.3675 23.7598 78.3532 23.9329 76.3573 23.8711C76.3635 22.5982 76.379 21.3284 76.345 20.0586C78.0164 20.0493 79.6879 20.0926 81.3593 20.0153C82.1687 19.935 83.074 19.728 83.5745 19.0236C84.2974 18.0967 84.075 16.4129 82.9133 15.9433C82.2336 15.6066 81.452 15.5479 80.7043 15.5448C78.4613 15.5015 76.2616 16.002 74.0711 16.4191C73.7189 14.9454 73.4841 13.447 73.0732 11.9918ZM108.071 11.2596C111.757 11.2843 115.446 11.2689 119.132 11.2658C119.138 12.2297 119.126 13.1936 119.138 14.1576C116.395 14.1421 113.648 14.1483 110.905 14.1545C110.901 16.0793 110.895 18.0071 110.905 19.935C112.406 19.9381 113.908 19.9288 115.409 19.9381C116.867 19.9783 118.428 20.4108 119.382 21.5879C120.473 22.904 120.68 24.6836 120.689 26.3303C120.708 27.8566 120.612 29.46 119.911 30.8442C119.364 31.8699 118.403 32.6732 117.287 33.0099C116.512 33.2509 115.693 33.3189 114.887 33.3127C112.613 33.3127 110.339 33.3096 108.068 33.3127C108.081 25.9627 108.074 18.6127 108.071 11.2596ZM110.892 22.5704C110.901 25.2521 110.911 27.9307 110.889 30.6124C112.137 30.6372 113.382 30.6372 114.63 30.6217C115.511 30.5846 116.506 30.4363 117.099 29.7103C117.837 28.8545 117.905 27.6619 117.912 26.5868C117.918 25.4838 117.8 24.2604 117.022 23.4076C116.358 22.7372 115.387 22.5827 114.485 22.5827C113.29 22.5735 112.091 22.592 110.892 22.5704ZM153.287 11.2627C154.211 11.2812 155.137 11.2781 156.064 11.2596C156.111 16.4562 156.074 21.6559 156.086 26.8525C156.074 29.009 156.111 31.1624 156.067 33.3158C155.144 33.3127 154.217 33.3065 153.293 33.3189C153.253 29.7844 153.277 26.2469 153.281 22.7125C150.231 22.7125 147.179 22.7187 144.129 22.7094C144.154 26.0059 144.129 29.3056 144.145 32.6021C144.145 32.8462 144.098 33.0872 144.061 33.3281C143.144 33.3034 142.226 33.3281 141.309 33.3127C141.315 25.9689 141.29 18.622 141.321 11.2781C142.254 11.275 143.19 11.275 144.123 11.2812C144.166 14.241 144.108 17.2008 144.154 20.1575C147.2 20.1451 150.244 20.1575 153.29 20.1544C153.259 17.1853 153.265 14.2225 153.287 11.2627ZM160.217 11.2627C161.147 11.275 162.08 11.2812 163.01 11.2627C163.108 14.5129 162.966 17.7692 163.081 21.0194C163.597 20.831 163.847 20.3181 164.184 19.9226C165.969 17.6673 167.786 15.4366 169.569 13.1751C170.094 12.5541 170.545 11.8651 171.132 11.2998C172.226 11.2318 173.325 11.2967 174.422 11.2843C173.761 12.3224 172.893 13.2029 172.127 14.1638C171.014 15.4459 169.983 16.7991 168.864 18.0751C167.974 19.1997 166.998 20.2563 166.124 21.3933C167.103 22.7279 168.039 24.0966 168.997 25.4467C170.523 27.4889 171.929 29.6176 173.446 31.6691C173.829 32.2128 174.175 32.7844 174.626 33.2787C173.523 33.3281 172.414 33.3281 171.314 33.2911C170.727 32.5681 170.236 31.771 169.683 31.0233C167.869 28.4467 166.019 25.8916 164.214 23.3057C163.946 22.9288 163.686 22.5457 163.393 22.1842C163.309 22.1811 163.142 22.178 163.062 22.1749C163.01 24.6867 163.056 27.2016 163.04 29.7165C163.022 30.9152 163.09 32.117 162.991 33.3158C162.07 33.2972 161.15 33.3127 160.229 33.3065C160.201 25.9627 160.22 18.6127 160.217 11.2627ZM25.3769 11.2905C29.2512 11.2967 33.1255 11.2936 36.9998 11.2905C38.6712 11.3183 40.4322 11.4481 41.909 12.3069C43.1016 12.9897 43.8771 14.2781 44.0346 15.6313C44.22 17.037 44.1335 18.6096 43.2313 19.7713C42.7339 20.4942 41.9461 20.9515 41.1397 21.2481C41.8843 21.5076 42.6536 21.7609 43.2715 22.2676C44.5104 23.2068 45.0511 24.8165 45.0511 26.3273C45.1345 27.8411 44.9584 29.4353 44.1891 30.7669C43.4538 32.012 42.0666 32.7164 40.6948 33.0161C39.6166 33.2849 38.4951 33.3281 37.3859 33.322C33.3974 33.3312 29.4088 33.3158 25.4202 33.3312C25.4047 33.0408 25.3862 32.7535 25.38 32.4662C25.3769 25.4066 25.3955 18.347 25.3769 11.2905ZM32.3037 15.3378C32.3037 16.8702 32.2975 18.4026 32.3067 19.935C33.3541 19.9196 34.4045 19.9628 35.4488 19.9165C36.5116 19.8794 37.3581 18.8815 37.4168 17.8557C37.4508 17.1761 37.3581 16.4098 36.8576 15.9032C36.4189 15.4675 35.7763 15.3285 35.1769 15.3316C34.2223 15.3347 33.2645 15.3347 32.3037 15.3378ZM32.3067 23.973C32.3006 25.7526 32.2975 27.5353 32.3098 29.3148C33.3108 29.3087 34.3119 29.3179 35.3129 29.3117C35.8165 29.2932 36.3355 29.3025 36.8082 29.1078C38.4024 28.5826 38.8473 26.3242 37.8988 25.0513C37.3983 24.2882 36.4498 23.9576 35.5693 23.9607C34.4818 23.9792 33.3943 23.9607 32.3067 23.973ZM46.8245 11.2967C49.5649 11.2812 52.3022 11.3059 55.0457 11.2843C56.6461 15.4305 58.0951 19.6353 59.6275 23.8093C59.6831 23.8062 59.7974 23.7969 59.853 23.7907C61.058 19.6137 62.4606 15.4953 63.6655 11.3214C66.1186 11.2534 68.5748 11.309 71.031 11.2936C70.8672 12.0907 70.4934 12.8198 70.2061 13.5737C68.3678 18.3532 66.5048 23.1203 64.6604 27.8936C63.888 29.942 62.2598 31.6227 60.2825 32.5403C58.8891 33.2293 57.3382 33.5537 55.7934 33.6402C53.0653 33.7082 50.3404 33.3776 47.6679 32.8523C48.1128 31.4034 48.5453 29.9482 48.8697 28.4683C50.2044 28.7649 51.5422 29.1418 52.9232 29.1356C54.0849 29.1542 55.3207 29.1542 56.3711 28.5919C56.884 28.3416 57.2146 27.8597 57.5606 27.4271C55.9664 27.2665 54.3753 26.6486 53.2383 25.49C52.466 24.7269 52.1477 23.661 51.7214 22.694C50.2291 19.2955 48.7616 15.8908 47.291 12.4861C47.1118 12.0969 46.9419 11.7076 46.8245 11.2967ZM128.916 11.2596C130.023 11.2967 131.132 11.2411 132.241 11.2936C132.287 11.3214 132.377 11.3801 132.423 11.411C133.85 16.5736 135.343 21.7238 136.764 26.8895C137.419 29.0182 137.956 31.1778 138.596 33.3096C137.598 33.3096 136.6 33.3096 135.599 33.3127C135.173 31.5795 134.66 29.8709 134.234 28.1377C134.159 27.8597 134.107 27.5692 133.943 27.3283C131.703 27.3097 129.466 27.3406 127.227 27.3159C126.599 29.287 126.13 31.3045 125.601 33.3034C124.607 33.3158 123.612 33.3189 122.617 33.3034C123.942 28.6197 125.265 23.9329 126.602 19.2522C127.378 16.589 128.085 13.9042 128.916 11.2596ZM130.044 16.5025C129.281 19.2337 128.487 21.9587 127.758 24.6991C129.667 24.7423 131.573 24.6898 133.483 24.7238C132.485 21.3068 131.638 17.8465 130.665 14.4202C130.396 15.0937 130.226 15.8012 130.044 16.5025ZM98.3826 19.6539C99.121 19.4221 99.9521 19.453 100.653 19.7867C101.67 20.247 102.424 21.282 102.476 22.4066C102.516 23.4169 102.118 24.489 101.29 25.1038C100.484 25.7495 99.3466 25.9163 98.3703 25.6167C97.2704 25.2459 96.3744 24.2418 96.2385 23.0771C96.0068 21.6126 96.9645 20.0833 98.3826 19.6539ZM25 37.0634C30.2182 36.9954 35.4364 37.0541 40.6547 37.0356H164.721C168.147 37.0541 171.574 36.9923 175 37.0665C174.92 37.8605 174.957 38.6576 174.957 39.4547C162.935 39.4794 150.911 39.4578 138.89 39.464C100.925 39.4547 62.9642 39.4732 25 39.4547V37.0634Z" fill="#067941"/>
</svg>
