<svg width="40" height="40" viewBox="0 0 40 40" fill="none" xmlns="http://www.w3.org/2000/svg">
<g clip-path="url(#clip0_30_544)">
<path d="M29.6572 13.5358C29.6572 9.84113 26.8089 6.79968 23.193 6.49069V5.09312H24.525C24.8604 5.09312 25.1322 4.82121 25.1322 4.48583C25.1322 4.15045 24.8604 3.87854 24.525 3.87854H24.4858V1.90283C24.4858 0.853603 23.6322 0 22.5829 0H17.4169C16.3677 0 15.5141 0.853603 15.5141 1.90283V3.87854H15.475C15.1395 3.87854 14.8677 4.15045 14.8677 4.48583C14.8677 4.82121 15.1395 5.09312 15.475 5.09312H16.807V6.49061C13.191 6.79968 10.3428 9.84105 10.3428 13.5357V14.1821C10.3428 14.4189 10.41 14.6398 10.5246 14.829C10.4101 15.0183 10.3428 15.2394 10.3428 15.4763V23.2308C10.3428 23.5622 10.4728 23.8632 10.6834 24.0877C10.469 24.3953 10.3428 24.7688 10.3428 25.1714V26.4643C10.3428 26.9632 10.5361 27.4177 10.8516 27.7571C10.5361 28.0964 10.3428 28.5511 10.3428 29.05V30.3428C10.3428 30.8417 10.5361 31.2963 10.8516 31.6357C10.5361 31.9751 10.3428 32.4297 10.3428 32.9285V34.2214C10.3428 34.7202 10.5361 35.1748 10.8516 35.5143C10.5361 35.8536 10.3428 36.3083 10.3428 36.807C10.3428 38.5677 11.7751 40.0001 13.5358 40.0001H26.4642C28.2249 40.0001 29.6573 38.5677 29.6573 36.807C29.6573 36.3082 29.464 35.8536 29.1484 35.5143C29.4641 35.1749 29.6573 34.7202 29.6573 34.2214V32.9285C29.6573 32.4296 29.464 31.9751 29.1484 31.6357C29.4641 31.2964 29.6573 30.8417 29.6573 30.3428V29.05C29.6573 28.5511 29.464 28.0965 29.1484 27.7571C29.4641 27.4177 29.6573 26.9632 29.6573 26.4643V25.1714C29.6573 24.7688 29.531 24.3954 29.3166 24.0877C29.5272 23.8632 29.6573 23.5622 29.6573 23.2308V15.4764C29.6573 15.2394 29.5901 15.0184 29.4754 14.8291C29.59 14.6399 29.6573 14.419 29.6573 14.1822V13.5358H29.6572ZM16.7287 1.90283C16.7287 1.52332 17.0375 1.21457 17.4169 1.21457H22.5829C22.9624 1.21457 23.2712 1.52332 23.2712 1.90283V3.87854H16.7287V1.90283ZM21.9784 5.09312V6.46429H18.0216V5.09312H21.9784ZM28.4426 26.4643C28.4426 26.8423 28.1351 27.1498 27.757 27.1498C27.4216 27.1498 27.1497 27.4217 27.1497 27.7571C27.1497 28.0925 27.4216 28.3644 27.757 28.3644C28.1351 28.3644 28.4426 28.6719 28.4426 29.05V30.3428C28.4426 30.7208 28.1351 31.0284 27.757 31.0284H14.8286C14.4931 31.0284 14.2213 31.3003 14.2213 31.6357C14.2213 31.9711 14.4931 32.243 14.8286 32.243H27.757C28.1351 32.243 28.4426 32.5505 28.4426 32.9285V34.2214C28.4426 34.5994 28.1351 34.907 27.757 34.907C27.4216 34.907 27.1497 35.1789 27.1497 35.5143C27.1497 35.8496 27.4216 36.1215 27.757 36.1215C28.1351 36.1215 28.4426 36.4291 28.4426 36.807C28.4426 37.898 27.5551 38.7855 26.4642 38.7855H13.5357C12.4448 38.7855 11.5573 37.898 11.5573 36.807C11.5573 36.4291 11.8648 36.1215 12.2429 36.1215H25.1713C25.5067 36.1215 25.7786 35.8496 25.7786 35.5143C25.7786 35.1789 25.5067 34.907 25.1713 34.907H12.2429C11.8648 34.907 11.5573 34.5994 11.5573 34.2214V32.9285C11.5573 32.5504 11.8648 32.243 12.2429 32.243C12.5783 32.243 12.8501 31.9711 12.8501 31.6357C12.8501 31.3003 12.5783 31.0284 12.2429 31.0284C11.8648 31.0284 11.5573 30.7209 11.5573 30.3428V29.05C11.5573 28.6719 11.8648 28.3644 12.2429 28.3644H25.1713C25.5067 28.3644 25.7786 28.0925 25.7786 27.7571C25.7786 27.4217 25.5067 27.1498 25.1713 27.1498H12.2429C11.8648 27.1498 11.5573 26.8423 11.5573 26.4643V25.1714C11.5573 24.7934 11.8648 24.4858 12.2429 24.4858H15.9741C16.3096 24.4858 16.5814 24.2139 16.5814 23.8785C16.5814 23.5432 16.3096 23.2713 15.9741 23.2713H11.5978C11.5755 23.2713 11.5573 23.2531 11.5573 23.2308V21.9002H13.5357C13.8712 21.9002 14.143 21.6283 14.143 21.2929C14.143 20.9575 13.8712 20.6856 13.5357 20.6856H11.5573V15.4764C11.5573 15.4541 11.5755 15.436 11.5978 15.436H23.9568C24.2922 15.436 24.5641 15.164 24.5641 14.8287C24.5641 14.4933 24.2922 14.2214 23.9568 14.2214H11.5978C11.5975 14.2214 11.5973 14.2214 11.5971 14.2214C11.5969 14.2214 11.5967 14.2214 11.5965 14.2214C11.5748 14.2214 11.5573 14.2038 11.5573 14.1823V13.5359C11.5573 10.3063 14.1847 7.67895 17.4143 7.67895H22.5857C25.8152 7.67895 28.4426 10.3063 28.4426 13.5359V14.1823C28.4426 14.2039 28.425 14.2214 28.4035 14.2214C28.4033 14.2214 28.4031 14.2214 28.4029 14.2214C28.4026 14.2214 28.4025 14.2214 28.4022 14.2214H26.3861C26.0506 14.2214 25.7788 14.4933 25.7788 14.8287C25.7788 15.164 26.0506 15.436 26.3861 15.436H28.4022C28.4245 15.436 28.4427 15.4541 28.4427 15.4764V20.6856H26.4642C26.1288 20.6856 25.8569 20.9575 25.8569 21.2929C25.8569 21.6283 26.1288 21.9002 26.4642 21.9002H28.4427V23.2308C28.4427 23.2531 28.4245 23.2713 28.4022 23.2713H18.4033C18.0678 23.2713 17.796 23.5432 17.796 23.8785C17.796 24.2139 18.0678 24.4858 18.4033 24.4858H27.757C28.1351 24.4858 28.4426 24.7934 28.4426 25.1714V26.4643Z" fill="url(#paint0_linear_30_544)"/>
<path d="M21.9379 20.6073C22.63 20.6073 23.193 20.0443 23.193 19.3522V18.0621C23.193 17.37 22.63 16.807 21.9379 16.807H18.0621C17.37 16.807 16.807 17.37 16.807 18.0621V19.3522C16.807 20.0443 17.37 20.6073 18.0621 20.6073H21.9379ZM18.0215 19.3522V18.0621C18.0215 18.0397 18.0397 18.0216 18.062 18.0216H21.9378C21.9601 18.0216 21.9783 18.0397 21.9783 18.0621V19.3522C21.9783 19.3745 21.9601 19.3927 21.9378 19.3927H18.062C18.0397 19.3927 18.0215 19.3745 18.0215 19.3522Z" fill="url(#paint1_linear_30_544)"/>
</g>
<defs>
<linearGradient id="paint0_linear_30_544" x1="20" y1="0" x2="20" y2="40.0001" gradientUnits="userSpaceOnUse">
<stop stop-color="#68D7F0"/>
<stop offset="0.5" stop-color="#2DA5D3"/>
<stop offset="1" stop-color="#057BA9"/>
</linearGradient>
<linearGradient id="paint1_linear_30_544" x1="20" y1="16.807" x2="20" y2="20.6073" gradientUnits="userSpaceOnUse">
<stop stop-color="#68D7F0"/>
<stop offset="0.5" stop-color="#2DA5D3"/>
<stop offset="1" stop-color="#057BA9"/>
</linearGradient>
<clipPath id="clip0_30_544">
<rect width="40" height="40" fill="white"/>
</clipPath>
</defs>
</svg>
