<svg width="40" height="40" viewBox="0 0 40 40" fill="none" xmlns="http://www.w3.org/2000/svg">
<path fill-rule="evenodd" clip-rule="evenodd" d="M28.5938 17.4413V15.1954C28.5938 13.1131 28.34 12.0693 26.9142 10.3582L24.6876 7.68606V5.25732C25.1538 4.9867 25.4688 4.48311 25.4688 3.90639V1.56234C25.4688 0.700857 24.768 0 23.9064 0H16.0936C15.2322 0 14.5313 0.700857 14.5313 1.56234V3.90639C14.5313 4.48311 14.8463 4.98662 15.3125 5.25732V7.68606L13.0859 10.3582C11.6601 12.0693 11.4063 13.1132 11.4063 15.1954V17.4413C11.4063 18.6894 11.6685 19.7046 11.922 20.6864C12.159 21.6041 12.3829 22.4709 12.3829 23.496C12.3829 25.4635 12.2022 26.9096 11.9929 28.584C11.718 30.7843 11.4063 33.2781 11.4063 37.6562C11.4063 38.9485 12.4577 39.9999 13.7501 39.9999H26.25C27.5424 39.9999 28.5938 38.9485 28.5938 37.6562C28.5938 33.2781 28.2821 30.7843 28.0071 28.584C27.7979 26.9095 27.6172 25.4635 27.6172 23.496C27.6172 22.4708 27.841 21.6041 28.078 20.6864C28.3316 19.7046 28.5938 18.6894 28.5938 17.4413ZM13.4349 20.2957C13.1952 19.3676 12.9688 18.4909 12.9688 17.4413V15.9767H27.0313V17.4413C27.0313 18.4909 26.8049 19.3676 26.5652 20.2957C26.3142 21.2675 26.0547 22.2724 26.0547 23.496C26.0547 25.4154 26.2234 26.9009 26.4133 28.4295H13.5868C13.7766 26.9008 13.9454 25.4154 13.9454 23.496C13.9454 22.2724 13.6858 21.2676 13.4349 20.2957ZM23.9063 1.56234L23.9064 3.90623L16.0938 3.90639L16.0935 1.56249L23.9063 1.56234ZM14.2863 11.3583L16.6939 8.46895C16.8109 8.32856 16.8749 8.15161 16.8749 7.96887V5.46873H23.1251V7.96887C23.1251 8.15161 23.1892 8.32856 23.3061 8.46895L25.7137 11.3583C26.6907 12.5308 26.956 13.1699 27.0158 14.4142H12.9842C13.044 13.1699 13.3093 12.5308 14.2863 11.3583ZM26.25 38.4375H13.7501C13.3193 38.4375 12.9688 38.087 12.9688 37.6563C12.9688 34.1542 13.1731 31.8826 13.3949 29.9921H26.6052C26.827 31.8826 27.0313 34.1542 27.0313 37.6563C27.0313 38.087 26.6808 38.4375 26.25 38.4375Z" fill="url(#paint0_linear_30_602)"/>
<path fill-rule="evenodd" clip-rule="evenodd" d="M20.0001 24.6771C21.0706 24.6812 21.9532 23.7663 21.9532 22.6975C21.9532 21.4068 20.4591 19.7292 20.0001 19.7292C19.541 19.7292 18.0469 21.4068 18.0469 22.6975C18.0469 23.7663 18.9295 24.6813 20.0001 24.6771Z" fill="url(#paint1_linear_30_602)"/>
<defs>
<linearGradient id="paint0_linear_30_602" x1="20" y1="0" x2="20" y2="39.9999" gradientUnits="userSpaceOnUse">
<stop stop-color="#68D7F0"/>
<stop offset="0.5" stop-color="#2DA5D3"/>
<stop offset="1" stop-color="#057BA9"/>
</linearGradient>
<linearGradient id="paint1_linear_30_602" x1="20.0001" y1="19.7292" x2="20.0001" y2="24.6772" gradientUnits="userSpaceOnUse">
<stop stop-color="#68D7F0"/>
<stop offset="0.5" stop-color="#2DA5D3"/>
<stop offset="1" stop-color="#057BA9"/>
</linearGradient>
</defs>
</svg>
