<svg width="60" height="60" viewBox="0 0 60 60" fill="none" xmlns="http://www.w3.org/2000/svg">
<g clip-path="url(#clip0_123_1579)">
<path d="M59.3234 48.1381C58.3971 47.4943 57.5819 46.7038 56.9098 45.7978C55.3008 43.9694 53.253 41.7021 49.4498 41.7021C45.6468 41.7021 43.6721 43.8962 41.9899 45.871C40.3078 47.8457 39.2107 49.0158 36.7241 49.0158C34.2374 49.0158 32.9941 47.6262 31.4582 45.871C29.9224 44.1157 27.8745 41.7021 23.9983 41.7021C20.122 41.7021 18.2205 43.8962 16.5383 45.871C14.8562 47.8457 13.7591 49.0158 11.2725 49.0158C8.78587 49.0158 7.54249 47.6262 6.00668 45.871C4.96265 44.4921 3.64242 43.3463 2.1304 42.5067C1.4033 42.1431 0.519276 42.4378 0.155726 43.1649C-0.207824 43.892 0.0868517 44.776 0.813951 45.1396C1.96228 45.8317 2.97775 46.7234 3.8125 47.7725C5.4946 49.7471 7.46928 51.9413 11.2725 51.9413C15.0757 51.9413 17.0502 49.7473 18.7325 47.7725C20.4146 45.7978 21.5117 44.6276 23.9983 44.6276C26.4849 44.6276 27.7283 46.0173 29.2641 47.7725C30.7999 49.5278 32.8478 51.9413 36.7241 51.9413C40.6003 51.9413 42.5018 49.7473 44.184 47.7725C45.8661 45.7978 46.9632 44.6276 49.4498 44.6276C51.9364 44.6276 53.1798 46.0173 54.7156 47.7725C55.568 48.8669 56.5786 49.8282 57.7142 50.6247C58.4008 51.0691 59.3178 50.8726 59.7621 50.1859C60.2065 49.4992 60.0101 48.5824 59.3234 48.1381Z" fill="url(#paint0_linear_123_1579)"/>
<path d="M59.3234 37.1674C58.3971 36.5236 57.5819 35.7331 56.9098 34.8271C55.3008 32.9987 53.253 30.7314 49.4498 30.7314C45.6468 30.7314 43.6721 32.9255 41.9899 34.9003C40.3078 36.875 39.2107 38.0451 36.7241 38.0451C34.2374 38.0451 32.9941 36.6555 31.4582 34.9003C29.9224 33.145 27.8745 30.7314 23.9983 30.7314C20.122 30.7314 18.2205 32.9255 16.5383 34.9003C14.8562 36.875 13.7591 38.0451 11.2725 38.0451C8.78587 38.0451 7.54249 36.6555 6.00668 34.9003C4.96265 33.5214 3.64242 32.3756 2.1304 31.536C1.4033 31.1724 0.519276 31.4671 0.155726 32.1942C-0.207824 32.9213 0.0868517 33.8053 0.813951 34.1689C1.96228 34.861 2.97775 35.7527 3.8125 36.8018C5.4946 38.7764 7.46928 40.9706 11.2725 40.9706C15.0757 40.9706 17.0502 38.7766 18.7325 36.8018C20.4146 34.8271 21.5117 33.6569 23.9983 33.6569C26.4849 33.6569 27.7283 35.0466 29.2641 36.8018C30.7999 38.5571 32.8478 40.9706 36.7241 40.9706C40.6003 40.9706 42.5018 38.7766 44.184 36.8018C45.8661 34.8271 46.9632 33.6569 49.4498 33.6569C51.9364 33.6569 53.1798 35.0466 54.7156 36.8018C55.568 37.8962 56.5786 38.8575 57.7142 39.654C58.4008 40.0984 59.3178 39.902 59.7621 39.2152C60.2065 38.5287 60.0101 37.6117 59.3234 37.1674Z" fill="url(#paint1_linear_123_1579)"/>
<path d="M59.3234 25.4653C58.3971 24.8215 57.5819 24.0309 56.9098 23.1249C55.3008 21.2965 53.253 19.0293 49.4498 19.0293C45.6468 19.0293 43.6721 21.2233 41.9899 23.1982C40.3076 25.173 39.2107 26.343 36.7241 26.343C34.2374 26.343 32.9941 24.9533 31.4582 23.1982C29.9224 21.443 27.8745 19.0293 23.9983 19.0293C20.122 19.0293 18.2205 21.2233 16.5383 23.1982C14.8562 25.1728 13.7591 26.343 11.2725 26.343C8.78587 26.343 7.54249 24.9533 6.00668 23.1982C4.96265 21.8193 3.64242 20.6735 2.1304 19.8338C1.4033 19.4703 0.519276 19.7649 0.155726 20.492C-0.207824 21.2191 0.0868517 22.1032 0.813951 22.4667C1.96228 23.1588 2.97775 24.0505 3.8125 25.0996C5.4946 27.0743 7.46928 29.2685 11.2725 29.2685C15.0757 29.2685 17.0502 27.0744 18.7325 25.0996C20.4146 23.1249 21.5117 21.9548 23.9983 21.9548C26.4849 21.9548 27.7283 23.3444 29.2641 25.0996C30.7999 26.8548 32.8478 29.2685 36.7241 29.2685C40.6003 29.2685 42.5018 27.0744 44.184 25.0996C45.8663 23.1248 46.9632 21.9548 49.4498 21.9548C51.9364 21.9548 53.1798 23.3444 54.7156 25.0996C55.568 26.194 56.5786 27.1553 57.7142 27.9519C58.4008 28.3962 59.3178 28.1998 59.7621 27.513C60.2065 26.8265 60.0101 25.9096 59.3234 25.4653Z" fill="url(#paint2_linear_123_1579)"/>
<path d="M0.813926 11.4965C1.96225 12.1886 2.97773 13.0803 3.81248 14.1294C5.49458 16.1041 7.46925 18.2983 11.2725 18.2983C15.0757 18.2983 17.0502 16.1042 18.7324 14.1294C20.4145 12.1547 21.5116 10.9846 23.9982 10.9846C26.4849 10.9846 27.7282 12.3742 29.264 14.1294C30.7999 15.8847 32.8477 18.2983 36.724 18.2983C40.6003 18.2983 42.5018 16.1042 44.184 14.1294C45.8661 12.1547 46.9632 10.9846 49.4498 10.9846C51.9364 10.9846 53.1798 12.3742 54.7156 14.1294C55.568 15.2238 56.5786 16.1851 57.7142 16.9818C58.4008 17.4261 59.3177 17.2296 59.7621 16.5429C60.2064 15.8563 60.01 14.9394 59.3232 14.495C58.3969 13.8512 57.5817 13.0607 56.9096 12.1547C55.3006 10.3263 53.2529 8.05908 49.4497 8.05908C45.6466 8.05908 43.6719 10.2531 41.9897 12.2279C40.3076 14.2026 39.2105 15.3728 36.7239 15.3728C34.2373 15.3728 32.9939 13.9831 31.4581 12.2279C29.9223 10.4726 27.8744 8.05908 23.9981 8.05908C20.1218 8.05908 18.2204 10.2531 16.5381 12.2279C14.856 14.2026 13.7589 15.3728 11.2723 15.3728C8.7857 15.3728 7.54261 13.9831 6.00666 12.2278C4.96262 10.8489 3.64239 9.70311 2.13038 8.86346C1.40328 8.49991 0.519251 8.79458 0.155701 9.52168C-0.207849 10.2488 0.0869665 11.1329 0.813926 11.4965Z" fill="url(#paint3_linear_123_1579)"/>
</g>
<defs>
<linearGradient id="paint0_linear_123_1579" x1="30" y1="41.7021" x2="30" y2="51.9413" gradientUnits="userSpaceOnUse">
<stop stop-color="#00A5C2"/>
<stop offset="1" stop-color="#00B2D0"/>
</linearGradient>
<linearGradient id="paint1_linear_123_1579" x1="30" y1="30.7314" x2="30" y2="40.9706" gradientUnits="userSpaceOnUse">
<stop stop-color="#00A5C2"/>
<stop offset="1" stop-color="#00B2D0"/>
</linearGradient>
<linearGradient id="paint2_linear_123_1579" x1="30" y1="19.0293" x2="30" y2="29.2685" gradientUnits="userSpaceOnUse">
<stop stop-color="#00A5C2"/>
<stop offset="1" stop-color="#00B2D0"/>
</linearGradient>
<linearGradient id="paint3_linear_123_1579" x1="29.9999" y1="8.05908" x2="29.9999" y2="18.2983" gradientUnits="userSpaceOnUse">
<stop stop-color="#00A5C2"/>
<stop offset="1" stop-color="#00B2D0"/>
</linearGradient>
<clipPath id="clip0_123_1579">
<rect width="60" height="60" fill="white"/>
</clipPath>
</defs>
</svg>
