<svg width="60" height="60" viewBox="0 0 60 60" fill="none" xmlns="http://www.w3.org/2000/svg">
<g clip-path="url(#clip0_123_1511)">
<path d="M42.5669 22.1166C42.5633 22.1118 42.5598 22.1071 42.5562 22.1026L30.9786 7.19475C30.7571 6.90963 30.4167 6.74252 30.0559 6.7417C30.0549 6.7417 30.054 6.7417 30.0532 6.7417C29.6933 6.7417 29.3532 6.90717 29.1311 7.19053L17.5026 22.0202C17.4817 22.0468 17.4622 22.0741 17.4439 22.1021C15.1136 24.972 13.832 28.5836 13.832 32.2884C13.832 41.2034 21.0849 48.4564 30 48.4564C38.915 48.4564 46.1679 41.2034 46.1679 32.2884C46.1679 28.5933 44.8895 24.983 42.5669 22.1166ZM29.9998 46.1128C22.377 46.1128 16.1754 39.9111 16.1754 32.2883C16.1754 29.0818 17.2981 25.957 19.3366 23.4895C19.37 23.449 19.4003 23.4067 19.4275 23.363L30.0487 9.81811L40.6781 23.5048C40.6919 23.5242 40.7063 23.5429 40.7215 23.5614C42.7224 26.0166 43.8244 29.1159 43.8244 32.2883C43.8244 39.9111 37.6227 46.1128 29.9998 46.1128Z" fill="url(#paint0_linear_123_1511)"/>
<path d="M40.5421 33.3129C39.9122 33.1641 39.2812 33.5545 39.1327 34.1844C38.4652 37.016 36.4561 39.3688 33.7589 40.4783C33.1606 40.7245 32.8749 41.4092 33.1212 42.0077C33.3074 42.4604 33.7443 42.7339 34.2053 42.7339C34.3538 42.7339 34.5048 42.7056 34.6507 42.6456C38.0451 41.2493 40.5734 38.2872 41.414 34.7222C41.5622 34.0923 41.1719 33.4613 40.5421 33.3129Z" fill="url(#paint1_linear_123_1511)"/>
<path d="M40.5458 28.5596C39.8988 28.5596 39.374 29.0842 39.374 29.7313V29.7551C39.374 30.4022 39.8988 30.9269 40.5458 30.9269C41.1928 30.9269 41.7175 30.4022 41.7175 29.7551V29.7313C41.7175 29.0842 41.1928 28.5596 40.5458 28.5596Z" fill="url(#paint2_linear_123_1511)"/>
<path d="M44.3795 3.85985L42.7418 1.02308C42.4183 0.462692 41.702 0.270621 41.1412 0.594176C40.6623 0.870622 40.4539 1.43359 40.6045 1.94137C35.0073 -0.172466 28.8679 -0.57231 22.9968 0.838747C15.9438 2.53398 9.74927 6.72099 5.55466 12.6288C1.40082 18.4791 -0.526099 25.6159 0.129449 32.7241C0.185465 33.332 0.696169 33.7884 1.29488 33.7883C1.33097 33.7883 1.3673 33.7867 1.40387 33.7833C2.04828 33.7239 2.52254 33.1534 2.46313 32.5089C1.21203 18.9423 10.275 6.30673 23.5443 3.11746C29.3274 1.72762 35.3925 2.2443 40.8285 4.557L39.9423 5.06876C39.3818 5.39243 39.1899 6.10891 39.5134 6.66942C39.7306 7.04536 40.1243 7.25536 40.5293 7.25536C40.7281 7.25536 40.9296 7.20474 41.1141 7.09821L43.9507 5.4604C44.5111 5.13696 44.7032 4.42024 44.3795 3.85985Z" fill="url(#paint3_linear_123_1511)"/>
<path d="M59.7326 26.0322C59.6465 25.3908 59.0564 24.9404 58.4153 25.0267C57.7739 25.1129 57.3238 25.7025 57.4099 26.344C59.2229 39.8471 50.6923 52.8479 37.5665 56.5851C31.9463 58.1854 26.116 57.9868 20.6553 56.0188L21.7633 55.3162C22.3099 54.9696 22.4718 54.2457 22.1254 53.6991C21.7789 53.1526 21.055 52.9906 20.5082 53.337L17.7421 55.0911C17.1959 55.4375 17.0337 56.1608 17.3795 56.7073L19.116 59.4508C19.339 59.8032 19.7188 59.9961 20.1072 59.9961C20.3214 59.9961 20.5383 59.9374 20.7327 59.8142C21.1246 59.5663 21.3177 59.1243 21.2692 58.6925C24.1099 59.5624 27.029 60.0004 29.9607 60.0004C32.7179 60.0004 35.4862 59.6141 38.2084 58.839C45.185 56.8527 51.2003 52.4121 55.1461 46.3353C59.0537 40.3176 60.6826 33.107 59.7326 26.0322Z" fill="url(#paint4_linear_123_1511)"/>
<path d="M15.8435 43.9448C15.842 43.9428 15.8407 43.9409 15.8392 43.9389L9.86861 36.0857C9.64748 35.795 9.30377 35.624 8.93849 35.623C8.93756 35.623 8.93662 35.623 8.9358 35.623C8.5717 35.623 8.2281 35.7924 8.00627 36.0814L2.0093 43.8933C1.99536 43.9116 1.982 43.93 1.96922 43.9489C0.700431 45.5545 0.00292969 47.5694 0.00292969 49.6352C0.00292969 54.6372 3.99798 58.7067 8.90826 58.7067C13.8185 58.7067 17.8136 54.6371 17.8136 49.6352C17.8136 47.5696 17.1142 45.5503 15.8435 43.9448ZM8.90826 56.3632C5.28997 56.3632 2.34645 53.345 2.34645 49.6352C2.34645 48.0701 2.882 46.5461 3.85454 45.3439C3.8802 45.3121 3.90411 45.2792 3.92602 45.2453L8.93134 38.7251L13.9535 45.3309C13.9653 45.3472 13.9773 45.3632 13.99 45.3789C14.9445 46.5753 15.4703 48.0869 15.4703 49.6352C15.4701 53.345 12.5265 56.3632 8.90826 56.3632Z" fill="url(#paint5_linear_123_1511)"/>
<path d="M12.7749 48.4634C12.1279 48.4634 11.6032 48.988 11.6032 49.6351C11.6032 51.167 10.3943 52.4133 8.90809 52.4133C8.26109 52.4133 7.73633 52.938 7.73633 53.5851C7.73633 54.2322 8.26109 54.7568 8.90809 54.7568C11.6864 54.7568 13.9467 52.4592 13.9467 49.6351C13.9467 48.988 13.422 48.4634 12.7749 48.4634Z" fill="url(#paint6_linear_123_1511)"/>
<path d="M58.0267 8.32162C58.0251 8.31963 58.0238 8.31775 58.0223 8.31576L52.0517 0.462657C51.8306 0.171914 51.4868 0.000937502 51.1216 0C51.1207 0 51.1197 0 51.1189 0C50.7548 0 50.4113 0.169336 50.1894 0.458321L44.1924 8.27029C44.1786 8.28822 44.1655 8.30662 44.1527 8.32525C42.8837 9.93084 42.186 11.946 42.186 14.012C42.186 19.0141 46.1811 23.0835 51.0914 23.0835C56.0018 23.0835 59.9967 19.0139 59.9967 14.012C59.9967 11.9465 59.2972 9.92709 58.0267 8.32162ZM51.0914 20.74C47.4731 20.74 44.5296 17.7218 44.5296 14.012C44.5296 12.447 45.0652 10.9231 46.0375 9.72072C46.0631 9.68908 46.0867 9.6565 46.1085 9.62287L51.1145 3.10196L56.1367 9.70771C56.1484 9.724 56.1604 9.74006 56.1731 9.75576C57.1276 10.9521 57.6534 12.4637 57.6534 14.012C57.6532 17.7219 54.7095 20.74 51.0914 20.74Z" fill="url(#paint7_linear_123_1511)"/>
<path d="M54.9585 12.8406C54.3115 12.8406 53.7868 13.3652 53.7868 14.0123C53.7868 15.5442 52.5779 16.7905 51.0917 16.7905C50.4447 16.7905 49.9199 17.3152 49.9199 17.9623C49.9199 18.6094 50.4447 19.134 51.0917 19.134C53.87 19.134 56.1303 16.8364 56.1303 14.0123C56.1303 13.3651 55.6056 12.8406 54.9585 12.8406Z" fill="url(#paint8_linear_123_1511)"/>
</g>
<defs>
<linearGradient id="paint0_linear_123_1511" x1="30" y1="6.7417" x2="30" y2="48.4564" gradientUnits="userSpaceOnUse">
<stop stop-color="#00A5C2"/>
<stop offset="1" stop-color="#00B2D0"/>
</linearGradient>
<linearGradient id="paint1_linear_123_1511" x1="37.2391" y1="33.2812" x2="37.2391" y2="42.7339" gradientUnits="userSpaceOnUse">
<stop stop-color="#00A5C2"/>
<stop offset="1" stop-color="#00B2D0"/>
</linearGradient>
<linearGradient id="paint2_linear_123_1511" x1="40.5458" y1="28.5596" x2="40.5458" y2="30.9269" gradientUnits="userSpaceOnUse">
<stop stop-color="#00A5C2"/>
<stop offset="1" stop-color="#00B2D0"/>
</linearGradient>
<linearGradient id="paint3_linear_123_1511" x1="22.2703" y1="0.00830078" x2="22.2703" y2="33.7883" gradientUnits="userSpaceOnUse">
<stop stop-color="#00A5C2"/>
<stop offset="1" stop-color="#00B2D0"/>
</linearGradient>
<linearGradient id="paint4_linear_123_1511" x1="38.5974" y1="25.0161" x2="38.5974" y2="60.0004" gradientUnits="userSpaceOnUse">
<stop stop-color="#00A5C2"/>
<stop offset="1" stop-color="#00B2D0"/>
</linearGradient>
<linearGradient id="paint5_linear_123_1511" x1="8.90826" y1="35.623" x2="8.90826" y2="58.7067" gradientUnits="userSpaceOnUse">
<stop stop-color="#00A5C2"/>
<stop offset="1" stop-color="#00B2D0"/>
</linearGradient>
<linearGradient id="paint6_linear_123_1511" x1="10.8415" y1="48.4634" x2="10.8415" y2="54.7568" gradientUnits="userSpaceOnUse">
<stop stop-color="#00A5C2"/>
<stop offset="1" stop-color="#00B2D0"/>
</linearGradient>
<linearGradient id="paint7_linear_123_1511" x1="51.0914" y1="0" x2="51.0914" y2="23.0835" gradientUnits="userSpaceOnUse">
<stop stop-color="#00A5C2"/>
<stop offset="1" stop-color="#00B2D0"/>
</linearGradient>
<linearGradient id="paint8_linear_123_1511" x1="53.0251" y1="12.8406" x2="53.0251" y2="19.134" gradientUnits="userSpaceOnUse">
<stop stop-color="#00A5C2"/>
<stop offset="1" stop-color="#00B2D0"/>
</linearGradient>
<clipPath id="clip0_123_1511">
<rect width="60" height="60" fill="white"/>
</clipPath>
</defs>
</svg>
