<svg width="40" height="40" viewBox="0 0 40 40" fill="none" xmlns="http://www.w3.org/2000/svg">
<g clip-path="url(#clip0_30_550)">
<path d="M8.00002 12.3333C8.00404 11.4144 8.74788 10.6706 9.66669 10.6666C10.0349 10.6666 10.3334 10.3681 10.3334 9.99992C10.3334 9.63173 10.0349 9.33325 9.66669 9.33325C8.01135 9.33692 6.67035 10.6779 6.66669 12.3333C6.66669 12.7014 6.96516 12.9999 7.33335 12.9999C7.70154 12.9999 8.00002 12.7014 8.00002 12.3333Z" fill="url(#paint0_linear_30_550)"/>
<path d="M34.4493 10.6667H20.4053C19.8487 8.97677 18.5457 7.63686 16.872 7.03333C16.3622 6.86634 16.0129 6.39631 16 5.86V5.148C16.4112 4.91173 16.6652 4.47422 16.6667 4V2C16.6667 0.895431 15.7712 0 14.6667 0H10C8.89543 0 8 0.895431 8 2V4C8.00143 4.47422 8.2555 4.91173 8.66667 5.148V5.82C8.65181 6.36367 8.29312 6.83781 7.774 7C5.91591 7.6571 4.53326 9.23323 4.12375 11.1611C3.71424 13.0889 4.33679 15.091 5.76733 16.4467C6.19752 16.8431 6.41837 17.4174 6.36467 18C6.31179 18.5366 6.00587 19.0156 5.54133 19.2893L5.50867 19.3147C4.57374 19.8999 4.00422 20.9237 4 22.0267V37.3333C4 38.8061 5.19391 40 6.66667 40H18C18.1006 39.9982 18.201 39.9904 18.3007 39.9767C18.3801 39.9909 18.4606 39.9987 18.5413 40H32.792C33.6079 40.0015 34.2849 39.3694 34.3393 38.5553L36 12.3053C36.0261 11.8816 35.8763 11.4658 35.586 11.156C35.2907 10.8433 34.8795 10.6663 34.4493 10.6667ZM34.6107 12.0667C34.65 12.1068 34.6701 12.162 34.666 12.218L34.1907 19.7513C33.2025 19.5226 32.1909 19.4107 31.1767 19.418C28.352 19.418 26.1133 20.5047 23.948 21.5553C21.9827 22.5093 19.948 23.484 17.3933 23.7227L16.6667 12.2207C16.6626 12.1646 16.6827 12.1095 16.722 12.0693C16.764 12.0253 16.8226 12.0011 16.8833 12.0027H34.4493C34.5097 12.0004 34.5683 12.0236 34.6107 12.0667ZM5.33333 24H16.0753L16.622 32.6667H5.33333V24ZM9.33333 2C9.33333 1.63181 9.63181 1.33333 10 1.33333H14.6667C15.0349 1.33333 15.3333 1.63181 15.3333 2V4H9.33333V2ZM6.24467 20.4253L6.28 20.3987C7.07787 19.9042 7.59969 19.0662 7.69133 18.132C7.78851 17.1388 7.41673 16.157 6.686 15.4773C5.5923 14.4409 5.11625 12.9103 5.42915 11.4364C5.74206 9.96251 6.7989 8.75735 8.21933 8.25467C9.27248 7.90743 9.98819 6.92885 10 5.82V5.33333H14.6667V5.86C14.6741 6.95911 15.3767 7.93299 16.4173 8.28667C17.5597 8.69917 18.4854 9.55823 18.982 10.6667H16.884C16.455 10.6672 16.0452 10.8441 15.7507 11.156C15.4603 11.4658 15.3106 11.8816 15.3367 12.3053L15.9907 22.6667H5.33333V22.0267C5.33938 21.3711 5.68414 20.7653 6.24467 20.4253ZM5.33333 37.3333V34H16.7067L16.994 38.5547C16.994 38.5933 17.0067 38.6293 17.012 38.6667H6.66667C5.93029 38.6667 5.33333 38.0697 5.33333 37.3333ZM33.0087 38.4713C32.9989 38.5832 32.9043 38.6685 32.792 38.6667H18.5413C18.4288 38.6685 18.3341 38.5828 18.3247 38.4707L17.4773 25.0513C20.2827 24.8 22.4433 23.7667 24.53 22.754C26.6533 21.7233 28.6587 20.75 31.1767 20.75C32.1643 20.7423 33.1487 20.864 34.1047 21.112L33.0087 38.4713Z" fill="url(#paint1_linear_30_550)"/>
<path d="M18.6667 14.6666H20C20.3682 14.6666 20.6667 14.3681 20.6667 13.9999C20.6667 13.6317 20.3682 13.3333 20 13.3333H18.6667C18.2985 13.3333 18 13.6317 18 13.9999C18 14.3681 18.2985 14.6666 18.6667 14.6666Z" fill="url(#paint2_linear_30_550)"/>
<path d="M22.6667 14.6666H30.6667C31.0349 14.6666 31.3333 14.3681 31.3333 13.9999C31.3333 13.6317 31.0349 13.3333 30.6667 13.3333H22.6667C22.2985 13.3333 22 13.6317 22 13.9999C22 14.3681 22.2985 14.6666 22.6667 14.6666Z" fill="url(#paint3_linear_30_550)"/>
<path d="M29 23.3333C27.7114 23.3333 26.6667 24.3779 26.6667 25.6666C26.6667 26.9552 27.7114 27.9999 29 27.9999C30.2887 27.9999 31.3334 26.9552 31.3334 25.6666C31.3334 24.3779 30.2887 23.3333 29 23.3333ZM29 26.6666C28.4477 26.6666 28 26.2189 28 25.6666C28 25.1143 28.4477 24.6666 29 24.6666C29.5523 24.6666 30 25.1143 30 25.6666C30 26.2189 29.5523 26.6666 29 26.6666Z" fill="url(#paint4_linear_30_550)"/>
<path d="M23.3334 27.3334C22.2288 27.3334 21.3334 28.2288 21.3334 29.3334C21.3334 30.4379 22.2288 31.3334 23.3334 31.3334C24.4379 31.3334 25.3334 30.4379 25.3334 29.3334C25.3334 28.2288 24.4379 27.3334 23.3334 27.3334ZM23.3334 30C22.9652 30 22.6667 29.7016 22.6667 29.3334C22.6667 28.9652 22.9652 28.6667 23.3334 28.6667C23.7016 28.6667 24 28.9652 24 29.3334C24 29.7016 23.7016 30 23.3334 30Z" fill="url(#paint5_linear_30_550)"/>
<path d="M27.3333 33.3333C27.7015 33.3333 28 33.0349 28 32.6667C28 32.2985 27.7015 32 27.3333 32C26.9652 32 26.6667 32.2985 26.6667 32.6667C26.6667 33.0349 26.9652 33.3333 27.3333 33.3333Z" fill="url(#paint6_linear_30_550)"/>
<path d="M26 36.6667C26.3682 36.6667 26.6666 36.3682 26.6666 36C26.6666 35.6318 26.3682 35.3334 26 35.3334C25.6318 35.3334 25.3333 35.6318 25.3333 36C25.3333 36.3682 25.6318 36.6667 26 36.6667Z" fill="url(#paint7_linear_30_550)"/>
</g>
<defs>
<linearGradient id="paint0_linear_30_550" x1="8.50002" y1="9.33325" x2="8.50002" y2="12.9999" gradientUnits="userSpaceOnUse">
<stop stop-color="#68D7F0"/>
<stop offset="0.5" stop-color="#2DA5D3"/>
<stop offset="1" stop-color="#057BA9"/>
</linearGradient>
<linearGradient id="paint1_linear_30_550" x1="20.0015" y1="0" x2="20.0015" y2="40" gradientUnits="userSpaceOnUse">
<stop stop-color="#68D7F0"/>
<stop offset="0.5" stop-color="#2DA5D3"/>
<stop offset="1" stop-color="#057BA9"/>
</linearGradient>
<linearGradient id="paint2_linear_30_550" x1="19.3333" y1="13.3333" x2="19.3333" y2="14.6666" gradientUnits="userSpaceOnUse">
<stop stop-color="#68D7F0"/>
<stop offset="0.5" stop-color="#2DA5D3"/>
<stop offset="1" stop-color="#057BA9"/>
</linearGradient>
<linearGradient id="paint3_linear_30_550" x1="26.6667" y1="13.3333" x2="26.6667" y2="14.6666" gradientUnits="userSpaceOnUse">
<stop stop-color="#68D7F0"/>
<stop offset="0.5" stop-color="#2DA5D3"/>
<stop offset="1" stop-color="#057BA9"/>
</linearGradient>
<linearGradient id="paint4_linear_30_550" x1="29" y1="23.3333" x2="29" y2="27.9999" gradientUnits="userSpaceOnUse">
<stop stop-color="#68D7F0"/>
<stop offset="0.5" stop-color="#2DA5D3"/>
<stop offset="1" stop-color="#057BA9"/>
</linearGradient>
<linearGradient id="paint5_linear_30_550" x1="23.3334" y1="27.3334" x2="23.3334" y2="31.3334" gradientUnits="userSpaceOnUse">
<stop stop-color="#68D7F0"/>
<stop offset="0.5" stop-color="#2DA5D3"/>
<stop offset="1" stop-color="#057BA9"/>
</linearGradient>
<linearGradient id="paint6_linear_30_550" x1="27.3333" y1="32" x2="27.3333" y2="33.3333" gradientUnits="userSpaceOnUse">
<stop stop-color="#68D7F0"/>
<stop offset="0.5" stop-color="#2DA5D3"/>
<stop offset="1" stop-color="#057BA9"/>
</linearGradient>
<linearGradient id="paint7_linear_30_550" x1="26" y1="35.3334" x2="26" y2="36.6667" gradientUnits="userSpaceOnUse">
<stop stop-color="#68D7F0"/>
<stop offset="0.5" stop-color="#2DA5D3"/>
<stop offset="1" stop-color="#057BA9"/>
</linearGradient>
<clipPath id="clip0_30_550">
<rect width="40" height="40" fill="white"/>
</clipPath>
</defs>
</svg>
