<svg width="60" height="60" viewBox="0 0 60 60" fill="none" xmlns="http://www.w3.org/2000/svg">
<path d="M9.375 54.375C9.89277 54.375 10.3125 53.9553 10.3125 53.4375C10.3125 52.9197 9.89277 52.5 9.375 52.5C8.85723 52.5 8.4375 52.9197 8.4375 53.4375C8.4375 53.9553 8.85723 54.375 9.375 54.375Z" fill="url(#paint0_linear_123_1163)"/>
<path d="M30 43.125H31.875V45H30V43.125Z" fill="url(#paint1_linear_123_1163)"/>
<path d="M33.75 43.125H35.625V45H33.75V43.125Z" fill="url(#paint2_linear_123_1163)"/>
<path d="M28.125 35.625H24.375C24.1264 35.625 23.8879 35.7238 23.7121 35.8996C23.5363 36.0754 23.4375 36.3139 23.4375 36.5625V40.3125C23.4375 40.5611 23.5363 40.7996 23.7121 40.9754C23.8879 41.1512 24.1264 41.25 24.375 41.25H28.125C28.3736 41.25 28.6121 41.1512 28.7879 40.9754C28.9637 40.7996 29.0625 40.5611 29.0625 40.3125V36.5625C29.0625 36.3139 28.9637 36.0754 28.7879 35.8996C28.6121 35.7238 28.3736 35.625 28.125 35.625ZM27.1875 39.375H25.3125V37.5H27.1875V39.375Z" fill="url(#paint3_linear_123_1163)"/>
<path d="M47.8125 43.125H49.6875V45H47.8125V43.125Z" fill="url(#paint4_linear_123_1163)"/>
<path d="M51.5625 43.125H53.4375V45H51.5625V43.125Z" fill="url(#paint5_linear_123_1163)"/>
<path d="M42.1875 41.25H45.9375C46.1861 41.25 46.4246 41.1512 46.6004 40.9754C46.7762 40.7996 46.875 40.5611 46.875 40.3125V36.5625C46.875 36.3139 46.7762 36.0754 46.6004 35.8996C46.4246 35.7238 46.1861 35.625 45.9375 35.625H42.1875C41.9389 35.625 41.7004 35.7238 41.5246 35.8996C41.3488 36.0754 41.25 36.3139 41.25 36.5625V40.3125C41.25 40.5611 41.3488 40.7996 41.5246 40.9754C41.7004 41.1512 41.9389 41.25 42.1875 41.25ZM43.125 37.5H45V39.375H43.125V37.5Z" fill="url(#paint6_linear_123_1163)"/>
<path d="M30 28.125H31.875V30H30V28.125Z" fill="url(#paint7_linear_123_1163)"/>
<path d="M33.75 28.125H35.625V30H33.75V28.125Z" fill="url(#paint8_linear_123_1163)"/>
<path d="M24.375 26.25H28.125C28.3736 26.25 28.6121 26.1512 28.7879 25.9754C28.9637 25.7996 29.0625 25.5611 29.0625 25.3125V21.5625C29.0625 21.3139 28.9637 21.0754 28.7879 20.8996C28.6121 20.7238 28.3736 20.625 28.125 20.625H24.375C24.1264 20.625 23.8879 20.7238 23.7121 20.8996C23.5363 21.0754 23.4375 21.3139 23.4375 21.5625V25.3125C23.4375 25.5611 23.5363 25.7996 23.7121 25.9754C23.8879 26.1512 24.1264 26.25 24.375 26.25ZM25.3125 22.5H27.1875V24.375H25.3125V22.5Z" fill="url(#paint9_linear_123_1163)"/>
<path d="M47.8125 28.125H49.6875V30H47.8125V28.125Z" fill="url(#paint10_linear_123_1163)"/>
<path d="M51.5625 28.125H53.4375V30H51.5625V28.125Z" fill="url(#paint11_linear_123_1163)"/>
<path d="M42.1875 26.25H45.9375C46.1861 26.25 46.4246 26.1512 46.6004 25.9754C46.7762 25.7996 46.875 25.5611 46.875 25.3125V21.5625C46.875 21.3139 46.7762 21.0754 46.6004 20.8996C46.4246 20.7238 46.1861 20.625 45.9375 20.625H42.1875C41.9389 20.625 41.7004 20.7238 41.5246 20.8996C41.3488 21.0754 41.25 21.3139 41.25 21.5625V25.3125C41.25 25.5611 41.3488 25.7996 41.5246 25.9754C41.7004 26.1512 41.9389 26.25 42.1875 26.25ZM43.125 22.5H45V24.375H43.125V22.5Z" fill="url(#paint12_linear_123_1163)"/>
<path d="M56.25 1.875H20.625C20.3764 1.87501 20.1379 1.97379 19.9621 2.1496C19.7863 2.32541 19.6875 2.56386 19.6875 2.8125V48.75H17.2143L11.8501 44.2798C11.6817 44.1394 11.4693 44.0625 11.25 44.0625H10.3125V28.3055L12.1204 23.7856C12.1647 23.6749 12.1875 23.5568 12.1875 23.4375V19.6875C12.1875 19.4389 12.0887 19.2004 11.9129 19.0246C11.7371 18.8488 11.4986 18.75 11.25 18.75H3.75C3.50136 18.75 3.26291 18.8488 3.0871 19.0246C2.91129 19.2004 2.81251 19.4389 2.8125 19.6875V23.4375C2.8125 23.5568 2.83526 23.6749 2.87956 23.7856L4.6875 28.3055V44.0625H3.75C3.50136 44.0625 3.26291 44.1613 3.0871 44.3371C2.91129 44.5129 2.81251 44.7514 2.8125 45V52.5C2.81251 52.7486 2.91129 52.9871 3.0871 53.1629C3.26291 53.3387 3.50136 53.4375 3.75 53.4375H4.6875C4.6875 54.6807 5.18136 55.873 6.06044 56.7521C6.93951 57.6311 8.1318 58.125 9.375 58.125C10.6182 58.125 11.8105 57.6311 12.6896 56.7521C13.5686 55.873 14.0625 54.6807 14.0625 53.4375H19.6875V57.1875C19.6875 57.4361 19.7863 57.6746 19.9621 57.8504C20.1379 58.0262 20.3764 58.125 20.625 58.125H26.25C26.4986 58.125 26.7371 58.0262 26.9129 57.8504C27.0887 57.6746 27.1875 57.4361 27.1875 57.1875V53.4375H34.6875V57.1875C34.6875 57.4361 34.7863 57.6746 34.9621 57.8504C35.1379 58.0262 35.3764 58.125 35.625 58.125H41.25C41.4986 58.125 41.7371 58.0262 41.9129 57.8504C42.0887 57.6746 42.1875 57.4361 42.1875 57.1875V53.4375H49.6875V57.1875C49.6875 57.4361 49.7863 57.6746 49.9621 57.8504C50.1379 58.0262 50.3764 58.125 50.625 58.125H56.25C56.4986 58.125 56.7371 58.0262 56.9129 57.8504C57.0887 57.6746 57.1875 57.4361 57.1875 57.1875V2.8125C57.1875 2.56386 57.0887 2.32541 56.9129 2.1496C56.7371 1.97379 56.4986 1.87501 56.25 1.875ZM21.5625 51.5625V48.75H55.3125V51.5625H21.5625ZM55.3125 31.875H39.375V18.75H55.3125V31.875ZM55.3125 46.875H39.375V33.75H55.3125V46.875ZM21.5625 46.875V33.75H37.5V46.875H21.5625ZM37.5 31.875H21.5625V18.75H37.5V31.875ZM55.3125 16.875H39.375V3.75H55.3125V16.875ZM21.5625 3.75H37.5V16.875H21.5625V3.75ZM4.6875 20.625H10.3125V23.2569L8.74031 27.1875H8.4375V22.5H6.5625V27.1875H6.25969L4.6875 23.2569V20.625ZM6.5625 29.0625H8.4375V44.0625H6.5625V29.0625ZM9.375 56.25C8.81874 56.25 8.27497 56.085 7.81246 55.776C7.34995 55.467 6.98946 55.0277 6.77659 54.5138C6.56372 53.9999 6.50802 53.4344 6.61654 52.8888C6.72506 52.3432 6.99293 51.8421 7.38626 51.4488C7.7796 51.0554 8.28074 50.7876 8.82631 50.679C9.37188 50.5705 9.93738 50.6262 10.4513 50.8391C10.9652 51.052 11.4045 51.4124 11.7135 51.875C12.0225 52.3375 12.1875 52.8812 12.1875 53.4375C12.1866 54.1832 11.8901 54.898 11.3628 55.4253C10.8355 55.9526 10.1207 56.2491 9.375 56.25ZM13.6699 51.5625C13.3054 50.7266 12.7048 50.0153 11.9419 49.5157C11.179 49.0161 10.2869 48.75 9.375 48.75C8.46308 48.75 7.57098 49.0161 6.80808 49.5157C6.04517 50.0153 5.44463 50.7266 5.08009 51.5625H4.6875V45.9375H10.9106L15.9375 50.1266V51.5625H13.6699ZM17.8125 50.625H19.6875V51.5625H17.8125V50.625ZM25.3125 56.25H21.5625V53.4375H25.3125V56.25ZM40.3125 56.25H36.5625V53.4375H40.3125V56.25ZM55.3125 56.25H51.5625V53.4375H55.3125V56.25Z" fill="url(#paint13_linear_123_1163)"/>
<path d="M30 13.125H31.875V15H30V13.125Z" fill="url(#paint14_linear_123_1163)"/>
<path d="M33.75 13.125H35.625V15H33.75V13.125Z" fill="url(#paint15_linear_123_1163)"/>
<path d="M28.125 5.625H24.375C24.1264 5.62501 23.8879 5.72379 23.7121 5.8996C23.5363 6.07541 23.4375 6.31386 23.4375 6.5625V10.3125C23.4375 10.5611 23.5363 10.7996 23.7121 10.9754C23.8879 11.1512 24.1264 11.25 24.375 11.25H28.125C28.3736 11.25 28.6121 11.1512 28.7879 10.9754C28.9637 10.7996 29.0625 10.5611 29.0625 10.3125V6.5625C29.0625 6.31386 28.9637 6.07541 28.7879 5.8996C28.6121 5.72379 28.3736 5.62501 28.125 5.625ZM27.1875 9.375H25.3125V7.5H27.1875V9.375Z" fill="url(#paint16_linear_123_1163)"/>
<path d="M47.8125 13.125H49.6875V15H47.8125V13.125Z" fill="url(#paint17_linear_123_1163)"/>
<path d="M51.5625 13.125H53.4375V15H51.5625V13.125Z" fill="url(#paint18_linear_123_1163)"/>
<path d="M42.1875 11.25H45.9375C46.1861 11.25 46.4246 11.1512 46.6004 10.9754C46.7762 10.7996 46.875 10.5611 46.875 10.3125V6.5625C46.875 6.31386 46.7762 6.07541 46.6004 5.8996C46.4246 5.72379 46.1861 5.62501 45.9375 5.625H42.1875C41.9389 5.62501 41.7004 5.72379 41.5246 5.8996C41.3488 6.07541 41.25 6.31386 41.25 6.5625V10.3125C41.25 10.5611 41.3488 10.7996 41.5246 10.9754C41.7004 11.1512 41.9389 11.25 42.1875 11.25ZM43.125 7.5H45V9.375H43.125V7.5Z" fill="url(#paint19_linear_123_1163)"/>
<defs>
<linearGradient id="paint0_linear_123_1163" x1="9.375" y1="52.5" x2="9.375" y2="54.375" gradientUnits="userSpaceOnUse">
<stop stop-color="#00A5C2"/>
<stop offset="1" stop-color="#00B2D0"/>
</linearGradient>
<linearGradient id="paint1_linear_123_1163" x1="30.9375" y1="43.125" x2="30.9375" y2="45" gradientUnits="userSpaceOnUse">
<stop stop-color="#00A5C2"/>
<stop offset="1" stop-color="#00B2D0"/>
</linearGradient>
<linearGradient id="paint2_linear_123_1163" x1="34.6875" y1="43.125" x2="34.6875" y2="45" gradientUnits="userSpaceOnUse">
<stop stop-color="#00A5C2"/>
<stop offset="1" stop-color="#00B2D0"/>
</linearGradient>
<linearGradient id="paint3_linear_123_1163" x1="26.25" y1="35.625" x2="26.25" y2="41.25" gradientUnits="userSpaceOnUse">
<stop stop-color="#00A5C2"/>
<stop offset="1" stop-color="#00B2D0"/>
</linearGradient>
<linearGradient id="paint4_linear_123_1163" x1="48.75" y1="43.125" x2="48.75" y2="45" gradientUnits="userSpaceOnUse">
<stop stop-color="#00A5C2"/>
<stop offset="1" stop-color="#00B2D0"/>
</linearGradient>
<linearGradient id="paint5_linear_123_1163" x1="52.5" y1="43.125" x2="52.5" y2="45" gradientUnits="userSpaceOnUse">
<stop stop-color="#00A5C2"/>
<stop offset="1" stop-color="#00B2D0"/>
</linearGradient>
<linearGradient id="paint6_linear_123_1163" x1="44.0625" y1="35.625" x2="44.0625" y2="41.25" gradientUnits="userSpaceOnUse">
<stop stop-color="#00A5C2"/>
<stop offset="1" stop-color="#00B2D0"/>
</linearGradient>
<linearGradient id="paint7_linear_123_1163" x1="30.9375" y1="28.125" x2="30.9375" y2="30" gradientUnits="userSpaceOnUse">
<stop stop-color="#00A5C2"/>
<stop offset="1" stop-color="#00B2D0"/>
</linearGradient>
<linearGradient id="paint8_linear_123_1163" x1="34.6875" y1="28.125" x2="34.6875" y2="30" gradientUnits="userSpaceOnUse">
<stop stop-color="#00A5C2"/>
<stop offset="1" stop-color="#00B2D0"/>
</linearGradient>
<linearGradient id="paint9_linear_123_1163" x1="26.25" y1="20.625" x2="26.25" y2="26.25" gradientUnits="userSpaceOnUse">
<stop stop-color="#00A5C2"/>
<stop offset="1" stop-color="#00B2D0"/>
</linearGradient>
<linearGradient id="paint10_linear_123_1163" x1="48.75" y1="28.125" x2="48.75" y2="30" gradientUnits="userSpaceOnUse">
<stop stop-color="#00A5C2"/>
<stop offset="1" stop-color="#00B2D0"/>
</linearGradient>
<linearGradient id="paint11_linear_123_1163" x1="52.5" y1="28.125" x2="52.5" y2="30" gradientUnits="userSpaceOnUse">
<stop stop-color="#00A5C2"/>
<stop offset="1" stop-color="#00B2D0"/>
</linearGradient>
<linearGradient id="paint12_linear_123_1163" x1="44.0625" y1="20.625" x2="44.0625" y2="26.25" gradientUnits="userSpaceOnUse">
<stop stop-color="#00A5C2"/>
<stop offset="1" stop-color="#00B2D0"/>
</linearGradient>
<linearGradient id="paint13_linear_123_1163" x1="30" y1="1.875" x2="30" y2="58.125" gradientUnits="userSpaceOnUse">
<stop stop-color="#00A5C2"/>
<stop offset="1" stop-color="#00B2D0"/>
</linearGradient>
<linearGradient id="paint14_linear_123_1163" x1="30.9375" y1="13.125" x2="30.9375" y2="15" gradientUnits="userSpaceOnUse">
<stop stop-color="#00A5C2"/>
<stop offset="1" stop-color="#00B2D0"/>
</linearGradient>
<linearGradient id="paint15_linear_123_1163" x1="34.6875" y1="13.125" x2="34.6875" y2="15" gradientUnits="userSpaceOnUse">
<stop stop-color="#00A5C2"/>
<stop offset="1" stop-color="#00B2D0"/>
</linearGradient>
<linearGradient id="paint16_linear_123_1163" x1="26.25" y1="5.625" x2="26.25" y2="11.25" gradientUnits="userSpaceOnUse">
<stop stop-color="#00A5C2"/>
<stop offset="1" stop-color="#00B2D0"/>
</linearGradient>
<linearGradient id="paint17_linear_123_1163" x1="48.75" y1="13.125" x2="48.75" y2="15" gradientUnits="userSpaceOnUse">
<stop stop-color="#00A5C2"/>
<stop offset="1" stop-color="#00B2D0"/>
</linearGradient>
<linearGradient id="paint18_linear_123_1163" x1="52.5" y1="13.125" x2="52.5" y2="15" gradientUnits="userSpaceOnUse">
<stop stop-color="#00A5C2"/>
<stop offset="1" stop-color="#00B2D0"/>
</linearGradient>
<linearGradient id="paint19_linear_123_1163" x1="44.0625" y1="5.625" x2="44.0625" y2="11.25" gradientUnits="userSpaceOnUse">
<stop stop-color="#00A5C2"/>
<stop offset="1" stop-color="#00B2D0"/>
</linearGradient>
</defs>
</svg>
