<svg width="60" height="61" viewBox="0 0 60 61" fill="none" xmlns="http://www.w3.org/2000/svg">
<path d="M58.9853 20.2846H48.174L45.8921 17.2421L48.174 14.1995H58.9853C59.1538 14.1996 59.3196 14.1577 59.4678 14.0777C59.616 13.9976 59.7419 13.8819 59.8342 13.741C59.9265 13.6001 59.9822 13.4384 59.9964 13.2706C60.0106 13.1027 59.9827 12.934 59.9153 12.7796C59.048 10.7904 57.619 9.0975 55.8037 7.90851C53.9883 6.71952 51.8654 6.08612 49.6953 6.08597C48.0506 6.07887 46.425 6.43945 44.9376 7.14134C43.4501 7.84323 42.1383 8.86869 41.098 10.1427H35.4967V6.08597C35.4962 5.34983 35.2954 4.6277 34.9158 3.99696C34.5363 3.36622 33.9922 2.85064 33.342 2.50548C32.6918 2.16032 31.96 1.99858 31.2249 2.0376C30.4898 2.07661 29.7791 2.31492 29.1691 2.72697C28.897 1.93153 28.383 1.24107 27.6991 0.752191C27.0151 0.263315 26.1955 0.000488281 25.3548 0.000488281C24.5141 0.000488281 23.6944 0.263315 23.0105 0.752191C22.3265 1.24107 21.8125 1.93153 21.5404 2.72697C21.0271 2.37821 20.4403 2.15252 19.8257 2.06743C19.211 1.98235 18.5849 2.04018 17.9962 2.23641C17.4075 2.43265 16.872 2.762 16.4313 3.19888C15.9906 3.63576 15.6566 4.16838 15.4552 4.75535C14.8452 4.3433 14.1346 4.105 13.3995 4.06598C12.6644 4.02696 11.9325 4.1887 11.2823 4.53386C10.6321 4.87902 10.0881 5.3946 9.70854 6.02534C9.32898 6.65608 9.1282 7.37821 9.12771 8.11435V10.1427H7.09933C5.21647 10.1427 3.41073 10.8907 2.07935 12.2221C0.747963 13.5535 0 15.3592 0 17.2421C0 19.1249 0.747963 20.9307 2.07935 22.2621C3.41073 23.5934 5.21647 24.3414 7.09933 24.3414H9.12771V42.5968H6.08514C5.81616 42.5968 5.5582 42.7037 5.368 42.8939C5.1778 43.0841 5.07095 43.342 5.07095 43.611V59.8381C5.07095 60.107 5.1778 60.365 5.368 60.5552C5.5582 60.7454 5.81616 60.8523 6.08514 60.8523H34.4825C34.7515 60.8523 35.0094 60.7454 35.1996 60.5552C35.3898 60.365 35.4967 60.107 35.4967 59.8381V43.611C35.4967 43.342 35.3898 43.0841 35.1996 42.8939C35.0094 42.7037 34.7515 42.5968 34.4825 42.5968H31.4399V40.3717C31.4421 38.7599 31.9905 37.1965 32.9957 35.9366L37.5534 30.2399C38.846 28.6204 39.5511 26.6103 39.5534 24.5382V24.3414H41.098C42.1383 25.6154 43.4501 26.6409 44.9376 27.3428C46.425 28.0447 48.0506 28.4053 49.6953 28.3982C51.8654 28.398 53.9883 27.7646 55.8037 26.5756C57.619 25.3866 59.048 23.6937 59.9153 21.7045C59.9827 21.5501 60.0106 21.3814 59.9964 21.2136C59.9822 21.0457 59.9265 20.884 59.8342 20.7431C59.7419 20.6022 59.616 20.4865 59.4678 20.4065C59.3196 20.3264 59.1538 20.2846 58.9853 20.2846ZM31.4399 4.05759C31.9779 4.05759 32.4938 4.27129 32.8742 4.65169C33.2546 5.03208 33.4683 5.54801 33.4683 6.08597V14.1995H29.4115V6.08597C29.4115 5.54801 29.6252 5.03208 30.0056 4.65169C30.386 4.27129 30.9019 4.05759 31.4399 4.05759ZM23.3264 4.05759C23.3264 3.51963 23.5401 3.0037 23.9205 2.62331C24.3009 2.24291 24.8168 2.02921 25.3548 2.02921C25.8927 2.02921 26.4086 2.24291 26.789 2.62331C27.1694 3.0037 27.3831 3.51963 27.3831 4.05759V14.1995C26.8482 14.1995 26.3348 14.4108 25.9549 14.7875C25.575 15.1642 25.3593 15.6757 25.3548 16.2106C24.8199 16.2094 24.306 16.0024 23.9197 15.6325C23.7309 15.4448 23.5812 15.2215 23.4793 14.9755C23.3775 14.7295 23.3255 14.4657 23.3264 14.1995V4.05759ZM17.2412 6.08597C17.2412 5.54801 17.4549 5.03208 17.8353 4.65169C18.2157 4.27129 18.7317 4.05759 19.2696 4.05759C19.8076 4.05759 20.3235 4.27129 20.7039 4.65169C21.0843 5.03208 21.298 5.54801 21.298 6.08597V16.2279C21.298 16.7658 21.0843 17.2818 20.7039 17.6622C20.3235 18.0426 19.8076 18.2563 19.2696 18.2563C18.7317 18.2563 18.2157 18.0426 17.8353 17.6622C17.4549 17.2818 17.2412 16.7658 17.2412 16.2279V6.08597ZM11.1561 8.11435C11.1561 7.57639 11.3698 7.06047 11.7502 6.68007C12.1306 6.29968 12.6465 6.08597 13.1845 6.08597C13.7224 6.08597 14.2384 6.29968 14.6188 6.68007C14.9992 7.06047 15.2129 7.57639 15.2129 8.11435V18.2563C15.2129 18.7942 14.9992 19.3101 14.6188 19.6905C14.2384 20.0709 13.7224 20.2846 13.1845 20.2846C12.6465 20.2846 12.1306 20.0709 11.7502 19.6905C11.3698 19.3101 11.1561 18.7942 11.1561 18.2563V8.11435ZM2.02838 17.2421C2.02999 15.8977 2.56477 14.6088 3.51541 13.6581C4.46605 12.7075 5.75493 12.1727 7.09933 12.1711H9.12771V18.2563C9.12572 19.214 9.46348 20.1414 10.0809 20.8735C10.6984 21.6057 11.5555 22.0951 12.4998 22.2547C13.4441 22.4143 14.4145 22.2339 15.2383 21.7454C16.0621 21.2569 16.6859 20.492 16.9988 19.5869C17.5121 19.9358 18.0989 20.1617 18.7136 20.2469C19.3283 20.3321 19.9544 20.2743 20.5432 20.0781C21.132 19.8818 21.6675 19.5524 22.1082 19.1154C22.5489 18.6784 22.8828 18.1456 23.084 17.5585C23.7533 18.0146 24.5448 18.2578 25.3548 18.2563C25.357 19.0464 25.5445 19.8251 25.9022 20.5296C26.26 21.2342 26.7779 21.845 27.4146 22.313H7.09933C5.75493 22.3114 4.46605 21.7766 3.51541 20.826C2.56477 19.8754 2.02999 18.5865 2.02838 17.2421ZM33.4683 58.8239H7.09933V44.6252H33.4683V58.8239ZM37.525 24.5382C37.5229 26.1499 36.9745 27.7133 35.9693 28.9732L31.4115 34.6699C30.1189 36.2895 29.4139 38.2996 29.4115 40.3717V42.5968H11.1561V24.3414H30.4257C30.4257 24.6104 30.3189 24.8683 30.1287 25.0585C29.9385 25.2487 29.6805 25.3556 29.4115 25.3556H27.3831C25.5009 25.3577 23.6964 26.1064 22.3655 27.4373C21.0346 28.7682 20.286 30.5727 20.2838 32.4549C20.2838 32.7239 20.3907 32.9819 20.5809 33.1721C20.7711 33.3623 21.029 33.4691 21.298 33.4691C21.567 33.4691 21.8249 33.3623 22.0151 33.1721C22.2053 32.9819 22.3122 32.7239 22.3122 32.4549C22.3138 31.1105 22.8486 29.8216 23.7992 28.871C24.7499 27.9204 26.0387 27.3856 27.3831 27.384H29.4115C30.2185 27.384 30.9924 27.0634 31.5629 26.4928C32.1335 25.9222 32.4541 25.1483 32.4541 24.3414V23.3272C32.4541 22.7892 32.2404 22.2733 31.86 21.8929C31.4796 21.5125 30.9637 21.2988 30.4257 21.2988C29.6188 21.2988 28.8449 20.9783 28.2743 20.4077C27.7037 19.8371 27.3831 19.0632 27.3831 18.2563V16.2279H34.4825C35.2894 16.2279 36.0633 16.5484 36.6339 17.119C37.2045 17.6896 37.525 18.4635 37.525 19.2704V24.5382ZM49.6953 26.3698C48.2787 26.3757 46.8805 26.0483 45.6138 25.414C44.3471 24.7798 43.2473 23.8565 42.4033 22.7187C42.3088 22.5927 42.1863 22.4905 42.0455 22.4201C41.9047 22.3497 41.7494 22.313 41.5919 22.313H39.5534V19.2704C39.552 18.1019 39.1477 16.9696 38.4087 16.0643C37.6697 15.1591 36.6413 14.5363 35.4967 14.3009V12.1711H41.5919C41.7494 12.1711 41.9047 12.1345 42.0455 12.064C42.1863 11.9936 42.3088 11.8914 42.4033 11.7654C43.2772 10.5983 44.4184 9.65789 45.731 9.02315C47.0436 8.38841 48.4894 8.07787 49.9469 8.11761C51.4044 8.15736 52.8311 8.54622 54.1072 9.25155C55.3832 9.95689 56.4715 10.9581 57.2805 12.1711H47.667C47.5095 12.1711 47.3542 12.2078 47.2134 12.2782C47.0726 12.3486 46.9501 12.4508 46.8556 12.5768L43.813 16.6336C43.6814 16.8091 43.6102 17.0226 43.6102 17.2421C43.6102 17.4615 43.6814 17.675 43.813 17.8506L46.8556 21.9073C46.9501 22.0333 47.0726 22.1355 47.2134 22.2059C47.3542 22.2764 47.5095 22.313 47.667 22.313H57.2805C56.4475 23.561 55.3194 24.5842 53.9962 25.2919C52.6731 25.9995 51.1958 26.3698 49.6953 26.3698Z" fill="url(#paint0_linear_123_2500)"/>
<path d="M12.1705 48.6816C11.5687 48.6816 10.9805 48.8601 10.4801 49.1944C9.97979 49.5287 9.58982 50.0039 9.35953 50.5599C9.12925 51.1158 9.06899 51.7276 9.18639 52.3178C9.30379 52.908 9.59357 53.4501 10.0191 53.8756C10.4446 54.3012 10.9867 54.5909 11.5769 54.7083C12.1671 54.8257 12.7789 54.7655 13.3348 54.5352C13.8908 54.3049 14.366 53.9149 14.7003 53.4146C15.0346 52.9142 15.2131 52.326 15.2131 51.7242C15.2131 50.9173 14.8925 50.1434 14.3219 49.5728C13.7513 49.0022 12.9774 48.6816 12.1705 48.6816ZM12.1705 52.7384C11.9699 52.7384 11.7738 52.6789 11.607 52.5675C11.4403 52.456 11.3103 52.2976 11.2335 52.1123C11.1567 51.927 11.1367 51.7231 11.1758 51.5264C11.2149 51.3296 11.3115 51.1489 11.4534 51.0071C11.5952 50.8652 11.7759 50.7686 11.9726 50.7295C12.1694 50.6904 12.3733 50.7105 12.5586 50.7872C12.7439 50.864 12.9023 50.994 13.0138 51.1608C13.1252 51.3275 13.1847 51.5236 13.1847 51.7242C13.1847 51.9932 13.0778 52.2512 12.8876 52.4414C12.6974 52.6316 12.4395 52.7384 12.1705 52.7384Z" fill="url(#paint1_linear_123_2500)"/>
<defs>
<linearGradient id="paint0_linear_123_2500" x1="30" y1="0.000488281" x2="30" y2="60.8523" gradientUnits="userSpaceOnUse">
<stop stop-color="#68D7F0"/>
<stop offset="0.5" stop-color="#2DA5D3"/>
<stop offset="1" stop-color="#057BA9"/>
</linearGradient>
<linearGradient id="paint1_linear_123_2500" x1="12.1705" y1="48.6816" x2="12.1705" y2="54.7668" gradientUnits="userSpaceOnUse">
<stop stop-color="#68D7F0"/>
<stop offset="0.5" stop-color="#2DA5D3"/>
<stop offset="1" stop-color="#057BA9"/>
</linearGradient>
</defs>
</svg>
