<svg width="200" height="50" viewBox="0 0 200 50" fill="none" xmlns="http://www.w3.org/2000/svg">
<path d="M76.8 30.4C76.6 30.3 76.5 30.1 76.5 30V24.7C76.5 23.5 76.7 22.2 76.2 21.1C75.3 19.2 72.7 19.2 70.9 19.7C69.6 20.1 69.1 21.5 69 22.7C69 22.9 68.9 23.1 68.9 23.3C68.9 23.4 68.9 23.5 69.1 23.5L71.4 23.9C71.5 23.9 71.6 23.9 71.6 23.7C71.6 23.1 71.5 22.4 72 21.9C72.3 21.7 72.8 21.6 73.1 21.8C73.5 22 73.5 22.7 73.5 23.2C73.5 23.7 73 24.1 72.6 24.3C71.3 24.8 69.6 25.4 69.2 27.1C68.9 28.5 68.8 30.2 69.2 31.6C69.4 32.3 70.1 32.8 70.7 32.9C71.6 33.1 72.4 32.9 73 32.3C73.2 32.1 73.2 32 73.4 31.9C73.5 31.8 73.6 31.9 73.6 31.9C73.7 32.1 73.7 32.3 73.9 32.5C74.6 33.1 75.8 32.8 76.7 32.9C76.8 32.9 76.9 32.8 76.9 32.7L77 30.7C77.2 30.4 77 30.4 76.8 30.4ZM73.6 29.2C73.6 29.4 73.5 29.7 73.4 29.8C73.3 30 73 30.1 72.8 30.2C72.6 30.2 72.4 30.1 72.2 30C72 29.7 72 29.3 72 28.9C72 28.1 72 27.4 72.7 26.9C72.9 26.7 73.1 26.5 73.4 26.4C73.5 26.3 73.6 26.5 73.6 26.6V29.2ZM111 20.7C110.4 19.7 109 19.2 107.9 19.5L107.1 19.9C107 19.9 106.8 20 106.8 19.7C106.8 19.1 107.4 18.4 108 18.1C108.8 17.7 109.9 17.4 110.7 16.9C111.7 16.2 112.1 15.6 112.1 14.5C112.1 14.4 112.1 14.3 112 14.3L109.6 13.9C109.5 13.9 109.4 13.9 109.4 14C109.4 14.5 109.1 15.1 108.6 15.3C107.4 15.9 106.6 15.8 105.6 16.8C104.2 18.3 104.3 21.2 104.2 23.2C104.2 24.5 104.2 27.4 104.3 28C104.3 28.8 104.4 29.7 104.6 30.4C105.1 32 106.4 32.7 107.9 32.7C109.4 32.7 110.8 32.1 111.3 30.4C111.6 29.3 111.7 27.2 111.6 25.5C111.7 24 111.8 22.1 111 20.7ZM108.8 28.6C108.8 29.3 108.7 30.1 108.4 30.4C108.3 30.5 108.2 30.5 108 30.5C107.9 30.5 107.7 30.5 107.7 30.4C107.4 30.1 107.2 29.2 107.2 28.5V24C107.2 23.3 107.2 22.4 107.5 21.9C107.6 21.7 107.8 21.6 108 21.6C108.2 21.6 108.5 21.8 108.6 21.9C108.8 22.3 108.8 23.3 108.9 24C108.9 25.6 108.9 27.1 108.8 28.6ZM120.5 19.4C120.6 19.4 120.7 19.5 120.6 19.7L118.4 25.1V25.3L120.9 32.5C120.9 32.6 120.9 32.7 120.8 32.7H118.3C118.1 32.6 118.1 32.6 118.1 32.4L116.2 26.8C116.1 26.6 115.9 26.7 115.9 26.9L116 32.4C116 32.5 116 32.6 115.8 32.6H113.3C113.2 32.6 113.1 32.5 113.1 32.4V19.5C113.1 19.4 113.1 19.3 113.3 19.3H115.7C115.8 19.3 115.9 19.4 115.9 19.5C115.9 21.3 115.8 21.9 115.9 23.7C115.9 23.9 116.1 23.9 116.2 23.7L117.9 19.5C117.9 19.4 118 19.3 118.2 19.4C119 19.5 119.7 19.4 120.5 19.4ZM163.1 19.5H165.7C165.8 19.5 165.8 19.6 165.8 19.6V32.6C165.8 32.7 165.7 32.8 165.6 32.8H163.1C163 32.8 162.9 32.7 162.9 32.6V26.6C162.9 26.5 162.8 26.4 162.7 26.4H161.3C161.2 26.4 161.1 26.5 161.1 26.6V32.7C161.1 32.8 161 32.9 160.9 32.9H158.4C158.3 32.9 158.2 32.8 158.2 32.7V19.7C158.2 19.6 158.3 19.6 158.3 19.6H160.9C161 19.6 161 19.7 161 19.7V23.9C161 24 161 24.1 161.2 24.1H162.6C162.7 24.1 162.8 24 162.8 23.9V19.7C163 19.5 163.1 19.5 163.1 19.5ZM174.6 19.4C174.7 19.4 174.8 19.5 174.7 19.7L172.5 25.1V25.3L175 32.5C175 32.6 175 32.7 174.9 32.7H172.4C172.2 32.6 172.2 32.6 172.2 32.4L170.3 26.8C170.2 26.6 170 26.7 170 26.9L170.1 32.4C170.1 32.5 170.1 32.6 169.9 32.6H167.4C167.3 32.6 167.2 32.5 167.2 32.4V19.5C167.2 19.4 167.2 19.3 167.4 19.3H169.8C169.9 19.3 170 19.4 170 19.5C170 21.3 169.9 21.9 170 23.7C170 23.9 170.2 23.9 170.3 23.7L172 19.5C172 19.4 172.1 19.3 172.3 19.4C173.1 19.5 173.8 19.4 174.6 19.4ZM157 30.4C156.8 30.3 156.7 30.1 156.7 30V24.7C156.7 23.5 156.9 22.2 156.4 21.1C155.5 19.2 152.9 19.2 151.1 19.7C149.8 20.1 149.3 21.5 149.2 22.7C149.2 22.9 149.1 23.1 149.1 23.3C149.1 23.4 149.1 23.5 149.3 23.5L151.6 23.9C151.7 23.9 151.8 23.9 151.8 23.7C151.8 23.1 151.7 22.4 152.2 21.9C152.5 21.7 153 21.6 153.3 21.8C153.7 22 153.7 22.7 153.7 23.2C153.7 23.7 153.2 24.1 152.8 24.3C151.5 24.8 149.8 25.4 149.4 27.1C149.1 28.5 149 30.2 149.4 31.6C149.6 32.3 150.3 32.8 150.9 32.9C151.8 33.1 152.6 32.9 153.2 32.3C153.4 32.1 153.4 32 153.6 31.9C153.7 31.8 153.8 31.9 153.8 31.9C153.9 32.1 153.9 32.3 154.1 32.5C154.8 33.1 156 32.8 156.9 32.9C157 32.9 157.1 32.8 157.1 32.7L157.2 30.7C157.3 30.4 157.1 30.4 157 30.4ZM153.8 29.2C153.8 29.4 153.7 29.7 153.6 29.8C153.5 30 153.2 30.1 153 30.2C152.8 30.2 152.6 30.1 152.4 30C152.2 29.7 152.2 29.3 152.2 28.9C152.2 28.1 152.2 27.4 152.9 26.9C153.1 26.7 153.3 26.5 153.6 26.4C153.7 26.3 153.8 26.5 153.8 26.6C153.7 27.5 153.8 28.4 153.8 29.2ZM130.1 19.5C131 19.5 131.7 19.6 132.9 19.5C133 19.5 133.1 19.6 133.2 19.7L134.6 25.7C134.6 25.9 134.9 25.9 134.9 25.7L136.3 19.7C136.3 19.6 136.4 19.5 136.6 19.5C137.6 19.6 138.3 19.5 139.4 19.5C139.5 19.5 139.6 19.6 139.6 19.7V32.6C139.6 32.7 139.5 32.8 139.4 32.8H137C136.9 32.8 136.8 32.7 136.8 32.6V25.6C136.8 25.4 136.6 25.4 136.5 25.6L135.5 31C135.5 31.1 135.4 31.2 135.2 31.2H134.1C134 31.2 133.9 31.1 133.8 31L132.8 25.6C132.8 25.4 132.5 25.4 132.5 25.6V32.6C132.5 32.7 132.4 32.8 132.3 32.8H130C129.9 32.8 129.8 32.7 129.8 32.6V19.7C129.8 19.5 129.9 19.5 130.1 19.5ZM128.3 25.7C128.3 24 128.4 22.1 127.6 20.6C127.4 20.2 127 19.9 126.6 19.7C126 19.3 125.4 19.3 124.6 19.3C123.8 19.3 123.2 19.3 122.6 19.7C122.2 19.9 121.8 20.2 121.6 20.6C120.8 22.1 120.9 23.9 120.9 25.7C120.9 27.4 120.9 29.2 121.2 30.6C121.4 31.5 122.3 32.4 123.1 32.7C123.5 32.8 124 32.9 124.5 32.9C125 32.9 125.5 32.8 125.9 32.7C126.8 32.4 127.6 31.6 127.8 30.6C128.3 29.2 128.4 27.4 128.3 25.7ZM125.4 24V28.5C125.4 29.2 125.3 30.1 125 30.4C124.9 30.5 124.8 30.4 124.7 30.4H124.4C124.1 30.1 124 29.2 124 28.5V24C124 23.3 124 22.5 124.3 21.9C124.4 21.7 124.5 21.7 124.7 21.7C124.9 21.7 125.1 21.8 125.1 21.9C125.4 22.5 125.4 23.3 125.4 24ZM95.5 30.1V19.7C95.5 19.6 95.6 19.5 95.6 19.5H98.1C98.2 19.5 98.3 19.5 98.3 19.7V29.9C98.3 30.2 98.6 30.7 99.1 30.6C99.6 30.5 99.8 30.3 99.8 29.8V19.6C99.8 19.5 99.9 19.4 100 19.4H102.5C102.6 19.4 102.7 19.5 102.7 19.6V32.5C102.7 32.6 102.6 32.7 102.5 32.7H100C99.9 32.7 99.9 32.7 99.8 32.5V32C99.8 31.9 99.7 31.9 99.6 31.9C99.3 32 99.1 32.3 98.8 32.5C98.1 32.9 97 32.9 96.3 32.5C95.6 32 95.5 31 95.5 30.1ZM93.9 20.7C94.4 21.7 94.2 22.5 94.3 23.7C94.3 23.9 94.3 24.2 94.2 24.2L91.8 24.6C91.7 24.6 91.6 24.5 91.6 24.4C91.6 23.5 91.7 23.2 91.6 22.3C91.5 22 91.5 21.7 91.1 21.6C90.9 21.5 90.6 21.6 90.5 21.7C90 22.1 90.1 22.8 90.1 23.4V29.1C90.1 29.5 90.1 30.1 90.6 30.3C90.9 30.4 91.1 30.4 91.4 30.2C91.6 29.9 91.7 29.6 91.7 29.3C91.8 28.4 91.7 27.3 91.7 26.4C91.7 26.3 91.8 26.2 91.9 26.2L94.3 26.7C94.4 26.7 94.5 26.8 94.5 26.9V27.3C94.4 29.2 94.9 31.8 92.8 32.6C91.6 33.1 90.1 33 88.9 32.6C88 32.3 87.4 31.3 87.3 30.3C87.1 27 87.3 26.4 87.2 22.9C87.2 21.6 87.5 20.3 88.7 19.6C89.7 19.1 91 19.1 92.1 19.3C92.7 19.5 93.5 19.9 93.9 20.7ZM85.7 32.6C85.7 32.7 85.6 32.8 85.5 32.8H83C82.9 32.8 82.8 32.8 82.8 32.6V21.7C82.8 21.6 82.8 21.5 82.6 21.5H81.5C81.4 21.5 81.3 21.5 81.3 21.7V32.5C81.3 32.6 81.3 32.7 81.1 32.7H78.6C78.5 32.7 78.4 32.6 78.4 32.5V19.6C78.4 19.5 78.5 19.4 78.6 19.4C80.6 19.4 83 19.5 85.5 19.4C85.6 19.4 85.7 19.5 85.7 19.6V32.6ZM60.3 15.5C59.8 16.7 59.9 17.9 59.8 19.3C59.8 19.5 59.9 19.5 60 19.5L62.7 20C62.8 20 62.9 19.9 62.9 19.8C62.9 18.8 62.8 18.3 63 17.4C63.1 17.1 63.3 16.6 63.7 16.6C64 16.5 64.2 16.6 64.4 16.7C65 17.3 64.8 18.9 64.8 19.7C64.6 20.7 63.7 21.5 62.8 21.5C62.6 21.5 62.6 21.6 62.6 21.8C62.7 22.5 62.6 23.2 62.6 23.9C62.6 24 62.7 24.1 62.8 24.1C64 24.1 64.8 24.4 64.8 25.1V28.5C64.8 29 64.8 29.6 64.2 29.8C63.9 29.9 63.5 29.9 63.2 29.6C62.9 29.3 62.9 29 62.8 28.6C62.7 27.6 62.8 26.5 62.8 25.5C62.8 25.4 62.7 25.3 62.6 25.3L59.9 26C59.8 26 59.7 26 59.7 26.3C59.8 28.4 59.3 31.6 61.6 32.5C63 33.1 64.7 33 66.1 32.5C67.1 32.1 67.8 31 67.9 29.9C68 28.3 68 27 68 25.3C68 24.2 67.5 23.1 66.7 22.8C66.5 22.8 66.6 22.5 66.7 22.4C67.4 21.9 68 20.9 68 19.8V18C68 16.5 67.7 15 66.3 14.3C65.2 13.7 63.6 13.7 62.4 13.9C61.6 14.2 60.7 14.7 60.3 15.5ZM147.6 20.7C147 19.7 145.6 19.2 144.5 19.5L143.7 19.9C143.6 19.9 143.4 20 143.4 19.7C143.4 19.1 144 18.4 144.6 18.1C145.4 17.7 146.5 17.4 147.3 16.9C148.3 16.2 148.7 15.6 148.7 14.5C148.7 14.4 148.7 14.3 148.6 14.3L146.2 13.9C146.1 13.9 146 13.9 146 14C146 14.5 145.7 15.1 145.2 15.3C144 15.9 143.2 15.8 142.2 16.8C140.8 18.3 140.9 21.2 140.8 23.2C140.8 24.5 140.8 27.4 140.9 28C140.9 28.8 141 29.7 141.2 30.4C141.7 32 143 32.7 144.5 32.7C146 32.7 147.4 32.1 147.9 30.4C148.2 29.3 148.3 27.2 148.2 25.5C148.3 24 148.4 22.1 147.6 20.7ZM145.4 28.6C145.4 29.3 145.3 30.1 145 30.4C144.9 30.5 144.8 30.5 144.6 30.5C144.5 30.5 144.3 30.5 144.3 30.4C144 30.1 143.8 29.2 143.8 28.5V24C143.8 23.3 143.8 22.4 144.1 21.9C144.2 21.7 144.4 21.6 144.6 21.6C144.8 21.6 145.1 21.8 145.2 21.9C145.4 22.3 145.4 23.3 145.5 24C145.4 25.6 145.4 27.1 145.4 28.6ZM40.5 9C32 9 25 16 25 24.6C25 33.1 32 40.1 40.5 40.1C49.1 40.1 56.1 33.1 56.1 24.6C56.1 16 49.1 9 40.5 9ZM40.5 37.7C34.9 37.7 30.2 34.2 28.2 29.3L30.6 29.2C32.4 32.9 36.1 35.4 40.4 35.4C45 35.4 49.1 32.5 50.6 28.3L45.7 24.5L50.6 20.7C49.1 16.6 45 13.6 40.5 13.6C36.3 13.6 32.7 16 30.9 19.4L28.5 19.3C30.5 14.6 35.2 11.4 40.5 11.4C46.6 11.4 51.6 15.5 53.2 21.1L48.7 24.5L53.3 28H53.2C51.6 33.5 46.5 37.7 40.5 37.7ZM44.2 20.2H47.1L42.2 24.5L47.9 28.8H44.7L39.8 25.2V28.8L37.7 28.7V20.1H39.8V23.9L44.2 20.2ZM44.4 19.7C43.4 18.8 42 18.3 40.5 18.3C38.7 18.3 37.1 19 35.9 20.2C34.9 21.4 34.2 23 34.2 24.6C34.2 27.8 36.6 30.5 39.8 30.8C40.1 30.9 40.3 30.9 40.5 30.9C42 30.9 43.3 30.4 44.4 29.6H47.5C45.9 31.8 43.4 33.2 40.5 33.2C35.8 33.2 32 29.4 32 24.7C32 22.5 32.8 20.6 34.1 19C35.5 17.4 37.5 16.4 39.8 16.1H40.5C43.4 16.1 45.9 17.5 47.5 19.8H44.4V19.7Z" fill="#006D78"/>
</svg>
