<svg width="200" height="50" viewBox="0 0 200 50" fill="none" xmlns="http://www.w3.org/2000/svg">
<path d="M175.4 18L171.8 26.8C171.8 26.9 171.7 27 171.7 27.2L171.6 27.4L171.5 27.2C171.5 27.1 171.4 27 171.4 26.8L167.8 18H163L169.3 33.2L166.7 39H171.5L180 18H175.4ZM140.3 18.9C139.4 18.3 138.4 17.9 137.2 17.8C135.1 17.6 133.1 18.3 131.8 19.8V18H127.5V33.2H131.8V25.2C131.8 23.4 132.2 23 132.4 22.5C132.9 21.6 133.9 21.2 135 21.3C136.1 21.3 137.3 21.8 137.8 22.6C138.2 23.2 138.2 23.9 138.2 24.4V33.1H142.5V24C142.4 21.6 141.7 20 140.3 18.9ZM119.4 18.1C117.3 17.4 115 17.5 112.9 18.5C111.4 19.1 110.3 20.2 109.4 21.6C108.6 22.8 108.3 24.2 108.3 25.8C108.3 27.4 108.7 28.7 109.4 30C110.2 31.2 111.2 32.1 112.4 32.8C113.7 33.4 115.2 33.8 116.5 33.8C117.3 33.8 118 33.7 118.8 33.6C119.4 33.5 120.1 33.2 120.7 32.9C122 32.2 123 31.3 123.7 30.2C124.5 29 124.8 27.6 124.8 26C124.7 22.2 122.7 19.4 119.4 18.1ZM120.5 25.7C120.5 27 120 28.1 119.1 28.9C118.5 29.5 117.6 29.8 116.3 29.8C115.2 29.8 114.3 29.4 113.5 28.9C112.6 28.2 112.2 27.1 112.1 25.7C112.1 24.2 112.6 22.9 113.7 22C114.3 21.5 115.1 21.3 116.1 21.3C117.1 21.3 117.9 21.5 118.5 22C120 22.9 120.7 24.3 120.5 25.7ZM103.4 18.9C102.6 18.3 101.5 17.9 100.3 17.8H99.5002C97.7002 17.8 96.4002 18.5 95.1002 20L94.8002 20.2H94.3002C93.9002 19.7 93.5002 19.2 93.0002 19C92.2002 18.3 91.2002 17.9 90.0002 17.8C88.0002 17.6 86.4002 18.2 85.0002 19.6V18H80.7002V33.2H85.0002V25.1C85.0002 23.4 85.3002 23 85.5002 22.5C86.0002 21.6 87.0002 21.2 88.0002 21.2C89.0002 21.2 90.0002 21.7 90.5002 22.5C90.9002 23.1 90.9002 23.8 90.9002 24.6V33H95.3002V25C95.3002 23.5 95.6002 22.9 95.8002 22.4C96.3002 21.5 97.3002 21.2 98.3002 21.2C99.3002 21.2 100.2 21.8 100.7 22.5C101 23 101.1 23.6 101.1 24.1V33.1H105.4V24C105.4 23.1 105.3 22.4 105.1 21.7C104.9 20.5 104.3 19.5 103.4 18.9ZM158.6 28.6C158 29.2 156.5 30.3 154.5 30.4C152.9 30.4 151.5 30 150.6 29.1C150.2 28.6 149.8 28.1 149.7 27.5H161.6V27.4C161.7 26.8 161.7 26.2 161.7 25.7C161.7 25.2 161.6 24.5 161.3 23.5C160.8 21.8 159.8 20.4 158.4 19.3C156.9 18.2 155.4 17.8 155 17.8C151.9 17.3 148.4 18.7 146.6 21.5C145.3 23.5 145.3 25.4 145.5 26C145.5 26.7 145.6 29.1 147.5 31C149.6 33.3 152.8 33.4 153.8 33.6C158.1 33.7 160.9 31.2 161.6 30.5L158.6 28.6ZM151.2 22.2C151.8 21.7 152.6 21.5 153.6 21.5C154.6 21.5 155.4 21.7 156 22.2C156.6 22.7 157.1 23.3 157.4 24.2H149.8C150.1 23.3 150.6 22.7 151.2 22.2Z" fill="black"/>
<path d="M51.3 8.1001C41.7 8.1001 34 15.7001 34 25.0001C34 34.3001 41.8 41.9001 51.3 41.9001C60.8 41.9001 68.6 34.3001 68.6 25.0001C68.7 15.7001 60.8 8.1001 51.3 8.1001ZM51.3 31.2001C47.8 31.2001 44.8 28.4001 44.8 25.0001C44.8 21.6001 47.7 18.8001 51.3 18.8001C54.9 18.8001 57.8 21.6001 57.8 25.0001C57.7 28.4001 54.9 31.2001 51.3 31.2001ZM34 13.1001V37.7001H27.9L20 13.1001H34Z" fill="#8B3FFD"/>
</svg>
